<svg width="107" height="75" viewBox="0 0 107 75" fill="none" xmlns="http://www.w3.org/2000/svg">
<path d="M50.6524 18.363L23.9641 7.04465C23.7288 6.94557 23.459 7.01551 23.2982 7.21366L5.12907 30.066C4.78464 30.5031 5.18074 31.1325 5.71462 30.9985L12.0466 29.3724L17.0811 49.5612C17.1615 49.8759 17.4715 50.0624 17.7757 49.9808L48.8556 41.9904C49.1656 41.9088 49.3493 41.5941 49.2689 41.2852L44.2344 21.0964L50.5663 19.4703C51.1002 19.3304 51.1576 18.5844 50.6467 18.3688L50.6524 18.363Z" fill="#FFA89C"/>
<path d="M54 17H43C42.4477 17 42 17.4477 42 18V43C42 43.5523 42.4477 44 43 44H80C80.5523 44 81 43.5523 81 43V8.5C81 7.94772 80.5523 7.5 80 7.5H70.5C69.9477 7.5 69.5 7.05228 69.5 6.5V1C69.5 0.447715 69.0523 0 68.5 0H56C55.4477 0 55 0.447715 55 1V16C55 16.5523 54.5523 17 54 17Z" fill="#FFCAC2"/>
<rect x="58" y="4" width="3" height="3" fill="#F26957"/>
<rect x="70" y="13" width="3" height="3" fill="#F26957"/>
<rect x="65" y="22" width="3" height="3" fill="#F26957"/>
<rect x="53" y="22" width="3" height="3" fill="#F26957"/>
<rect x="58" y="13" width="3" height="3" fill="#F26957"/>
<rect x="64" y="4" width="3" height="3" fill="#F26957"/>
<rect x="76" y="13" width="3" height="3" fill="#F26957"/>
<rect x="71" y="22" width="3" height="3" fill="#F26957"/>
<rect x="59" y="22" width="3" height="3" fill="#F26957"/>
<rect x="64" y="13" width="3" height="3" fill="#F26957"/>
<path d="M1.0642 45.4213L5.67772 44.3455C7.19876 43.9912 8.41081 42.8458 8.85061 41.3484L10.1851 36.8032C10.2772 36.4881 10.5702 36.2755 10.8978 36.2848C11.2261 36.2941 11.5066 36.5229 11.5812 36.8427L12.6564 41.4562C13.0107 42.9761 14.1561 44.1882 15.6546 44.628L20.1999 45.9631C20.515 46.0557 20.7276 46.3481 20.7183 46.6764C20.709 47.0047 20.4802 47.2845 20.1604 47.3592L15.5468 48.435C14.0258 48.7888 12.8137 49.9346 12.374 51.4321L11.0394 55.9774C10.9468 56.2925 10.6538 56.5051 10.3256 56.4958C9.99796 56.4865 9.71751 56.2577 9.6434 55.9379L8.56823 51.3243C8.21385 49.8044 7.06856 48.5918 5.56999 48.1525L1.02474 46.8174C0.709725 46.7248 0.49704 46.4324 0.506334 46.1041C0.515628 45.7759 0.744455 45.496 1.0642 45.4213Z" fill="#FFF5DD"/>
<path d="M16.6125 54.2028L19.431 53.5459C20.36 53.3296 21.1006 52.6298 21.3691 51.7151L22.185 48.9383C22.2411 48.7451 22.4196 48.6159 22.6204 48.6216C22.8206 48.6273 22.992 48.7665 23.0372 48.9624L23.6941 51.781C23.9109 52.7094 24.6107 53.45 25.526 53.7184L28.3029 54.5338C28.4948 54.5904 28.6252 54.7695 28.6195 54.9697C28.6139 55.17 28.4735 55.3413 28.2787 55.387L25.4601 56.0439C24.5312 56.2602 23.7905 56.96 23.5216 57.8747L22.7062 60.6516C22.6501 60.8447 22.471 60.974 22.2708 60.9683C22.07 60.9626 21.8992 60.8235 21.854 60.6274L21.1965 57.8089C20.9803 56.8804 20.2805 56.1398 19.3652 55.8714L16.5883 55.056C16.3963 54.9994 16.266 54.8204 16.2716 54.6201C16.2773 54.4199 16.4176 54.2485 16.6125 54.2028Z" fill="#FFF5DD"/>
<path d="M32.3312 30.5687C32.025 30.5687 31.7562 30.3437 31.7125 30.0249L31.5875 29.1187C28.6812 28.5499 26.425 26.1812 26.025 23.2062C26 23.0437 26.0437 22.8749 26.15 22.7437C26.25 22.6124 26.4 22.5249 26.5625 22.4999L39.15 20.7999C39.15 20.7999 39.2062 20.7999 39.2312 20.7999C39.3687 20.7999 39.5 20.8437 39.6125 20.9312C39.7437 21.0312 39.8312 21.1812 39.8562 21.3437C40.2562 24.3187 38.7125 27.1999 36.0625 28.5187L36.1875 29.4249C36.2125 29.5874 36.1687 29.7562 36.0625 29.8874C35.9625 30.0187 35.8125 30.1062 35.65 30.1249L32.425 30.5624C32.425 30.5624 32.3687 30.5624 32.3375 30.5624L32.3312 30.5687Z" fill="#F26957"/>
<path d="M39.2312 21.4312C39.625 24.3499 37.9687 27.0687 35.375 28.1499L35.5625 29.5187L32.3375 29.9562L32.15 28.5874C29.3625 28.2374 27.0437 26.0562 26.65 23.1374L39.2375 21.4374L39.2312 21.4312ZM39.2375 20.1874C39.1812 20.1874 39.125 20.1874 39.0687 20.1999L26.4812 21.8999C26.15 21.9437 25.8562 22.1187 25.6562 22.3812C25.4562 22.6437 25.3687 22.9749 25.4125 23.3062C25.8312 26.3937 28.0812 28.8812 31.0375 29.6437L31.1 30.1187C31.1875 30.7437 31.7187 31.1999 32.3375 31.1999C32.3937 31.1999 32.45 31.1999 32.5062 31.1874L35.7312 30.7499C36.0625 30.7062 36.3562 30.5312 36.5562 30.2687C36.7562 30.0062 36.8437 29.6749 36.8 29.3437L36.7375 28.8687C39.3812 27.3499 40.8937 24.3499 40.475 21.2624C40.4312 20.9312 40.2562 20.6374 39.9937 20.4374C39.775 20.2687 39.5062 20.1812 39.2375 20.1812V20.1874Z" fill="#403F4C"/>
<path d="M26.5 22.8187C26.2125 22.8187 25.9563 22.6187 25.8938 22.3312C25.8813 22.275 24.6125 16.775 21.9313 11.0125C21.7875 10.7 21.9188 10.325 22.2313 10.1812C22.275 10.1562 23.3875 9.64998 25.2688 9.06873C25.3313 9.04998 25.3938 9.04373 25.45 9.04373C25.7 9.04373 25.9375 9.19373 26.0313 9.43748C26.1 9.60623 26.1813 9.82498 26.2813 10.0875C26.2375 9.86248 26.1875 9.64373 26.1438 9.42498C26.075 9.09998 26.275 8.77498 26.5938 8.69373C27.1688 8.54373 27.7563 8.39998 28.3375 8.27498C28.3813 8.26873 28.425 8.26248 28.4688 8.26248C28.5875 8.26248 28.7063 8.29998 28.8125 8.36248L28.8313 8.37498C28.9188 8.23123 29.0688 8.12498 29.2438 8.09373C29.8375 7.98123 30.4438 7.88748 31.0438 7.79998C32.4625 7.60623 33.9 7.51248 35.3313 7.50623C35.6625 7.50623 35.9313 7.76248 35.9563 8.09373C35.9938 8.71248 36.0375 9.39373 36.075 10.0562C36.1563 9.38123 36.2563 8.67498 36.375 8.05623C36.4313 7.76248 36.6875 7.54998 36.9875 7.54998C37 7.54998 37.0125 7.54998 37.0188 7.54998C38.9063 7.64998 40.0438 7.88123 40.0938 7.89373C40.4125 7.96248 40.625 8.26248 40.5875 8.58748C40.1188 12.1687 39.925 20.3937 39.9188 20.475C39.9125 20.7812 39.6813 21.0375 39.375 21.0812L26.5875 22.8125C26.5875 22.8125 26.5313 22.8125 26.5063 22.8125L26.5 22.8187Z" fill="#C1944C"/>
<path d="M35.3312 8.13745C35.425 9.61245 35.575 12.15 35.5812 12.9937L36.4437 12.7937C36.4437 12.7937 36.6312 10.0375 36.9812 8.17495C38.8375 8.2687 39.9562 8.5062 39.9562 8.5062C39.475 12.1625 39.2812 20.4625 39.2812 20.4625L26.4937 22.1937C26.4937 22.1937 25.2312 16.6437 22.4875 10.75C22.4875 10.75 23.5812 10.2375 25.4437 9.6687C25.8187 10.6125 26.6937 12.95 27.4375 15.7375L27.9562 15.6687C27.9562 15.6687 27.3812 12.3 26.7437 9.29995C27.275 9.1562 27.8437 9.0187 28.4562 8.8937C28.7937 10.5187 29.15 12.35 29.3437 13.7625L29.925 13.8437C29.925 13.8437 29.6687 11.3187 29.35 8.71245C29.9125 8.6062 30.5062 8.51245 31.1187 8.42495C32.675 8.21245 34.0937 8.13745 35.3187 8.13745H35.3312ZM35.3187 6.88745C33.8625 6.88745 32.3937 6.9937 30.95 7.18745C30.3375 7.2687 29.7187 7.3687 29.1187 7.4812C28.9562 7.51245 28.8062 7.57495 28.675 7.6562C28.6 7.6437 28.5312 7.63745 28.4562 7.63745C28.3687 7.63745 28.2812 7.6437 28.1937 7.66245C27.5937 7.78745 27 7.9312 26.425 8.08745C26.175 8.1562 25.9625 8.28745 25.8062 8.4687C25.6875 8.4312 25.5687 8.41245 25.4437 8.41245C25.325 8.41245 25.2 8.4312 25.075 8.4687C23.15 9.0562 22.0062 9.58745 21.9562 9.61245C21.3312 9.9062 21.0625 10.65 21.35 11.275C24 16.9687 25.2562 22.4125 25.2687 22.4687C25.4 23.0437 25.9125 23.4437 26.4875 23.4437C26.5437 23.4437 26.6 23.4437 26.6562 23.4312L39.4437 21.7C40.05 21.6187 40.5125 21.1062 40.525 20.4875C40.525 20.4062 40.7187 12.2125 41.1875 8.6687C41.275 8.0187 40.8437 7.4187 40.2062 7.2812C40.1562 7.2687 38.9687 7.02495 37.0375 6.92495C37.0125 6.92495 36.9937 6.92495 36.9687 6.92495C36.6687 6.92495 36.3875 7.0312 36.1625 7.2187C35.9375 7.01245 35.6375 6.88745 35.3125 6.88745H35.3187Z" fill="#403F4C"/>
<path d="M34.425 42.4687C34.2875 42.4687 34.1563 42.4249 34.0438 42.3437C33.9125 42.2437 33.825 42.0937 33.8 41.9312L32.2938 30.8C32.25 30.4562 32.4875 30.1437 32.8313 30.1L35.1 29.7937C35.1 29.7937 35.1563 29.7937 35.1813 29.7937C35.3188 29.7937 35.45 29.8375 35.5625 29.9187C35.6938 30.0187 35.7813 30.1687 35.8063 30.3312L37.3125 41.4625C37.3563 41.8062 37.1188 42.1187 36.775 42.1625L34.5063 42.4687C34.5063 42.4687 34.45 42.4687 34.425 42.4687Z" fill="#FFA89C"/>
<path d="M35.1938 30.4125L36.7 41.5437L34.4313 41.85L32.925 30.7187L35.1938 30.4125ZM35.1938 29.1625C35.1375 29.1625 35.0813 29.1625 35.025 29.175L32.7563 29.4812C32.425 29.525 32.1313 29.7 31.9313 29.9625C31.7313 30.225 31.6438 30.5562 31.6875 30.8875L33.1938 42.0187C33.2813 42.6437 33.8125 43.1 34.4313 43.1C34.4875 43.1 34.5438 43.1 34.6 43.0875L36.8688 42.7812C37.2 42.7375 37.4938 42.5625 37.6938 42.3C37.8938 42.0375 37.9813 41.7062 37.9375 41.375L36.4313 30.2437C36.3438 29.6187 35.8125 29.1625 35.1938 29.1625Z" fill="#403F4C"/>
<path d="M81.4812 52.3687C81.4812 52.3687 80.725 54.2749 80.7812 55.8124C80.3562 59.3124 86.0687 57.3312 86.0687 57.3312C88.5437 58.0124 104.056 63.4562 105.662 58.8312C107.269 54.2062 105.375 44.9437 102.031 43.6749C100.612 43.1374 98.4687 42.3249 94.4875 44.1999C96.5687 40.2749 96.3125 38.4874 95.8375 37.0374C94.7187 33.6374 85.55 31.3312 80.8562 32.7249C76.1687 34.1249 80.9125 49.8624 81.4812 52.3624V52.3687Z" fill="#FFAB15"/>
<path d="M98.0125 61.0687C94.6812 60.5749 90.7937 59.4937 87.1812 58.3749C86.7375 58.2374 86.3625 58.1249 86.0937 58.0437C85.2312 58.3187 82.3125 59.1187 80.875 57.9624C80.45 57.6187 79.9812 56.9687 80.1062 55.7874C80.0687 54.4312 80.575 52.8812 80.775 52.3249C80.7062 52.0499 80.6125 51.6749 80.4937 51.2187C79.8937 48.9124 78.775 44.6187 78.325 40.7187C77.7312 35.5499 78.5 32.7249 80.6687 32.0749C83.0125 31.3749 86.5375 31.5124 89.875 32.4249C91.5812 32.8937 95.65 34.2562 96.4937 36.8249C96.925 38.1312 97.2375 39.7749 95.8812 42.9062C99.1 41.8312 101.05 42.5687 102.281 43.0374C104.806 43.9937 105.987 48.1187 106.381 49.8437C107.144 53.2187 107.119 56.7499 106.319 59.0562C105.512 61.3812 102.2 61.6874 98.0187 61.0687H98.0125ZM86.175 56.6562C86.175 56.6562 86.2312 56.6687 86.2562 56.6749C86.55 56.7562 87.0062 56.8937 87.5812 57.0749C89.825 57.7687 94.0062 59.0562 97.7875 59.6687C101.981 60.3437 104.55 59.9687 105.019 58.6124C106.594 54.0812 104.631 45.3937 101.787 44.3187C100.4 43.7937 98.5 43.0749 94.7812 44.8249C94.5187 44.9499 94.2 44.8937 93.9937 44.6812C93.7937 44.4687 93.75 44.1499 93.8875 43.8874C95.8687 40.1437 95.6187 38.5562 95.1937 37.2562C94.2437 34.3687 85.6562 32.0187 81.0562 33.3874C79.6812 33.7937 79.1937 36.3437 79.6812 40.5687C80.1187 44.3749 81.2187 48.6062 81.8125 50.8812C81.9625 51.4687 82.0875 51.9312 82.15 52.2249C82.1812 52.3562 82.1687 52.4999 82.1187 52.6249C82.1125 52.6437 81.4125 54.4187 81.4687 55.7937C81.4687 55.8312 81.4687 55.8687 81.4687 55.8999C81.3812 56.6187 81.6437 56.8312 81.7312 56.9062C82.525 57.5437 84.85 57.0374 85.8562 56.6937C85.9625 56.6562 86.0687 56.6499 86.1812 56.6624L86.175 56.6562Z" fill="#403F4C"/>
<path d="M81.2562 59.3125C82.075 59.8625 87.5437 61.9938 89.4687 62.025C91.3937 62.0563 88.9687 73.9063 86.825 73.6063C84.6875 73.3063 80.9562 71.3625 79.25 68.9625C77.5437 66.5625 81.2562 59.3063 81.2562 59.3063V59.3125Z" fill="#FFD985"/>
<path d="M86.6812 74.2812C84.3 73.925 80.4562 71.8375 78.6937 69.3625C77.8375 68.1625 77.9312 66.0875 78.9625 63.0187C79.6875 60.8812 80.6062 59.075 80.6437 59L80.9937 58.3187L81.6312 58.7437C82.425 59.2687 87.7437 61.3187 89.475 61.3437C89.7375 61.3437 90.2187 61.45 90.525 62.0625C91.5125 64.0187 89.975 71.1187 88.4 73.325C87.8875 74.0437 87.325 74.3687 86.7312 74.2812C86.7125 74.2812 86.6937 74.2812 86.6812 74.275V74.2812ZM81.5625 60.2375C80.2625 62.9687 78.8187 67.1812 79.8062 68.5687C81.4437 70.875 85.0125 72.65 86.8812 72.925H86.9C87.075 72.8625 87.6937 72.2312 88.3875 70.0937C89.45 66.825 89.7 63.4062 89.3312 62.7062C87.4562 62.6062 83.3 61.05 81.5625 60.2375Z" fill="#403F4C"/>
<path d="M44.5688 45.5624C43.6938 45.1124 39.175 41.3624 38.2125 39.6999C37.25 38.0312 28.0625 45.8999 29.3625 47.6249C30.6625 49.3499 34.1688 51.6687 37.1 51.9999C40.0313 52.3312 44.5688 45.5687 44.5688 45.5687V45.5624Z" fill="#FFD985"/>
<path d="M36.7625 52.6375C33.775 52.1937 30.2188 49.8937 28.8188 48.0312C28.4563 47.55 28.4688 46.9062 28.85 46.1062C30.0125 43.6562 35.4813 38.875 37.6688 38.7875C38.3625 38.7562 38.6813 39.1312 38.8063 39.3562C39.6688 40.8562 44.0375 44.5187 44.8813 44.9562L45.5625 45.3062L45.1375 45.9437C44.65 46.6687 40.2688 53.0437 37.025 52.675C36.9375 52.6625 36.85 52.6562 36.7625 52.6437V52.6375ZM29.925 47.225C31.0625 48.725 34.3563 50.9937 37.1813 51.3125C38.875 51.5062 41.8625 48.2 43.6188 45.7375C42.0625 44.6125 38.6875 41.7312 37.6938 40.1375C37.025 40.175 34.3063 41.725 31.6875 44.5375C30.15 46.1875 29.9 47.0312 29.925 47.2187V47.225Z" fill="#403F4C"/>
<path d="M60.0125 33.3749C60.6438 32.5249 68.6 23.6811 76.25 28.2999C83.9 32.9186 79.3563 40.7874 84.6188 44.4186C89.8813 48.0499 84.8938 53.2186 83.7313 55.3624C80.8125 51.5561 60.0125 33.3749 60.0125 33.3749Z" fill="#FFD985"/>
<path d="M83.8312 56.6124L83.1938 55.7749C80.35 52.0624 59.775 34.0687 59.5688 33.8874L59.0938 33.4749L59.4687 32.9687C59.55 32.8624 68.1125 22.5874 76.6062 27.7124C81.075 30.4062 81.6437 34.1687 82.1437 37.4874C82.5375 40.1124 82.8813 42.3812 85.0125 43.8499C89.9813 47.2749 86.8125 51.9562 85.1125 54.4749C84.7875 54.9499 84.5125 55.3624 84.3375 55.6812L83.8375 56.6062L83.8312 56.6124ZM60.9688 33.3062C64.05 36.0062 79.5688 49.6562 83.65 54.1999C83.75 54.0437 83.8625 53.8812 83.975 53.7124C86.1375 50.5062 87.7875 47.4312 84.2313 44.9749C81.6125 43.1687 81.1937 40.3812 80.7875 37.6937C80.3125 34.5249 79.8188 31.2499 75.9 28.8812C72.9188 27.0812 69.5375 27.2499 65.8438 29.3749C63.5375 30.6999 61.7563 32.4374 60.975 33.2999L60.9688 33.3062Z" fill="#403F4C"/>
<path d="M84.4437 57.2875C83 67.0437 72.1125 70.6 59.6125 68.7437C47.1125 66.8875 37.7312 60.3249 39.175 50.5687C40.6187 40.8124 52.35 31.5687 64.85 33.4187C77.35 35.2749 85.8875 47.5312 84.4437 57.2812V57.2875Z" fill="#FFC112"/>
<path d="M59.5062 69.4187C45.3437 67.3187 37.1 59.8812 38.4937 50.4687C39.2375 45.4625 42.5062 40.5875 47.4687 37.0875C52.7 33.3937 58.9062 31.8562 64.9437 32.75C70.9812 33.6437 76.475 36.9187 80.4062 41.975C84.1375 46.7625 85.85 52.3812 85.1062 57.3875C83.7125 66.8 73.6562 71.5187 59.5 69.4187H59.5062ZM64.7437 34.1C52.375 32.2625 41.2 41.5 39.8437 50.675C38.5687 59.2625 46.3687 66.0937 59.7062 68.0687C73.0437 70.05 82.4875 65.775 83.7625 57.1875C85.125 48.0187 77.1125 35.9312 64.7437 34.1Z" fill="#403F4C"/>
<path d="M52.2375 58.125C55.3683 58.125 57.9063 55.587 57.9063 52.4562C57.9063 49.3255 55.3683 46.7875 52.2375 46.7875C49.1067 46.7875 46.5688 49.3255 46.5688 52.4562C46.5688 55.587 49.1067 58.125 52.2375 58.125Z" fill="white"/>
<path d="M71.3875 60.9687C74.5183 60.9687 77.0562 58.4307 77.0562 55.3C77.0562 52.1692 74.5183 49.6312 71.3875 49.6312C68.2567 49.6312 65.7188 52.1692 65.7188 55.3C65.7188 58.4307 68.2567 60.9687 71.3875 60.9687Z" fill="white"/>
<path d="M58.3813 61.4C58.6125 61.5562 59.0875 61.8187 60.6813 62.0562C62.275 62.2937 63.6688 62.0812 63.8 61.1625C63.9313 60.2437 62.9 59.8125 62.1125 60.2437C61.5313 60.5625 60.3 60.3562 59.6563 59.8062C58.8 59.075 57.975 59.7125 57.8313 60.1312C57.6625 60.6187 57.975 61.1312 58.375 61.4062L58.3813 61.4Z" fill="#403F4C"/>
<path d="M38.025 45.2062C36.6 44.3499 34.75 42.5187 34.6687 42.4437L35.0562 42.0562C35.0562 42.0562 36.9375 43.9187 38.3062 44.7374L38.025 45.2062Z" fill="#FFBA1F"/>
<path d="M36.4188 46.6C34.9938 45.7437 33.1437 43.9124 33.0625 43.8374L33.45 43.45C33.45 43.45 35.3312 45.3125 36.7 46.1312L36.4188 46.6Z" fill="#FFBA1F"/>
<path d="M34.975 48.3812C33.4062 47.4437 31.375 45.4312 31.2937 45.3437L31.6812 44.9562C31.6812 44.9562 33.75 47.0062 35.2625 47.9124L34.9812 48.3812H34.975Z" fill="#FFBA1F"/>
<path d="M88.8375 65.9999C88.7312 65.9687 86.2312 65.2437 84.7937 64.4062L85.0687 63.9312C86.45 64.7312 88.9625 65.4624 88.9875 65.4749L88.8375 65.9999Z" fill="#FFBA1F"/>
<path d="M88.3937 68.0812C88.2875 68.0499 85.7875 67.325 84.35 66.4875L84.625 66.0125C86.0062 66.8125 88.5187 67.5437 88.5437 67.5562L88.3937 68.0812Z" fill="#FFBA1F"/>
<path d="M87.9375 70.3687C87.8187 70.3374 85.075 69.5374 83.4937 68.6187L83.7687 68.1437C85.2937 69.0249 88.0625 69.8312 88.0875 69.8437L87.9375 70.3687Z" fill="#FFBA1F"/>
<path d="M71.9625 35.0625L71.6875 34.5937C73.3688 33.6125 75.775 31.3437 75.8 31.3187L76.175 31.7125C76.075 31.8062 73.7 34.0437 71.9625 35.0625Z" fill="#FFBA1F"/>
<path d="M74.3687 36.3687L74.0938 35.9C75.775 34.9187 78.1812 32.65 78.2062 32.625L78.5812 33.0187C78.4812 33.1125 76.1062 35.35 74.3687 36.3687Z" fill="#FFBA1F"/>
<path d="M74.6375 57.9875C74.45 57.9625 74.2813 57.8563 74.1688 57.6875C73.3313 56.4188 72.3188 55.725 71.1625 55.6125C69.8188 55.4875 68.675 56.2 68.4688 56.4125C68.2063 56.6813 67.775 56.6938 67.5063 56.4313C67.2375 56.1688 67.225 55.7375 67.4875 55.4688C67.9188 55.0188 69.4813 54.0938 71.2875 54.2625C72.3813 54.3625 73.9625 54.9125 75.3062 56.9438C75.5125 57.2563 75.425 57.6813 75.1125 57.8875C74.9688 57.9813 74.8 58.0188 74.6375 57.9938V57.9875Z" fill="#403F4C"/>
<path d="M48.6437 54.1312C48.4812 54.1062 48.3312 54.025 48.2187 53.8937C47.975 53.6062 48.0187 53.175 48.3062 52.9312C50.1812 51.375 51.8562 51.3125 52.9312 51.5312C54.7125 51.8937 55.9375 53.2375 56.2187 53.7937C56.3875 54.1312 56.2562 54.5375 55.925 54.7125C55.5937 54.8875 55.1812 54.75 55.0062 54.4187C54.875 54.1562 53.9812 53.1437 52.6562 52.875C51.5187 52.6437 50.35 53.0187 49.1812 53.9875C49.025 54.1187 48.8312 54.1625 48.6437 54.1375V54.1312Z" fill="#403F4C"/>
</svg>
