<svg width="342" height="205" viewBox="0 0 342 205" fill="none" xmlns="http://www.w3.org/2000/svg">
  <path
    d="M41.9995 144L330.999 170C328.834 167.047 334.738 132.189 331.681 120.378C327.859 105.614 312.955 103.504 310.662 101.395C316.777 101.395 316.012 99.708 319.069 98.4425C321.515 97.4301 326.713 98.8644 329.006 99.708L328.624 100.552L331.681 101.395L332.827 95.4897L330.152 94.6461L329.77 95.4897C328.496 95.2085 325.49 94.4773 323.655 93.8024C321.362 92.9588 319.069 90.4278 317.159 87.8968C315.248 85.3658 307.222 84.5222 304.929 84.5222C304.929 83.8472 303.655 81.9912 303.019 81.1475C304.292 79.179 306.611 72.1204 305.694 59.6343C304.776 47.1481 298.687 38.121 295.757 35.1682C296.394 33.9027 298.127 30.528 299.961 27.1534C302.254 22.9351 300.343 22.9351 298.433 22.9351C296.522 22.9351 295.757 24.2006 294.229 22.0915C292.7 19.9823 290.025 19.1387 288.878 19.1387C287.732 19.1387 286.968 17.8732 286.203 18.7168C285.439 19.5605 286.203 27.9971 287.732 33.059C285.439 32.6372 280.089 34.7463 272.827 37.2773C268.547 29.8531 258.815 26.3098 254.484 25.4661L247.605 6.06195L218.56 1C214.993 4.37464 206.942 11.9676 203.273 15.3422C201.745 10.9552 199.324 10.7021 198.305 11.1239L197.541 8.1711L193.337 9.43659L194.101 12.3894C193.082 12.9518 190.968 14.3298 190.662 15.3422C190.28 16.6077 191.044 19.5604 192.191 25.0442C163.528 6.90559 146.331 33.9026 144.42 36.4336C142.585 36.4336 140.853 28.8407 140.216 25.0442L140.98 24.6224L140.216 20.8259L133.337 22.9351L134.483 26.3097H135.248C135.503 27.4346 136.089 30.2749 136.394 32.6371C136.776 35.5899 136.776 37.2772 134.866 42.3392C132.573 39.8082 121.49 39.3864 115.375 43.1828C85.7192 45.5451 78.8147 72.8515 79.0695 86.2094C76.7765 90.1465 71.044 100.805 66.458 111.941C49.6428 111.266 43.1459 133.032 41.9995 144Z"
    fill="#025F88" />
  <path
    d="M12.4846 170.659L211.592 85.6245C209.126 84.4506 200.7 59.4737 194.521 52.7977C186.797 44.4528 176.258 48.3337 174.006 47.7589C178.025 45.5985 176.927 44.7605 178.489 42.8493C179.739 41.3203 183.661 40.4258 185.466 40.1696L185.513 40.8587L187.82 40.3325L186.488 36.0493L184.432 36.4405L184.479 37.1295C183.543 37.3949 181.309 37.977 179.865 38.1819C178.06 38.438 175.66 37.5862 173.51 36.5992C171.361 35.6123 165.789 37.8939 164.282 38.704C164.044 38.2608 162.551 37.4921 161.835 37.1631C161.977 35.4203 161.009 29.9659 155.998 22.0906C150.987 14.2153 143.798 10.4388 140.83 9.53493C140.802 8.47886 140.749 5.6507 140.763 2.78653C140.781 -0.793675 139.525 -0.118548 138.27 0.556577C137.014 1.2317 136.958 2.33277 135.209 1.48784C133.46 0.642914 131.404 1.03408 130.65 1.43915C129.897 1.84423 128.948 1.28326 128.743 2.10733C128.539 2.93139 132.02 8.20146 134.811 10.9854C133.156 11.5186 130.384 14.794 126.506 19.0215C121.072 15.6584 113.424 16.7702 110.28 17.7465L98.9089 7.4347L78.034 14.3725C76.8813 17.8488 74.2708 25.6795 73.0511 29.1918C70.4977 26.851 68.8177 27.54 68.2969 28.177L66.7521 26.508L64.4362 28.8243L65.9809 30.4933C65.5097 31.2227 64.6065 32.8748 64.763 33.6476C64.9586 34.6136 66.5033 36.2826 69.1928 39.4786C43.9524 37.6942 42.1815 61.4987 41.8192 63.8359C40.6137 64.484 36.7945 60.11 35.0356 57.842L35.389 57.295L33.5464 55.072L29.7702 58.8874L31.715 60.6984L32.2173 60.4284C32.7819 61.077 34.1697 62.7352 35.2046 64.1784C36.4982 65.9824 37.0939 67.0904 37.6252 71.0896C35.2247 70.2377 27.7923 73.8764 25.1141 78.5299C6.45835 90.5591 11.5611 110.93 16.4444 119.612C16.3274 123.007 16.3228 132.032 17.2405 140.965C5.95136 146.463 9.36611 163.052 12.4846 170.659Z"
    fill="#025F88" />
  <path
    d="M334.023 205H6.99972C2.58144 205 -0.539733 201.466 0.134838 197.1C2.529 181.603 8.09703 147.994 10.7972 138.552C15.1666 123.271 32.2074 121.089 34.829 118.906C27.8379 118.906 28.7118 117.159 25.2163 115.85C22.4198 114.802 16.4774 116.286 13.8558 117.159L14.2927 118.033L10.7972 118.906L9.48634 112.794L12.5449 111.92L12.9819 112.794C14.4384 112.503 17.8756 111.746 19.973 111.047C22.5946 110.174 25.2163 107.555 27.401 104.935C29.5857 102.316 38.7615 101.443 41.3832 101.443C41.3832 100.744 42.8396 98.8231 43.5679 97.9499C42.1114 95.9125 39.4606 88.6071 40.5093 75.6844C41.5579 62.7617 48.5199 53.4189 51.8698 50.3629C51.1416 49.0531 49.1607 45.5605 47.0634 42.0679C44.4418 37.7021 46.6265 37.7021 48.8112 37.7021C50.9959 37.7021 51.8698 39.0118 53.6176 36.8289C55.3653 34.646 58.4239 33.7729 59.7348 33.7729C61.0456 33.7729 61.9195 32.4631 62.7934 33.3363C63.6672 34.2095 62.7934 42.941 61.0456 48.18C63.6672 47.7434 69.7844 49.9263 78.0863 52.5457C82.9801 44.862 94.1076 41.1947 99.0596 40.3216L106.925 20.2389L140.132 15C144.21 18.4926 153.415 26.351 157.61 29.8437C159.358 25.3033 162.125 25.0413 163.29 25.4779L164.164 22.4218L168.97 23.7316L168.097 26.7876C169.262 27.3697 171.679 28.7959 172.029 29.8437C172.466 31.1534 171.592 34.2094 170.281 39.8849C203.052 21.1121 222.714 49.0531 224.899 51.6725C226.996 51.6725 228.977 43.8141 229.705 39.8849L228.832 39.4483L229.705 35.5191L237.57 37.702L236.26 41.1947H235.386C235.094 42.3589 234.424 45.2985 234.075 47.7433C233.638 50.7994 233.638 52.5457 235.823 57.7846C238.444 55.1651 251.116 54.7285 258.107 58.6578C292.013 61.1026 299.908 89.3638 299.616 103.189C302.238 107.263 308.792 118.294 314.035 129.82C330.224 129.232 338.756 174.888 341.831 196.105C342.517 200.837 338.805 205 334.023 205Z"
    fill="#004867" />
</svg>