<svg width="69" height="54" viewBox="0 0 69 54" fill="none" xmlns="http://www.w3.org/2000/svg">
<path d="M3.91113 24.1422L45.9685 13.86L43.9295 5.56052L1.87213 15.8378L3.91114 24.1374L3.91113 24.1422ZM33.3682 10.4264C34.1917 10.224 35.0276 10.7301 35.2305 11.5517C35.4335 12.3734 34.9262 13.2073 34.1027 13.4098C33.2792 13.6122 32.4434 13.1061 32.2404 12.2845C32.0375 11.4628 32.5447 10.6289 33.3682 10.4264ZM13.4915 15.2855C14.315 15.083 15.1508 15.5892 15.3538 16.4108C15.5567 17.2325 15.0494 18.0664 14.2259 18.2689C13.4024 18.4713 12.5666 17.9652 12.3637 17.1436C12.1607 16.3219 12.668 15.488 13.4915 15.2855Z" fill="#2D9DDC"/>
<path d="M6.28837 33.826L8.15828 41.4359L11.8542 40.5296L9.98433 32.9197L44.6449 24.4452L46.5148 32.0551L50.2107 31.1488L48.3408 23.5389L46.3018 15.2393L4.24937 25.5216L6.28838 33.8211L6.28837 33.826ZM35.7455 20.1101C36.569 19.9077 37.4048 20.4138 37.6077 21.2354C37.8107 22.0571 37.3034 22.891 36.4799 23.0935C35.6564 23.296 34.8206 22.7898 34.6177 21.9682C34.4147 21.1465 34.922 20.3126 35.7455 20.1101ZM15.8736 24.9693C16.6971 24.7668 17.5329 25.2729 17.7359 26.0946C17.9388 26.9162 17.4316 27.7501 16.6081 27.9526C15.7846 28.1551 14.9488 27.6489 14.7458 26.8273C14.5429 26.0057 15.0501 25.1717 15.8736 24.9693Z" fill="#2D9DDC"/>
<path d="M43.0826 0.14421L0.103058 10.6512L1.00876 14.3391L43.9884 3.83205L43.0826 0.14421Z" fill="#2D9DDC"/>
<g clip-path="url(#clip0_339_4)">
<path d="M51.6666 40.4783C51.6666 40.4783 51.3498 41.8217 51.5416 42.8407C51.6041 45.2115 55.2184 43.3274 55.2184 43.3274C56.9358 43.5353 67.8244 45.6274 68.4372 42.3915C69.05 39.1557 66.8698 33.1747 64.5145 32.6589C63.514 32.4426 62.005 32.1141 59.5371 33.7528C60.5376 30.9328 60.1916 29.7724 59.7289 28.8532C58.645 26.6987 52.3003 26.0707 49.3072 27.464C46.3182 28.8574 51.0413 38.8687 51.6666 40.4741V40.4783Z" fill="#FFAB15"/>
<path d="M63.5515 44.6375C61.2796 44.6375 58.5783 44.3006 56.0562 43.9138C55.7436 43.868 55.4851 43.8264 55.2975 43.8015C54.7514 44.0677 52.8797 44.8912 51.8084 44.2632C51.4915 44.076 51.1122 43.6892 51.0788 42.8906C50.9204 41.9881 51.1039 40.9067 51.1831 40.5198C51.1122 40.3452 51.008 40.1039 50.8829 39.8128C50.2534 38.3362 49.082 35.5911 48.3984 33.0374C47.4896 29.6559 47.7231 27.6969 49.1071 27.0522C50.5994 26.3576 52.9673 26.0998 55.285 26.3784C56.4731 26.5198 59.3203 27.0273 60.1374 28.6535C60.5543 29.4812 60.9253 30.5418 60.3291 32.7629C62.3718 31.7314 63.7433 32.0267 64.6104 32.218C66.3904 32.6048 67.5868 35.2335 68.0204 36.344C68.8624 38.5151 69.1959 40.8651 68.8916 42.483C68.5831 44.1134 66.4029 44.6417 63.5557 44.6417L63.5515 44.6375ZM55.2183 42.8698C55.2183 42.8698 55.2559 42.8698 55.2725 42.8698C55.4726 42.8948 55.7936 42.9447 56.198 43.0029C57.7654 43.2441 60.6793 43.6892 63.2639 43.7183C66.1278 43.7516 67.8078 43.2483 67.987 42.3C68.5873 39.1265 66.4196 33.5406 64.4145 33.1039C63.4348 32.8918 62.0967 32.6007 59.7872 34.1313C59.6205 34.2394 59.4037 34.2311 59.2495 34.1105C59.0911 33.9898 59.0327 33.7819 59.0994 33.5947C60.054 30.9078 59.7289 29.8764 59.312 29.0528C58.3949 27.2228 52.4295 26.5074 49.4989 27.8716C48.6235 28.2792 48.5485 30.0261 49.2905 32.7878C49.9575 35.2792 51.1122 37.9869 51.7333 39.4426C51.8917 39.8169 52.021 40.1122 52.0918 40.3036C52.1252 40.3909 52.1335 40.4866 52.1127 40.5739C52.1127 40.5864 51.8209 41.8383 51.9918 42.745C51.996 42.77 52.0001 42.795 52.0001 42.8199C52.0126 43.3065 52.2127 43.423 52.2753 43.4604C52.8672 43.8098 54.3721 43.24 55.0057 42.9114C55.0724 42.8781 55.1433 42.8573 55.2183 42.8573V42.8698Z" fill="#403F4C"/>
<path d="M53.0631 43.0986C53.53 43.5728 56.8358 45.7439 58.0989 46.0351C59.362 46.3262 56.1063 53.7837 54.7348 53.2888C53.3633 52.7938 51.1789 50.9929 50.3869 49.1711C49.5948 47.3494 53.0631 43.0945 53.0631 43.0945V43.0986Z" fill="#FFD985"/>
<path d="M54.8765 53.7754C54.7765 53.7754 54.6764 53.7588 54.5805 53.7213C53.0548 53.1723 50.787 51.2424 49.9658 49.3583C49.0904 47.3411 52.3336 43.2692 52.7046 42.8116L53.0298 42.4124L53.3925 42.7825C53.8427 43.24 57.0651 45.3321 58.2031 45.59C58.374 45.6274 58.6783 45.7605 58.7951 46.2097C59.1703 47.6364 57.161 52.0951 55.8145 53.3262C55.4851 53.6257 55.1725 53.7754 54.8723 53.7754H54.8765ZM53.134 43.7516C51.8917 45.3654 50.3535 47.94 50.8121 48.9923C51.5749 50.7433 53.6884 52.4195 54.8807 52.8562C55.0057 52.8396 55.5018 52.511 56.2605 51.1967C57.557 48.9548 58.0239 46.9043 57.9155 46.4635C56.6941 46.1349 54.172 44.5336 53.134 43.7516Z" fill="#403F4C"/>
<path d="M24.3201 43.0986C23.8532 43.5728 20.5474 45.7439 19.2843 46.0351C18.0212 46.3262 21.277 53.7837 22.6485 53.2888C24.02 52.7938 26.2043 50.9929 26.9964 49.1711C27.7884 47.3494 24.3201 43.0945 24.3201 43.0945V43.0986Z" fill="#FFD985"/>
<path d="M22.5067 53.7754C22.2107 53.7754 21.8939 53.6257 21.5646 53.3262C20.2139 52.0951 18.2088 47.6364 18.584 46.2097C18.7007 45.7605 19.005 45.6274 19.1759 45.59C20.314 45.328 23.5405 43.24 23.9866 42.7825L24.3493 42.4124L24.6744 42.8116C25.0454 43.2692 28.2928 47.3411 27.4133 49.3583C26.592 51.2466 24.3243 53.1723 22.7985 53.7213C22.7026 53.7546 22.6026 53.7754 22.5025 53.7754H22.5067ZM19.4677 46.4635C19.3594 46.9043 19.8263 48.9548 21.1227 51.1967C21.8814 52.511 22.3775 52.8396 22.5025 52.8562C23.6948 52.4195 25.8125 50.7475 26.5712 48.9923C27.0297 47.94 25.4873 45.3654 24.2492 43.7516C23.2154 44.5294 20.6933 46.1349 19.4677 46.4635Z" fill="#403F4C"/>
<path d="M35.463 29.9555C35.7965 29.3274 40.232 22.656 45.793 24.9727C51.354 27.2894 49.1029 32.9792 52.9714 34.8759C56.8441 36.7725 54.0261 40.7029 53.4633 42.2502C51.1414 40.0042 35.463 29.9596 35.463 29.9596V29.9555Z" fill="#FFD985"/>
<path d="M53.6551 43.0695L53.1465 42.5745C50.8829 40.3868 35.3713 30.4379 35.217 30.3381L34.8585 30.1093L35.0586 29.735C35.1003 29.6559 39.7984 21.9697 45.9722 24.5442C49.2196 25.9002 49.97 28.3458 50.6328 30.5044C51.1581 32.2139 51.6083 33.6862 53.1757 34.4557C56.8275 36.2442 55.1808 39.6756 54.2929 41.5181C54.1262 41.8675 53.9803 42.1669 53.8969 42.3999L53.6551 43.0653V43.0695ZM36.0924 29.814C38.4144 31.3072 50.1242 38.8603 53.2924 41.4848C53.3466 41.3725 53.4008 41.2519 53.4633 41.1271C54.5889 38.7813 55.3851 36.5686 52.7672 35.2876C50.8412 34.3434 50.2868 32.53 49.749 30.7789C49.1154 28.716 48.4651 26.5823 45.6137 25.3969C43.4502 24.4943 41.2074 24.9394 38.9522 26.7195C37.5473 27.83 36.5302 29.1652 36.0924 29.814Z" fill="#403F4C"/>
<path d="M54.1262 43.4605C54.1262 50.0945 47.2145 53.5383 38.6937 53.5383C30.1729 53.5383 23.2613 50.0945 23.2613 43.4605C23.2613 36.8265 30.1729 29.5104 38.6937 29.5104C47.2145 29.5104 54.1262 36.8265 54.1262 43.4605Z" fill="#FFC112"/>
<path d="M38.6937 54C29.039 54 22.7985 49.8657 22.7985 43.4605C22.7985 40.054 24.4993 36.4854 27.4633 33.6655C30.5898 30.6916 34.5792 29.0529 38.6937 29.0529C42.8082 29.0529 46.7976 30.6916 49.9241 33.6655C52.8881 36.4854 54.5889 40.0582 54.5889 43.4605C54.5889 49.8615 48.3484 54 38.6937 54ZM38.6937 29.972C30.2605 29.972 23.7198 37.2258 23.7198 43.4646C23.7198 49.3084 29.5976 53.0849 38.6937 53.0849C47.7898 53.0849 53.6676 49.3084 53.6676 43.4646C53.6676 37.2258 47.1269 29.972 38.6937 29.972Z" fill="#403F4C"/>
<path d="M32.1655 47.2412C34.2768 47.2412 35.9882 45.5336 35.9882 43.4272C35.9882 41.3208 34.2768 39.6132 32.1655 39.6132C30.0543 39.6132 28.3429 41.3208 28.3429 43.4272C28.3429 45.5336 30.0543 47.2412 32.1655 47.2412Z" fill="white"/>
<path d="M32.7367 39.8794C31.2568 39.8794 30.0604 41.0773 30.0604 42.5496C30.0604 43.1943 30.2896 43.7849 30.669 44.2466C30.7482 43.8889 31.0692 43.6186 31.4527 43.6186C31.8946 43.6186 32.2573 43.9762 32.2573 44.4213C32.2573 44.7 32.1155 44.9412 31.8988 45.0868C32.1614 45.1741 32.4448 45.224 32.7367 45.224C34.2165 45.224 35.4129 44.0262 35.4129 42.5538C35.4129 41.0814 34.2124 39.8836 32.7367 39.8836V39.8794Z" fill="#403F4C"/>
<path d="M32.7367 45.3113C32.4449 45.3113 32.153 45.2656 31.8696 45.1699L31.6903 45.1117L31.8487 45.0077C32.0447 44.8746 32.1656 44.6542 32.1656 44.4171C32.1656 44.0261 31.8446 43.7059 31.4527 43.7059C31.1234 43.7059 30.8316 43.9388 30.7607 44.2632L30.719 44.4462L30.5981 44.3006C30.1938 43.8098 29.9687 43.1859 29.9687 42.5454C29.9687 41.0231 31.2109 39.7837 32.7367 39.7837C34.2624 39.7837 35.5047 41.0231 35.5047 42.5454C35.5047 44.0677 34.2624 45.3072 32.7367 45.3072V45.3113ZM32.0905 45.0451C32.3031 45.0992 32.5199 45.1283 32.7367 45.1283C34.1624 45.1283 35.3212 43.972 35.3212 42.5496C35.3212 41.1271 34.1624 39.9709 32.7367 39.9709C31.311 39.9709 30.1521 41.1271 30.1521 42.5496C30.1521 43.0903 30.323 43.6185 30.6356 44.0552C30.7774 43.7433 31.0984 43.527 31.4527 43.527C31.9446 43.527 32.349 43.9263 32.349 44.4212C32.349 44.6583 32.2531 44.8829 32.0905 45.0493V45.0451Z" fill="#403F4C"/>
<path d="M45.2219 47.2412C47.3331 47.2412 49.0445 45.5336 49.0445 43.4272C49.0445 41.3208 47.3331 39.6132 45.2219 39.6132C43.1106 39.6132 41.3992 41.3208 41.3992 43.4272C41.3992 45.5336 43.1106 47.2412 45.2219 47.2412Z" fill="white"/>
<path d="M45.5345 39.7339C44.0546 39.7339 42.8582 40.9317 42.8582 42.4041C42.8582 43.0488 43.0875 43.6394 43.4668 44.1011C43.546 43.7434 43.867 43.473 44.2506 43.473C44.6924 43.473 45.0551 43.8307 45.0551 44.2758C45.0551 44.5544 44.9134 44.7957 44.6966 44.9413C44.9592 45.0286 45.2427 45.0785 45.5345 45.0785C47.0144 45.0785 48.2108 43.8806 48.2108 42.4083C48.2108 40.9359 47.0102 39.738 45.5345 39.738V39.7339Z" fill="#403F4C"/>
<path d="M45.5345 45.17C45.2427 45.17 44.9509 45.1242 44.6674 45.0285L44.4882 44.9703L44.6466 44.8663C44.8425 44.7332 44.9634 44.5128 44.9634 44.2757C44.9634 43.8848 44.6424 43.5645 44.2506 43.5645C43.9212 43.5645 43.6294 43.7974 43.5586 44.1218L43.5169 44.3048L43.396 44.1593C42.9916 43.6685 42.7665 43.0446 42.7665 42.4041C42.7665 40.8818 44.0088 39.6423 45.5345 39.6423C47.0603 39.6423 48.3025 40.8818 48.3025 42.4041C48.3025 43.9264 47.0603 45.1658 45.5345 45.1658V45.17ZM44.8884 44.9038C45.101 44.9578 45.3177 44.987 45.5345 44.987C46.9602 44.987 48.1191 43.8307 48.1191 42.4082C48.1191 40.9858 46.9602 39.8295 45.5345 39.8295C44.1088 39.8295 42.9499 40.9858 42.9499 42.4082C42.9499 42.9489 43.1209 43.4772 43.4335 43.9139C43.5752 43.6019 43.8962 43.3856 44.2506 43.3856C44.7425 43.3856 45.1468 43.7849 45.1468 44.2799C45.1468 44.517 45.0509 44.7416 44.8884 44.9079V44.9038Z" fill="#403F4C"/>
<path d="M37.143 48.7719C37.3139 48.855 37.6557 48.9798 38.7396 48.9798C39.8234 48.9798 40.7322 48.7011 40.7322 48.0773C40.7322 47.4534 39.9985 47.2662 39.5191 47.6322C39.1606 47.9026 38.3227 47.8859 37.8391 47.5823C37.1972 47.1789 36.7053 47.6863 36.6552 47.9774C36.5927 48.3185 36.8512 48.6263 37.143 48.7719Z" fill="#403F4C"/>
<path d="M20.3557 48.855L20.1806 48.5305C20.1806 48.5305 21.7522 47.6862 22.5526 46.9667L22.7985 47.2412C21.9648 47.9898 20.4182 48.8217 20.3557 48.855Z" fill="#FFBA1F"/>
<path d="M20.9393 50.161L20.7642 49.8366C20.7642 49.8366 22.3358 48.9923 23.1362 48.2727L23.3822 48.5472C22.5484 49.2959 21.0018 50.1277 20.9393 50.161Z" fill="#FFBA1F"/>
<path d="M21.5604 51.6042L21.3853 51.2798C21.3853 51.2798 23.1153 50.3523 23.9991 49.5579L24.2451 49.8324C23.3321 50.6559 21.6313 51.5668 21.5604 51.6042Z" fill="#FFBA1F"/>
<path d="M57.1276 48.5597C57.0609 48.5264 55.5143 47.6946 54.6848 46.9459L54.9307 46.6714C55.7311 47.3909 57.286 48.2269 57.3027 48.2353L57.1276 48.5597Z" fill="#FFBA1F"/>
<path d="M56.5482 49.8699C56.4815 49.8366 54.9349 49.0047 54.1053 48.2561L54.3513 47.9816C55.1517 48.7011 56.7066 49.5371 56.7233 49.5454L56.5482 49.8699Z" fill="#FFBA1F"/>
<path d="M55.9228 51.3089C55.852 51.2715 54.1512 50.3606 53.2382 49.5371L53.4842 49.2626C54.3638 50.057 56.0771 50.9762 56.0979 50.9845L55.9228 51.3089Z" fill="#FFBA1F"/>
<path d="M43.6044 29.9014L43.3751 29.6144C44.4006 28.795 45.7804 27.0481 45.7971 27.0315L46.0848 27.2603C46.0264 27.3351 44.6632 29.057 43.6044 29.9055V29.9014Z" fill="#FFBA1F"/>
<path d="M45.3386 30.5336L45.1093 30.2466C46.1348 29.4272 47.5146 27.6803 47.5313 27.6637L47.819 27.8925C47.7606 27.9673 46.3974 29.6892 45.3386 30.5377V30.5336Z" fill="#FFBA1F"/>
<path d="M29.1224 30.962C27.6592 31.2698 24.0658 31.4903 25.4706 33.9775C26.8755 36.4647 29.8227 37.9246 32.4865 36.864C35.1503 35.8034 34.1415 39.5259 37.4514 39.4469C40.7613 39.3679 41.6243 41.0565 44.5257 38.798C45.4178 38.1035 46.3974 40.0874 48.315 41.0939C50.2326 42.1005 51.1664 43.864 53.7885 41.5598C56.4106 39.2556 55.5518 42.1878 57.6278 41.9175C59.7038 41.6471 59.041 38.9478 56.7191 36.3774L29.1224 30.9662V30.962Z" fill="#9AD5E2"/>
<path d="M51.4832 43.2442C50.5744 43.2442 49.8449 42.7451 49.1279 42.2543C48.7902 42.0214 48.4401 41.7844 48.0565 41.5805C47.1936 41.1272 46.5183 40.5033 45.9722 40C45.522 39.5841 45.0134 39.1141 44.8633 39.2306C42.754 40.8693 41.5034 40.6031 40.0568 40.2953C39.344 40.1415 38.5353 39.9709 37.4639 39.9959C35.4921 40.0375 34.7793 38.902 34.254 38.0702C33.758 37.2799 33.5912 37.0137 32.6908 37.3714C29.9311 38.4736 26.6212 37.1302 24.9871 34.2436C24.5577 33.4867 24.4785 32.8046 24.7578 32.2264C25.3122 31.0618 27.0839 30.7582 28.3804 30.5378C28.6138 30.4962 28.8306 30.4587 29.0057 30.4255L29.114 30.4005L57.0025 35.8699L57.1276 36.0072C58.9326 38.0078 59.7622 40.0375 59.2953 41.2977C59.0535 41.9466 58.4866 42.3625 57.6987 42.4665C56.519 42.6204 55.9854 41.9466 55.6602 41.5431C55.5435 41.3975 55.4142 41.2312 55.3434 41.227C55.2934 41.227 54.9974 41.2395 54.1553 41.9798C53.0881 42.9198 52.2252 43.2526 51.4874 43.2526L51.4832 43.2442ZM44.9092 38.0909C45.5345 38.0909 46.1389 38.6483 46.7267 39.189C47.2478 39.6715 47.8398 40.2205 48.5734 40.6031C49.0153 40.836 49.4072 41.1064 49.7574 41.3435C51.0038 42.1961 51.6916 42.6661 53.4258 41.1438C54.297 40.3785 54.8973 40.0749 55.4434 40.1207C55.9854 40.1664 56.2855 40.5449 56.5273 40.8485C56.8233 41.2187 56.9984 41.4391 57.557 41.3684C58.0614 41.3019 58.1989 41.0773 58.2615 40.9109C58.5157 40.2246 57.9655 38.6275 56.4314 36.8764L29.1266 31.5235C28.9556 31.5568 28.768 31.5901 28.5721 31.6233C27.6342 31.7855 26.0667 32.0517 25.7624 32.7006C25.6499 32.9376 25.7124 33.2787 25.9584 33.703C27.3215 36.107 30.0437 37.2425 32.2906 36.3482C34.0456 35.6453 34.7126 36.7101 35.2003 37.4837C35.6839 38.2573 36.1049 38.927 37.4472 38.8895C38.6478 38.8604 39.5232 39.0476 40.2986 39.2139C41.6659 39.5051 42.4913 39.6839 44.1963 38.3571C44.4423 38.1658 44.6841 38.0868 44.9175 38.0868L44.9092 38.0909Z" fill="#403F4C"/>
<path d="M59.7289 32.9334C58.2782 39.817 51.2039 37.1759 42.1912 35.2834C33.1785 33.3951 25.6374 32.9709 27.0839 26.0873C28.5346 19.2038 37.4389 13.1521 46.4516 15.0404C55.4643 16.9287 61.1754 26.0499 59.7247 32.9293L59.7289 32.9334Z" fill="#D2F4FF"/>
<path d="M43.0666 14.6952C44.1838 14.6952 45.3177 14.8075 46.4558 15.0446C55.4685 16.9329 61.1796 26.0541 59.7289 32.9335C59.016 36.3191 56.9442 37.4005 53.9469 37.4005C50.9496 37.4005 46.7726 36.2484 42.1912 35.2876C33.1785 33.3993 25.6374 32.9751 27.0839 26.0915C28.3512 20.0773 35.3129 14.6952 43.0625 14.6952H43.0666ZM43.0625 13.593C39.1439 13.593 35.2128 14.8907 31.9863 17.249C28.8056 19.574 26.6796 22.6352 26.0001 25.8669C25.5749 27.8842 25.8083 29.5312 26.7171 30.8913C28.6388 33.7736 33.0576 34.6305 38.6562 35.7077C39.7275 35.9157 40.8364 36.1278 41.9619 36.3649C43.0917 36.6019 44.188 36.8515 45.2552 37.0927C48.6026 37.8497 51.4957 38.5027 53.9469 38.5027C57.8071 38.5027 60.054 36.7558 60.8085 33.1622C61.5881 29.4647 60.5334 25.2056 57.9196 21.4873C55.1767 17.5817 51.1831 14.9115 46.6809 13.9673C45.497 13.7178 44.2839 13.593 43.0666 13.593H43.0625Z" fill="#403F4C"/>
<path d="M45.9013 19.653C49.0779 22.5645 51.2622 25.2015 51.9417 24.4445C52.6046 23.7083 49.7657 22.0488 46.5933 19.3536C50.6453 20.3102 53.6634 21.612 53.8677 20.6429C54.0719 19.6738 51.133 19.4825 47.3312 18.7921C49.2571 18.2181 50.9621 17.7939 52.121 17.3904C51.7083 17.1201 51.2789 16.8705 50.8412 16.6334C49.5781 17.1325 47.969 17.8271 46.1473 18.451C46.4099 17.2573 46.6975 16.1468 46.9518 15.1527C46.7851 15.1111 46.6183 15.0737 46.4516 15.0404C46.314 15.0113 46.1765 14.9864 46.0389 14.9614C45.893 15.9971 45.7221 17.1575 45.4803 18.3762C44.0213 17.041 42.7957 15.7226 41.8202 14.7368C41.3199 14.7742 40.828 14.8325 40.3403 14.9115C41.2407 15.7475 42.6372 16.8248 44.1755 18.1349C40.3945 17.2407 37.5973 16.2674 37.4014 17.1949C37.1971 18.1682 40.5112 18.1848 44.6257 18.9418C40.6363 20.1355 37.368 20.514 37.6765 21.454C37.9975 22.4273 41.1115 20.8551 45.2468 19.4534C44.2839 23.6792 42.8665 26.8693 43.867 27.0773C44.8675 27.2852 45.0593 23.8705 45.893 19.6489L45.9013 19.653Z" fill="#A77CC1"/>
<path opacity="0.6" d="M53.2382 25.3013C54.7508 25.3013 55.977 24.0779 55.977 22.5687C55.977 21.0595 54.7508 19.8361 53.2382 19.8361C51.7256 19.8361 50.4994 21.0595 50.4994 22.5687C50.4994 24.0779 51.7256 25.3013 53.2382 25.3013Z" fill="white"/>
<path opacity="0.6" d="M56.0979 28.6245C56.982 28.6245 57.6987 27.9094 57.6987 27.0273C57.6987 26.1452 56.982 25.4302 56.0979 25.4302C55.2138 25.4302 54.4971 26.1452 54.4971 27.0273C54.4971 27.9094 55.2138 28.6245 56.0979 28.6245Z" fill="white"/>
<path d="M28.3554 50.136C29.9094 50.136 31.1692 49.285 31.1692 48.2352C31.1692 47.1855 29.9094 46.3345 28.3554 46.3345C26.8013 46.3345 25.5415 47.1855 25.5415 48.2352C25.5415 49.285 26.8013 50.136 28.3554 50.136Z" fill="#F26957"/>
<path d="M49.1988 50.136C50.7528 50.136 52.0126 49.285 52.0126 48.2352C52.0126 47.1855 50.7528 46.3345 49.1988 46.3345C47.6447 46.3345 46.3849 47.1855 46.3849 48.2352C46.3849 49.285 47.6447 50.136 49.1988 50.136Z" fill="#F26957"/>
</g>
<defs>
<clipPath id="clip0_339_4">
<rect width="69" height="49" fill="white" transform="translate(0 5)"/>
</clipPath>
</defs>
</svg>
