<svg width="114" height="116" viewBox="0 0 114 116" fill="none" xmlns="http://www.w3.org/2000/svg">
<mask id="path-1-inside-1_561_2" fill="white">
<path d="M57.0001 4.83838C19.9928 4.83838 2.8501 26.7135 2.8501 53.6536C2.8501 90.6014 28.4289 103.325 52.7394 103.325C54.0076 103.325 55.8031 111.131 56.8291 112.892C56.8291 112.892 56.9431 113.211 57.0001 113.137C57.0571 113.211 57.1711 112.892 57.1711 112.892C58.1971 111.155 59.9926 103.325 61.2609 103.325C85.5714 103.325 111.15 90.6014 111.15 53.6536C111.15 26.7135 94.0074 4.83838 57.0001 4.83838Z"/>
</mask>
<path d="M57.0001 4.83838C19.9928 4.83838 2.8501 26.7135 2.8501 53.6536C2.8501 90.6014 28.4289 103.325 52.7394 103.325C54.0076 103.325 55.8031 111.131 56.8291 112.892C56.8291 112.892 56.9431 113.211 57.0001 113.137C57.0571 113.211 57.1711 112.892 57.1711 112.892C58.1971 111.155 59.9926 103.325 61.2609 103.325C85.5714 103.325 111.15 90.6014 111.15 53.6536C111.15 26.7135 94.0074 4.83838 57.0001 4.83838Z" fill="white"/>
<path d="M56.8291 112.892L59.6532 111.88L59.5602 111.621L59.4215 111.383L56.8291 112.892ZM57.0001 113.137L59.3696 111.297L57.0001 108.246L54.6306 111.297L57.0001 113.137ZM57.1711 112.892L54.588 111.367L54.4431 111.612L54.347 111.88L57.1711 112.892ZM57.0001 1.83838C37.8984 1.83838 23.5322 7.4971 13.9351 17.0131C4.34742 26.5198 -0.149902 39.5495 -0.149902 53.6536H5.8501C5.8501 40.8176 9.92415 29.4397 18.1597 21.2737C26.3857 13.1172 39.0946 7.83838 57.0001 7.83838V1.83838ZM-0.149902 53.6536C-0.149902 72.8859 6.5455 86.2063 16.7667 94.6569C26.8904 103.027 40.1136 106.325 52.7394 106.325V100.325C41.0546 100.325 29.3332 97.2615 20.5899 90.0327C11.9441 82.8845 5.8501 71.3691 5.8501 53.6536H-0.149902ZM52.7394 106.325C52.0265 106.325 51.5197 106.049 51.2736 105.879C51.0325 105.711 50.9093 105.557 50.8891 105.531C50.8525 105.485 50.9159 105.559 51.0621 105.865C51.3407 106.449 51.6675 107.33 52.0337 108.411C52.2116 108.936 52.3887 109.477 52.567 110.023C52.7433 110.562 52.922 111.11 53.0947 111.618C53.4037 112.529 53.7998 113.652 54.2367 114.402L59.4215 111.383C59.4254 111.389 59.4047 111.354 59.3602 111.256C59.3178 111.162 59.2658 111.039 59.2039 110.881C59.079 110.562 58.937 110.163 58.7764 109.69C58.6167 109.22 58.4491 108.707 58.2702 108.159C58.0933 107.618 57.9064 107.046 57.7165 106.486C57.347 105.395 56.923 104.215 56.4762 103.279C56.2597 102.826 55.9667 102.277 55.5851 101.797C55.3455 101.495 54.3929 100.325 52.7394 100.325V106.325ZM56.8291 112.892C54.005 113.905 54.0051 113.905 54.0052 113.905C54.0053 113.905 54.0054 113.906 54.0055 113.906C54.0056 113.906 54.0058 113.907 54.0059 113.907C54.0063 113.908 54.0066 113.909 54.007 113.91C54.0076 113.912 54.0084 113.914 54.0091 113.916C54.0107 113.92 54.0124 113.925 54.0142 113.93C54.018 113.94 54.0223 113.952 54.0274 113.965C54.0373 113.992 54.0503 114.025 54.066 114.064C54.0938 114.133 54.1455 114.257 54.2169 114.398C54.2483 114.46 54.4341 114.842 54.7843 115.207C54.9213 115.349 55.467 115.91 56.4019 116.092C56.9455 116.198 57.5675 116.163 58.1722 115.903C58.7495 115.655 59.1346 115.28 59.3696 114.977L54.6306 111.297C54.8585 111.004 55.236 110.634 55.8054 110.39C56.4021 110.134 57.0158 110.099 57.5509 110.203C58.0471 110.3 58.4127 110.502 58.6324 110.649C58.857 110.8 59.0169 110.952 59.1144 111.053C59.3026 111.249 59.4165 111.425 59.4608 111.495C59.5152 111.582 59.5514 111.651 59.5696 111.687C59.6053 111.758 59.625 111.806 59.6296 111.818C59.6337 111.828 59.6374 111.838 59.6409 111.847C59.6427 111.851 59.6445 111.856 59.6466 111.862C59.6476 111.865 59.6486 111.868 59.6497 111.871C59.6503 111.872 59.6508 111.874 59.6514 111.875C59.6517 111.876 59.652 111.877 59.6523 111.878C59.6525 111.878 59.6526 111.879 59.6528 111.879C59.6528 111.879 59.653 111.88 59.653 111.88C59.6531 111.88 59.6532 111.88 56.8291 112.892ZM54.6306 114.977C54.8656 115.28 55.2507 115.655 55.828 115.903C56.4327 116.163 57.0547 116.198 57.5984 116.092C58.5332 115.91 59.0789 115.349 59.2159 115.207C59.5661 114.842 59.7519 114.46 59.7834 114.398C59.8547 114.257 59.9065 114.133 59.9342 114.064C59.9499 114.025 59.963 113.992 59.9729 113.965C59.9779 113.952 59.9823 113.94 59.986 113.93C59.9878 113.925 59.9895 113.92 59.9911 113.916C59.9918 113.914 59.9926 113.912 59.9933 113.91C59.9936 113.909 59.9939 113.908 59.9943 113.907C59.9944 113.907 59.9946 113.906 59.9948 113.906C59.9948 113.906 59.9949 113.905 59.995 113.905C59.9951 113.905 59.9952 113.905 57.1711 112.892C54.347 111.88 54.3471 111.88 54.3472 111.88C54.3473 111.88 54.3474 111.879 54.3475 111.879C54.3476 111.879 54.3478 111.878 54.3479 111.878C54.3482 111.877 54.3485 111.876 54.3488 111.875C54.3494 111.874 54.3499 111.872 54.3505 111.871C54.3516 111.868 54.3526 111.865 54.3537 111.862C54.3557 111.856 54.3576 111.851 54.3593 111.847C54.3628 111.838 54.3665 111.828 54.3706 111.818C54.3752 111.806 54.3949 111.758 54.4306 111.687C54.4488 111.651 54.485 111.582 54.5394 111.495C54.5837 111.425 54.6977 111.249 54.8859 111.053C54.9833 110.952 55.1432 110.8 55.3678 110.649C55.5875 110.502 55.9531 110.3 56.4493 110.203C56.9844 110.099 57.5981 110.134 58.1948 110.39C58.7642 110.634 59.1418 111.004 59.3696 111.297L54.6306 114.977ZM59.7543 114.418C60.1984 113.666 60.5973 112.536 60.9051 111.63C61.0781 111.121 61.2569 110.573 61.4333 110.033C61.6118 109.487 61.7889 108.945 61.9669 108.419C62.3333 107.336 62.6603 106.452 62.9393 105.866C63.0858 105.559 63.1497 105.484 63.1137 105.529C63.0939 105.554 62.971 105.709 62.7301 105.876C62.4843 106.047 61.9762 106.325 61.2609 106.325V100.325C59.6034 100.325 58.6503 101.501 58.4125 101.801C58.0315 102.281 57.7391 102.831 57.5228 103.285C57.0765 104.222 56.6527 105.404 56.2833 106.496C56.0935 107.057 55.9066 107.629 55.7299 108.17C55.5511 108.718 55.3836 109.23 55.2241 109.7C55.0638 110.171 54.9221 110.568 54.798 110.884C54.7364 111.04 54.685 111.161 54.6436 111.252C54.5999 111.347 54.581 111.379 54.588 111.367L59.7543 114.418ZM61.2609 106.325C73.8867 106.325 87.1098 103.027 97.2335 94.6569C107.455 86.2063 114.15 72.8859 114.15 53.6536H108.15C108.15 71.3691 102.056 82.8845 93.4103 90.0327C84.667 97.2615 72.9456 100.325 61.2609 100.325V106.325ZM114.15 53.6536C114.15 39.5495 109.653 26.5198 100.065 17.0131C90.468 7.4971 76.1019 1.83838 57.0001 1.83838V7.83838C74.9056 7.83838 87.6145 13.1172 95.8405 21.2737C104.076 29.4397 108.15 40.8176 108.15 53.6536H114.15Z" fill="#403F4C" mask="url(#path-1-inside-1_561_2)"/>
<path d="M51.7298 60.004L56.9012 22.6419L72.1619 25.78L62.1713 62.1512L51.7298 60.004ZM52.3095 83.6474C50.007 83.1739 48.239 82.0011 47.0055 80.1289C45.8255 78.2678 45.4722 76.186 45.9457 73.8835C46.4192 71.581 47.5652 69.8075 49.3838 68.5629C51.256 67.3294 53.3433 66.9494 55.6458 67.4228C57.9483 67.8963 59.6895 69.0636 60.8695 70.9248C62.0495 72.7859 62.4027 74.8677 61.9293 77.1702C61.4558 79.4727 60.3098 81.2462 58.4912 82.4908C56.6726 83.7353 54.612 84.1208 52.3095 83.6474Z" fill="#F26957"/>
</svg>
