<svg width="32" height="32" viewBox="0 0 32 32" fill="none" xmlns="http://www.w3.org/2000/svg">
<circle cx="16" cy="16" r="16" fill="#F26957"/>
<path d="M14.1686 18.0986L15.556 8.07466L19.6503 8.91659L16.97 18.6747L14.1686 18.0986ZM14.3241 24.442C13.7064 24.3149 13.232 24.0003 12.9011 23.498C12.5845 22.9987 12.4897 22.4401 12.6167 21.8224C12.7438 21.2047 13.0512 20.7288 13.5392 20.3949C14.0414 20.064 14.6015 19.962 15.2192 20.0891C15.8369 20.2161 16.3041 20.5293 16.6207 21.0286C16.9373 21.5279 17.032 22.0865 16.905 22.7042C16.778 23.3219 16.4705 23.7978 15.9826 24.1317C15.4947 24.4656 14.9418 24.569 14.3241 24.442Z" fill="white"/>
</svg>
