<svg width="166" height="99" viewBox="0 0 166 99" fill="none" xmlns="http://www.w3.org/2000/svg">
<g clip-path="url(#clip0_155_364)">
<path d="M108.746 54.554C108.746 54.554 107.714 58.94 108.338 62.27C108.542 70.022 120.326 63.866 120.326 63.866C125.918 64.544 161.408 71.384 163.406 60.812C165.41 50.24 158.306 30.71 150.614 29.03C147.356 28.322 142.43 27.248 134.39 32.606C137.648 23.396 136.52 19.604 135.014 16.598C131.486 9.56 110.804 7.508 101.054 12.056C91.304 16.61 106.7 49.304 108.74 54.554H108.746Z" fill="#FFAB15"/>
<path d="M147.488 68.144C140.078 68.144 131.282 67.04 123.062 65.78C122.048 65.624 121.196 65.492 120.584 65.408C118.796 66.278 112.706 68.966 109.214 66.914C108.182 66.308 106.946 65.042 106.838 62.426C106.316 59.48 106.922 55.952 107.18 54.686C106.946 54.11 106.61 53.324 106.208 52.376C104.156 47.558 100.346 38.582 98.114 30.248C95.156 19.202 95.912 12.806 100.424 10.7C105.29 8.426 113 7.586 120.548 8.492C124.412 8.96 133.694 10.616 136.352 15.926C137.702 18.626 138.914 22.094 136.976 29.348C143.63 25.97 148.1 26.948 150.932 27.566C156.734 28.832 160.634 37.412 162.038 41.048C164.786 48.14 165.872 55.82 164.876 61.094C163.868 66.416 156.77 68.15 147.482 68.15L147.488 68.144ZM120.326 62.366C120.386 62.366 120.446 62.366 120.506 62.378C121.166 62.456 122.204 62.618 123.518 62.822C128.624 63.602 138.122 65.06 146.546 65.162C155.882 65.27 161.348 63.632 161.936 60.536C163.898 50.168 156.83 31.922 150.302 30.5C147.116 29.804 142.748 28.85 135.23 33.86C134.69 34.22 133.988 34.19 133.478 33.794C132.968 33.398 132.77 32.72 132.986 32.108C136.094 23.33 135.032 19.964 133.682 17.27C130.688 11.294 111.26 8.954 101.702 13.418C98.846 14.75 98.606 20.45 101.024 29.468C103.202 37.604 106.964 46.448 108.986 51.2C109.508 52.424 109.916 53.396 110.156 54.014C110.264 54.296 110.288 54.608 110.216 54.902C110.204 54.944 109.268 59.03 109.82 61.994C109.832 62.072 109.844 62.15 109.844 62.234C109.886 63.83 110.528 64.208 110.744 64.334C112.676 65.468 117.572 63.614 119.636 62.54C119.852 62.426 120.092 62.372 120.332 62.372L120.326 62.366Z" fill="#403F4C"/>
<path d="M113.306 63.11C114.824 64.664 125.6 71.75 129.722 72.698C133.844 73.646 123.224 98.012 118.76 96.398C114.296 94.784 107.168 88.898 104.594 82.958C102.02 77.018 113.312 63.116 113.312 63.116L113.306 63.11Z" fill="#FFD985"/>
<path d="M119.21 97.976C118.88 97.976 118.562 97.922 118.244 97.808C113.276 96.014 105.884 89.714 103.208 83.552C100.352 76.964 110.924 63.662 112.136 62.168L113.198 60.86L114.374 62.066C115.832 63.56 126.344 70.388 130.052 71.24C130.61 71.366 131.6 71.798 131.984 73.268C133.208 77.924 126.662 92.492 122.27 96.512C121.202 97.49 120.17 97.982 119.204 97.982L119.21 97.976ZM113.534 65.24C109.49 70.514 104.468 78.914 105.962 82.358C108.446 88.082 115.34 93.548 119.222 94.97C119.63 94.916 121.244 93.836 123.716 89.552C127.94 82.232 129.464 75.53 129.104 74.09C125.12 73.022 116.9 67.784 113.528 65.24H113.534Z" fill="#403F4C"/>
<path d="M19.634 63.11C18.116 64.664 7.33998 71.75 3.21798 72.698C-0.904021 73.646 9.71598 98.012 14.18 96.398C18.644 94.784 25.772 88.898 28.346 82.958C30.92 77.018 19.628 63.116 19.628 63.116L19.634 63.11Z" fill="#FFD985"/>
<path d="M13.73 97.976C12.764 97.976 11.738 97.484 10.664 96.506C6.27198 92.486 -0.274022 77.918 0.949978 73.262C1.33998 71.792 2.32998 71.36 2.88198 71.234C6.58998 70.382 17.102 63.554 18.56 62.06L19.736 60.854L20.798 62.162C22.01 63.656 32.582 76.964 29.726 83.546C27.056 89.708 19.658 96.008 14.69 97.802C14.378 97.916 14.054 97.97 13.724 97.97L13.73 97.976ZM3.82998 74.09C3.47598 75.524 4.99398 82.232 9.21798 89.552C11.696 93.842 13.304 94.916 13.712 94.97C17.594 93.542 24.494 88.082 26.972 82.358C28.466 78.914 23.438 70.514 19.4 65.24C16.028 67.784 7.80798 73.022 3.82398 74.09H3.82998Z" fill="#403F4C"/>
<path d="M55.946 20.18C57.038 18.122 71.486 -3.664 89.606 3.902C107.726 11.468 100.388 30.05 113 36.242C125.612 42.434 116.438 55.28 114.608 60.326C107.036 52.988 55.946 20.18 55.946 20.18Z" fill="#FFD985"/>
<path d="M115.226 63.02L113.564 61.406C106.19 54.254 55.646 21.77 55.136 21.446L53.972 20.702L54.62 19.484C54.758 19.226 70.064 -5.878 90.182 2.528C100.772 6.95 103.214 14.948 105.368 21.998C107.072 27.578 108.548 32.396 113.66 34.904C125.564 40.748 120.194 51.956 117.308 57.974C116.762 59.114 116.288 60.098 116.018 60.848L115.226 63.026V63.02ZM57.998 19.718C65.57 24.596 103.718 49.268 114.05 57.836C114.224 57.464 114.41 57.08 114.602 56.672C118.274 49.004 120.866 41.78 112.34 37.592C106.058 34.508 104.252 28.592 102.5 22.868C100.442 16.13 98.312 9.164 89.024 5.288C81.968 2.342 74.666 3.794 67.316 9.608C62.732 13.232 59.426 17.588 57.992 19.718H57.998Z" fill="#403F4C"/>
<path d="M116.768 64.298C116.768 85.97 94.25 97.214 66.476 97.214C38.702 97.214 16.178 85.97 16.178 64.298C16.178 42.626 38.696 18.728 66.47 18.728C94.244 18.728 116.762 42.62 116.762 64.292L116.768 64.298Z" fill="#FFC112"/>
<path d="M66.47 98.714C35.006 98.714 14.678 85.202 14.678 64.298C14.678 53.174 20.216 41.516 29.876 32.306C40.064 22.586 53.06 17.234 66.476 17.234C79.892 17.234 92.888 22.586 103.076 32.306C112.736 41.516 118.274 53.18 118.274 64.298C118.274 85.208 97.946 98.714 66.476 98.714H66.47ZM66.47 20.234C38.99 20.234 17.678 43.922 17.678 64.298C17.678 83.384 36.83 95.714 66.47 95.714C96.11 95.714 115.268 83.384 115.268 64.298C115.268 43.922 93.956 20.234 66.47 20.234Z" fill="#403F4C"/>
<path d="M45.194 76.64C52.0766 76.64 57.656 71.0606 57.656 64.178C57.656 57.2954 52.0766 51.716 45.194 51.716C38.3114 51.716 32.732 57.2954 32.732 64.178C32.732 71.0606 38.3114 76.64 45.194 76.64Z" fill="white"/>
<path d="M45.194 55.454C40.376 55.454 36.47 59.36 36.47 64.178C36.47 66.284 37.214 68.21 38.456 69.716C38.714 68.546 39.758 67.664 41.006 67.664C42.452 67.664 43.622 68.834 43.622 70.28C43.622 71.186 43.16 71.984 42.458 72.452C43.316 72.734 44.234 72.896 45.188 72.896C50.006 72.896 53.912 68.99 53.912 64.172C53.912 59.354 50.006 55.448 45.188 55.448L45.194 55.454Z" fill="#403F4C"/>
<path d="M45.194 73.202C44.24 73.202 43.286 73.046 42.368 72.746L41.786 72.554L42.296 72.212C42.938 71.78 43.328 71.06 43.328 70.286C43.328 69.008 42.29 67.97 41.012 67.97C39.938 67.97 38.984 68.732 38.756 69.788L38.624 70.388L38.234 69.914C36.908 68.306 36.182 66.272 36.182 64.184C36.182 59.21 40.232 55.16 45.206 55.16C50.18 55.16 54.23 59.21 54.23 64.184C54.23 69.158 50.18 73.208 45.206 73.208L45.194 73.202ZM43.088 72.332C43.778 72.512 44.486 72.602 45.194 72.602C49.838 72.602 53.618 68.822 53.618 64.178C53.618 59.534 49.838 55.754 45.194 55.754C40.55 55.754 36.77 59.534 36.77 64.178C36.77 65.942 37.328 67.664 38.348 69.092C38.81 68.066 39.848 67.37 41.006 67.37C42.614 67.37 43.922 68.678 43.922 70.286C43.922 71.06 43.616 71.792 43.082 72.332H43.088Z" fill="#403F4C"/>
<path d="M87.746 76.64C94.6286 76.64 100.208 71.0606 100.208 64.178C100.208 57.2954 94.6286 51.716 87.746 51.716C80.8634 51.716 75.284 57.2954 75.284 64.178C75.284 71.0606 80.8634 76.64 87.746 76.64Z" fill="white"/>
<path d="M87.746 55.454C82.928 55.454 79.022 59.36 79.022 64.178C79.022 66.284 79.766 68.21 81.008 69.716C81.266 68.546 82.31 67.664 83.558 67.664C85.004 67.664 86.174 68.834 86.174 70.28C86.174 71.186 85.712 71.984 85.01 72.452C85.868 72.734 86.786 72.896 87.74 72.896C92.558 72.896 96.464 68.99 96.464 64.172C96.464 59.354 92.558 55.448 87.74 55.448L87.746 55.454Z" fill="#403F4C"/>
<path d="M87.746 73.202C86.792 73.202 85.838 73.046 84.92 72.746L84.338 72.554L84.848 72.212C85.49 71.78 85.874 71.06 85.874 70.286C85.874 69.008 84.836 67.97 83.558 67.97C82.484 67.97 81.53 68.732 81.302 69.788L81.17 70.388L80.78 69.914C79.454 68.306 78.728 66.272 78.728 64.184C78.728 59.21 82.778 55.16 87.752 55.16C92.726 55.16 96.776 59.21 96.776 64.184C96.776 69.158 92.726 73.208 87.752 73.208L87.746 73.202ZM85.64 72.332C86.33 72.512 87.038 72.602 87.746 72.602C92.39 72.602 96.17 68.822 96.17 64.178C96.17 59.534 92.39 55.754 87.746 55.754C83.102 55.754 79.322 59.534 79.322 64.178C79.322 65.942 79.88 67.664 80.9 69.092C81.362 68.066 82.4 67.37 83.558 67.37C85.166 67.37 86.474 68.678 86.474 70.286C86.474 71.06 86.168 71.792 85.634 72.332H85.64Z" fill="#403F4C"/>
<path d="M61.43 81.638C61.982 81.908 63.104 82.322 66.638 82.316C70.172 82.31 73.136 81.404 73.136 79.364C73.136 77.324 70.748 76.718 69.176 77.912C68.012 78.794 65.276 78.746 63.698 77.75C61.604 76.43 60.008 78.092 59.834 79.04C59.63 80.162 60.47 81.164 61.424 81.632L61.43 81.638Z" fill="#403F4C"/>
<path d="M6.71598 81.902L6.15198 80.846C6.19998 80.816 11.276 78.092 13.88 75.746L14.684 76.634C11.972 79.082 6.93198 81.788 6.71598 81.902Z" fill="#FFBA1F"/>
<path d="M8.61197 86.18L8.04797 85.124C8.09597 85.1 13.172 82.37 15.776 80.024L16.58 80.912C13.868 83.36 8.82797 86.066 8.61197 86.18Z" fill="#FFBA1F"/>
<path d="M10.64 90.884L10.076 89.828C10.13 89.798 15.716 86.798 18.59 84.206L19.394 85.094C16.412 87.782 10.88 90.758 10.646 90.884H10.64Z" fill="#FFBA1F"/>
<path d="M126.548 80.948C126.338 80.834 121.292 78.128 118.58 75.68L119.384 74.792C121.988 77.144 127.064 79.868 127.112 79.892L126.548 80.948Z" fill="#FFBA1F"/>
<path d="M124.652 85.226C124.442 85.112 119.396 82.406 116.684 79.958L117.488 79.07C120.092 81.422 125.168 84.146 125.216 84.17L124.652 85.226Z" fill="#FFBA1F"/>
<path d="M122.624 89.93C122.39 89.804 116.852 86.834 113.876 84.14L114.68 83.252C117.554 85.844 123.134 88.844 123.194 88.874L122.63 89.93H122.624Z" fill="#FFBA1F"/>
<path d="M82.472 20L81.722 19.064C85.058 16.382 89.564 10.676 89.612 10.622L90.554 11.366C90.368 11.606 85.922 17.234 82.478 20H82.472Z" fill="#FFBA1F"/>
<path d="M88.124 22.064L87.374 21.128C90.71 18.446 95.216 12.746 95.264 12.686L96.206 13.43C96.02 13.67 91.574 19.298 88.13 22.064H88.124Z" fill="#FFBA1F"/>
</g>
<defs>
<clipPath id="clip0_155_364">
<rect width="164.442" height="97.914" fill="white" transform="translate(0.799988 0.799999)"/>
</clipPath>
</defs>
</svg>
