<svg width="300" height="200" viewBox="0 0 300 200" fill="none" xmlns="http://www.w3.org/2000/svg">
<mask id="mask0_488_872" style="mask-type:alpha" maskUnits="userSpaceOnUse" x="0" y="0" width="300" height="200">
<rect width="300" height="200" fill="#D9D9D9"/>
</mask>
<g mask="url(#mask0_488_872)">
</g>
<g clip-path="url(#clip0_488_872)">
<path d="M153.655 27.5404C154.959 27.5404 156.322 27.7945 157.727 28.382C160.498 29.5442 162.137 31.1955 163.235 33.0373C163.393 32.9039 163.567 32.7896 163.763 32.6975C165.617 31.8306 168.218 31.4146 170.875 31.4146C175.589 31.4146 180.48 32.7166 181.67 35.0982C182.236 36.2319 182.695 37.5815 182.296 40.0203C184.002 40.2807 185.156 40.8079 185.887 41.5319C186.479 41.4112 187.02 41.3668 187.513 41.3668C188.462 41.3668 189.244 41.5382 189.899 41.6811C192.771 42.3099 195.489 47.6861 196.451 52.7574C197.39 53.275 198.314 53.8117 199.225 54.3674C204.028 53.1036 209.469 51.2872 215.54 48.7626C216.762 48.2545 217.698 48.0259 218.394 48.0259C223.07 48.0259 216.834 58.3718 211.861 64.2624C216.325 68.8479 219.688 74.0018 221.381 79.5495C222.19 79.5209 222.991 79.505 223.779 79.505C232.71 79.505 239.765 81.5628 234.333 92.6708C226.357 108.984 242.998 102.601 243.669 112.963C244.017 118.345 237.623 120.241 228.888 120.241C221.874 120.241 213.351 119.018 205.6 117.405C199.307 122.765 193.306 127.221 187.605 130.92C194.356 133.985 201.731 135.039 209.058 135.039C219.656 135.039 230.153 132.829 238.48 131.292C246.899 129.739 257.387 127.297 263.464 127.297C268.864 127.297 270.788 129.228 264.688 135.426C253.435 146.862 210.63 172.46 177.127 172.46C172.024 172.46 167.133 171.866 162.605 170.535C141.456 164.327 137.261 155.121 138.027 147.795H137.982C137.982 147.795 138.005 147.808 138.014 147.814C123.306 154.549 111.99 156.687 102.397 156.687C92.805 156.687 84.8356 154.521 76.9865 152.705C73.459 151.888 62.2247 146.423 59.5862 136.319C58.4694 136.487 57.3305 136.582 56.1599 136.582C52.0977 136.582 47.7002 135.455 42.8534 132.47C24.0137 119.996 19.6857 79.3177 82.118 52.351C82.7444 52.081 83.355 51.7762 83.9403 51.4269C89.3186 48.2164 96.5255 44.7233 100.455 44.7233C103.517 44.7233 104.593 46.8446 101.262 52.8813C100.768 53.8054 100.265 54.3166 99.7398 55.2121C90.3942 70.2769 70.0232 89.3842 85.1583 97.4151C87.2812 78.654 102.062 63.0113 120.405 53.3132C123.385 45.7014 130.852 38.8263 140.08 36.8194C140.997 35.2919 146.436 27.5404 153.655 27.5404ZM153.655 25C149.957 25 146.309 26.5846 142.82 29.7093C140.751 31.5638 139.289 33.4692 138.52 34.5774C129.684 36.8448 121.958 43.3483 118.415 51.4967C108.978 56.6062 100.812 63.1034 94.7601 70.3309C88.8662 77.3679 85.0413 84.9003 83.355 92.7725C82.8931 92.1501 82.5799 91.48 82.4154 90.7496C81.1436 85.1067 88.0974 75.7261 94.2318 67.4538C96.9241 63.8242 99.705 60.0707 101.885 56.5554C101.897 56.5363 101.907 56.5205 101.916 56.5014C102.097 56.1934 102.28 55.9362 102.495 55.6377C102.796 55.2185 103.134 54.7421 103.479 54.1007C106.656 48.3403 105.966 45.8729 105.169 44.5201C104.542 43.4563 103.217 42.186 100.448 42.186C95.0543 42.186 86.196 47.124 82.64 49.2485C82.1813 49.5216 81.6656 49.7819 81.1088 50.0233C63.9236 57.4477 50.5823 66.3805 41.4614 76.5772C33.6028 85.3703 28.9933 95.1097 28.1423 104.744C27.0603 116.999 32.1665 128.437 41.4614 134.588C41.4836 134.604 41.5089 134.617 41.531 134.632C46.4347 137.652 51.2182 139.12 56.1599 139.12C56.7072 139.12 57.2609 139.1 57.8177 139.062C59.0484 142.257 61.5129 146.268 66.4198 150.012C70.1213 152.838 74.1075 154.642 76.417 155.175C77.3124 155.381 78.2077 155.594 79.1062 155.807C86.2087 157.487 93.5516 159.224 102.394 159.224C112.698 159.224 123.578 156.75 135.556 151.669C136.024 155.14 137.584 158.36 140.216 161.285C144.541 166.086 151.833 170.018 161.891 172.971C166.468 174.314 171.594 174.997 177.121 174.997C185.194 174.997 194.255 173.558 204.053 170.719C212.497 168.274 221.339 164.841 230.334 160.52C247.636 152.206 260.955 142.822 266.479 137.208C269.114 134.531 271.971 131.054 270.665 127.916C269.348 124.753 264.913 124.753 263.454 124.753C258.554 124.753 251.239 126.201 244.165 127.602C242.008 128.027 239.97 128.431 238.012 128.793C237.117 128.958 236.193 129.132 235.25 129.307C227.689 130.727 218.277 132.495 209.048 132.495C203.047 132.495 197.776 131.771 193.072 130.292C197.457 127.24 201.883 123.839 206.287 120.136C212.544 121.397 221.172 122.778 228.879 122.778C236.585 122.778 241.54 121.406 244.175 118.583C245.633 117.021 246.329 115.02 246.184 112.794C245.807 107.002 241.619 105.033 238.556 103.595C236.5 102.629 235.225 101.966 234.848 100.889C234.519 99.9492 234.554 97.955 236.595 93.7823C239.104 88.6474 239.429 84.7098 237.588 81.7406C234.956 77.4981 228.818 76.9551 223.769 76.9551C223.573 76.9551 223.374 76.9551 223.171 76.9551C221.523 72.5061 218.853 68.2065 215.208 64.1291C217.03 61.7823 218.777 59.1784 220.064 56.8634C222.45 52.5701 223.098 49.7534 222.165 47.7305C221.504 46.2952 220.128 45.4727 218.388 45.4727C217.322 45.4727 216.069 45.7776 214.566 46.4032C209.343 48.5752 204.312 50.3281 199.595 51.6238C199.292 51.4459 198.985 51.2681 198.678 51.0903C197.422 45.7585 194.442 40.0648 190.43 39.1883C189.715 39.0327 188.734 38.8168 187.507 38.8168C187.203 38.8168 186.896 38.8295 186.589 38.8581C186.105 38.5469 185.568 38.2833 184.97 38.0674C184.932 36.2573 184.444 34.9871 183.929 33.955C183.043 32.1831 181.17 30.8303 178.358 29.9348C176.194 29.2457 173.536 28.8678 170.875 28.8678C168.338 28.8678 165.978 29.2108 164.064 29.8459C162.669 28.2105 160.897 26.953 158.701 26.0321C157.06 25.3493 155.364 25 153.655 25Z" fill="#403F4C"/>
<path d="M190.544 56.1839C197.09 55.2058 205.455 52.9512 215.54 48.7594C225.626 44.5677 216.442 59.3721 210.675 65.6057C204.907 71.8393 190.544 56.1839 190.544 56.1839Z" fill="#E5DC80"/>
<path d="M141.298 56.3776C141.298 44.9932 144.506 29.9348 155.329 31.7703C166.152 33.6057 155.329 42.7894 174.571 40.2172C193.812 37.645 185.795 48.6642 182.186 56.0092C178.579 63.3542 141.298 56.3776 141.298 56.3776Z" fill="#E5DC80"/>
<path d="M202.139 116.646C220.027 120.759 244.336 123.328 243.666 112.966C242.995 102.604 226.357 108.984 234.33 92.674C242.305 76.3613 223.355 79.5654 211.077 80.1433C198.798 80.7213 202.136 116.649 202.136 116.649L202.139 116.646Z" fill="#E5DC80"/>
<path d="M101.265 52.8781C100.771 53.8022 100.268 54.3134 99.743 55.209C89.3471 71.9726 65.2967 93.7378 91.6945 99.6824C118.096 105.627 101.486 106.523 101.486 106.523L73.4843 130.895C65.0088 135.458 55.4355 140.212 42.8566 132.464C24.0137 119.996 19.6857 79.3177 82.118 52.351C82.7444 52.081 83.355 51.7762 83.9403 51.4269C93.5105 45.7141 108.867 39.1026 101.262 52.8781H101.265Z" fill="#E5DC80"/>
<path d="M120.048 144.978C128.953 147.7 159.543 156.639 205.625 117.383C251.705 78.1269 193.233 40.8142 157.221 42.7577C121.209 44.7011 77.4516 73.8526 85.9714 111.553C94.4912 149.253 120.048 144.978 120.048 144.978Z" fill="#419341"/>
<path d="M76.9865 152.701C92.6341 156.325 108.503 161.329 138.014 147.811C118.817 136.595 109.076 136.02 106.785 130.844C104.495 125.668 98.7622 105.535 79.8528 105.535C60.9434 105.535 57.5045 123.366 59.2224 134.582C60.9402 145.798 73.2628 151.838 76.9865 152.701Z" fill="#FFF8BA"/>
<path d="M85.1047 123.759C86.4151 123.759 87.4775 121.911 87.4775 119.631C87.4775 117.351 86.4151 115.503 85.1047 115.503C83.7943 115.503 82.7319 117.351 82.7319 119.631C82.7319 121.911 83.7943 123.759 85.1047 123.759Z" fill="#403F4C"/>
<path d="M73.8735 122.489C75.0966 122.489 76.0881 120.641 76.0881 118.361C76.0881 116.081 75.0966 114.233 73.8735 114.233C72.6504 114.233 71.6589 116.081 71.6589 118.361C71.6589 120.641 72.6504 122.489 73.8735 122.489Z" fill="#403F4C"/>
<path d="M78 126C78.5523 126 79 125.552 79 125C79 124.448 78.5523 124 78 124C77.4477 124 77 124.448 77 125C77 125.552 77.4477 126 78 126Z" fill="#403F4C"/>
<path d="M100.581 94.2395C107.466 85.2527 115.261 76.8439 124.278 69.972C133.427 62.9985 143.842 57.6573 155.082 55.0946C161.448 53.6434 168.009 53.1321 174.514 53.7259C175.498 53.8149 175.491 52.2747 174.514 52.1858C162.669 51.1093 150.748 53.7132 139.988 58.648C129.491 63.4622 120.162 70.569 112.028 78.7334C107.437 83.3411 103.217 88.3013 99.2591 93.4647C99.006 93.7981 99.2116 94.3253 99.5343 94.519C99.9266 94.754 100.332 94.5698 100.585 94.2427L100.581 94.2395Z" fill="#306D30"/>
<path d="M128.492 105.862C134.746 98.987 141.795 92.8487 149.464 87.6059C157.126 82.3662 165.387 77.9903 174.039 74.6433C178.918 72.757 183.916 71.1915 189 69.9594C189.959 69.7275 189.554 68.2414 188.592 68.4732C179.446 70.6897 170.572 73.9955 162.182 78.2666C153.855 82.5091 146.022 87.7138 138.868 93.7378C134.809 97.1547 130.981 100.845 127.41 104.77C126.745 105.5 127.827 106.592 128.495 105.859L128.492 105.862Z" fill="#306D30"/>
<path d="M151.71 123.512C158.328 118.224 165.247 113.325 172.422 108.831C179.62 104.325 187.074 100.229 194.736 96.5704C199.039 94.5158 203.411 92.6042 207.837 90.8322C208.742 90.4702 208.349 88.9809 207.429 89.3461C199.45 92.5375 191.648 96.1735 184.084 100.257C176.519 104.341 169.24 108.831 162.213 113.744C158.259 116.51 154.393 119.409 150.621 122.419C149.85 123.035 150.941 124.118 151.707 123.509L151.71 123.512Z" fill="#306D30"/>
<path d="M105.311 77.5933C115.903 76.1453 126.777 77.4568 136.85 80.9785C146.936 84.5065 156.262 90.2892 163.855 97.8406C168.104 102.067 171.783 106.843 174.748 112.061C175.238 112.921 176.564 112.146 176.073 111.283C170.657 101.753 162.878 93.6965 153.763 87.6662C144.629 81.6231 134.132 77.5997 123.284 76.1199C117.178 75.2879 111.009 75.2688 104.9 76.104C104.485 76.1612 104.267 76.6883 104.365 77.0503C104.482 77.4949 104.9 77.6442 105.308 77.587L105.311 77.5933Z" fill="#306D30"/>
<path d="M129.649 58.3718C140.295 58.5401 150.827 61.287 160.321 66.0915C169.835 70.9057 178.32 77.7299 185.001 86.0657C188.766 90.7624 191.914 95.9575 194.338 101.47C194.736 102.375 196.059 101.591 195.663 100.692C191.272 90.7084 184.479 81.8518 176.194 74.8084C167.918 67.7746 158.164 62.481 147.724 59.5118C141.849 57.8415 135.755 56.9238 129.649 56.8285C128.662 56.8126 128.662 58.3528 129.649 58.3686V58.3718Z" fill="#306D30"/>
<path d="M167.819 55.1899C167.819 55.1899 167.275 57.5112 167.604 59.2736C167.712 63.3764 173.925 60.1183 173.925 60.1183C176.874 60.4772 195.587 64.0973 196.641 58.502C197.697 52.9067 193.951 42.5703 189.896 41.6811C188.178 41.3064 185.58 40.738 181.341 43.5737C183.059 38.6993 182.464 36.6923 181.67 35.1014C179.81 31.3765 168.905 30.2904 163.764 32.6975C158.623 35.1077 166.741 52.4113 167.816 55.1899H167.819Z" fill="#FFAB15"/>
<path d="M170.224 59.715C171.024 60.5375 176.706 64.2878 178.88 64.7895C181.053 65.2913 175.453 78.1872 173.1 77.3329C170.746 76.4787 166.987 73.3635 165.63 70.2197C164.273 67.0759 170.227 59.7182 170.227 59.7182L170.224 59.715Z" fill="#FFD985"/>
<path d="M120.832 59.715C120.032 60.5375 114.35 64.2878 112.176 64.7895C110.003 65.2913 115.603 78.1872 117.956 77.3329C120.31 76.4787 124.069 73.3635 125.426 70.2197C126.783 67.0759 120.829 59.7182 120.829 59.7182L120.832 59.715Z" fill="#FFD985"/>
<path d="M139.979 36.9972C140.555 35.908 148.173 24.3776 157.727 28.382C167.281 32.3895 163.412 42.221 170.062 45.4981C176.716 48.7753 171.875 55.5741 170.91 58.2448C166.918 54.3611 139.979 36.9972 139.979 36.9972Z" fill="#FFD985"/>
<path d="M172.049 60.3438C172.049 71.8138 160.176 77.7648 145.531 77.7648C130.887 77.7648 119.013 71.8138 119.013 60.3438C119.013 48.8737 130.887 36.2287 145.531 36.2287C160.176 36.2287 172.049 48.8737 172.049 60.3438Z" fill="#FFC112"/>
<path d="M134.31 66.8791C137.939 66.8791 140.88 63.9261 140.88 60.2835C140.88 56.6408 137.939 53.6879 134.31 53.6879C130.68 53.6879 127.739 56.6408 127.739 60.2835C127.739 63.9261 130.68 66.8791 134.31 66.8791Z" fill="white"/>
<path d="M156.747 66.8791C160.376 66.8791 163.318 63.9261 163.318 60.2835C163.318 56.6408 160.376 53.6879 156.747 53.6879C153.117 53.6879 150.176 56.6408 150.176 60.2835C150.176 63.9261 153.117 66.8791 156.747 66.8791Z" fill="white"/>
<path d="M132.032 60.2676C132.294 60.0771 132.838 59.7595 134.677 59.4388C136.515 59.118 138.134 59.3245 138.318 60.3883C138.501 61.4553 137.426 61.3949 136.391 61.5061C135.423 61.6109 134.601 61.7792 133.56 62.0872C132.307 62.4587 131.611 62.2428 131.437 61.7633C131.228 61.198 131.573 60.5979 132.029 60.2644L132.032 60.2676Z" fill="#403F4C"/>
<path d="M159.224 60.5693C158.961 60.3788 158.417 60.0612 156.579 59.7405C154.741 59.4197 153.121 59.6262 152.937 60.69C152.754 61.7569 153.829 61.6966 154.864 61.8078C155.832 61.9125 156.655 62.0808 157.696 62.3889C158.948 62.7604 159.644 62.5445 159.818 62.065C160.027 61.4997 159.682 60.8995 159.227 60.5661L159.224 60.5693Z" fill="#403F4C"/>
<path d="M114.021 69.6641L113.723 69.1052C113.749 69.0893 116.425 67.6476 117.798 66.4059L118.222 66.8759C116.792 68.1715 114.135 69.6037 114.021 69.6641Z" fill="#FFBA1F"/>
<path d="M115.021 71.9282L114.723 71.3693C114.748 71.3566 117.425 69.9117 118.798 68.6701L119.222 69.1401C117.792 70.4357 115.134 71.8679 115.021 71.9282Z" fill="#FFBA1F"/>
<path d="M116.09 74.4178L115.792 73.8589C115.821 73.843 118.766 72.2553 120.282 70.8834L120.706 71.3534C119.133 72.776 116.216 74.3511 116.093 74.4178H116.09Z" fill="#FFBA1F"/>
<path d="M177.206 69.1591C177.095 69.0988 174.435 67.6666 173.005 66.371L173.429 65.901C174.802 67.1458 177.478 68.5875 177.503 68.6002L177.206 69.1591Z" fill="#FFBA1F"/>
<path d="M176.206 71.4233C176.096 71.3629 173.435 69.9308 172.005 68.6351L172.429 68.1652C173.802 69.41 176.478 70.8517 176.504 70.8644L176.206 71.4233Z" fill="#FFBA1F"/>
<path d="M175.137 73.9129C175.014 73.8462 172.094 72.2743 170.524 70.8485L170.948 70.3785C172.464 71.7504 175.406 73.3382 175.438 73.354L175.14 73.9129H175.137Z" fill="#FFBA1F"/>
<path d="M153.966 36.9019L153.57 36.4065C155.329 34.9871 157.705 31.9671 157.73 31.9385L158.227 32.3323C158.129 32.4593 155.785 35.438 153.969 36.9019H153.966Z" fill="#FFBA1F"/>
<path d="M156.946 37.9943L156.55 37.4989C158.309 36.0795 160.685 33.0627 160.711 33.0309L161.207 33.4247C161.109 33.5517 158.765 36.5304 156.949 37.9943H156.946Z" fill="#FFBA1F"/>
<path d="M145.291 67.5999C145.881 67.5999 146.36 67.2118 146.36 66.733C146.36 66.2542 145.881 65.8661 145.291 65.8661C144.7 65.8661 144.221 66.2542 144.221 66.733C144.221 67.2118 144.7 67.5999 145.291 67.5999Z" fill="#403F4C"/>
<path d="M142.307 137.497C138.562 142.571 128.359 160.481 162.606 170.535C196.849 180.589 251.717 148.602 264.685 135.426C277.653 122.251 254.375 128.361 238.477 131.292C222.58 134.223 198.789 139.621 181.423 127.389C168.288 118.139 145.927 132.594 142.307 137.497Z" fill="#E5DC80"/>
</g>
<defs>
<clipPath id="clip0_488_872">
<rect width="243" height="150" fill="white" transform="translate(28 25)"/>
</clipPath>
</defs>
</svg>
