<svg width="300" height="200" viewBox="0 0 300 200" fill="none" xmlns="http://www.w3.org/2000/svg">
<mask id="mask0_488_924" style="mask-type:alpha" maskUnits="userSpaceOnUse" x="0" y="0" width="300" height="200">
<rect width="300" height="200" fill="#D9D9D9"/>
</mask>
<g mask="url(#mask0_488_924)">
</g>
<g clip-path="url(#clip0_488_924)">
<path d="M127.854 28.4643C128.136 28.4643 128.365 28.5119 128.534 28.6072C147.561 37.4802 177.397 82.9058 194.064 82.9058C194.995 82.9058 195.886 82.7629 196.735 82.4641C219.822 62.4101 199.107 53.4722 215.064 29.2438C214.601 35.7523 217.683 50.2764 222.06 60.5308C223.121 63.0164 229.731 68.4943 237.537 69.4817C227.926 80.6714 218.74 71.7335 213.458 84.6033C206.908 95.7671 207.605 112.283 207.553 127.405C209.038 129.163 210.722 131.302 211.969 132.913C218.995 141.99 230.537 158.194 229.221 161.359L229.19 161.433L229.121 161.468C227.264 162.451 223.761 162.819 219.476 162.819C213.16 162.819 205.133 162.018 198.146 161.195C196.804 162.121 195.276 162.879 193.527 163.425C189.124 164.802 184.908 165.98 180.86 166.984C168.102 170.15 157.08 171.527 147.556 171.527C128.963 171.527 116.079 166.274 107.209 158.809C98.252 159.904 82.5763 161.818 72.1172 161.818C67.7145 161.818 64.2296 161.481 62.5628 160.597C60.7533 156.249 85.8578 123.707 87.2561 123.707H87.2691C87.663 123.763 88.2777 124.066 89.0527 124.577C88.8102 123.04 88.6284 121.572 88.4985 120.19V120.138C88.4769 119.978 88.4639 119.818 88.4509 119.658C88.4509 119.614 88.4423 119.567 88.4379 119.524C88.4249 119.381 88.4163 119.242 88.4033 119.099C88.399 119.039 88.3946 118.982 88.3903 118.922C88.3816 118.792 88.373 118.662 88.3643 118.536C88.36 118.471 88.3557 118.402 88.3513 118.337C88.3427 118.216 88.3384 118.094 88.3297 117.973C88.3297 117.904 88.321 117.835 88.3167 117.765C88.3124 117.648 88.3037 117.536 88.2994 117.419C88.2994 117.35 88.2907 117.276 88.2907 117.207C88.2864 117.099 88.2821 116.986 88.2777 116.878C88.2777 116.804 88.2734 116.73 88.2691 116.661C88.2691 116.557 88.2604 116.453 88.2604 116.354C88.2604 116.28 88.2561 116.202 88.2518 116.129C88.2518 116.033 88.2474 115.938 88.2431 115.843C88.2431 115.765 88.2431 115.687 88.2388 115.613C88.2388 115.522 88.2388 115.431 88.2388 115.34C88.2388 115.262 88.2388 115.189 88.2388 115.115C88.2388 115.029 88.2388 114.938 88.2388 114.851C88.2388 114.777 88.2388 114.704 88.2388 114.63C88.2388 114.544 88.2388 114.461 88.2388 114.379C88.2388 114.305 88.2388 114.236 88.2388 114.163C88.2388 114.08 88.2388 114.002 88.2388 113.92C88.2388 113.846 88.2388 113.777 88.2388 113.708C88.2388 113.634 88.2388 113.556 88.2431 113.483C88.2431 113.409 88.2431 113.34 88.2474 113.27C88.2474 113.201 88.2474 113.132 88.2561 113.063C88.2561 112.989 88.2604 112.92 88.2648 112.85C88.2648 112.785 88.2691 112.725 88.2734 112.66C88.2734 112.591 88.2821 112.521 88.2821 112.452C88.2821 112.391 88.2864 112.331 88.2907 112.274C88.2907 112.205 88.2994 112.14 88.3037 112.075C88.3037 112.019 88.3124 111.963 88.3124 111.906C88.3167 111.837 88.321 111.768 88.3254 111.699C88.3254 111.651 88.334 111.603 88.334 111.556C88.3384 111.478 88.347 111.4 88.3557 111.322C88.3557 111.291 88.36 111.257 88.3643 111.227C88.373 111.123 88.386 111.019 88.3946 110.923V110.915C87.7409 108.819 87.2431 106.849 86.8838 104.969C77.784 60.7516 120.538 28.4643 127.854 28.4643ZM127.854 25C122.071 25 109.348 34.6178 100.07 46.0023C93.438 54.1391 88.5548 62.8648 85.5591 71.937C81.875 83.0747 81.1823 94.4203 83.4898 105.658C83.8361 107.463 84.3036 109.356 84.8881 111.291L84.8794 111.408V111.452L84.8707 111.499L84.8578 111.686L84.8491 111.828V111.906L84.8318 112.088L84.8231 112.235V112.283L84.8101 112.513L84.8015 112.682V112.755L84.7928 112.954V113.141L84.7842 113.175L84.7755 113.405V113.647L84.7668 113.877V115.682L84.7755 115.929L84.7842 116.237L84.7928 116.475L84.8058 116.8L84.8145 116.995V117.034L84.8318 117.38L84.8404 117.575V117.605L84.8621 117.969L84.8707 118.133V118.19C84.8794 118.315 84.8881 118.445 84.8967 118.575L84.9054 118.718V118.783C84.9184 118.922 84.927 119.056 84.94 119.194L84.9487 119.32V119.385C84.966 119.532 84.9746 119.679 84.9876 119.831L84.9963 119.922V119.97C85.0136 120.138 85.0309 120.303 85.0439 120.476V120.515C85.0612 120.667 85.0742 120.814 85.0915 120.966C84.282 121.524 83.4898 122.403 82.4854 123.555C81.2689 124.949 79.6888 126.877 77.9225 129.133C73.9224 134.238 69.7708 139.946 66.5413 144.791C64.1213 148.42 62.2641 151.482 61.0303 153.894C59.0649 157.726 58.5844 160.06 59.368 161.944C59.6753 162.684 60.2338 163.295 60.9438 163.672C63.065 164.798 66.511 165.296 72.1172 165.296C82.2473 165.296 96.7715 163.585 106.166 162.438C116.703 170.778 130.621 175.004 147.556 175.004C157.786 175.004 169.267 173.441 181.683 170.362H181.704C185.877 169.323 190.207 168.106 194.562 166.742C196.133 166.253 197.609 165.594 198.973 164.789C204.913 165.473 213.008 166.292 219.48 166.292C224.909 166.292 228.489 165.733 230.749 164.538L230.805 164.508C231.519 164.131 232.082 163.52 232.394 162.775L232.424 162.702C233.402 160.355 232.775 156.99 226.645 147.48C222.194 140.578 216.822 133.515 214.718 130.795C213.727 129.514 212.354 127.769 211.03 126.158C211.03 125.149 211.03 124.135 211.03 123.118C211.017 109.62 210.999 95.6631 216.458 86.3615C216.541 86.2186 216.614 86.0757 216.675 85.9241C218.748 80.8706 221.051 80.4548 225.233 79.6927C229.519 78.9132 234.848 77.9475 240.177 71.7464C241.009 70.7808 241.242 69.434 240.784 68.2432C240.325 67.0523 239.251 66.2122 237.987 66.052C231.454 65.2292 225.969 60.6087 225.255 59.1624C220.948 49.0726 218.164 35.2673 218.532 29.5815C218.541 29.4733 218.549 29.365 218.549 29.2524C218.549 27.425 217.134 25.9267 215.341 25.7968C215.255 25.7925 215.173 25.7881 215.086 25.7881C214.978 25.7881 214.874 25.7925 214.766 25.8011C214.147 25.8574 213.575 26.0783 213.095 26.416C212.835 26.5979 212.597 26.8188 212.389 27.0743C212.307 27.1739 212.229 27.2821 212.159 27.3947C204.268 39.4028 204.679 48.0073 205.042 55.6028C205.237 59.721 205.41 63.2762 204.185 67.0003C202.848 71.0709 199.938 75.0116 195.051 79.3549C194.748 79.4155 194.427 79.4459 194.085 79.4459C190.834 79.4459 186.055 76.7697 179.886 71.4953C173.864 66.3465 167.163 59.2879 160.682 52.4633C149.574 40.7799 139.097 29.7461 130.075 25.5023C129.417 25.1689 128.673 25 127.854 25Z" fill="#403F4C"/>
<path d="M87.2604 123.715C90.8016 124.222 111.776 144.423 110.503 158.415C99.7845 159.688 68.7318 163.871 62.5542 160.601C60.736 156.241 85.9877 123.533 87.2604 123.715Z" fill="#006E9E"/>
<path d="M128.539 28.6072C123.703 25.8878 73.3814 61.9338 88.399 110.923C87.0051 124.01 91.7714 195.253 193.527 163.429C218.16 155.725 199.618 108.2 213.463 84.6034C218.744 71.7335 227.93 80.6714 237.541 69.4817C229.736 68.4944 223.125 63.0164 222.065 60.5308C217.688 50.2721 214.605 35.7524 215.069 29.2438C199.112 53.4723 219.826 62.4102 196.739 82.4641C180.774 88.1023 148.63 37.9738 128.539 28.6072Z" fill="#207CAF"/>
<path d="M161.193 78.307C138.344 57.2484 105.17 52.5282 92.3514 76.5229C86.5201 88.4401 84.0266 96.9709 88.3946 110.928C87.0613 123.447 91.373 189.195 180.856 166.993C183.96 158.254 197.453 111.733 161.193 78.307Z" fill="#A4E2F7"/>
<path d="M160.331 109.282C160.331 124.296 144.738 132.086 125.499 132.086C106.261 132.086 90.6675 124.296 90.6675 109.282C90.6675 94.2687 106.261 77.718 125.499 77.718C144.738 77.718 160.331 94.2687 160.331 109.282Z" fill="#FFC112"/>
<path d="M125.499 77.718C109.824 77.718 96.568 88.7085 92.1956 100.899L96.3255 101.015L96.9403 96.2347L102.581 96.9709L104.598 89.2498L112.854 93.4979L116.075 86.2878L122.175 91.5709L126.482 84.7635L131.067 91.1422L136.643 86.0323L141.136 92.2897L146.418 87.8554L149.249 94.4809L154.175 92.411C147.89 84.036 137.391 77.7094 125.504 77.7094L125.499 77.718Z" fill="white"/>
<path d="M109.845 117.241C114.811 117.241 118.837 113.215 118.837 108.247C118.837 103.28 114.811 99.253 109.845 99.253C104.879 99.253 100.854 103.28 100.854 108.247C100.854 113.215 104.879 117.241 109.845 117.241Z" fill="white"/>
<path d="M109.845 101.951C106.369 101.951 103.551 104.77 103.551 108.247C103.551 109.767 104.088 111.157 104.984 112.244C105.17 111.4 105.923 110.763 106.824 110.763C107.867 110.763 108.711 111.608 108.711 112.651C108.711 113.305 108.378 113.881 107.871 114.219C108.49 114.422 109.153 114.539 109.841 114.539C113.317 114.539 116.135 111.72 116.135 108.243C116.135 104.766 113.317 101.947 109.841 101.947L109.845 101.951Z" fill="#403F4C"/>
<path d="M109.845 114.76C109.157 114.76 108.469 114.648 107.806 114.431L107.386 114.292L107.754 114.046C108.218 113.734 108.499 113.214 108.499 112.656C108.499 111.733 107.75 110.984 106.828 110.984C106.053 110.984 105.365 111.534 105.2 112.296L105.105 112.729L104.824 112.387C103.867 111.227 103.343 109.759 103.343 108.252C103.343 104.662 106.265 101.739 109.854 101.739C113.443 101.739 116.365 104.662 116.365 108.252C116.365 111.841 113.443 114.764 109.854 114.764L109.845 114.76ZM108.326 114.132C108.824 114.262 109.335 114.327 109.845 114.327C113.196 114.327 115.923 111.599 115.923 108.247C115.923 104.895 113.196 102.167 109.845 102.167C106.495 102.167 103.767 104.895 103.767 108.247C103.767 109.52 104.17 110.763 104.906 111.794C105.239 111.053 105.988 110.551 106.824 110.551C107.984 110.551 108.928 111.495 108.928 112.656C108.928 113.214 108.707 113.742 108.321 114.132H108.326Z" fill="#403F4C"/>
<path d="M140.547 117.241C145.513 117.241 149.539 113.215 149.539 108.247C149.539 103.28 145.513 99.253 140.547 99.253C135.581 99.253 131.556 103.28 131.556 108.247C131.556 113.215 135.581 117.241 140.547 117.241Z" fill="white"/>
<path d="M140.547 101.951C137.071 101.951 134.253 104.77 134.253 108.247C134.253 109.767 134.79 111.157 135.686 112.244C135.872 111.4 136.625 110.763 137.526 110.763C138.569 110.763 139.413 111.608 139.413 112.651C139.413 113.305 139.08 113.881 138.573 114.219C139.192 114.422 139.855 114.539 140.543 114.539C144.019 114.539 146.838 111.72 146.838 108.243C146.838 104.766 144.019 101.947 140.543 101.947L140.547 101.951Z" fill="#403F4C"/>
<path d="M140.547 114.76C139.859 114.76 139.171 114.648 138.508 114.431L138.088 114.292L138.456 114.046C138.92 113.734 139.197 113.214 139.197 112.656C139.197 111.733 138.448 110.984 137.526 110.984C136.751 110.984 136.062 111.534 135.898 112.296L135.803 112.729L135.521 112.387C134.564 111.227 134.041 109.759 134.041 108.252C134.041 104.662 136.963 101.739 140.552 101.739C144.14 101.739 147.063 104.662 147.063 108.252C147.063 111.841 144.14 114.764 140.552 114.764L140.547 114.76ZM139.028 114.132C139.526 114.262 140.036 114.327 140.547 114.327C143.898 114.327 146.625 111.599 146.625 108.247C146.625 104.895 143.898 102.167 140.547 102.167C137.197 102.167 134.469 104.895 134.469 108.247C134.469 109.52 134.872 110.763 135.608 111.794C135.941 111.053 136.69 110.551 137.526 110.551C138.686 110.551 139.63 111.495 139.63 112.656C139.63 113.214 139.409 113.742 139.023 114.132H139.028Z" fill="#403F4C"/>
<path d="M121.56 120.844C121.958 121.039 122.768 121.338 125.318 121.334C127.88 121.334 130.006 120.675 130.006 119.203C130.006 117.726 128.283 117.293 127.149 118.155C126.309 118.792 124.335 118.757 123.196 118.038C121.685 117.085 120.534 118.285 120.408 118.969C120.261 119.779 120.867 120.502 121.556 120.84L121.56 120.844Z" fill="#403F4C"/>
<path d="M204.315 124.391C200.774 124.898 185.968 145.653 187.241 159.644C197.96 160.918 222.848 164.551 229.021 161.281C230.84 156.921 205.588 124.213 204.315 124.395V124.391Z" fill="#006E9E"/>
<path d="M219.476 162.823C210.982 162.823 199.406 161.377 191.406 160.376C189.856 160.181 188.44 160.004 187.215 159.861L187.042 159.839L187.025 159.666C186.28 151.46 190.938 141.855 193.787 136.858C197.605 130.15 202.315 124.464 204.289 124.183C204.293 124.183 204.302 124.183 204.311 124.183C205.09 124.183 209.436 129.644 211.978 132.922C219.004 141.998 230.545 158.202 229.229 161.368L229.199 161.442L229.13 161.476C227.272 162.459 223.77 162.827 219.484 162.827L219.476 162.823ZM187.44 159.45C188.626 159.592 189.981 159.761 191.462 159.943C203.397 161.437 223.337 163.927 228.848 161.125C228.991 160.658 228.896 159.597 227.749 157.18C222.822 146.805 205.674 125.14 204.324 124.612C200.865 125.201 186.306 145.445 187.445 159.45H187.44Z" fill="#006E9E"/>
<path d="M122.201 37.6274C121.807 39.3249 121.859 42.5077 123.105 42.3388C124.352 42.1699 122.201 37.6274 122.201 37.6274Z" fill="#403F4C"/>
<path d="M117.984 37.6577C117.993 39.3985 117.235 42.4904 116.058 42.0487C114.88 41.607 117.984 37.6577 117.984 37.6577Z" fill="#403F4C"/>
<path d="M152.639 60.2579C152.639 60.2579 156.782 60.7949 161.535 60.1064C160.847 62.5617 160.232 64.2506 157.085 64.4021C153.937 64.5537 152.634 60.2579 152.634 60.2579H152.639Z" fill="#403F4C"/>
<path d="M153.924 117.536L151.781 122.269L146.522 120.498L145.045 126.054L139.967 122.615L137.011 127.946L131.794 124.066L128.149 129.6L123.261 125.153L119.638 129.366L115.859 124.945L111.954 127.829L109.092 123.04L104.036 126.058L102.114 121.771L97.936 124.239C104.304 129.431 114.283 132.09 125.508 132.09C139.366 132.09 151.331 128.046 156.942 120.173L153.933 117.54L153.924 117.536Z" fill="white"/>
</g>
<defs>
<clipPath id="clip0_488_924">
<rect width="182" height="150" fill="white" transform="translate(59 25)"/>
</clipPath>
</defs>
</svg>
