<svg width="183" height="150" viewBox="0 0 183 150" fill="none" xmlns="http://www.w3.org/2000/svg">
<g clip-path="url(#clip0_376_651)">
<path d="M27.5174 99.1333C31.1292 99.6489 52.5223 120.206 51.2241 134.444C40.2914 135.74 8.61906 139.997 2.31815 136.67C0.463645 132.232 26.2192 98.9483 27.5174 99.1333Z" fill="#006E9E"/>
<path d="M69.6146 2.34878C64.6825 -0.414231 13.3613 36.2628 28.6742 86.1203C27.2524 99.4374 32.1138 171.937 135.9 139.552C161.024 131.712 142.113 83.3485 156.233 59.3363C161.62 46.2396 170.99 55.3351 180.792 43.9481C172.831 42.9434 166.089 37.3689 165.007 34.8394C160.543 24.3999 157.399 9.62425 157.871 3.00097C141.596 27.6565 162.724 36.752 139.176 57.1594C122.892 62.897 90.1069 11.8849 69.6146 2.35318V2.34878Z" fill="#207CAF"/>
<path d="M102.925 52.9246C79.6201 31.4948 45.7842 26.6915 32.7099 51.109C26.7623 63.2363 24.219 71.9175 28.6742 86.1203C27.3142 98.8601 31.712 165.767 122.98 143.174C126.146 134.281 139.909 86.94 102.925 52.9246Z" fill="#A4E2F7"/>
<path d="M102.046 84.4458C102.046 99.7238 86.1418 107.652 66.5193 107.652C46.8969 107.652 30.9923 99.7238 30.9923 84.4458C30.9923 69.1677 46.8969 52.3253 66.5193 52.3253C86.1418 52.3253 102.046 69.1677 102.046 84.4458Z" fill="#FFC112"/>
<path d="M66.5194 52.3253C50.5309 52.3253 37.0107 63.5095 32.551 75.9144L36.7634 76.0334L37.3904 71.1684L43.1438 71.9175L45.2014 64.0603L53.6217 68.3833L56.9069 61.0462L63.1283 66.4223L67.5217 59.495L72.1977 65.9861L77.8849 60.7862L82.4681 67.1539L87.855 62.6414L90.7428 69.3837L95.7676 67.2772C89.3563 58.7547 78.6487 52.3165 66.5238 52.3165L66.5194 52.3253Z" fill="white"/>
<path d="M50.5529 92.5453C55.6179 92.5453 59.7239 88.4475 59.7239 83.3925C59.7239 78.3376 55.6179 74.2398 50.5529 74.2398C45.4879 74.2398 41.382 78.3376 41.382 83.3925C41.382 88.4475 45.4879 92.5453 50.5529 92.5453Z" fill="white"/>
<path d="M50.5529 76.9852C47.0073 76.9852 44.1328 79.854 44.1328 83.3926C44.1328 84.9394 44.6803 86.3539 45.5943 87.46C45.7842 86.6007 46.5525 85.9529 47.4709 85.9529C48.5351 85.9529 49.3961 86.8122 49.3961 87.8742C49.3961 88.5396 49.0561 89.1257 48.5395 89.4694C49.1709 89.6766 49.8465 89.7955 50.5485 89.7955C54.0942 89.7955 56.9686 86.9268 56.9686 83.3882C56.9686 79.8496 54.0942 76.9808 50.5485 76.9808L50.5529 76.9852Z" fill="#403F4C"/>
<path d="M50.553 90.0203C49.8509 90.0203 49.1488 89.9057 48.4733 89.6854L48.045 89.5443L48.4203 89.2932C48.8927 88.9759 49.1797 88.4471 49.1797 87.8786C49.1797 86.94 48.4159 86.1776 47.4754 86.1776C46.685 86.1776 45.9829 86.7373 45.8151 87.5128L45.718 87.9535L45.431 87.6054C44.4552 86.4244 43.9209 84.9305 43.9209 83.397C43.9209 79.7438 46.9014 76.7693 50.5618 76.7693C54.2222 76.7693 57.2027 79.7438 57.2027 83.397C57.2027 87.0501 54.2222 90.0247 50.5618 90.0247L50.553 90.0203ZM49.0031 89.3813C49.5109 89.5135 50.0319 89.5796 50.553 89.5796C53.9706 89.5796 56.7523 86.8034 56.7523 83.3926C56.7523 79.9818 53.9706 77.2055 50.553 77.2055C47.1354 77.2055 44.3536 79.9818 44.3536 83.3926C44.3536 84.6881 44.7643 85.9529 45.5149 87.0017C45.8549 86.2481 46.6188 85.7369 47.471 85.7369C48.6543 85.7369 49.6169 86.6976 49.6169 87.8786C49.6169 88.4471 49.3917 88.9847 48.9987 89.3813H49.0031Z" fill="#403F4C"/>
<path d="M81.8676 92.5453C86.9326 92.5453 91.0386 88.4475 91.0386 83.3925C91.0386 78.3376 86.9326 74.2398 81.8676 74.2398C76.8026 74.2398 72.6967 78.3376 72.6967 83.3925C72.6967 88.4475 76.8026 92.5453 81.8676 92.5453Z" fill="white"/>
<path d="M81.8676 76.9852C78.322 76.9852 75.4475 79.854 75.4475 83.3926C75.4475 84.9394 75.995 86.3539 76.909 87.46C77.0989 86.6007 77.8672 85.9529 78.7856 85.9529C79.8498 85.9529 80.7108 86.8122 80.7108 87.8742C80.7108 88.5396 80.3708 89.1257 79.8542 89.4694C80.4856 89.6766 81.1612 89.7955 81.8632 89.7955C85.4089 89.7955 88.2833 86.9268 88.2833 83.3882C88.2833 79.8496 85.4089 76.9808 81.8632 76.9808L81.8676 76.9852Z" fill="#403F4C"/>
<path d="M81.8677 90.0203C81.1656 90.0203 80.4636 89.9057 79.788 89.6854L79.3597 89.5443L79.735 89.2932C80.2075 88.9759 80.49 88.4471 80.49 87.8786C80.49 86.94 79.7262 86.1776 78.7857 86.1776C77.9953 86.1776 77.2932 86.7373 77.1254 87.5128L77.0283 87.9535L76.7413 87.6054C75.7655 86.4244 75.2312 84.9305 75.2312 83.397C75.2312 79.7438 78.2117 76.7693 81.8721 76.7693C85.5325 76.7693 88.513 79.7438 88.513 83.397C88.513 87.0501 85.5325 90.0247 81.8721 90.0247L81.8677 90.0203ZM80.3178 89.3813C80.8256 89.5135 81.3467 89.5796 81.8677 89.5796C85.2853 89.5796 88.067 86.8034 88.067 83.3926C88.067 79.9818 85.2853 77.2055 81.8677 77.2055C78.4501 77.2055 75.6683 79.9818 75.6683 83.3926C75.6683 84.6881 76.079 85.9529 76.8296 87.0017C77.1696 86.2481 77.9335 85.7369 78.7857 85.7369C79.969 85.7369 80.9316 86.6976 80.9316 87.8786C80.9316 88.4471 80.7064 88.9847 80.3134 89.3813H80.3178Z" fill="#403F4C"/>
<path d="M62.4969 96.2117C62.9031 96.41 63.7288 96.714 66.3295 96.7096C68.9435 96.7096 71.1115 96.0398 71.1115 94.5415C71.1115 93.0388 69.3541 92.5982 68.1973 93.4751C67.3407 94.1229 65.3272 94.0876 64.1659 93.3561C62.6249 92.3866 61.4504 93.6073 61.3224 94.3036C61.1722 95.1276 61.7904 95.8635 62.4925 96.2073L62.4969 96.2117Z" fill="#403F4C"/>
<path d="M147.717 100.212C144.105 100.727 129.004 121.848 130.302 136.087C141.235 137.382 166.619 141.079 172.916 137.752C174.77 133.315 149.015 100.031 147.717 100.216V100.212Z" fill="#006E9E"/>
<path d="M163.18 139.321C154.516 139.321 142.709 137.849 134.55 136.831C132.969 136.633 131.525 136.452 130.275 136.307L130.099 136.285L130.081 136.109C129.322 127.758 134.073 117.984 136.978 112.898C140.873 106.072 145.677 100.286 147.69 100C147.694 100 147.703 100 147.712 100C148.507 100 152.94 105.557 155.532 108.893C162.698 118.129 174.47 134.619 173.128 137.84L173.097 137.915L173.026 137.951C171.132 138.951 167.56 139.325 163.188 139.325L163.18 139.321ZM130.505 135.888C131.715 136.034 133.097 136.206 134.607 136.391C146.78 137.911 167.118 140.445 172.739 137.594C172.885 137.118 172.788 136.038 171.618 133.579C166.593 123.021 149.103 100.974 147.725 100.436C144.197 101.036 129.348 121.637 130.509 135.888H130.505Z" fill="#006E9E"/>
<path d="M63.1503 11.528C62.7485 13.2554 62.8015 16.4943 64.0732 16.3225C65.3448 16.1506 63.1503 11.528 63.1503 11.528Z" fill="#403F4C"/>
<path d="M58.854 11.5588C58.8629 13.3303 58.0902 16.4767 56.8892 16.0272C55.6881 15.5777 58.854 11.5588 58.854 11.5588Z" fill="#403F4C"/>
<path d="M94.1957 34.5574C94.1957 34.5574 98.4213 35.1039 103.27 34.4032C102.567 36.9018 101.94 38.6204 98.7304 38.7747C95.5203 38.9289 94.1913 34.5574 94.1913 34.5574H94.1957Z" fill="#403F4C"/>
<path d="M95.5114 92.845L93.3258 97.6615L87.9609 95.8592L86.4552 101.513L81.2759 98.014L78.2601 103.439L72.9394 99.4903L69.2216 105.122L64.2365 100.596L60.5407 104.884L56.686 100.385L52.7032 103.32L49.7846 98.4459L44.6273 101.517L42.6668 97.1547L38.4059 99.6666C44.9011 104.95 55.0788 107.656 66.5281 107.656C80.6621 107.656 92.8665 103.54 98.589 95.5287L95.5203 92.8494L95.5114 92.845Z" fill="white"/>
<path d="M68.9212 2.20335C69.2082 2.20335 69.4422 2.25183 69.6144 2.34878C89.0205 11.3781 119.452 57.6045 136.452 57.6045C137.401 57.6045 138.311 57.4591 139.176 57.155C162.724 36.7476 141.596 27.6521 157.871 2.99656C157.399 9.61985 160.543 24.4 165.007 34.835C166.088 37.3601 172.831 42.939 180.792 43.9437C170.99 55.3306 161.62 46.2352 156.233 59.3319C149.504 70.7762 150.277 87.7508 150.206 103.236C157.408 111.807 173.582 133.81 172.102 137.357C170.239 138.34 166.715 138.71 162.388 138.71C156.034 138.71 147.954 137.912 140.885 137.088C139.45 138.12 137.803 138.952 135.895 139.547C131.405 140.949 127.104 142.147 122.976 143.17C109.963 146.391 98.7214 147.792 89.0073 147.792C70.0427 147.792 56.9022 142.447 47.8549 134.85C38.7193 135.965 22.7308 137.912 12.0629 137.912C7.57238 137.912 4.01792 137.569 2.31795 136.67C0.472277 132.245 26.0777 99.1289 27.5039 99.1289H27.5172C27.919 99.1862 28.546 99.4947 29.3363 100.015C29.0891 98.4503 28.9036 96.9564 28.7712 95.5507V95.4978C28.7491 95.3348 28.7358 95.1717 28.7226 95.0087C28.7226 94.9646 28.7138 94.9161 28.7093 94.872C28.6961 94.7266 28.6873 94.5856 28.674 94.4402C28.6696 94.3785 28.6652 94.3212 28.6608 94.2595C28.6519 94.1273 28.6431 93.9951 28.6343 93.8673C28.6299 93.8012 28.6254 93.7307 28.621 93.6646C28.6122 93.5412 28.6078 93.4178 28.5989 93.2945C28.5989 93.2239 28.5901 93.1534 28.5857 93.0829C28.5813 92.9639 28.5725 92.8494 28.568 92.7304C28.568 92.6599 28.5592 92.585 28.5592 92.5145C28.5548 92.4043 28.5504 92.2897 28.546 92.1796C28.546 92.1046 28.5415 92.0297 28.5371 91.9592C28.5371 91.8535 28.5283 91.7477 28.5283 91.6463C28.5283 91.5714 28.5239 91.4921 28.5195 91.4172C28.5195 91.3202 28.5151 91.2233 28.5106 91.1263C28.5106 91.047 28.5106 90.9677 28.5062 90.8928C28.5062 90.8002 28.5062 90.7077 28.5062 90.6152C28.5062 90.5359 28.5062 90.4609 28.5062 90.386C28.5062 90.2979 28.5062 90.2053 28.5062 90.1172C28.5062 90.0423 28.5062 89.9674 28.5062 89.8925C28.5062 89.8043 28.5062 89.7206 28.5062 89.6369C28.5062 89.562 28.5062 89.4915 28.5062 89.4165C28.5062 89.3328 28.5062 89.2535 28.5062 89.1698C28.5062 89.0949 28.5062 89.0243 28.5062 88.9538C28.5062 88.8789 28.5062 88.7996 28.5106 88.7247C28.5106 88.6498 28.5106 88.5793 28.5151 88.5088C28.5151 88.4383 28.5151 88.3677 28.5239 88.2972C28.5239 88.2223 28.5283 88.1518 28.5327 88.0813C28.5327 88.0152 28.5371 87.9535 28.5415 87.8874C28.5415 87.8169 28.5504 87.7464 28.5504 87.6759C28.5504 87.6142 28.5548 87.5525 28.5592 87.4952C28.5592 87.4247 28.568 87.3586 28.5725 87.2925C28.5725 87.2352 28.5813 87.1779 28.5813 87.1207C28.5857 87.0501 28.5901 86.9796 28.5945 86.9091C28.5945 86.8607 28.6034 86.8122 28.6034 86.7637C28.6078 86.6844 28.6166 86.6051 28.6254 86.5257C28.6254 86.4949 28.6299 86.4596 28.6343 86.4288C28.6431 86.323 28.6563 86.2173 28.6652 86.1203V86.1115C27.9984 83.9787 27.4907 81.9736 27.1242 80.0611C17.8472 35.0598 61.459 2.20335 68.9212 2.20335ZM68.9212 0C64.073 0 51.6611 8.57546 41.607 20.8834C34.944 29.0402 30.0428 37.7743 27.0359 46.8565C23.3533 57.9703 22.6557 69.2911 24.965 80.4974C25.3227 82.3658 25.8172 84.3312 26.4309 86.3495C26.4221 86.4332 26.4177 86.5125 26.4089 86.5963L26.4 86.702V86.7505L26.3912 86.7946L26.378 86.9752L26.3691 87.1074V87.2L26.3515 87.3762L26.3426 87.5217V87.5701L26.3294 87.7949V87.9491L26.3206 87.9976V88.0372L26.3117 88.2267V88.4206L26.3029 88.4471V88.6762L26.2896 88.9142V89.1433L26.2808 89.3989V90.9369L26.2941 91.1792L26.3029 91.4833L26.3117 91.7213L26.3206 92.0474L26.3294 92.2545L26.347 92.6202L26.3559 92.8141V92.845L26.378 93.2107L26.3868 93.3782V93.4311C26.3956 93.5589 26.4045 93.6866 26.4133 93.8144L26.4221 93.9555V94.0216C26.4354 94.1582 26.4442 94.2904 26.453 94.4314L26.4619 94.546V94.6165C26.4795 94.7663 26.4883 94.9117 26.5016 95.0615L26.5104 95.1497V95.2026C26.5281 95.37 26.5457 95.5375 26.559 95.7049V95.7402C26.6031 96.1808 26.6473 96.6215 26.7003 97.0622C25.9011 97.353 25.0931 98.155 23.6271 99.8296C22.3996 101.231 20.8056 103.174 19.0218 105.448C14.9595 110.622 10.7515 116.399 7.47083 121.299C-0.459391 133.171 -0.397575 135.894 0.277995 137.52C0.476692 137.992 0.829932 138.38 1.28473 138.622C3.22313 139.644 6.64513 140.12 12.0629 140.12C22.5188 140.12 37.6551 138.318 47.1838 137.154C57.7412 145.677 71.8089 150 89.0073 150C99.3307 150 110.935 148.422 123.497 145.316H123.501C127.749 144.262 132.138 143.033 136.558 141.654C138.333 141.098 139.975 140.336 141.454 139.375C147.433 140.067 155.765 140.918 162.388 140.918C167.643 140.918 171.056 140.407 173.136 139.309C173.59 139.071 173.944 138.679 174.142 138.208C174.844 136.529 174.871 133.669 166.243 120.947C161.514 113.975 155.902 106.647 152.423 102.443C152.423 101.147 152.423 99.8384 152.423 98.5252C152.409 84.6132 152.392 70.2253 158.141 60.4468C158.194 60.3587 158.238 60.2662 158.277 60.1692C160.666 54.3568 163.58 53.828 167.996 53.0303C172.16 52.2768 177.344 51.3382 182.47 45.3803C183 44.7634 183.146 43.9085 182.854 43.1505C182.563 42.3925 181.878 41.8593 181.07 41.758C173.652 40.8238 167.74 35.6062 167.038 33.9713C163.342 25.3342 159.589 10.3822 160.07 3.2213C160.079 3.14639 160.083 3.07148 160.083 2.99656C160.083 1.82438 159.169 0.868122 158.017 0.797614C157.968 0.797614 157.924 0.793208 157.876 0.793208C157.805 0.793208 157.734 0.793208 157.664 0.802021C157.271 0.837275 156.909 0.97829 156.604 1.18981C156.441 1.30439 156.286 1.4454 156.158 1.60404C156.105 1.67014 156.057 1.74065 156.008 1.81116C148.184 13.6784 148.594 22.2142 148.956 29.7453C149.363 38.2502 149.685 44.9881 138.072 55.1896C137.564 55.3262 137.026 55.3967 136.456 55.3967C127.947 55.3967 113.858 40.5902 101.424 27.5243C90.1906 15.7275 79.5802 4.57857 70.6035 0.378977C70.1178 0.127795 69.5526 0 68.9212 0Z" fill="#403F4C"/>
</g>
<defs>
<clipPath id="clip0_376_651">
<rect width="183" height="150" fill="white"/>
</clipPath>
</defs>
</svg>
