<svg width="300" height="200" viewBox="0 0 300 200" fill="none" xmlns="http://www.w3.org/2000/svg">
<path d="M217.397 159.935C209.594 159.935 200.502 158.834 191.19 157.405C190.781 157.343 190.39 157.28 190.032 157.229C186.225 158.909 179.857 160.86 174.993 157.997C173.313 157.009 170.507 154.637 170.199 149.735C169.733 146.791 170.042 143.676 170.362 141.637C170.218 141.297 170.06 140.92 169.89 140.53C160.389 118.18 153.361 96.6733 166.166 90.6957C172.112 87.9209 180.958 86.9015 189.837 87.9712C195.814 88.6948 206.391 90.9977 210.066 98.3344C211.293 100.788 212.3 103.62 212.281 107.597C216.648 106.848 219.939 107.559 222.147 108.043C230.163 109.793 235.015 119.47 237.192 125.083C240.426 133.42 241.621 142.241 240.401 148.691C238.79 157.185 229.71 159.922 217.403 159.922L217.397 159.935ZM189.044 144.444C189.296 144.444 189.541 144.456 189.793 144.488C190.554 144.582 191.624 144.746 193.096 144.972C197.922 145.715 206.001 146.954 213.766 147.294C223.871 147.741 227.256 146.331 228.118 145.84C229.547 136.452 222.751 121.502 219.41 120.338C216.66 119.74 213.489 119.048 207.272 123.195C205.02 124.699 202.056 124.585 199.917 122.924C197.777 121.263 196.947 118.413 197.853 115.864C200.716 107.779 199.571 105.501 198.816 103.991C196.884 101.084 180.726 98.196 171.973 101.896C171.709 102.852 171.187 106.483 174.113 116.166C176.359 123.604 179.562 131.123 181.468 135.622C182.053 136.994 182.475 137.988 182.752 138.705C183.211 139.888 183.305 141.178 183.016 142.411C182.777 143.443 182.538 145.148 182.544 146.558C183.683 146.237 185.048 145.715 186.137 145.155C187.037 144.689 188.037 144.45 189.044 144.45V144.444Z" fill="#403F4C"/>
<path d="M187.873 191.226C186.804 191.226 185.904 191.006 185.249 190.767C179.033 188.514 170.192 181.184 166.757 173.256C162.944 164.472 172.501 151.252 176.786 145.973C177.919 144.582 179.593 143.739 181.386 143.657C183.142 143.575 184.853 144.236 186.105 145.476C189.226 148.276 198.727 153.498 200.294 153.863C203.012 154.486 205.082 156.556 205.831 159.388C207.738 166.624 199.684 183.493 194.266 188.445C191.894 190.616 189.648 191.226 187.873 191.226ZM178.416 168.499C180.033 171.972 183.953 175.647 187.074 177.648C189.251 174.577 192.108 168.392 193.159 164.522C189.899 163.006 186.143 160.759 183.053 158.714C180.373 162.798 178.404 166.825 178.41 168.492L178.416 168.499ZM186.13 145.507C186.13 145.507 186.156 145.532 186.174 145.551C186.162 145.538 186.149 145.526 186.13 145.507Z" fill="#403F4C"/>
<path d="M77.2375 191.226C75.4631 191.226 73.2231 190.616 70.8509 188.445C65.4334 183.493 57.3793 166.624 59.2859 159.388C60.0347 156.55 62.1048 154.486 64.823 153.863C66.3898 153.504 75.891 148.276 79.0119 145.476C80.2577 144.236 81.9755 143.575 83.731 143.657C85.5243 143.739 87.198 144.582 88.3306 145.973C92.6156 151.245 102.173 164.465 98.3604 173.256C94.9248 181.184 86.0843 188.514 79.8676 190.767C79.2132 191.006 78.3135 191.226 77.2375 191.226ZM71.9521 164.528C73.0029 168.398 75.8658 174.583 78.0366 177.654C81.1575 175.653 85.0776 171.972 86.6947 168.505C86.7009 166.838 84.7315 162.811 82.051 158.727C78.9678 160.772 75.2051 163.018 71.9458 164.535L71.9521 164.528ZM78.9804 145.507C78.9804 145.507 78.949 145.538 78.9364 145.551C78.949 145.538 78.9616 145.526 78.9804 145.507Z" fill="#403F4C"/>
<path d="M132.557 192C116.43 192 102.405 188.665 91.9977 182.348C79.9104 175.017 73.5176 164.239 73.5176 151.183C73.5176 138.126 79.8601 124.762 90.9155 114.216C102.481 103.186 117.267 97.1075 132.551 97.1075C147.835 97.1075 162.628 103.186 174.193 114.216C185.248 124.762 191.59 138.24 191.59 151.183C191.59 164.126 185.204 175.011 173.11 182.348C162.703 188.659 148.678 192 132.551 192H132.557ZM132.557 109.698C120.52 109.698 108.817 114.537 99.605 123.327C91.1546 131.387 86.1082 141.807 86.1082 151.189C86.1082 172.022 111.132 179.416 132.557 179.416C153.982 179.416 179.012 172.022 179.012 151.189C179.012 141.807 173.966 131.387 165.516 123.327C156.304 114.537 144.6 109.698 132.563 109.698H132.557Z" fill="#403F4C"/>
<path d="M110.248 170.43C99.5699 170.43 90.8867 161.747 90.8867 151.069C90.8867 140.392 99.5699 131.708 110.248 131.708C120.926 131.708 129.609 140.392 129.609 151.069C129.609 161.747 120.926 170.43 110.248 170.43ZM110.248 144.293C106.51 144.293 103.471 147.332 103.471 151.069C103.471 154.807 106.51 157.846 110.248 157.846C113.985 157.846 117.024 154.807 117.024 151.069C117.024 147.332 113.985 144.293 110.248 144.293Z" fill="#403F4C"/>
<path d="M110.248 166.51C108.612 166.51 106.982 166.246 105.409 165.73C103.981 165.258 102.798 164.302 102.031 163.069C100.602 162.804 99.2745 162.043 98.3181 160.879C96.0529 158.123 94.8008 154.643 94.8008 151.069C94.8008 142.556 101.728 135.628 110.242 135.628C118.755 135.628 125.683 142.556 125.683 151.069C125.683 159.583 118.755 166.51 110.242 166.51H110.248ZM108.48 148.823C110.28 149.37 111.84 150.465 112.973 151.912C113.054 151.648 113.098 151.359 113.098 151.069C113.098 149.496 111.815 148.213 110.242 148.213C109.575 148.213 108.964 148.439 108.474 148.823H108.48Z" fill="#403F4C"/>
<path d="M154.871 170.43C144.193 170.43 135.51 161.747 135.51 151.069C135.51 140.391 144.193 131.708 154.871 131.708C165.549 131.708 174.232 140.391 174.232 151.069C174.232 161.747 165.549 170.43 154.871 170.43ZM154.871 144.293C151.133 144.293 148.094 147.332 148.094 151.069C148.094 154.807 151.133 157.846 154.871 157.846C158.608 157.846 161.648 154.807 161.648 151.069C161.648 147.332 158.608 144.293 154.871 144.293Z" fill="#403F4C"/>
<path d="M154.871 166.51C153.235 166.51 151.605 166.246 150.038 165.73C148.61 165.258 147.421 164.302 146.659 163.068C145.231 162.804 143.91 162.043 142.947 160.879C140.682 158.123 139.43 154.643 139.43 151.069C139.43 142.556 146.357 135.628 154.871 135.628C163.384 135.628 170.312 142.556 170.312 151.069C170.312 159.583 163.384 166.51 154.871 166.51ZM153.109 148.823C154.908 149.37 156.469 150.465 157.602 151.912C157.683 151.648 157.727 151.359 157.727 151.069C157.727 149.496 156.444 148.213 154.871 148.213C154.204 148.213 153.593 148.439 153.109 148.823Z" fill="#403F4C"/>
<path d="M132.722 176.383C128.84 176.383 126.455 175.986 124.492 175.024C120.755 173.186 118.71 169.367 119.408 165.529C119.905 162.817 121.862 160.407 124.524 159.237C127.135 158.091 130.073 158.286 132.647 159.765C135.29 158.274 138.53 158.129 141.204 159.457C144.061 160.872 145.835 163.761 145.835 166.995C145.835 170.594 143.627 173.652 139.914 175.168C137.945 175.974 135.529 176.383 132.729 176.383H132.722Z" fill="#403F4C"/>
<path d="M69.5987 175.395C67.3524 175.395 65.1753 174.187 64.0427 172.066C62.4068 169.002 63.5582 165.189 66.6225 163.553C68.4599 162.571 71.9772 160.457 73.6069 158.991C76.1867 156.663 80.1633 156.864 82.4914 159.444C84.8195 162.024 84.6182 166.001 82.0384 168.329C78.7413 171.305 73.179 174.313 72.5561 174.646C71.6122 175.15 70.5929 175.389 69.5924 175.389L69.5987 175.395Z" fill="#403F4C"/>
<path d="M71.587 179.881C69.3407 179.881 67.1636 178.673 66.031 176.553C64.395 173.488 65.5465 169.675 68.6108 168.039C70.4481 167.058 73.9655 164.944 75.5951 163.477C78.1749 161.149 82.1516 161.351 84.4797 163.931C86.8078 166.51 86.6065 170.487 84.0267 172.815C80.7296 175.791 75.1673 178.799 74.5506 179.132C73.6068 179.636 72.5875 179.875 71.587 179.875V179.881Z" fill="#403F4C"/>
<path d="M73.714 184.814C71.4677 184.814 69.2906 183.606 68.158 181.486C66.522 178.421 67.6735 174.608 70.7378 172.972C72.7827 171.878 76.7091 169.524 78.5401 167.869C81.1199 165.541 85.0965 165.743 87.4246 168.322C89.7528 170.902 89.5514 174.879 86.9716 177.207C83.3976 180.429 77.3509 183.707 76.6713 184.066C75.7275 184.569 74.7081 184.808 73.7077 184.808L73.714 184.814Z" fill="#403F4C"/>
<path d="M195.852 174.394C194.852 174.394 193.839 174.155 192.889 173.652C192.266 173.318 186.703 170.311 183.406 167.335C180.826 165.006 180.625 161.03 182.953 158.45C185.281 155.87 189.258 155.669 191.838 157.997C193.467 159.463 196.985 161.577 198.822 162.559C201.886 164.201 203.038 168.014 201.396 171.072C200.263 173.193 198.086 174.394 195.846 174.394H195.852Z" fill="#403F4C"/>
<path d="M193.862 178.881C192.862 178.881 191.843 178.642 190.899 178.138C190.276 177.805 184.72 174.797 181.423 171.821C178.843 169.493 178.642 165.516 180.97 162.936C183.298 160.357 187.275 160.155 189.854 162.483C191.484 163.956 195.001 166.064 196.839 167.045C199.903 168.687 201.054 172.5 199.412 175.565C198.28 177.685 196.109 178.887 193.862 178.887V178.881Z" fill="#403F4C"/>
<path d="M191.737 183.814C190.736 183.814 189.723 183.575 188.773 183.071C188.093 182.706 182.04 179.435 178.473 176.213C175.893 173.885 175.691 169.908 178.02 167.328C180.348 164.749 184.331 164.547 186.904 166.875C188.735 168.53 192.668 170.883 194.713 171.978C197.777 173.621 198.929 177.434 197.293 180.492C196.16 182.612 193.983 183.814 191.743 183.814H191.737Z" fill="#403F4C"/>
<path d="M164.806 64.4322H102.847C99.3736 64.4322 96.5547 61.6133 96.5547 58.14V34.8652C96.5547 31.3919 99.3736 28.573 102.847 28.573H164.806C168.279 28.573 171.098 31.3919 171.098 34.8652V58.14C171.098 61.6133 168.279 64.4322 164.806 64.4322ZM109.139 51.8478H158.514V41.1574H109.139V51.8478Z" fill="#403F4C"/>
<path d="M177.874 99.6558H91.8156C88.3423 99.6558 85.5234 96.8369 85.5234 93.3636V70.0888C85.5234 66.6155 88.3423 63.7966 91.8156 63.7966H177.874C181.347 63.7966 184.166 66.6155 184.166 70.0888V93.3636C184.166 96.8369 181.347 99.6558 177.874 99.6558ZM98.1078 87.0714H171.582V76.381H98.1078V87.0714Z" fill="#403F4C"/>
<path d="M180.56 120.414H84.8752C81.4019 120.414 78.583 117.595 78.583 114.122V90.8468C78.583 87.3735 81.4019 84.5546 84.8752 84.5546H180.56C184.034 84.5546 186.853 87.3735 186.853 90.8468V114.122C186.853 117.595 184.034 120.414 180.56 120.414ZM91.1674 107.829H174.268V97.139H91.1674V107.829Z" fill="#403F4C"/>
<path d="M185.413 142.241H79.7609C77.4643 142.241 75.2997 141.216 73.8274 139.429C72.3235 137.598 71.7195 135.207 72.1788 132.866L76.6526 110.069C77.3699 106.414 80.56 103.758 84.2284 103.758H180.939C184.614 103.758 187.798 106.414 188.515 110.069L192.989 132.866C193.448 135.207 192.844 137.598 191.34 139.429C189.868 141.216 187.71 142.241 185.413 142.241ZM85.6378 129.657H179.536L176.925 116.349H88.2491L85.6378 129.657Z" fill="#403F4C"/>
<path d="M169.279 47.3551C169.247 47.3551 169.21 47.3551 169.178 47.3551L96.0756 46.4553C92.5772 46.4113 89.6387 44.1461 88.9214 40.9497C88.2418 37.8854 89.7897 34.7582 92.703 33.355L95.3898 32.0588C103.431 17.2785 106.319 15.8439 109.478 15.4663C111.674 15.2083 128.443 15.1769 133.527 15.1769C156.166 15.1769 156.663 15.3594 158.003 15.8816C160.319 16.7814 160.885 17.0016 170.5 33.2921L172.475 34.1856C175.521 35.5636 177.157 38.7285 176.458 41.8872C175.741 45.1214 172.79 47.3551 169.273 47.3551H169.279ZM108.729 34.022L156.65 34.6134C154.612 31.2157 153.316 29.1392 152.498 27.8808C144.456 27.7109 119.942 27.7235 112.656 27.8997C111.806 29.0197 110.472 31.0395 108.729 34.022Z" fill="#403F4C"/>
<path d="M79.2201 85.7816C75.4259 85.7816 72.2735 83.4346 71.5247 80.0431C70.8074 76.7774 72.5441 73.4992 75.7531 72.0709L79.5976 70.3531C93.5725 47.6887 94.8121 47.2167 97.0081 46.3736C98.2665 45.8954 99.1726 45.5493 132.112 45.0397C139.657 44.9264 164.498 44.574 167.537 44.9264C171.287 45.3606 174.364 48.3556 179.738 56.7998C182.393 60.9715 184.973 65.527 186.565 68.4214L191.429 70.7244C194.531 72.1967 196.141 75.3428 195.443 78.5644C194.707 81.9307 191.548 84.3218 187.76 84.3658L79.3333 85.769C79.2956 85.769 79.2578 85.769 79.2138 85.769L79.2201 85.7816ZM102.344 58.3225C100.481 60.9211 96.9074 66.4079 92.7671 73.0273L174.144 71.9702C169.551 63.8407 166.317 59.1656 164.756 57.3912C155.676 57.215 112.757 57.8568 102.344 58.3225Z" fill="#403F4C"/>
<path d="M109.919 71.8066C106.911 71.8066 104.262 69.9253 103.287 67.0812C102.299 64.1931 103.287 61.0344 105.741 59.216L130.809 40.6729C133.238 38.8733 136.541 38.8293 139.02 40.5659L163.805 57.9324C166.284 59.669 167.36 62.7773 166.486 65.6655C165.611 68.5662 162.975 70.5608 159.936 70.6363L110.083 71.8192C110.026 71.8192 109.969 71.8192 109.913 71.8192L109.919 71.8066ZM135.081 53.1566L127.449 58.807L142.632 58.4483L135.088 53.1629L135.081 53.1566Z" fill="#403F4C"/>
<path d="M110.593 71.8066C107.516 71.8066 104.848 69.8812 103.923 66.9679C102.992 64.0483 104.086 60.9211 106.647 59.1908L131.042 42.6989C133.37 41.1196 136.416 41.0819 138.794 42.5983L162.918 58.0456C165.498 59.7004 166.675 62.771 165.851 65.6969C165.02 68.6542 162.371 70.6866 159.269 70.7558L110.75 71.8066C110.7 71.8066 110.643 71.8066 110.593 71.8066ZM135.082 55.1638L129.689 58.8069L140.418 58.5741L135.088 55.1638H135.082Z" fill="#403F4C"/>
<path d="M112.895 72.6813C109.856 72.6813 107.213 70.7747 106.295 67.8866C105.37 64.9859 106.452 61.8902 108.988 60.1724L131.073 45.241C133.395 43.6806 136.403 43.6428 138.75 45.1466L160.584 59.1279C163.138 60.7639 164.309 63.8156 163.491 66.7163C162.666 69.6484 160.042 71.6619 156.966 71.7311L113.052 72.6813C113.002 72.6813 112.945 72.6813 112.895 72.6813ZM135.075 57.731L132.193 59.6753L137.919 59.5495L135.075 57.7247V57.731Z" fill="#403F4C"/>
<path d="M135.817 53.1062C135.635 53.1062 135.465 53.1062 135.308 53.1062H134.861H134.414C132.847 53.1314 129.922 53.1628 127.587 50.8599C126.562 49.8469 125.341 48.0536 125.341 45.241C125.341 39.987 129.613 35.7083 134.861 35.7083C140.109 35.7083 144.381 39.9807 144.381 45.241C144.381 48.0536 143.16 49.8469 142.135 50.8599C140.033 52.9363 137.453 53.1125 135.817 53.1125V53.1062ZM134.861 40.8176C133.282 41.4971 131.797 43.2526 131.797 45.241C131.797 46.9273 133.175 48.2927 134.861 48.2927C136.547 48.2927 137.925 46.921 137.925 45.241C137.925 43.2589 136.44 41.5034 134.861 40.8176Z" fill="#403F4C"/>
<path d="M157.589 57.4038H111.807C108.332 57.4038 105.515 60.2209 105.515 63.696V74.5186C105.515 77.9936 108.332 80.8107 111.807 80.8107H157.589C161.064 80.8107 163.881 77.9936 163.881 74.5186V63.696C163.881 60.2209 161.064 57.4038 157.589 57.4038Z" fill="#403F4C"/>
<path d="M130.525 52.0743H127.926C124.451 52.0743 121.634 54.8914 121.634 58.3665V62.5005C121.634 65.9756 124.451 68.7927 127.926 68.7927H130.525C134 68.7927 136.817 65.9756 136.817 62.5005V58.3665C136.817 54.8914 134 52.0743 130.525 52.0743Z" fill="#403F4C"/>
<path d="M136 52.0743H133.402C129.926 52.0743 127.109 54.8914 127.109 58.3665V62.5005C127.109 65.9756 129.926 68.7927 133.402 68.7927H136C139.475 68.7927 142.292 65.9756 142.292 62.5005V58.3665C142.292 54.8914 139.475 52.0743 136 52.0743Z" fill="#403F4C"/>
<path d="M141.474 52.0743H138.875C135.4 52.0743 132.583 54.8914 132.583 58.3665V62.5005C132.583 65.9756 135.4 68.7927 138.875 68.7927H141.474C144.949 68.7927 147.766 65.9756 147.766 62.5005V58.3665C147.766 54.8914 144.949 52.0743 141.474 52.0743Z" fill="#403F4C"/>
<path d="M109.919 92.401C106.911 92.401 104.262 90.5196 103.287 87.6756C102.299 84.7875 103.287 81.6288 105.741 79.8103L130.809 61.2673C133.244 59.4677 136.548 59.4236 139.033 61.1603L163.812 78.5204C166.291 80.2571 167.367 83.3654 166.492 86.2535C165.617 89.1542 162.981 91.1489 159.942 91.2244L110.089 92.4073C110.032 92.4073 109.976 92.4073 109.919 92.4073V92.401ZM135.081 73.751L127.449 79.4013L142.632 79.0427L135.088 73.7572L135.081 73.751Z" fill="#403F4C"/>
<path d="M110.593 92.4009C107.516 92.4009 104.848 90.4755 103.923 87.5622C102.992 84.6427 104.086 81.5154 106.647 79.7851L131.042 63.2933C133.377 61.7139 136.422 61.6762 138.8 63.1989L162.918 78.6399C165.498 80.2948 166.675 83.3653 165.851 86.2912C165.02 89.2485 162.371 91.2809 159.269 91.3501L110.75 92.4009C110.7 92.4009 110.643 92.4009 110.593 92.4009ZM135.082 75.7581L129.689 79.4013L140.418 79.1685L135.088 75.7581H135.082Z" fill="#403F4C"/>
<path d="M135.817 73.7005C135.635 73.7005 135.465 73.7005 135.308 73.7005H134.861H134.414C132.847 73.7257 129.922 73.7571 127.587 71.4542C126.562 70.4412 125.341 68.6479 125.341 65.8353C125.341 60.5813 129.613 56.3026 134.861 56.3026C140.109 56.3026 144.381 60.5813 144.381 65.8353C144.381 68.6479 143.16 70.4412 142.135 71.4542C140.033 73.5306 137.453 73.7068 135.817 73.7068V73.7005ZM134.861 61.4119C133.282 62.0914 131.797 63.8469 131.797 65.8353C131.797 67.5153 133.175 68.887 134.861 68.887C136.547 68.887 137.925 67.5153 137.925 65.8353C137.925 63.8532 136.44 62.0977 134.861 61.4119Z" fill="#403F4C"/>
<path d="M112.896 93.1749C109.851 93.1749 107.214 91.2621 106.296 88.3803C105.371 85.4796 106.459 82.3775 108.995 80.666L131.081 65.7347C133.402 64.1742 136.41 64.1365 138.757 65.6403L160.591 79.6215C163.146 81.2575 164.316 84.3029 163.498 87.2036C162.674 90.1358 160.056 92.1556 156.979 92.2185L113.06 93.1686C113.009 93.1686 112.953 93.1686 112.902 93.1686L112.896 93.1749ZM135.076 78.2184L132.194 80.1627L137.92 80.0368L135.076 78.2121V78.2184Z" fill="#403F4C"/>
<path d="M130.525 72.568H127.926C124.451 72.568 121.634 75.3851 121.634 78.8602V82.9941C121.634 86.4692 124.451 89.2863 127.926 89.2863H130.525C134 89.2863 136.817 86.4692 136.817 82.9941V78.8602C136.817 75.3851 134 72.568 130.525 72.568Z" fill="#403F4C"/>
<path d="M136 72.568H133.402C129.926 72.568 127.109 75.3851 127.109 78.8602V82.9941C127.109 86.4692 129.926 89.2863 133.402 89.2863H136C139.475 89.2863 142.292 86.4692 142.292 82.9941V78.8602C142.292 75.3851 139.475 72.568 136 72.568Z" fill="#403F4C"/>
<path d="M141.474 72.568H138.875C135.4 72.568 132.583 75.3851 132.583 78.8602V82.9941C132.583 86.4692 135.4 89.2863 138.875 89.2863H141.474C144.949 89.2863 147.766 86.4692 147.766 82.9941V78.8602C147.766 75.3851 144.949 72.568 141.474 72.568Z" fill="#403F4C"/>
<path d="M194.605 109.78C194.561 109.78 194.517 109.78 194.466 109.78L70.7745 108.27C65.3128 108.207 63.0162 104.866 62.7142 102.028C62.4247 99.3349 63.8908 96.0504 67.7353 94.8737L70.2082 93.8481C88.0906 78.6525 89.7454 78.3316 91.4883 77.9981C92.2308 77.8534 93.4704 77.6143 134.376 78.0421C149.376 78.1994 175.533 78.5266 178.421 78.772C183.996 79.2376 188.023 85.102 192.289 91.3124C193.327 92.8225 194.397 94.3829 195.083 95.2072L197.537 96.6733C201.212 98.1457 202.501 101.342 202.105 104.029C201.715 106.697 199.513 109.786 194.611 109.786L194.605 109.78ZM87.4299 95.8868L180.938 97.032C179.522 94.9996 177.603 92.338 176.433 91.262C167.202 90.9097 104.501 90.2553 94.452 90.4C93.0991 91.3501 90.576 93.3258 87.4299 95.8868Z" fill="#403F4C"/>
<path d="M81.9059 104.646C78.9549 104.646 76.3437 102.796 75.381 99.9956C74.4057 97.1515 75.3809 94.0432 77.7971 92.2499L98.8508 76.6768C101.242 74.9087 104.489 74.8646 106.93 76.5698L127.738 91.1488C130.173 92.854 131.237 95.912 130.375 98.7561C129.513 101.613 126.92 103.576 123.931 103.645L82.0758 104.639C82.0192 104.639 81.9626 104.639 81.9059 104.639V104.646ZM103.054 89.2234L99.7883 91.6396L106.282 91.4823L103.054 89.2234Z" fill="#403F4C"/>
<path d="M82.4789 104.646C79.4524 104.646 76.8285 102.745 75.9161 99.8824C74.9975 97.0005 76.0735 93.9174 78.5966 92.2122L99.084 78.3631C101.374 76.8089 104.369 76.7712 106.71 78.2687L126.958 91.2306C129.5 92.8603 130.658 95.8931 129.846 98.7812C129.029 101.695 126.424 103.695 123.366 103.765L82.6299 104.646C82.5796 104.646 82.5229 104.646 82.4726 104.646H82.4789ZM103.054 90.8657L101.915 91.6396L104.181 91.5893L103.054 90.8657ZM106.138 88.7829H106.131C106.131 88.7829 106.131 88.7829 106.138 88.7829Z" fill="#403F4C"/>
<path d="M103.646 88.9466C103.489 88.9466 103.344 88.9466 103.218 88.9466H102.853H102.488C101.129 88.9655 98.2978 89.0032 96.0389 86.7695C94.6294 85.3789 93.8555 83.4472 93.8555 81.333C93.8555 76.3622 97.8951 72.3226 102.853 72.3226C107.812 72.3226 111.851 76.3622 111.851 81.333C111.851 83.4472 111.077 85.3789 109.668 86.7695C107.623 88.7893 105.112 88.9529 103.646 88.9529V88.9466ZM102.853 76.5384C101.054 77.1299 99.2667 79.0742 99.2667 81.3268C99.2667 83.2962 100.871 84.9007 102.853 84.9007C104.835 84.9007 106.44 83.2962 106.44 81.3268C106.44 79.0742 104.653 77.1236 102.853 76.5384Z" fill="#403F4C"/>
<path d="M84.423 104.702C81.428 104.702 78.7475 102.745 77.8792 99.9075C76.9983 97.0194 78.1183 93.9677 80.6792 92.3129L99.2223 80.3325C101.431 78.9042 104.313 78.8665 106.565 80.2444L124.894 91.4634C127.468 93.0365 128.676 96.0441 127.889 98.9322C127.097 101.858 124.504 103.865 121.434 103.928L84.5615 104.69C84.5174 104.69 84.4671 104.69 84.423 104.69V104.702ZM106.049 90.9097H106.043C106.043 90.9097 106.043 90.9097 106.049 90.9097Z" fill="#403F4C"/>
<path d="M99.2158 85.9766H97.0324C93.5573 85.9766 90.7402 88.7937 90.7402 92.2688V95.7358C90.7402 99.2109 93.5573 102.028 97.0324 102.028H99.2158C102.691 102.028 105.508 99.2109 105.508 95.7358V92.2688C105.508 88.7937 102.691 85.9766 99.2158 85.9766Z" fill="#403F4C"/>
<path d="M103.815 85.9766H101.632C98.157 85.9766 95.3398 88.7937 95.3398 92.2688V95.7358C95.3398 99.2109 98.157 102.028 101.632 102.028H103.815C107.291 102.028 110.108 99.2109 110.108 95.7358V92.2688C110.108 88.7937 107.291 85.9766 103.815 85.9766Z" fill="#403F4C"/>
<path d="M108.409 85.9766H106.226C102.751 85.9766 99.9336 88.7937 99.9336 92.2688V95.7358C99.9336 99.2109 102.751 102.028 106.226 102.028H108.409C111.884 102.028 114.701 99.2109 114.701 95.7358V92.2688C114.701 88.7937 111.884 85.9766 108.409 85.9766Z" fill="#403F4C"/>
<path d="M143.872 104.646C140.914 104.646 138.309 102.796 137.347 99.9893C136.371 97.1453 137.347 94.0369 139.763 92.2436L160.81 76.6705C163.208 74.8961 166.454 74.8583 168.89 76.5635L189.698 91.1425C192.139 92.854 193.196 95.912 192.334 98.7561C191.472 101.613 188.88 103.576 185.891 103.645L144.035 104.639C143.979 104.639 143.922 104.639 143.865 104.639L143.872 104.646ZM165.026 89.2234L161.76 91.6396L168.254 91.4823L165.026 89.2234Z" fill="#403F4C"/>
<path d="M144.444 104.646C141.417 104.646 138.793 102.745 137.881 99.8824C136.962 97.0005 138.038 93.9174 140.561 92.2122L161.049 78.3631C163.339 76.8089 166.341 76.7712 168.675 78.2687L188.923 91.2306C191.465 92.8603 192.623 95.8931 191.811 98.7749C190.993 101.688 188.388 103.689 185.33 103.758L144.595 104.639C144.544 104.639 144.488 104.639 144.437 104.639L144.444 104.646ZM165.019 90.8657L163.88 91.6396L166.145 91.5893L165.019 90.8657ZM168.102 88.7829H168.096C168.096 88.7829 168.096 88.7829 168.102 88.7829Z" fill="#403F4C"/>
<path d="M165.611 88.9466C165.454 88.9466 165.309 88.9466 165.183 88.9466H164.818H164.453C163.094 88.9655 160.263 89.0032 158.004 86.7695C156.594 85.3789 155.82 83.4472 155.82 81.333C155.82 76.3622 159.86 72.3226 164.818 72.3226C169.776 72.3226 173.816 76.3622 173.816 81.333C173.816 83.4472 173.042 85.3789 171.633 86.7695C169.588 88.7893 167.077 88.9529 165.611 88.9529V88.9466ZM164.818 76.5384C163.019 77.1299 161.232 79.0742 161.232 81.3268C161.232 83.2962 162.836 84.9007 164.818 84.9007C166.8 84.9007 168.405 83.2962 168.405 81.3268C168.405 79.0742 166.618 77.1236 164.818 76.5384Z" fill="#403F4C"/>
<path d="M146.381 104.702C143.386 104.702 140.712 102.752 139.844 99.9138C138.957 97.0256 140.083 93.9739 142.637 92.3191L161.181 80.3388C163.389 78.9104 166.271 78.8727 168.524 80.2507L186.853 91.4696C189.426 93.0427 190.634 96.0441 189.848 98.9385C189.055 101.864 186.463 103.872 183.392 103.934L146.52 104.696C146.476 104.696 146.425 104.696 146.381 104.696V104.702ZM168.014 90.9096H168.008C168.008 90.9096 168.008 90.9096 168.014 90.9096Z" fill="#403F4C"/>
<path d="M161.182 85.9766H158.998C155.523 85.9766 152.706 88.7937 152.706 92.2688V95.7358C152.706 99.2109 155.523 102.028 158.998 102.028H161.182C164.657 102.028 167.474 99.2109 167.474 95.7358V92.2688C167.474 88.7937 164.657 85.9766 161.182 85.9766Z" fill="#403F4C"/>
<path d="M165.774 85.9766H163.591C160.116 85.9766 157.299 88.7937 157.299 92.2688V95.7358C157.299 99.2109 160.116 102.028 163.591 102.028H165.774C169.249 102.028 172.067 99.2109 172.067 95.7358V92.2688C172.067 88.7937 169.249 85.9766 165.774 85.9766Z" fill="#403F4C"/>
<path d="M170.368 85.9766H168.185C164.71 85.9766 161.893 88.7937 161.893 92.2688V95.7358C161.893 99.2109 164.71 102.028 168.185 102.028H170.368C173.843 102.028 176.66 99.2109 176.66 95.7358V92.2688C176.66 88.7937 173.843 85.9766 170.368 85.9766Z" fill="#403F4C"/>
<path d="M98.8632 60.8267C94.9117 60.8267 90.7777 58.7377 88.8775 55.4721C86.3669 51.1493 86.6312 46.2226 89.5759 42.6171C93.5652 37.7218 99.9769 38.502 103.979 41.7299C105.753 43.1646 106.615 45.436 106.231 47.6761C107.226 49.0729 107.559 50.5768 107.66 51.6653C108.025 55.6671 105.722 59.1656 101.94 60.3674C100.958 60.682 99.9203 60.8267 98.8632 60.8267ZM96.1764 51.6024C96.8119 51.8541 98.4416 51.659 99.3288 50.5642C99.7001 50.1111 99.8007 49.4001 99.7126 49.0729C99.4169 48.5947 99.1086 48.3304 98.9639 48.2361C98.9009 48.2361 98.8191 48.2361 98.7122 48.2424L96.0695 51.5206C96.0695 51.5206 96.1009 51.552 96.1701 51.5961L96.1764 51.6024Z" fill="#403F4C"/>
<path d="M92.7843 92.3443C89.3991 92.3443 85.9321 90.5636 84.2709 87.707C82.1316 84.0323 82.3833 79.8103 84.9253 76.6956C87.5617 73.4615 92.8723 72.0457 97.5286 75.7959C99.0827 77.0543 99.9385 78.9545 99.8693 80.9177C100.498 82.0818 100.706 83.2143 100.769 83.9191C101.103 87.6 98.9821 90.8216 95.4899 91.929C94.6216 92.2059 93.7092 92.338 92.7843 92.338V92.3443ZM93.0171 81.3896L89.6256 85.5928C90.9281 86.6436 93.4324 86.1717 94.6782 84.6427C95.5025 83.6296 95.5906 82.1384 95.1501 81.377C94.5964 80.4332 93.9861 79.999 93.4198 79.8291V80.6597L93.5771 80.6912L93.4198 80.8862V81.4651L93.0171 81.3833V81.3896Z" fill="#403F4C"/>
<path d="M167.348 60.8268C166.297 60.8268 165.253 60.6757 164.271 60.3674C160.489 59.1593 158.193 55.6609 158.551 51.6653C158.652 50.5831 158.986 49.0792 159.98 47.6761C159.602 45.4361 160.458 43.1583 162.232 41.73C166.234 38.5021 172.64 37.7155 176.635 42.6172C179.574 46.2289 179.844 51.1494 177.327 55.4721C175.427 58.744 171.299 60.8268 167.342 60.8268H167.348ZM166.498 49.0729C166.417 49.4001 166.517 50.1049 166.888 50.5579C167.776 51.6527 169.405 51.8478 170.041 51.5961C170.104 51.5521 170.142 51.5206 170.142 51.5206L167.499 48.2424C167.392 48.2298 167.31 48.2298 167.247 48.2361C167.102 48.3305 166.794 48.5947 166.498 49.0729Z" fill="#403F4C"/>
<path d="M176.906 92.854C175.987 92.854 175.075 92.7219 174.2 92.445C170.708 91.3313 168.588 88.1097 168.921 84.4288C168.984 83.7241 169.192 82.5915 169.821 81.4274C169.752 79.4642 170.601 77.5577 172.162 76.3056C176.811 72.5554 182.128 73.9712 184.765 77.2053C187.307 80.3263 187.552 84.542 185.419 88.2167C183.764 91.0733 180.297 92.854 176.906 92.854ZM176.27 80.3451C175.698 80.515 175.087 80.9492 174.54 81.893C174.1 82.6481 174.188 84.1393 175.012 85.1524C176.258 86.6814 178.762 87.1533 180.065 86.1025L176.673 81.8993L176.27 81.9811V81.4022L176.113 81.2072L176.27 81.1757V80.3451Z" fill="#403F4C"/>
<path d="M111.813 31.5807C107.308 31.5807 102.5 29.1959 100.374 25.5276C97.454 20.5001 97.7246 15.0259 101.11 10.8731C103.916 7.43125 108.207 6.17911 112.587 7.53822C115.022 8.28699 116.784 9.61464 117.262 10.0048C119.093 11.4771 119.949 13.8493 119.477 16.1522L119.357 16.7563C120.515 18.0588 121.188 19.7073 121.371 21.6956C121.767 26.075 119.357 29.7559 115.223 31.0773C114.141 31.4234 112.989 31.587 111.813 31.587V31.5807Z" fill="#403F4C"/>
<path d="M155.67 31.5807C154.493 31.5807 153.341 31.4171 152.259 31.071C148.125 29.7559 145.715 26.075 146.112 21.6956C146.294 19.701 146.967 18.0525 148.125 16.7563L148.006 16.1522C147.54 13.8493 148.396 11.4771 150.221 10.0047C150.699 9.61463 152.461 8.29327 154.896 7.5382C159.275 6.18538 163.566 7.43124 166.373 10.8794C169.758 15.0322 170.028 20.5064 167.109 25.5339C164.982 29.1959 160.175 31.5869 155.67 31.5869V31.5807Z" fill="#403F4C"/>
<path d="M176.884 140.977C176.884 140.977 175.802 145.576 176.457 149.068C176.67 157.198 189.028 150.742 189.028 150.742C194.893 151.453 232.111 158.626 234.206 147.539C236.308 136.453 228.858 115.972 220.791 114.21C217.375 113.467 212.209 112.341 203.777 117.96C207.194 108.301 206.011 104.325 204.432 101.172C200.732 93.7915 179.043 91.6396 168.818 96.4091C158.593 101.185 174.739 135.471 176.878 140.977H176.884Z" fill="#FFAB15"/>
<path d="M181.673 149.943C183.265 151.573 194.566 159.004 198.889 159.998C203.211 160.992 192.074 186.545 187.393 184.852C182.711 183.159 175.236 176.987 172.537 170.758C169.838 164.528 181.679 149.949 181.679 149.949L181.673 149.943Z" fill="#FFD985"/>
<path d="M83.4391 149.943C81.8472 151.573 70.5464 159.004 66.2237 159.998C61.901 160.992 73.0381 186.545 77.7195 184.852C82.4009 183.159 89.876 176.987 92.5754 170.758C95.2747 164.528 83.4328 149.949 83.4328 149.949L83.4391 149.943Z" fill="#FFD985"/>
<path d="M185.298 151.189C185.298 173.916 161.683 185.708 132.557 185.708C103.43 185.708 79.8154 173.916 79.8154 151.189C79.8154 128.461 103.43 103.406 132.557 103.406C161.683 103.406 185.298 128.461 185.298 151.189Z" fill="#FFC112"/>
<path d="M110.245 164.138C117.462 164.138 123.314 158.287 123.314 151.069C123.314 143.852 117.462 138 110.245 138C103.027 138 97.1758 143.852 97.1758 151.069C97.1758 158.287 103.027 164.138 110.245 164.138Z" fill="white"/>
<path d="M110.245 141.92C105.192 141.92 101.096 146.017 101.096 151.069C101.096 153.278 101.876 155.298 103.178 156.877C103.449 155.65 104.544 154.725 105.853 154.725C107.369 154.725 108.596 155.952 108.596 157.468C108.596 158.419 108.111 159.255 107.375 159.746C108.275 160.042 109.238 160.212 110.238 160.212C115.291 160.212 119.387 156.116 119.387 151.063C119.387 146.01 115.291 141.914 110.238 141.914L110.245 141.92Z" fill="#403F4C"/>
<path d="M110.244 160.533C109.244 160.533 108.243 160.369 107.281 160.055L106.67 159.853L107.205 159.495C107.878 159.041 108.281 158.286 108.281 157.475C108.281 156.134 107.193 155.046 105.852 155.046C104.726 155.046 103.726 155.845 103.486 156.952L103.348 157.582L102.939 157.085C101.548 155.398 100.787 153.265 100.787 151.076C100.787 145.859 105.034 141.612 110.251 141.612C115.467 141.612 119.714 145.859 119.714 151.076C119.714 156.292 115.467 160.539 110.251 160.539L110.244 160.533ZM108.036 159.62C108.759 159.809 109.502 159.904 110.244 159.904C115.114 159.904 119.079 155.939 119.079 151.069C119.079 146.199 115.114 142.235 110.244 142.235C105.374 142.235 101.41 146.199 101.41 151.069C101.41 152.919 101.995 154.725 103.065 156.223C103.549 155.147 104.638 154.417 105.852 154.417C107.539 154.417 108.91 155.788 108.91 157.475C108.91 158.286 108.589 159.054 108.029 159.62H108.036Z" fill="#403F4C"/>
<path d="M154.869 164.138C162.086 164.138 167.938 158.287 167.938 151.069C167.938 143.852 162.086 138 154.869 138C147.651 138 141.8 143.852 141.8 151.069C141.8 158.287 147.651 164.138 154.869 164.138Z" fill="white"/>
<path d="M154.869 141.92C149.816 141.92 145.72 146.017 145.72 151.069C145.72 153.278 146.5 155.298 147.802 156.877C148.073 155.65 149.168 154.725 150.477 154.725C151.993 154.725 153.22 155.952 153.22 157.468C153.22 158.419 152.736 159.255 151.999 159.746C152.899 160.042 153.862 160.212 154.862 160.212C159.915 160.212 164.011 156.116 164.011 151.063C164.011 146.01 159.915 141.914 154.862 141.914L154.869 141.92Z" fill="#403F4C"/>
<path d="M154.868 160.533C153.868 160.533 152.874 160.369 151.905 160.055L151.294 159.853L151.829 159.495C152.502 159.041 152.905 158.286 152.905 157.475C152.905 156.134 151.817 155.046 150.476 155.046C149.35 155.046 148.35 155.845 148.11 156.952L147.972 157.582L147.563 157.085C146.172 155.398 145.411 153.265 145.411 151.076C145.411 145.859 149.658 141.612 154.875 141.612C160.091 141.612 164.338 145.859 164.338 151.076C164.338 156.292 160.091 160.539 154.875 160.539L154.868 160.533ZM152.66 159.62C153.383 159.809 154.126 159.904 154.868 159.904C159.738 159.904 163.703 155.939 163.703 151.069C163.703 146.199 159.738 142.235 154.868 142.235C149.998 142.235 146.034 146.199 146.034 151.069C146.034 152.919 146.619 154.725 147.689 156.223C148.173 155.147 149.262 154.417 150.476 154.417C152.163 154.417 153.534 155.788 153.534 157.475C153.534 158.286 153.213 159.054 152.653 159.62H152.66Z" fill="#403F4C"/>
<path d="M127.265 169.373C127.844 169.656 129.02 170.091 132.726 170.084C136.432 170.078 139.541 169.128 139.541 166.989C139.541 164.843 137.036 164.214 135.388 165.466C134.167 166.391 131.298 166.34 129.643 165.296C127.447 163.912 125.773 165.655 125.591 166.649C125.377 167.825 126.258 168.876 127.258 169.367L127.265 169.373Z" fill="#403F4C"/>
<path d="M69.8922 169.656L69.3008 168.549C69.3511 168.518 74.6743 165.661 77.4051 163.201L78.2483 164.132C75.4042 166.699 70.1188 169.537 69.8922 169.656Z" fill="#FFBA1F"/>
<path d="M71.8737 174.143L71.2822 173.035C71.3326 173.01 76.6558 170.147 79.3866 167.687L80.2297 168.618C77.3856 171.185 72.1002 174.023 71.8737 174.143Z" fill="#FFBA1F"/>
<path d="M74.0065 179.076L73.415 177.968C73.4717 177.937 79.3297 174.791 82.3437 172.073L83.1868 173.004C80.0596 175.823 74.2582 178.944 74.0128 179.076H74.0065Z" fill="#FFBA1F"/>
<path d="M195.56 168.656C195.334 168.536 190.048 165.699 187.204 163.131L188.047 162.2C190.778 164.667 196.101 167.523 196.152 167.549L195.56 168.656Z" fill="#FFBA1F"/>
<path d="M193.572 173.136C193.345 173.016 188.066 170.179 185.216 167.605L186.059 166.674C188.79 169.14 194.113 171.997 194.163 172.029L193.572 173.136Z" fill="#FFBA1F"/>
<path d="M191.445 178.075C191.199 177.943 185.391 174.829 182.271 172.003L183.114 171.072C186.121 173.79 191.979 176.936 192.042 176.968L191.451 178.075H191.445Z" fill="#FFBA1F"/>
<path d="M164.797 34.8652H102.838V58.14H164.797V34.8652Z" fill="#67402B"/>
<path d="M177.872 70.0951H91.8135V93.3699H177.872V70.0951Z" fill="#F2ECDE"/>
<path d="M180.559 90.8468H84.874V114.122H180.559V90.8468Z" fill="#F2ECDE"/>
<path d="M185.41 135.949H79.758C78.8457 135.949 78.1661 135.043 78.3549 134.08L82.8286 111.284C82.9671 110.566 83.5522 110.057 84.2318 110.057H180.943C181.622 110.057 182.207 110.566 182.346 111.284L186.82 134.08C187.008 135.043 186.329 135.949 185.416 135.949H185.41Z" fill="#9E978F"/>
<path d="M169.882 39.9178L166.094 38.2001C165.408 37.0675 156.725 22.1298 155.731 21.746C154.699 21.3433 112.73 21.4188 110.213 21.7145C108.08 21.9662 102.002 33.0279 100.202 36.3879C100.108 36.5578 100.032 36.7088 99.9629 36.8346L95.4388 39.018C94.6649 39.3893 95.1368 40.1506 96.1498 40.1632L169.252 41.063C170.297 41.0756 170.725 40.2954 169.882 39.9178Z" fill="#44C17A"/>
<path d="M78.3171 77.8157L83.9423 75.3114C84.9553 73.6565 97.7914 52.8168 99.2637 52.2568C100.793 51.6716 163.092 50.753 166.823 51.1871C169.988 51.5521 179.005 67.6852 181.679 72.5869C181.817 72.8385 181.931 73.0525 182.031 73.2412L188.739 76.4188C189.89 76.9662 189.192 78.0674 187.682 78.0862L79.2483 79.4894C77.7004 79.5083 77.0649 78.3757 78.3108 77.8157H78.3171Z" fill="#44C17A"/>
<path d="M109.476 64.2623L134.545 45.7129C134.796 45.5242 135.149 45.5179 135.413 45.7003L160.191 63.0605C160.751 63.4506 160.475 64.3 159.782 64.3189L109.936 65.5019C109.237 65.5207 108.923 64.665 109.476 64.256V64.2623Z" fill="#44C17A"/>
<path d="M110.168 64.4007L134.569 47.9089C134.814 47.739 135.16 47.739 135.412 47.8963L159.53 63.3373C160.071 63.6834 159.807 64.4385 159.134 64.4573L110.621 65.5081C109.941 65.5207 109.633 64.7657 110.174 64.4007H110.168Z" fill="#F2ECDE"/>
<path d="M112.508 65.3886L134.594 50.4572C134.821 50.3062 135.129 50.2999 135.355 50.4509L157.183 64.4259C157.674 64.7405 157.435 65.4263 156.824 65.4389L112.911 66.389C112.295 66.4016 112.018 65.7158 112.508 65.3823V65.3886Z" fill="white"/>
<path d="M138.081 45.2347C138.081 47.0217 136.634 46.8014 134.853 46.8014C133.072 46.8014 131.625 47.0217 131.625 45.2347C131.625 43.4477 133.072 41.9942 134.853 41.9942C136.634 41.9942 138.081 43.4414 138.081 45.2347Z" fill="#EFBB55"/>
<path d="M157.587 63.696H111.805V74.5186H157.587V63.696Z" fill="#F2ECDE"/>
<path d="M130.523 58.3665H127.925V62.5005H130.523V58.3665Z" fill="#80CFDB"/>
<path d="M135.998 58.3665H133.399V62.5005H135.998V58.3665Z" fill="#80CFDB"/>
<path d="M141.472 58.3665H138.873V62.5005H141.472V58.3665Z" fill="#80CFDB"/>
<path d="M109.476 84.8629L134.545 66.3135C134.796 66.1247 135.149 66.1184 135.413 66.3009L160.191 83.6611C160.751 84.0512 160.475 84.9006 159.782 84.9195L109.936 86.1024C109.237 86.1213 108.923 85.2656 109.476 84.8566V84.8629Z" fill="#44C17A"/>
<path d="M110.168 85.0014L134.569 68.5095C134.814 68.3396 135.16 68.3396 135.412 68.4969L159.53 83.938C160.071 84.284 159.807 85.0391 159.134 85.058L110.621 86.1088C109.941 86.1214 109.633 85.3663 110.174 85.0014H110.168Z" fill="#F2ECDE"/>
<path d="M138.081 65.8353C138.081 67.6223 136.634 67.4021 134.853 67.4021C133.072 67.4021 131.625 67.6223 131.625 65.8353C131.625 64.0483 133.072 62.5948 134.853 62.5948C136.634 62.5948 138.081 64.0421 138.081 65.8353Z" fill="#EFBB55"/>
<path d="M112.508 85.8823L134.594 70.9509C134.821 70.7999 135.129 70.7936 135.355 70.9446L157.183 84.9196C157.674 85.2342 157.435 85.92 156.824 85.9326L112.911 86.8827C112.295 86.8953 112.018 86.2095 112.508 85.876V85.8823Z" fill="white"/>
<path d="M130.523 78.8602H127.925V82.9941H130.523V78.8602Z" fill="#80CFDB"/>
<path d="M135.998 78.8602H133.399V82.9941H135.998V78.8602Z" fill="#80CFDB"/>
<path d="M141.472 78.8602H138.873V82.9941H141.472V78.8602Z" fill="#80CFDB"/>
<path d="M69.7857 100.832L73.5295 99.2783C74.8006 98.196 90.896 84.5168 92.6767 84.1708C94.5328 83.8121 173.437 84.6615 177.892 85.0328C181.667 85.3474 187.588 96.3084 190.615 99.6558C190.766 99.8257 190.904 99.9767 191.017 100.103L194.837 102.387C196.196 102.777 196.347 103.5 194.541 103.481L70.8491 101.971C68.9992 101.952 68.2756 101.172 69.7857 100.826V100.832Z" fill="#44C17A"/>
<path d="M81.5386 97.3088L102.586 81.7356C102.8 81.5783 103.096 81.572 103.316 81.7293L124.124 96.3083C124.596 96.6355 124.363 97.3528 123.784 97.3654L81.9287 98.3596C81.3435 98.3722 81.0793 97.6548 81.5449 97.3151L81.5386 97.3088Z" fill="#44C17A"/>
<path d="M82.124 97.4221L102.611 83.573C102.819 83.4346 103.108 83.4283 103.322 83.5667L123.571 96.5349C124.03 96.8244 123.803 97.4599 123.237 97.4725L82.5015 98.3534C81.9289 98.366 81.6709 97.7304 82.124 97.4221Z" fill="#F2ECDE"/>
<path d="M105.562 81.333C105.562 82.8368 104.347 82.648 102.856 82.648C101.365 82.648 100.15 82.8305 100.15 81.333C100.15 79.8354 101.365 78.6147 102.856 78.6147C104.347 78.6147 105.562 79.8354 105.562 81.333Z" fill="#EFBB55"/>
<path d="M84.0869 97.6045L102.63 85.6242C102.819 85.5046 103.077 85.4983 103.272 85.6179L121.601 96.8369C122.016 97.0886 121.809 97.636 121.299 97.6486L84.4267 98.4099C83.9107 98.4225 83.6779 97.8688 84.0869 97.6045Z" fill="white"/>
<path d="M99.2137 92.2688H97.0303V95.7358H99.2137V92.2688Z" fill="#80CFDB"/>
<path d="M103.813 92.2688H101.63V95.7358H103.813V92.2688Z" fill="#80CFDB"/>
<path d="M108.406 92.2688H106.223V95.7358H108.406V92.2688Z" fill="#80CFDB"/>
<path d="M143.503 97.3088L164.551 81.7356C164.765 81.5783 165.06 81.572 165.281 81.7293L186.089 96.3083C186.561 96.6355 186.328 97.3528 185.749 97.3654L143.894 98.3596C143.308 98.3722 143.044 97.6548 143.51 97.3151L143.503 97.3088Z" fill="#44C17A"/>
<path d="M144.083 97.4221L164.57 83.573C164.778 83.4346 165.067 83.4283 165.281 83.5667L185.53 96.5349C185.989 96.8244 185.762 97.4599 185.196 97.4725L144.461 98.3534C143.888 98.366 143.63 97.7304 144.083 97.4221Z" fill="#F2ECDE"/>
<path d="M167.521 81.333C167.521 82.8368 166.306 82.648 164.815 82.648C163.324 82.648 162.109 82.8305 162.109 81.333C162.109 79.8354 163.324 78.6147 164.815 78.6147C166.306 78.6147 167.521 79.8354 167.521 81.333Z" fill="#EFBB55"/>
<path d="M146.053 97.6045L164.596 85.6242C164.785 85.5046 165.043 85.4983 165.238 85.6179L183.567 96.8369C183.982 97.0886 183.774 97.636 183.265 97.6486L146.393 98.4099C145.877 98.4225 145.644 97.8688 146.053 97.6045Z" fill="white"/>
<path d="M161.179 92.2688H158.996V95.7358H161.179V92.2688Z" fill="#80CFDB"/>
<path d="M165.772 92.2688H163.589V95.7358H165.772V92.2688Z" fill="#80CFDB"/>
<path d="M170.365 92.2688H168.182V95.7358H170.365V92.2688Z" fill="#80CFDB"/>
<path d="M99.7985 47.7704C98.0619 47.7704 96.514 48.9533 97.8668 49.8594C99.2197 50.7655 101.208 50.1992 101.39 52.2316C101.718 55.8181 95.7149 54.7107 94.3181 52.3134C93.4309 50.7907 92.8583 48.5443 94.4502 46.5938C96.6399 43.9007 100.025 46.6315 100.025 46.6315L99.7923 47.7767L99.7985 47.7704Z" fill="#EFBB55"/>
<path d="M93.4182 81.4714C92.2415 81.4714 91.197 82.2705 92.1094 82.8808C93.0218 83.4912 94.3746 83.1073 94.4941 84.4853C94.7144 86.9141 90.6496 86.1591 89.7058 84.5357C89.108 83.5038 88.7179 81.9873 89.7939 80.666C91.2788 78.8475 93.5692 80.6911 93.5692 80.6911L93.4119 81.4651L93.4182 81.4714Z" fill="#EFBB55"/>
<path d="M166.409 47.7704C168.145 47.7704 169.693 48.9533 168.34 49.8594C166.987 50.7655 164.999 50.1992 164.817 52.2316C164.489 55.8181 170.492 54.7107 171.889 52.3134C172.776 50.7907 173.349 48.5443 171.757 46.5938C169.567 43.9007 166.182 46.6315 166.182 46.6315L166.415 47.7767L166.409 47.7704Z" fill="#EFBB55"/>
<path d="M176.268 81.981C177.445 81.981 178.489 82.7801 177.577 83.3905C176.665 84.0008 175.312 83.617 175.192 84.995C174.972 87.4238 179.037 86.6687 179.981 85.0453C180.578 84.0134 180.968 82.497 179.892 81.1756C178.408 79.3572 176.117 81.2008 176.117 81.2008L176.274 81.9747L176.268 81.981Z" fill="#EFBB55"/>
<path d="M113.005 16.4039C110.721 16.4039 108.689 17.9581 110.47 19.1473C112.25 20.3365 114.862 19.594 115.107 22.2682C115.535 26.9811 107.645 25.5213 105.814 22.3689C104.649 20.368 103.894 17.4169 105.99 14.8497C108.872 11.3135 113.32 14.9001 113.32 14.9001L113.018 16.4039H113.005Z" fill="#EFBB55"/>
<path d="M154.472 16.4039C156.756 16.4039 158.788 17.9581 157.008 19.1473C155.227 20.3365 152.616 19.594 152.37 22.2682C151.942 26.9811 159.833 25.5213 161.664 22.3689C162.828 20.368 163.583 17.4169 161.488 14.8497C158.606 11.3135 154.157 14.9001 154.157 14.9001L154.459 16.4039H154.472Z" fill="#EFBB55"/>
</svg>
