<svg width="186" height="150" viewBox="0 0 186 150" fill="none" xmlns="http://www.w3.org/2000/svg">
<path d="M122.097 99.8158C122.097 99.8158 120.93 104.801 121.636 108.586C121.867 117.396 135.196 110.4 135.196 110.4C141.521 111.17 181.663 118.944 183.923 106.928C186.19 94.9127 178.155 72.7154 169.454 70.806C165.769 70.0013 160.197 68.7806 151.103 74.8704C154.788 64.4026 153.513 60.0927 151.809 56.6762C147.819 48.677 124.425 46.3447 113.397 51.5139C102.369 56.6898 119.783 93.8488 122.091 99.8158H122.097Z" fill="#FFAB15"/>
<path d="M165.918 115.255C157.537 115.255 147.588 114 138.29 112.568C137.143 112.391 136.18 112.241 135.487 112.145C133.465 113.134 126.577 116.189 122.627 113.857C121.46 113.168 120.061 111.729 119.939 108.756C119.349 105.408 120.034 101.398 120.326 99.959C120.061 99.3044 119.681 98.411 119.227 97.3335C116.906 91.8576 112.596 81.6557 110.072 72.1835C106.726 59.629 107.581 52.3595 112.684 49.9658C118.188 47.3813 126.909 46.4266 135.447 47.4563C139.817 47.9882 150.316 49.8704 153.323 55.9056C154.85 58.9743 156.22 62.9159 154.028 71.1606C161.555 67.3213 166.611 68.4328 169.814 69.1352C176.377 70.5741 180.788 80.3259 182.376 84.4585C185.484 92.519 186.713 101.248 185.586 107.242C184.446 113.291 176.417 115.262 165.912 115.262L165.918 115.255ZM135.196 108.688C135.263 108.688 135.331 108.688 135.399 108.702C136.146 108.79 137.32 108.974 138.806 109.206C144.581 110.093 155.325 111.75 164.853 111.866C175.413 111.988 181.595 110.127 182.261 106.608C184.48 94.824 176.485 74.0861 169.101 72.4699C165.498 71.6789 160.557 70.5946 152.053 76.2888C151.443 76.698 150.649 76.6639 150.072 76.2138C149.495 75.7637 149.271 74.9931 149.515 74.2975C153.031 64.3207 151.829 60.495 150.303 57.4331C146.916 50.641 124.941 47.9814 114.13 53.055C110.9 54.569 110.628 61.0474 113.363 71.297C115.827 80.5441 120.082 90.596 122.369 95.9969C122.959 97.3881 123.421 98.4929 123.692 99.1953C123.814 99.5158 123.842 99.8704 123.76 100.205C123.747 100.252 122.688 104.896 123.312 108.265C123.326 108.354 123.339 108.442 123.339 108.538C123.387 110.352 124.113 110.781 124.357 110.925C126.543 112.214 132.081 110.106 134.415 108.886C134.659 108.756 134.931 108.695 135.202 108.695L135.196 108.688Z" fill="#403F4C"/>
<path d="M127.255 109.534C128.972 111.3 141.161 119.353 145.823 120.431C150.486 121.508 138.474 149.202 133.424 147.368C128.375 145.533 120.313 138.843 117.401 132.092C114.49 125.341 127.262 109.54 127.262 109.54L127.255 109.534Z" fill="#FFD985"/>
<path d="M133.933 149.161C133.56 149.161 133.2 149.1 132.841 148.97C127.221 146.931 118.86 139.771 115.833 132.767C112.603 125.28 124.561 110.161 125.932 108.463L127.133 106.976L128.463 108.347C130.112 110.045 142.003 117.805 146.197 118.774C146.828 118.917 147.948 119.408 148.382 121.079C149.766 126.371 142.362 142.928 137.394 147.497C136.186 148.609 135.019 149.168 133.926 149.168L133.933 149.161ZM127.513 111.954C122.939 117.949 117.259 127.496 118.949 131.41C121.758 137.916 129.556 144.128 133.947 145.745C134.408 145.683 136.234 144.456 139.03 139.587C143.808 131.267 145.532 123.65 145.124 122.013C140.618 120.799 131.32 114.846 127.506 111.954H127.513Z" fill="#403F4C"/>
<path d="M21.3031 109.534C19.5861 111.3 7.39735 119.353 2.73497 120.431C-1.92742 121.508 10.0848 149.202 15.1341 147.368C20.1833 145.533 28.2457 138.843 31.1572 132.092C34.0686 125.341 21.2963 109.54 21.2963 109.54L21.3031 109.534Z" fill="#FFD985"/>
<path d="M14.6251 149.161C13.5324 149.161 12.3719 148.602 11.1571 147.49C6.18934 142.921 -1.21483 126.364 0.169638 121.072C0.610766 119.401 1.73055 118.91 2.35492 118.767C6.54903 117.799 18.4391 110.038 20.0883 108.34L21.4184 106.969L22.6197 108.456C23.9906 110.154 35.9485 125.28 32.7181 132.76C29.6981 139.764 21.3302 146.924 15.7109 148.963C15.358 149.093 14.9915 149.154 14.6183 149.154L14.6251 149.161ZM3.4272 122.013C3.02679 123.643 4.7438 131.267 9.52155 139.587C12.3244 144.463 14.1432 145.683 14.6047 145.745C18.9956 144.122 26.8002 137.916 29.6031 131.41C31.2929 127.496 25.6058 117.949 21.0384 111.954C17.2243 114.846 7.92671 120.799 3.42041 122.013H3.4272Z" fill="#403F4C"/>
<path d="M62.3755 60.7474C63.6106 58.4083 79.9527 33.647 100.448 42.2463C120.944 50.8456 112.644 71.9653 126.909 79.003C141.181 86.0406 130.798 100.641 128.728 106.376C120.163 98.036 62.3755 60.7474 62.3755 60.7474Z" fill="#FFD985"/>
<path d="M129.427 109.431L127.547 107.597C119.206 99.468 62.0362 62.5477 61.4593 62.1795L60.1427 61.3338L60.8756 59.9495C61.0317 59.6563 78.3443 31.1238 101.1 40.6778C113.078 45.7037 115.84 54.794 118.277 62.8068C120.204 69.1489 121.874 74.6249 127.656 77.4754C141.12 84.1175 135.046 96.8562 131.782 103.696C131.164 104.992 130.628 106.11 130.323 106.963L129.427 109.438V109.431ZM64.6965 60.2223C73.2612 65.7665 116.41 93.8079 128.097 103.546C128.294 103.123 128.504 102.687 128.721 102.223C132.875 93.5079 135.806 85.2973 126.163 80.5373C119.057 77.0322 117.014 70.3082 115.033 63.8025C112.705 56.1443 110.296 48.2269 99.7899 43.8216C91.8089 40.4732 83.5496 42.1235 75.2361 48.7316C70.0511 52.8505 66.3117 57.8014 64.6897 60.2223H64.6965Z" fill="#403F4C"/>
<path d="M131.171 110.884C131.171 135.515 105.701 148.295 74.2859 148.295C42.8708 148.295 17.4008 135.515 17.4008 110.884C17.4008 86.252 42.864 59.097 74.2791 59.097C105.694 59.097 131.164 86.252 131.164 110.884H131.171Z" fill="#FFC112"/>
<path d="M74.2791 150C38.6903 150 15.6973 134.643 15.6973 110.884C15.6973 98.2406 21.9613 84.9904 32.8878 74.5226C44.4114 63.4751 59.1111 57.3922 74.2859 57.3922C89.4607 57.3922 104.16 63.4751 115.684 74.5226C126.611 84.9904 132.875 98.2474 132.875 110.884C132.875 134.649 109.882 150 74.2859 150H74.2791ZM74.2791 60.8019C43.1966 60.8019 19.0906 87.725 19.0906 110.884C19.0906 132.576 40.7534 146.59 74.2791 146.59C107.805 146.59 129.474 132.576 129.474 110.884C129.474 87.725 105.368 60.8019 74.2791 60.8019Z" fill="#403F4C"/>
<path d="M50.2139 124.918C57.9988 124.918 64.3097 118.577 64.3097 110.754C64.3097 102.932 57.9988 96.5903 50.2139 96.5903C42.429 96.5903 36.1182 102.932 36.1182 110.754C36.1182 118.577 42.429 124.918 50.2139 124.918Z" fill="white"/>
<path d="M50.2139 100.839C44.7643 100.839 40.3462 105.278 40.3462 110.754C40.3462 113.148 41.1877 115.337 42.5926 117.049C42.8844 115.719 44.0652 114.716 45.4769 114.716C47.1124 114.716 48.4358 116.046 48.4358 117.69C48.4358 118.719 47.9132 119.626 47.1192 120.158C48.0897 120.479 49.128 120.663 50.2071 120.663C55.6567 120.663 60.0748 116.223 60.0748 110.747C60.0748 105.271 55.6567 100.832 50.2071 100.832L50.2139 100.839Z" fill="#403F4C"/>
<path d="M50.2139 121.011C49.1348 121.011 48.0558 120.833 47.0174 120.492L46.3591 120.274L46.936 119.885C47.6621 119.394 48.1033 118.576 48.1033 117.696C48.1033 116.244 46.9292 115.064 45.4836 115.064C44.2688 115.064 43.1898 115.93 42.9319 117.13L42.7826 117.812L42.3415 117.274C40.8416 115.446 40.0204 113.134 40.0204 110.761C40.0204 105.108 44.6014 100.505 50.2275 100.505C55.8536 100.505 60.4345 105.108 60.4345 110.761C60.4345 116.414 55.8536 121.017 50.2275 121.017L50.2139 121.011ZM47.8318 120.022C48.6123 120.226 49.4131 120.329 50.2139 120.329C55.4667 120.329 59.7423 116.032 59.7423 110.754C59.7423 105.476 55.4667 101.18 50.2139 101.18C44.9611 101.18 40.6855 105.476 40.6855 110.754C40.6855 112.759 41.3167 114.716 42.4704 116.339C42.993 115.173 44.1671 114.382 45.4769 114.382C47.2957 114.382 48.7751 115.869 48.7751 117.696C48.7751 118.576 48.429 119.408 47.825 120.022H47.8318Z" fill="#403F4C"/>
<path d="M98.3444 124.918C106.129 124.918 112.44 118.577 112.44 110.754C112.44 102.932 106.129 96.5903 98.3444 96.5903C90.5595 96.5903 84.2487 102.932 84.2487 110.754C84.2487 118.577 90.5595 124.918 98.3444 124.918Z" fill="white"/>
<path d="M98.3444 100.839C92.8948 100.839 88.4767 105.278 88.4767 110.754C88.4767 113.148 89.3182 115.337 90.723 117.049C91.0149 115.719 92.1957 114.716 93.6073 114.716C95.2429 114.716 96.5663 116.046 96.5663 117.69C96.5663 118.719 96.0437 119.626 95.2497 120.158C96.2202 120.479 97.2585 120.663 98.3376 120.663C103.787 120.663 108.205 116.223 108.205 110.747C108.205 105.271 103.787 100.832 98.3376 100.832L98.3444 100.839Z" fill="#403F4C"/>
<path d="M98.3444 121.011C97.2653 121.011 96.1863 120.833 95.1479 120.492L94.4896 120.274L95.0665 119.885C95.7926 119.394 96.227 118.576 96.227 117.696C96.227 116.244 95.0529 115.064 93.6074 115.064C92.3926 115.064 91.3135 115.93 91.0556 117.13L90.9063 117.812L90.4652 117.274C88.9653 115.446 88.1442 113.134 88.1442 110.761C88.1442 105.108 92.7251 100.505 98.3512 100.505C103.977 100.505 108.558 105.108 108.558 110.761C108.558 116.414 103.977 121.017 98.3512 121.017L98.3444 121.011ZM95.9623 120.022C96.7428 120.226 97.5436 120.329 98.3444 120.329C103.597 120.329 107.873 116.032 107.873 110.754C107.873 105.476 103.597 101.18 98.3444 101.18C93.0916 101.18 88.816 105.476 88.816 110.754C88.816 112.759 89.4472 114.716 90.6009 116.339C91.1235 115.173 92.2975 114.382 93.6074 114.382C95.4262 114.382 96.9056 115.869 96.9056 117.696C96.9056 118.576 96.5595 119.408 95.9555 120.022H95.9623Z" fill="#403F4C"/>
<path d="M68.5784 130.592C69.2028 130.899 70.4719 131.369 74.4692 131.362C78.4665 131.356 81.8191 130.326 81.8191 128.007C81.8191 125.689 79.118 125 77.3399 126.357C76.0233 127.359 72.9286 127.305 71.1438 126.173C68.7753 124.673 66.97 126.562 66.7732 127.639C66.5425 128.914 67.4926 130.053 68.5717 130.585L68.5784 130.592Z" fill="#403F4C"/>
<path d="M6.69153 130.899L6.05359 129.699C6.10788 129.664 11.8493 126.568 14.7947 123.902L15.7041 124.911C12.6366 127.694 6.93584 130.769 6.69153 130.899Z" fill="#FFBA1F"/>
<path d="M8.83612 135.761L8.19818 134.561C8.25247 134.534 13.9939 131.431 16.9393 128.764L17.8487 129.774C14.7812 132.556 9.08044 135.631 8.83612 135.761Z" fill="#FFBA1F"/>
<path d="M11.13 141.107L10.4921 139.907C10.5531 139.873 16.8715 136.463 20.1222 133.517L21.0316 134.527C17.6587 137.582 11.4015 140.964 11.1368 141.107H11.13Z" fill="#FFBA1F"/>
<path d="M142.233 129.814C141.996 129.685 136.288 126.609 133.221 123.827L134.13 122.818C137.075 125.491 142.817 128.587 142.871 128.614L142.233 129.814Z" fill="#FFBA1F"/>
<path d="M140.089 134.677C139.851 134.547 134.144 131.472 131.076 128.689L131.986 127.68C134.931 130.353 140.672 133.449 140.727 133.477L140.089 134.677Z" fill="#FFBA1F"/>
<path d="M137.795 140.023C137.53 139.88 131.266 136.504 127.9 133.442L128.809 132.433C132.06 135.379 138.372 138.789 138.44 138.823L137.802 140.023H137.795Z" fill="#FFBA1F"/>
<path d="M92.379 60.5428L91.5306 59.479C95.304 56.4307 100.401 49.9454 100.455 49.884L101.52 50.7296C101.31 51.0024 96.2813 57.399 92.3858 60.5428H92.379Z" fill="#FFBA1F"/>
<path d="M98.772 62.8887L97.9236 61.8249C101.697 58.7766 106.794 52.2981 106.848 52.2299L107.914 53.0755C107.703 53.3483 102.674 59.7449 98.7788 62.8887H98.772Z" fill="#FFBA1F"/>
<path d="M39.0093 64.4913C33.614 65.6369 20.3666 66.4553 25.5515 75.6819C30.7365 84.9018 41.6018 90.3369 51.422 86.3953C61.2422 82.4536 57.5231 96.2698 69.7186 95.9834C81.9141 95.6969 85.0902 101.957 95.7927 93.5829C99.0842 91.012 102.695 98.377 109.759 102.107C116.824 105.837 120.272 112.391 129.929 103.833C139.587 95.2741 136.424 106.165 144.079 105.155C151.735 104.146 149.285 94.1353 140.733 84.5813L39.0093 64.4913Z" fill="#9AD5E2"/>
<path d="M121.432 110.079C118.087 110.079 115.392 108.224 112.759 106.403C111.51 105.544 110.221 104.651 108.809 103.908C105.633 102.23 103.136 99.9045 101.134 98.036C99.4778 96.4948 97.6047 94.749 97.0414 95.1855C89.264 101.268 84.6559 100.28 79.3284 99.1339C76.6952 98.5679 73.7159 97.9269 69.7661 98.0155C62.4977 98.1656 59.8645 93.958 57.9439 90.8756C56.1183 87.9433 55.5007 86.9544 52.1821 88.2842C42.009 92.3691 29.8067 87.3841 23.787 76.6776C22.2057 73.8612 21.9207 71.338 22.9387 69.183C24.9814 64.8663 31.5169 63.7343 36.2879 62.9092C37.143 62.7591 37.9506 62.6227 38.5953 62.4864L39.0025 62.3977L141.799 82.6923L142.254 83.2038C148.905 90.6369 151.958 98.1588 150.241 102.837C149.352 105.244 147.262 106.785 144.351 107.167C140.007 107.74 138.026 105.23 136.845 103.73C136.417 103.191 135.935 102.578 135.671 102.557C135.481 102.544 134.388 102.598 131.287 105.346C127.344 108.838 124.174 110.072 121.446 110.072L121.432 110.079ZM97.2043 90.9574C99.5117 90.9574 101.731 93.0237 103.896 95.0355C105.823 96.829 108.002 98.8611 110.703 100.286C112.332 101.146 113.784 102.148 115.06 103.035C119.654 106.206 122.186 107.951 128.579 102.291C131.782 99.4544 134.008 98.3224 136.017 98.4929C138.019 98.6702 139.125 100.068 140.021 101.193C141.107 102.564 141.758 103.389 143.815 103.116C145.674 102.871 146.19 102.032 146.414 101.425C147.35 98.868 145.321 92.9555 139.668 86.4498L39.0161 66.578C38.3917 66.7008 37.6995 66.8235 36.9733 66.9463C33.519 67.5464 27.7436 68.542 26.6102 70.9424C26.1895 71.829 26.4338 73.0837 27.3228 74.6727C32.3449 83.5993 42.3755 87.8205 50.6619 84.4926C57.1363 81.8876 59.593 85.8292 61.3915 88.7138C63.1764 91.578 64.7305 94.0671 69.6711 93.9375C74.096 93.8284 77.3332 94.5308 80.1836 95.1446C85.226 96.2289 88.2664 96.8835 94.544 91.9667C95.4466 91.2575 96.3356 90.9643 97.2111 90.9643L97.2043 90.9574Z" fill="#403F4C"/>
<path d="M151.816 71.8017C146.475 97.3473 120.401 87.5478 87.1737 80.5306C53.9466 73.5134 26.1555 71.9449 31.4965 46.3994C36.8376 20.8538 69.6643 -1.623 102.885 5.39418C136.112 12.4114 157.157 46.263 151.816 71.8085V71.8017Z" fill="#D2F4FF"/>
<path d="M90.3974 4.09165C94.5168 4.09165 98.6973 4.50764 102.885 5.39416C136.112 12.4113 157.157 46.263 151.816 71.8085C149.19 84.3699 141.548 88.3865 130.506 88.3865C119.464 88.3865 104.059 84.1039 87.1737 80.5374C53.9466 73.5202 26.1555 71.9517 31.4965 46.4062C36.1657 24.0726 61.8258 4.09165 90.3974 4.09165ZM90.3974 0C75.9555 0 61.4593 4.82133 49.576 13.5775C37.8556 22.2109 30.0171 33.572 27.5128 45.5606C25.9451 53.0551 26.807 59.1585 30.146 64.2117C37.2244 74.9182 53.519 78.0892 74.1503 82.099C78.1001 82.8696 82.1788 83.6607 86.339 84.5404C90.4991 85.4201 94.5508 86.3407 98.4734 87.234C110.811 90.0436 121.473 92.4782 130.506 92.4782C144.738 92.4782 153.01 85.9929 155.8 72.6473C158.67 58.913 154.788 43.1124 145.145 29.3031C135.026 14.805 120.319 4.89634 103.719 1.39116C99.3624 0.47054 94.8765 0.00681942 90.3974 0.00681942V0Z" fill="#403F4C"/>
<path d="M100.849 22.5041C112.556 33.3197 120.604 43.1056 123.109 40.296C125.552 37.5546 115.08 31.4035 103.4 21.4062C118.331 24.9523 129.468 29.7941 130.221 26.1934C130.974 22.5928 120.143 21.8904 106.129 19.3263C113.227 17.1918 119.519 15.6165 123.787 14.123C122.26 13.1274 120.686 12.1863 119.064 11.3203C114.415 13.1683 108.477 15.7461 101.765 18.0647C102.735 13.6389 103.787 9.5063 104.724 5.81699C104.113 5.66696 103.502 5.52376 102.885 5.39419C102.376 5.28508 101.867 5.1896 101.364 5.09413C100.828 8.93347 100.197 13.2433 99.3081 17.7714C93.9332 12.8137 89.4065 7.91737 85.8164 4.26898C83.9772 4.40537 82.1584 4.62359 80.36 4.91683C83.6718 8.01966 88.8229 12.0227 94.5032 16.8781C80.5636 13.5502 70.2548 9.94956 69.5422 13.3865C68.7888 17.0008 81.0047 17.0554 96.1727 19.8786C81.473 24.3113 69.4132 25.7092 70.5534 29.2076C71.7342 32.8219 83.2103 26.9845 98.4598 21.7813C94.9104 37.4659 89.6915 49.3044 93.3834 50.0887C97.0753 50.8729 97.7879 38.1888 100.855 22.5109L100.849 22.5041Z" fill="#A77CC1"/>
<path opacity="0.6" d="M127.9 43.4602C133.473 43.4602 137.992 38.9201 137.992 33.3197C137.992 27.7192 133.473 23.1792 127.9 23.1792C122.327 23.1792 117.808 27.7192 117.808 33.3197C117.808 38.9201 122.327 43.4602 127.9 43.4602Z" fill="white"/>
<path opacity="0.6" d="M138.433 55.8033C141.686 55.8033 144.324 53.1532 144.324 49.884C144.324 46.6149 141.686 43.9648 138.433 43.9648C135.179 43.9648 132.542 46.6149 132.542 49.884C132.542 53.1532 135.179 55.8033 138.433 55.8033Z" fill="white"/>
</svg>
