<svg width="145" height="87" viewBox="0 0 145 87" fill="none" xmlns="http://www.w3.org/2000/svg">
<g clip-path="url(#clip0_723_116)">
<path d="M95.1836 47.7623C95.1836 47.7623 94.2736 51.6594 94.8239 54.6182C95.0037 61.5062 105.395 56.0363 105.395 56.0363C110.325 56.6388 141.619 62.7163 143.381 53.3228C145.148 43.9292 138.884 26.5761 132.102 25.0833C129.229 24.4543 124.885 23.5 117.796 28.2607C120.669 20.0773 119.674 16.708 118.346 14.0371C115.235 7.78356 96.9983 5.96029 88.401 10.0013C79.8038 14.0477 93.3795 43.0975 95.1783 47.7623H95.1836Z" fill="#FFAB15"/>
<path d="M129.345 59.8375C122.811 59.8375 115.055 58.8566 107.807 57.737C106.913 57.5984 106.167 57.4811 105.622 57.4065C104.045 58.1795 98.6753 60.5679 95.5962 58.7446C94.6862 58.2062 93.5963 57.0813 93.5011 54.7569C93.0408 52.1446 93.5752 49.0045 93.8027 47.8796C93.5963 47.3678 93.3 46.6694 92.9456 45.8217C91.1362 41.5408 87.7766 33.5653 85.8032 26.1602C83.195 16.3455 83.8616 10.6624 87.8401 8.79117C92.1308 6.77064 98.9293 6.01894 105.585 6.82928C108.997 7.24512 117.177 8.71653 119.526 13.4347C120.716 15.8337 121.785 18.9151 120.076 25.3606C125.943 22.3591 129.885 23.2281 132.382 23.7772C137.498 24.9021 140.937 32.531 142.175 35.7564C144.598 42.0579 145.555 48.8819 144.677 53.568C143.788 58.2968 137.53 59.8375 129.34 59.8375H129.345ZM105.394 54.7035C105.447 54.7035 105.5 54.7035 105.553 54.7142C106.135 54.7835 107.05 54.9275 108.209 55.1087C112.711 55.8018 121.086 57.0973 128.514 57.1879C136.736 57.2945 141.566 55.8284 142.085 53.0775C143.815 43.8652 137.583 27.653 131.826 26.3895C129.017 25.7711 125.165 24.9234 118.536 29.375C118.06 29.6948 117.441 29.6682 116.991 29.3163C116.542 28.9645 116.367 28.362 116.558 27.8183C119.298 20.0187 118.362 17.0279 117.171 14.6342C114.531 9.32429 97.4003 7.24512 88.9723 11.2115C86.454 12.3951 86.2424 17.4597 88.3745 25.4725C90.295 32.7016 93.6122 40.5598 95.3951 44.7822C95.8554 45.8697 96.2152 46.7334 96.4268 47.2825C96.522 47.5331 96.5432 47.8103 96.4797 48.0715C96.4691 48.1088 95.6438 51.7394 96.1305 54.373C96.1411 54.4423 96.1517 54.5116 96.1517 54.5863C96.1887 56.0044 96.7548 56.3402 96.9453 56.4522C98.6489 57.4598 102.966 55.8124 104.786 54.8582C104.976 54.7569 105.188 54.7089 105.4 54.7089L105.394 54.7035Z" fill="#403F4C"/>
<path d="M99.2045 55.3646C100.543 56.7454 110.045 63.0415 113.68 63.8839C117.314 64.7262 107.95 86.3762 104.014 84.9421C100.077 83.508 93.7922 78.2781 91.5225 73.0002C89.2528 67.7223 99.2098 55.3699 99.2098 55.3699L99.2045 55.3646Z" fill="#FFD985"/>
<path d="M104.41 86.3443C104.119 86.3443 103.839 86.2963 103.559 86.195C99.1779 84.601 92.6599 79.0032 90.3003 73.528C87.7819 67.6744 97.104 55.8551 98.1727 54.5276L99.1092 53.3654L100.146 54.437C101.432 55.7644 110.701 61.8314 113.971 62.5884C114.463 62.7004 115.335 63.0842 115.674 64.3903C116.753 68.5274 110.981 81.4715 107.109 85.0435C106.162 85.9124 105.257 86.3496 104.405 86.3496L104.41 86.3443ZM99.4054 57.2572C95.8396 61.9433 91.4113 69.407 92.7287 72.4671C94.919 77.5531 100.998 82.4098 104.421 83.6733C104.781 83.6253 106.204 82.6711 108.384 78.8592C112.108 72.3552 113.452 66.4002 113.135 65.1207C109.616 64.1718 102.373 59.5176 99.4001 57.2572H99.4054Z" fill="#403F4C"/>
<path d="M16.6072 55.3646C15.2687 56.7454 5.76671 63.0416 2.13206 63.8839C-1.5026 64.7262 7.8618 86.3763 11.798 84.9422C15.7342 83.5081 22.0195 78.2782 24.2892 73.0003C26.5588 67.7224 16.6019 55.37 16.6019 55.37L16.6072 55.3646Z" fill="#FFD985"/>
<path d="M11.4012 86.3443C10.5494 86.3443 9.64468 85.9071 8.69766 85.0381C4.82493 81.4662 -0.947137 68.522 0.13215 64.385C0.47604 63.0789 1.34899 62.695 1.83573 62.5831C5.10533 61.826 14.3745 55.7591 15.6601 54.4317L16.6971 53.3601L17.6335 54.5223C18.7022 55.8498 28.0243 67.6744 25.506 73.5227C23.1463 78.9979 16.6283 84.5956 12.2477 86.1897C11.9726 86.291 11.6869 86.3389 11.3959 86.3389L11.4012 86.3443ZM2.67165 65.1207C2.3595 66.3949 3.69803 72.3552 7.42262 78.8593C9.60765 82.6711 11.0255 83.6254 11.3853 83.6733C14.8083 82.4045 20.8925 77.5531 23.0776 72.4671C24.3949 69.407 19.9667 61.9433 16.4008 57.2572C13.4275 59.5176 6.17933 64.1771 2.66636 65.1207H2.67165Z" fill="#403F4C"/>
<path d="M48.6262 17.2198C49.5891 15.3912 62.3289 -3.96642 78.3066 2.75623C94.2843 9.48422 87.8138 25.9896 98.9347 31.4914C110.056 36.9933 101.966 48.4074 100.353 52.8909C93.6758 46.3708 48.6262 17.2198 48.6262 17.2198Z" fill="#FFD985"/>
<path d="M100.897 55.2846L99.4319 53.8505C92.9298 47.4957 48.3616 18.6326 47.9119 18.3394L46.8855 17.6783L47.4569 16.5961C47.5786 16.3668 61.0749 -5.93897 78.8197 1.53006C88.1523 5.45916 90.3109 12.5657 92.2102 18.8298C93.7128 23.7879 95.0143 28.0688 99.5219 30.2973C110.018 35.4899 105.278 45.4486 102.739 50.7958C102.257 51.8087 101.839 52.683 101.601 53.3494L100.903 55.2846H100.897ZM50.4355 16.8093C57.1123 21.1436 90.75 43.0655 99.8605 50.6785C100.014 50.3479 100.178 50.0067 100.347 49.6442C103.585 42.8309 105.876 36.4122 98.3526 32.691C92.8134 29.9507 91.2209 24.6942 89.676 19.6082C87.8613 13.6212 85.9832 7.4317 77.7933 3.98774C71.5715 1.37012 65.1328 2.66027 58.6518 7.82621C54.6151 11.0463 51.6947 14.9167 50.4302 16.8093H50.4355Z" fill="#403F4C"/>
<path d="M102.257 56.4202C102.257 75.6765 82.4013 85.6672 57.9111 85.6672C33.4208 85.6672 13.5598 75.6765 13.5598 56.4202C13.5598 37.1638 33.4155 15.9296 57.9058 15.9296C82.396 15.9296 102.252 37.1585 102.252 56.4148L102.257 56.4202Z" fill="#FFC112"/>
<path d="M57.9058 87C30.1618 87 12.2319 74.9941 12.2319 56.4202C12.2319 46.5361 17.1152 36.1776 25.6331 27.9888C34.6165 19.3523 46.076 14.5968 57.9058 14.5968C69.7357 14.5968 81.1951 19.3523 90.1786 27.9888C98.6912 36.1723 103.58 46.5361 103.58 56.4202C103.58 74.9995 85.6551 87 57.9058 87ZM57.9058 17.2678C33.6748 17.2678 14.8772 38.3154 14.8772 56.4202C14.8772 73.3788 31.7649 84.3344 57.9058 84.3344C84.0468 84.3344 100.934 73.3788 100.934 56.4202C100.934 38.3154 82.1422 17.2678 57.9058 17.2678Z" fill="#403F4C"/>
<path d="M39.1454 67.3865C45.2142 67.3865 50.134 62.429 50.134 56.3136C50.134 50.1981 45.2142 45.2406 39.1454 45.2406C33.0765 45.2406 28.1567 50.1981 28.1567 56.3136C28.1567 62.429 33.0765 67.3865 39.1454 67.3865Z" fill="white"/>
<path d="M76.6664 67.3865C82.7352 67.3865 87.655 62.429 87.655 56.3136C87.655 50.1981 82.7352 45.2406 76.6664 45.2406C70.5975 45.2406 65.6777 50.1981 65.6777 56.3136C65.6777 62.429 70.5975 67.3865 76.6664 67.3865Z" fill="white"/>
<path d="M53.4618 68.5433C53.9486 68.3034 54.9379 67.9356 58.0541 67.9409C61.1703 67.9462 63.7838 68.7513 63.7838 70.5639C63.7838 72.3818 61.6782 72.9149 60.292 71.854C59.2656 71.0703 56.8531 71.113 55.4617 71.998C53.6153 73.1708 52.208 71.6941 52.0545 70.8517C51.8746 69.8548 52.6153 68.9645 53.4565 68.5487L53.4618 68.5433Z" fill="#403F4C"/>
<path d="M5.21656 72.0619L4.71924 71.1237C4.76156 71.097 9.23743 68.6766 11.5336 66.5921L12.2425 67.3811C9.85114 69.5563 5.40702 71.9607 5.21656 72.0619Z" fill="#FFBA1F"/>
<path d="M6.88843 75.8631L6.39111 74.9248C6.43344 74.8982 10.9093 72.4778 13.2054 70.3933L13.9144 71.1823C11.523 73.3574 7.07889 75.7618 6.88843 75.8631Z" fill="#FFBA1F"/>
<path d="M8.67652 80.0428L8.1792 79.1045C8.22681 79.0778 13.1524 76.4122 15.6866 74.1091L16.3955 74.8982C13.7661 77.2865 8.88814 79.9308 8.68181 80.0428H8.67652Z" fill="#FFBA1F"/>
<path d="M110.881 71.2143C110.69 71.113 106.251 68.7086 103.855 66.5335L104.564 65.7445C106.86 67.8343 111.336 70.2547 111.378 70.276L110.881 71.2143Z" fill="#FFBA1F"/>
<path d="M109.209 75.0154C109.019 74.9142 104.574 72.5098 102.183 70.3346L102.892 69.5456C105.188 71.6355 109.664 74.0558 109.706 74.0772L109.209 75.0154Z" fill="#FFBA1F"/>
<path d="M107.421 79.1951C107.214 79.0832 102.331 76.4389 99.707 74.0505L100.416 73.2615C102.945 75.5646 107.87 78.2302 107.923 78.2568L107.426 79.1951H107.421Z" fill="#FFBA1F"/>
<path d="M72.0158 17.0599L71.3545 16.2282C74.2961 13.8451 78.2693 8.77517 78.3064 8.72719L79.137 9.38826C78.973 9.60151 75.0526 14.6022 72.0158 17.0599Z" fill="#FFBA1F"/>
<path d="M76.9997 18.8938L76.3384 18.0621C79.2853 15.6791 83.2532 10.6091 83.2955 10.5611L84.1262 11.2222C83.9622 11.4354 80.0418 16.4361 76.9997 18.8938Z" fill="#FFBA1F"/>
<path d="M43.8486 55.4019C43.2349 55.8711 42.5895 56.2976 41.9176 56.6654C41.5578 56.8627 41.1874 57.0439 40.8118 57.2145C40.6372 57.2892 40.6213 57.2998 40.7642 57.2358C40.669 57.2732 40.5737 57.3105 40.4785 57.3478C40.3092 57.4118 40.1399 57.4757 39.9706 57.5344C39.2458 57.7903 38.4998 57.9875 37.7432 58.1262C37.5687 58.1581 37.3888 58.1901 37.2142 58.2168C37.5369 58.1688 36.9285 58.2488 36.8703 58.2541C36.4629 58.2914 36.0503 58.3128 35.6429 58.3234C34.8122 58.3394 34.0187 59.0485 34.0557 59.9228C34.0927 60.7971 34.7541 61.5381 35.6429 61.5221C39.1506 61.4582 42.6424 60.3013 45.4464 58.1635C46.1077 57.6623 46.5204 56.7614 46.0178 55.9777C45.5998 55.3219 44.5523 54.8635 43.8486 55.4019Z" fill="#403F4C"/>
<path d="M79.3698 58.7553C78.9677 58.7393 78.5656 58.7073 78.1636 58.6646C77.9731 58.6433 77.9625 58.638 78.1371 58.6646C78.0366 58.6486 77.936 58.6326 77.8355 58.6167C77.6874 58.59 77.5393 58.5633 77.3911 58.5367C76.624 58.3821 75.8674 58.1688 75.132 57.9023C74.968 57.8436 74.804 57.7743 74.6347 57.7103C74.4601 57.641 74.4495 57.6357 74.5977 57.6944C74.5077 57.6517 74.4125 57.6144 74.3226 57.5717C73.9787 57.4118 73.6401 57.2412 73.3121 57.0546C72.984 56.868 72.656 56.6708 72.3386 56.4628C72.1693 56.3509 72.0053 56.2336 71.8413 56.1163C71.7619 56.0577 71.6772 55.999 71.5979 55.9351C71.7196 56.031 71.7037 56.0204 71.5609 55.9031C70.9101 55.3859 69.9419 55.2153 69.3176 55.9031C68.7939 56.4788 68.6246 57.6091 69.3176 58.1635C72.2169 60.4719 75.677 61.8154 79.3751 61.9593C80.2057 61.9913 80.9993 61.2023 80.9623 60.36C80.92 59.4643 80.2639 58.7979 79.3751 58.7606L79.3698 58.7553Z" fill="#403F4C"/>
<path d="M83.1738 71.3422C85.7714 71.3422 87.8772 69.607 87.8772 67.4665C87.8772 65.3259 85.7714 63.5907 83.1738 63.5907C80.5762 63.5907 78.4705 65.3259 78.4705 67.4665C78.4705 69.607 80.5762 71.3422 83.1738 71.3422Z" fill="#A1EBFF"/>
<path d="M85.3112 66.3895C85.8985 66.3895 86.3746 65.9957 86.3746 65.5099C86.3746 65.0241 85.8985 64.6302 85.3112 64.6302C84.7239 64.6302 84.2478 65.0241 84.2478 65.5099C84.2478 65.9957 84.7239 66.3895 85.3112 66.3895Z" fill="white"/>
</g>
<defs>
<clipPath id="clip0_723_116">
<rect width="145" height="87" fill="white"/>
</clipPath>
</defs>
</svg>
