<svg width="275" height="164" viewBox="0 0 275 164" fill="none" xmlns="http://www.w3.org/2000/svg">
<g clip-path="url(#clip0_155_290)">
<path d="M179.91 89.59C179.91 89.59 178.19 96.9 179.23 102.45C179.57 115.37 199.21 105.11 199.21 105.11C208.53 106.24 267.68 117.64 271.01 100.02C274.35 82.4 262.51 49.85 249.69 47.05C244.26 45.87 236.05 44.08 222.65 53.01C228.08 37.66 226.2 31.34 223.69 26.33C217.81 14.6 183.34 11.18 167.09 18.76C150.84 26.35 176.5 80.84 179.9 89.59H179.91Z" fill="#FFAB15"/>
<path d="M244.48 112.24C232.13 112.24 217.47 110.4 203.77 108.3C202.08 108.04 200.66 107.82 199.64 107.68C196.66 109.13 186.51 113.61 180.69 110.19C178.97 109.18 176.91 107.07 176.73 102.71C175.86 97.8 176.87 91.92 177.3 89.81C176.91 88.85 176.35 87.54 175.68 85.96C172.26 77.93 165.91 62.97 162.19 49.08C157.26 30.67 158.52 20.01 166.04 16.5C174.15 12.71 187 11.31 199.58 12.82C206.02 13.6 221.49 16.36 225.92 25.21C228.17 29.71 230.19 35.49 226.96 47.58C238.05 41.95 245.5 43.58 250.22 44.61C259.89 46.72 266.39 61.02 268.73 67.08C273.31 78.9 275.12 91.7 273.46 100.49C271.78 109.36 259.95 112.25 244.47 112.25L244.48 112.24ZM199.21 102.61C199.31 102.61 199.41 102.61 199.51 102.63C200.61 102.76 202.34 103.03 204.53 103.37C213.04 104.67 228.87 107.1 242.91 107.27C258.47 107.45 267.58 104.72 268.56 99.56C271.83 82.28 260.05 51.87 249.17 49.5C243.86 48.34 236.58 46.75 224.05 55.1C223.15 55.7 221.98 55.65 221.13 54.99C220.28 54.33 219.95 53.2 220.31 52.18C225.49 37.55 223.72 31.94 221.47 27.45C216.48 17.49 184.1 13.59 168.17 21.03C163.41 23.25 163.01 32.75 167.04 47.78C170.67 61.34 176.94 76.08 180.31 84C181.18 86.04 181.86 87.66 182.26 88.69C182.44 89.16 182.48 89.68 182.36 90.17C182.34 90.24 180.78 97.05 181.7 101.99C181.72 102.12 181.74 102.25 181.74 102.39C181.81 105.05 182.88 105.68 183.24 105.89C186.46 107.78 194.62 104.69 198.06 102.9C198.42 102.71 198.82 102.62 199.22 102.62L199.21 102.61Z" fill="#403F4C"/>
<path d="M187.51 103.85C190.04 106.44 208 118.25 214.87 119.83C221.74 121.41 204.04 162.02 196.6 159.33C189.16 156.64 177.28 146.83 172.99 136.93C168.7 127.03 187.52 103.86 187.52 103.86L187.51 103.85Z" fill="#FFD985"/>
<path d="M197.35 161.96C196.8 161.96 196.27 161.87 195.74 161.68C187.46 158.69 175.14 148.19 170.68 137.92C165.92 126.94 183.54 104.77 185.56 102.28L187.33 100.1L189.29 102.11C191.72 104.6 209.24 115.98 215.42 117.4C216.35 117.61 218 118.33 218.64 120.78C220.68 128.54 209.77 152.82 202.45 159.52C200.67 161.15 198.95 161.97 197.34 161.97L197.35 161.96ZM187.89 107.4C181.15 116.19 172.78 130.19 175.27 135.93C179.41 145.47 190.9 154.58 197.37 156.95C198.05 156.86 200.74 155.06 204.86 147.92C211.9 135.72 214.44 124.55 213.84 122.15C207.2 120.37 193.5 111.64 187.88 107.4H187.89Z" fill="#403F4C"/>
<path d="M31.39 103.85C28.86 106.44 10.9 118.25 4.03001 119.83C-2.83999 121.41 14.86 162.02 22.3 159.33C29.74 156.64 41.62 146.83 45.91 136.93C50.2 127.03 31.38 103.86 31.38 103.86L31.39 103.85Z" fill="#FFD985"/>
<path d="M21.55 161.96C19.94 161.96 18.23 161.14 16.44 159.51C9.12003 152.81 -1.78997 128.53 0.250025 120.77C0.900025 118.32 2.55002 117.6 3.47003 117.39C9.65002 115.97 27.17 104.59 29.6 102.1L31.56 100.09L33.33 102.27C35.35 104.76 52.97 126.94 48.21 137.91C43.76 148.18 31.43 158.68 23.15 161.67C22.63 161.86 22.09 161.95 21.54 161.95L21.55 161.96ZM5.05002 122.15C4.46002 124.54 6.99002 135.72 14.03 147.92C18.16 155.07 20.84 156.86 21.52 156.95C27.99 154.57 39.49 145.47 43.62 135.93C46.11 130.19 37.73 116.19 31 107.4C25.38 111.64 11.68 120.37 5.04002 122.15H5.05002Z" fill="#403F4C"/>
<path d="M91.91 32.3C93.73 28.87 117.81 -7.44 148.01 5.17C178.21 17.78 165.98 48.75 187 59.07C208.02 69.39 192.73 90.8 189.68 99.21C177.06 86.98 91.91 32.3 91.91 32.3Z" fill="#FFD985"/>
<path d="M190.71 103.7L187.94 101.01C175.65 89.09 91.41 34.95 90.56 34.41L88.62 33.17L89.7 31.14C89.93 30.71 115.44 -11.13 148.97 2.88C166.62 10.25 170.69 23.58 174.28 35.33C177.12 44.63 179.58 52.66 188.1 56.84C207.94 66.58 198.99 85.26 194.18 95.29C193.27 97.19 192.48 98.83 192.03 100.08L190.71 103.71V103.7ZM95.33 31.53C107.95 39.66 171.53 80.78 188.75 95.06C189.04 94.44 189.35 93.8 189.67 93.12C195.79 80.34 200.11 68.3 185.9 61.32C175.43 56.18 172.42 46.32 169.5 36.78C166.07 25.55 162.52 13.94 147.04 7.48C135.28 2.57 123.11 4.99 110.86 14.68C103.22 20.72 97.71 27.98 95.32 31.53H95.33Z" fill="#403F4C"/>
<path d="M193.28 105.83C193.28 141.95 155.75 160.69 109.46 160.69C63.17 160.69 25.63 141.95 25.63 105.83C25.63 69.71 63.16 29.88 109.45 29.88C155.74 29.88 193.27 69.7 193.27 105.82L193.28 105.83Z" fill="#FFC112"/>
<path d="M109.45 163.19C57.01 163.19 23.13 140.67 23.13 105.83C23.13 87.29 32.36 67.86 48.46 52.51C65.44 36.31 87.1 27.39 109.46 27.39C131.82 27.39 153.48 36.31 170.46 52.51C186.56 67.86 195.79 87.3 195.79 105.83C195.79 140.68 161.91 163.19 109.46 163.19H109.45ZM109.45 32.39C63.65 32.39 28.13 71.87 28.13 105.83C28.13 137.64 60.05 158.19 109.45 158.19C158.85 158.19 190.78 137.64 190.78 105.83C190.78 71.87 155.26 32.39 109.45 32.39Z" fill="#403F4C"/>
<path d="M73.99 126.4C85.4609 126.4 94.76 117.101 94.76 105.63C94.76 94.159 85.4609 84.86 73.99 84.86C62.519 84.86 53.22 94.159 53.22 105.63C53.22 117.101 62.519 126.4 73.99 126.4Z" fill="white"/>
<path d="M73.9899 91.09C65.9599 91.09 59.45 97.6 59.45 105.63C59.45 109.14 60.6899 112.35 62.7599 114.86C63.1899 112.91 64.93 111.44 67.01 111.44C69.42 111.44 71.37 113.39 71.37 115.8C71.37 117.31 70.6 118.64 69.43 119.42C70.86 119.89 72.39 120.16 73.98 120.16C82.01 120.16 88.5199 113.65 88.5199 105.62C88.5199 97.59 82.01 91.08 73.98 91.08L73.9899 91.09Z" fill="#403F4C"/>
<path d="M73.99 120.67C72.4 120.67 70.81 120.41 69.28 119.91L68.31 119.59L69.16 119.02C70.23 118.3 70.88 117.1 70.88 115.81C70.88 113.68 69.15 111.95 67.02 111.95C65.23 111.95 63.64 113.22 63.26 114.98L63.04 115.98L62.39 115.19C60.18 112.51 58.97 109.12 58.97 105.64C58.97 97.35 65.72 90.6 74.01 90.6C82.3 90.6 89.05 97.35 89.05 105.64C89.05 113.93 82.3 120.68 74.01 120.68L73.99 120.67ZM70.48 119.22C71.63 119.52 72.81 119.67 73.99 119.67C81.73 119.67 88.03 113.37 88.03 105.63C88.03 97.89 81.73 91.59 73.99 91.59C66.25 91.59 59.95 97.89 59.95 105.63C59.95 108.57 60.88 111.44 62.58 113.82C63.35 112.11 65.08 110.95 67.01 110.95C69.69 110.95 71.87 113.13 71.87 115.81C71.87 117.1 71.36 118.32 70.47 119.22H70.48Z" fill="#403F4C"/>
<path d="M144.91 126.4C156.381 126.4 165.68 117.101 165.68 105.63C165.68 94.159 156.381 84.86 144.91 84.86C133.439 84.86 124.14 94.159 124.14 105.63C124.14 117.101 133.439 126.4 144.91 126.4Z" fill="white"/>
<path d="M144.91 91.09C136.88 91.09 130.37 97.6 130.37 105.63C130.37 109.14 131.61 112.35 133.68 114.86C134.11 112.91 135.85 111.44 137.93 111.44C140.34 111.44 142.29 113.39 142.29 115.8C142.29 117.31 141.52 118.64 140.35 119.42C141.78 119.89 143.31 120.16 144.9 120.16C152.93 120.16 159.44 113.65 159.44 105.62C159.44 97.59 152.93 91.08 144.9 91.08L144.91 91.09Z" fill="#403F4C"/>
<path d="M144.91 120.67C143.32 120.67 141.73 120.41 140.2 119.91L139.23 119.59L140.08 119.02C141.15 118.3 141.79 117.1 141.79 115.81C141.79 113.68 140.06 111.95 137.93 111.95C136.14 111.95 134.55 113.22 134.17 114.98L133.95 115.98L133.3 115.19C131.09 112.51 129.88 109.12 129.88 105.64C129.88 97.35 136.63 90.6 144.92 90.6C153.21 90.6 159.96 97.35 159.96 105.64C159.96 113.93 153.21 120.68 144.92 120.68L144.91 120.67ZM141.4 119.22C142.55 119.52 143.73 119.67 144.91 119.67C152.65 119.67 158.95 113.37 158.95 105.63C158.95 97.89 152.65 91.59 144.91 91.59C137.17 91.59 130.87 97.89 130.87 105.63C130.87 108.57 131.8 111.44 133.5 113.82C134.27 112.11 136 110.95 137.93 110.95C140.61 110.95 142.79 113.13 142.79 115.81C142.79 117.1 142.28 118.32 141.39 119.22H141.4Z" fill="#403F4C"/>
<path d="M101.05 128.564C101.97 128.114 103.84 127.424 109.73 127.434C115.62 127.444 120.56 128.954 120.56 132.354C120.56 135.754 116.58 136.764 113.96 134.774C112.02 133.304 107.46 133.384 104.83 135.044C101.34 137.244 98.68 134.474 98.39 132.894C98.05 131.024 99.45 129.354 101.04 128.574L101.05 128.564Z" fill="#403F4C"/>
<path d="M9.86004 135.17L8.92004 133.41C9.00004 133.36 17.46 128.82 21.8 124.91L23.14 126.39C18.62 130.47 10.22 134.98 9.86004 135.17Z" fill="#FFBA1F"/>
<path d="M13.02 142.3L12.08 140.54C12.16 140.5 20.62 135.95 24.96 132.04L26.3 133.52C21.78 137.6 13.38 142.11 13.02 142.3Z" fill="#FFBA1F"/>
<path d="M16.4 150.14L15.46 148.38C15.55 148.33 24.86 143.33 29.65 139.01L30.99 140.49C26.02 144.97 16.8 149.93 16.41 150.14H16.4Z" fill="#FFBA1F"/>
<path d="M209.58 133.58C209.23 133.39 200.82 128.88 196.3 124.8L197.64 123.32C201.98 127.24 210.44 131.78 210.52 131.82L209.58 133.58Z" fill="#FFBA1F"/>
<path d="M206.42 140.71C206.07 140.52 197.66 136.01 193.14 131.93L194.48 130.45C198.82 134.37 207.28 138.91 207.36 138.95L206.42 140.71Z" fill="#FFBA1F"/>
<path d="M203.04 148.55C202.65 148.34 193.42 143.39 188.46 138.9L189.8 137.42C194.59 141.74 203.89 146.74 203.99 146.79L203.05 148.55H203.04Z" fill="#FFBA1F"/>
<path d="M136.12 32L134.87 30.44C140.43 25.97 147.94 16.46 148.02 16.37L149.59 17.61C149.28 18.01 141.87 27.39 136.13 32H136.12Z" fill="#FFBA1F"/>
<path d="M145.54 35.44L144.29 33.88C149.85 29.41 157.36 19.91 157.44 19.81L159.01 21.05C158.7 21.45 151.29 30.83 145.55 35.44H145.54Z" fill="#FFBA1F"/>
</g>
<defs>
<clipPath id="clip0_155_290">
<rect width="274.07" height="163.19" fill="white"/>
</clipPath>
</defs>
</svg>
