<svg width="300" height="200" viewBox="0 0 300 200" fill="none" xmlns="http://www.w3.org/2000/svg">
  <g clip-path="url(#clip0_1965_84)">
    <path
      d="M189.264 119.86C189.264 119.86 187.981 125.315 188.757 129.457C189.01 139.099 203.667 131.442 203.667 131.442C210.623 132.285 254.766 140.793 257.251 127.643C259.743 114.494 250.907 90.2023 241.34 88.1127C237.288 87.2321 231.161 85.8963 221.16 92.5606C225.213 81.1051 223.81 76.3886 221.937 72.6497C217.548 63.8958 191.824 61.3435 179.697 67.0003C167.57 72.6646 186.719 113.33 189.257 119.86H189.264Z"
      fill="#FFAB15" />
    <path
      d="M237.452 136.763C228.235 136.763 217.295 135.39 207.071 133.823C205.809 133.629 204.75 133.464 203.988 133.36C201.764 134.442 194.19 137.785 189.846 135.233C188.563 134.479 187.025 132.905 186.891 129.651C186.242 125.987 186.995 121.599 187.316 120.024C187.025 119.307 186.607 118.33 186.107 117.151C183.555 111.158 178.816 99.9936 176.04 89.6277C172.361 75.8886 173.301 67.9332 178.913 65.3137C184.966 62.4853 194.555 61.4405 203.944 62.5674C208.75 63.1495 220.295 65.2092 223.601 71.8139C225.28 75.1721 226.787 79.4857 224.377 88.5083C232.653 84.3067 238.213 85.5231 241.735 86.2918C248.952 87.8664 253.803 98.5383 255.549 103.061C258.967 111.882 260.318 121.434 259.079 127.994C257.825 134.614 248.997 136.771 237.444 136.771L237.452 136.763ZM203.667 129.576C203.742 129.576 203.817 129.576 203.891 129.591C204.712 129.688 206.003 129.89 207.638 130.144C213.989 131.114 225.802 132.927 236.28 133.054C247.892 133.188 254.691 131.151 255.422 127.3C257.863 114.404 249.071 91.7098 240.952 89.9411C236.989 89.0754 231.556 87.8888 222.205 94.1203C221.534 94.5681 220.66 94.5308 220.026 94.0382C219.392 93.5457 219.145 92.7024 219.414 91.9412C223.28 81.023 221.959 76.8364 220.28 73.4855C216.556 66.0525 192.391 63.142 180.503 68.6944C176.95 70.3511 176.652 77.4408 179.659 88.6575C182.368 98.7771 187.048 109.777 189.563 115.688C190.212 117.21 190.719 118.419 191.018 119.188C191.152 119.539 191.182 119.927 191.093 120.293C191.078 120.345 189.913 125.427 190.6 129.114C190.615 129.211 190.63 129.308 190.63 129.412C190.682 131.397 191.481 131.867 191.749 132.024C194.152 133.435 200.242 131.129 202.809 129.793C203.078 129.651 203.376 129.584 203.675 129.584L203.667 129.576Z"
      fill="#403F4C" />
    <path
      d="M194.936 130.502C196.824 132.435 210.227 141.248 215.354 142.427C220.481 143.606 207.272 173.913 201.72 171.906C196.167 169.898 187.302 162.577 184.1 155.189C180.898 147.801 194.943 130.509 194.943 130.509L194.936 130.502Z"
      fill="#FFD985" />
    <path
      d="M202.279 173.868C201.869 173.868 201.473 173.801 201.078 173.659C194.899 171.428 185.704 163.592 182.376 155.928C178.824 147.733 191.973 131.188 193.481 129.33L194.802 127.703L196.264 129.203C198.078 131.061 211.153 139.554 215.765 140.614C216.459 140.771 217.69 141.308 218.168 143.136C219.69 148.928 211.548 167.047 206.085 172.047C204.757 173.264 203.473 173.876 202.272 173.876L202.279 173.868ZM195.22 133.151C190.19 139.711 183.943 150.159 185.801 154.443C188.891 161.562 197.466 168.361 202.294 170.129C202.802 170.062 204.809 168.719 207.884 163.391C213.138 154.286 215.033 145.95 214.586 144.159C209.63 142.83 199.406 136.315 195.212 133.151H195.22Z"
      fill="#403F4C" />
    <path
      d="M78.4259 130.502C76.5378 132.435 63.1345 141.248 58.0075 142.427C52.8805 143.606 66.0898 173.913 71.6421 171.906C77.1945 169.898 86.0604 162.577 89.2619 155.189C92.4635 147.801 78.4184 130.509 78.4184 130.509L78.4259 130.502Z"
      fill="#FFD985" />
    <path
      d="M71.0824 173.868C69.8809 173.868 68.6047 173.256 67.2689 172.04C61.8061 167.04 53.6641 148.92 55.1865 143.129C55.6716 141.3 56.903 140.763 57.5896 140.606C62.2016 139.547 75.2765 131.054 77.09 129.196L78.5527 127.696L79.8737 129.323C81.3811 131.181 94.5307 147.733 90.9784 155.92C87.6574 163.585 78.4557 171.421 72.2765 173.652C71.8884 173.794 71.4854 173.861 71.0749 173.861L71.0824 173.868ZM58.7687 144.159C58.3284 145.942 60.2165 154.286 65.4703 163.391C68.5525 168.726 70.5525 170.062 71.06 170.129C75.8885 168.353 84.4708 161.562 87.5529 154.443C89.4112 150.159 83.1573 139.711 78.1348 133.151C73.9407 136.315 63.7166 142.83 58.7612 144.159H58.7687Z"
      fill="#403F4C" />
    <path
      d="M123.591 77.105C124.949 74.5453 142.92 47.4476 165.458 56.8583C187.995 66.269 178.868 89.3814 194.555 97.0831C210.242 104.785 198.832 120.763 196.555 127.039C187.137 117.912 123.591 77.105 123.591 77.105V77.105Z"
      fill="#FFD985" />
    <path
      d="M197.324 130.39L195.257 128.382C186.085 119.487 123.218 79.0827 122.584 78.6797L121.136 77.7543L121.942 76.2393C122.113 75.9184 141.151 44.6939 166.174 55.1493C179.346 60.6494 182.383 70.5974 185.063 79.3663C187.182 86.3067 189.018 92.2994 195.376 95.4189C210.182 102.688 203.503 116.628 199.914 124.114C199.234 125.531 198.645 126.755 198.309 127.688L197.324 130.397V130.39ZM126.143 76.5304C135.561 82.5977 183.01 113.285 195.861 123.942C196.078 123.479 196.309 123.002 196.548 122.494C201.115 112.957 204.339 103.971 193.734 98.7622C185.921 94.9263 183.674 87.5679 181.495 80.4484C178.936 72.0676 176.286 63.4032 164.734 58.5822C155.957 54.918 146.875 56.724 137.733 63.9555C132.032 68.463 127.919 73.8811 126.136 76.5304H126.143Z"
      fill="#403F4C" />
    <path
      d="M199.242 131.979C199.242 158.935 171.234 172.921 136.688 172.921C102.143 172.921 74.1273 158.935 74.1273 131.979C74.1273 105.024 102.135 75.299 136.681 75.299C171.226 75.299 199.235 105.016 199.235 131.972L199.242 131.979Z"
      fill="#FFC112" />
    <path
      d="M136.681 174.786C97.5457 174.786 72.2616 157.98 72.2616 131.979C72.2616 118.143 79.1498 103.643 91.165 92.1875C103.837 80.0976 120.001 73.4408 136.688 73.4408C153.375 73.4408 169.54 80.0976 182.212 92.1875C194.227 103.643 201.115 118.151 201.115 131.979C201.115 157.987 175.831 174.786 136.688 174.786H136.681ZM136.681 77.1722C102.501 77.1722 75.993 106.636 75.993 131.979C75.993 155.719 99.8144 171.055 136.681 171.055C173.547 171.055 197.376 155.719 197.376 131.979C197.376 106.636 170.868 77.1722 136.681 77.1722V77.1722Z"
      fill="#403F4C" />
    <path
      d="M110.218 147.33C118.778 147.33 125.718 140.391 125.718 131.83C125.718 123.27 118.778 116.33 110.218 116.33C101.657 116.33 94.7173 123.27 94.7173 131.83C94.7173 140.391 101.657 147.33 110.218 147.33Z"
      fill="white" />
    <path
      d="M110.218 120.979C104.225 120.979 99.3667 125.837 99.3667 131.83C99.3667 134.45 100.292 136.845 101.837 138.718C102.158 137.263 103.456 136.166 105.009 136.166C106.807 136.166 108.262 137.621 108.262 139.42C108.262 140.547 107.688 141.539 106.815 142.121C107.882 142.472 109.024 142.674 110.21 142.674C116.203 142.674 121.061 137.815 121.061 131.823C121.061 125.83 116.203 120.972 110.21 120.972L110.218 120.979Z"
      fill="#403F4C" />
    <path
      d="M110.218 143.054C109.031 143.054 107.844 142.86 106.703 142.487L105.979 142.248L106.613 141.823C107.412 141.286 107.897 140.39 107.897 139.427C107.897 137.838 106.606 136.547 105.016 136.547C103.68 136.547 102.494 137.494 102.21 138.808L102.046 139.554L101.561 138.965C99.9114 136.965 99.0084 134.435 99.0084 131.838C99.0084 125.651 104.046 120.613 110.233 120.613C116.419 120.613 121.457 125.651 121.457 131.838C121.457 138.024 116.419 143.062 110.233 143.062L110.218 143.054ZM107.598 141.972C108.456 142.196 109.337 142.308 110.218 142.308C115.994 142.308 120.695 137.606 120.695 131.83C120.695 126.054 115.994 121.352 110.218 121.352C104.441 121.352 99.7398 126.054 99.7398 131.83C99.7398 134.024 100.434 136.166 101.703 137.942C102.277 136.666 103.568 135.8 105.009 135.8C107.009 135.8 108.636 137.427 108.636 139.427C108.636 140.39 108.255 141.3 107.591 141.972H107.598Z"
      fill="#403F4C" />
    <path
      d="M163.144 147.33C171.705 147.33 178.644 140.391 178.644 131.83C178.644 123.27 171.705 116.33 163.144 116.33C154.584 116.33 147.644 123.27 147.644 131.83C147.644 140.391 154.584 147.33 163.144 147.33Z"
      fill="white" />
    <path
      d="M163.144 120.979C157.152 120.979 152.293 125.837 152.293 131.83C152.293 134.45 153.219 136.845 154.763 138.718C155.084 137.263 156.383 136.166 157.935 136.166C159.734 136.166 161.189 137.621 161.189 139.42C161.189 140.547 160.614 141.539 159.741 142.121C160.808 142.472 161.95 142.674 163.137 142.674C169.129 142.674 173.988 137.815 173.988 131.823C173.988 125.83 169.129 120.972 163.137 120.972L163.144 120.979Z"
      fill="#403F4C" />
    <path
      d="M163.144 143.054C161.958 143.054 160.771 142.86 159.629 142.487L158.905 142.248L159.54 141.823C160.338 141.286 160.816 140.39 160.816 139.427C160.816 137.838 159.525 136.547 157.935 136.547C156.599 136.547 155.413 137.494 155.129 138.808L154.965 139.554L154.48 138.965C152.83 136.965 151.927 134.435 151.927 131.838C151.927 125.651 156.965 120.613 163.152 120.613C169.338 120.613 174.376 125.651 174.376 131.838C174.376 138.024 169.338 143.062 163.152 143.062L163.144 143.054ZM160.525 141.972C161.383 142.196 162.264 142.308 163.144 142.308C168.92 142.308 173.622 137.606 173.622 131.83C173.622 126.054 168.92 121.352 163.144 121.352C157.368 121.352 152.666 126.054 152.666 131.83C152.666 134.024 153.36 136.166 154.629 137.942C155.204 136.666 156.495 135.8 157.935 135.8C159.935 135.8 161.562 137.427 161.562 139.427C161.562 140.39 161.181 141.3 160.517 141.972H160.525Z"
      fill="#403F4C" />
    <path
      d="M130.412 153.547C131.099 153.883 132.494 154.398 136.89 154.39C141.286 154.383 144.972 153.256 144.972 150.719C144.972 148.181 142.002 147.427 140.047 148.913C138.599 150.01 135.196 149.95 133.233 148.711C130.629 147.069 128.643 149.136 128.427 150.316C128.173 151.711 129.218 152.957 130.405 153.54L130.412 153.547Z"
      fill="#403F4C" />
    <path
      d="M62.3584 153.875L61.6569 152.562C61.7166 152.525 68.0301 149.136 71.269 146.219L72.269 147.323C68.8958 150.368 62.627 153.734 62.3584 153.875V153.875Z"
      fill="#FFBA1F" />
    <path
      d="M64.7166 159.196L64.0151 157.883C64.0748 157.853 70.3884 154.457 73.6273 151.539L74.6273 152.644C71.2541 155.689 64.9853 159.055 64.7166 159.196V159.196Z"
      fill="#FFBA1F" />
    <path
      d="M67.2391 165.047L66.5376 163.734C66.6048 163.696 73.5527 159.965 77.1274 156.741L78.1274 157.846C74.4184 161.189 67.5376 164.891 67.2466 165.047H67.2391Z"
      fill="#FFBA1F" />
    <path
      d="M211.407 152.689C211.145 152.547 204.869 149.181 201.496 146.136L202.496 145.032C205.735 147.957 212.048 151.345 212.108 151.375L211.407 152.689V152.689Z"
      fill="#FFBA1F" />
    <path
      d="M209.048 158.01C208.787 157.868 202.511 154.502 199.138 151.457L200.138 150.353C203.376 153.278 209.69 156.666 209.75 156.696L209.048 158.01Z"
      fill="#FFBA1F" />
    <path
      d="M206.526 163.861C206.235 163.704 199.346 160.01 195.645 156.659L196.645 155.555C200.22 158.778 207.16 162.51 207.235 162.547L206.533 163.861H206.526Z"
      fill="#FFBA1F" />
    <path
      d="M156.584 76.8811L155.651 75.7169C159.801 72.381 165.405 65.2839 165.465 65.2167L166.637 66.1421C166.405 66.4406 160.875 73.4408 156.592 76.8811H156.584Z"
      fill="#FFBA1F" />
    <path
      d="M163.614 79.4483L162.682 78.2841C166.831 74.9482 172.435 67.8585 172.495 67.7839L173.667 68.7093C173.435 69.0078 167.906 76.008 163.622 79.4483H163.614Z"
      fill="#FFBA1F" />
  </g>
  <defs>
    <clipPath id="clip0_1965_84">
      <rect width="204.534" height="121.786" fill="white" transform="translate(55 53)" />
    </clipPath>
  </defs>
</svg>