<svg width="300" height="200" viewBox="0 0 300 200" fill="none" xmlns="http://www.w3.org/2000/svg">
<path d="M227.658 141.802C219.77 141.802 209.377 139.011 198.708 135.618C198.378 135.512 198.06 135.41 197.768 135.32C194.381 136.231 188.818 137.03 185.135 133.999C183.861 132.95 181.833 130.601 182.21 126.462C182.21 123.937 182.868 121.37 183.399 119.708C183.325 119.404 183.24 119.069 183.149 118.723C178.138 98.7909 175.076 79.8872 186.525 76.5582C191.839 75.0135 199.35 75.3171 206.606 77.3732C211.495 78.758 220.009 82.0658 222.122 88.6813C222.828 90.8917 223.3 93.3952 222.764 96.7189C226.496 96.6603 229.15 97.6883 230.928 98.3808C237.383 100.89 240.164 109.62 241.247 114.6C242.855 121.993 242.707 129.53 240.854 134.766C239.039 139.879 234.214 141.807 227.653 141.807L227.658 141.802ZM197.789 124.427C198.278 124.427 198.761 124.491 199.228 124.624C199.854 124.8 200.719 125.077 201.919 125.461C205.847 126.712 212.418 128.8 218.847 130.1C227.212 131.788 230.217 131.059 231.002 130.76C233.412 123.09 229.691 109.705 227.064 108.293C224.85 107.436 222.297 106.445 216.575 109.092C214.499 110.056 212.047 109.577 210.481 107.904C208.915 106.232 208.591 103.745 209.679 101.726C213.114 95.3393 212.461 93.2833 212.026 91.9251C210.794 89.2405 197.699 84.7184 189.928 86.6678C189.583 87.4349 188.675 90.4017 189.854 98.8814C190.761 105.396 192.449 112.107 193.458 116.113C193.766 117.338 193.989 118.222 194.127 118.856C194.355 119.905 194.265 120.997 193.861 121.993C193.532 122.824 193.107 124.219 192.927 125.402C193.914 125.279 195.125 125.024 196.101 124.699C196.648 124.518 197.221 124.422 197.795 124.422L197.789 124.427Z" fill="#403F4C"/>
<path d="M135.112 189C95.02 189 62.4014 156.269 62.4014 116.038C62.4014 75.8072 95.0146 43.076 135.112 43.076C175.21 43.076 207.823 75.8072 207.823 116.038C207.823 156.269 175.205 189 135.112 189ZM135.112 53.729C100.875 53.729 73.0177 81.6823 73.0177 116.038C73.0177 150.394 100.875 178.347 135.112 178.347C169.35 178.347 197.207 150.394 197.207 116.038C197.207 81.6823 169.35 53.729 135.112 53.729Z" fill="#403F4C"/>
<path d="M135.113 170.528C121.508 170.528 109.676 167.705 100.897 162.357C90.6997 156.152 85.3066 147.027 85.3066 135.975C85.3066 124.923 90.6573 113.609 99.9837 104.682C109.74 95.3447 122.214 90.1993 135.113 90.1993C148.012 90.1993 160.481 95.3447 170.237 104.682C179.563 113.609 184.914 125.018 184.914 135.975C184.914 146.932 179.526 156.146 169.324 162.357C160.544 167.699 148.712 170.528 135.108 170.528H135.113ZM135.113 100.858C124.959 100.858 115.085 104.954 107.314 112.395C100.185 119.218 95.9282 128.039 95.9282 135.98C95.9282 153.616 117.039 159.875 135.118 159.875C153.198 159.875 174.303 153.616 174.303 135.98C174.303 128.039 170.046 119.218 162.917 112.395C155.146 104.954 145.273 100.858 135.118 100.858H135.113Z" fill="#403F4C"/>
<path d="M116.29 152.269C107.282 152.269 99.957 144.918 99.957 135.879C99.957 126.84 107.282 119.49 116.29 119.49C125.298 119.49 132.623 126.84 132.623 135.879C132.623 144.918 125.298 152.269 116.29 152.269ZM116.29 130.143C113.137 130.143 110.573 132.715 110.573 135.879C110.573 139.043 113.137 141.616 116.29 141.616C119.443 141.616 122.007 139.043 122.007 135.879C122.007 132.715 119.443 130.143 116.29 130.143Z" fill="#403F4C"/>
<path d="M116.292 148.945C114.912 148.945 113.537 148.721 112.215 148.285C111.01 147.885 110.007 147.075 109.365 146.031C108.16 145.808 107.045 145.163 106.233 144.178C104.322 141.845 103.266 138.899 103.266 135.874C103.266 128.667 109.11 122.803 116.292 122.803C123.474 122.803 129.318 128.667 129.318 135.874C129.318 143.081 123.474 148.945 116.292 148.945ZM114.806 133.972C116.324 134.436 117.64 135.363 118.596 136.588C118.665 136.364 118.702 136.119 118.702 135.874C118.702 134.542 117.619 133.456 116.292 133.456C115.729 133.456 115.214 133.647 114.806 133.972Z" fill="#403F4C"/>
<path d="M116.292 149.217C114.88 149.217 113.478 148.988 112.125 148.54L111.61 148.37C110.564 148.024 109.672 147.368 109.035 146.516C108.011 146.229 107.077 145.632 106.371 144.774L106.026 144.354C104.078 141.978 103 138.969 103 135.885C103 128.529 108.961 122.547 116.292 122.547C123.622 122.547 129.583 128.529 129.583 135.885C129.583 143.24 123.622 149.222 116.292 149.222V149.217ZM115.421 133.914C116.584 134.361 117.608 135.08 118.431 135.991C118.431 135.954 118.431 135.917 118.431 135.879C118.431 134.691 117.47 133.727 116.286 133.727C115.978 133.727 115.681 133.791 115.416 133.914H115.421Z" fill="#403F4C"/>
<path d="M153.935 152.269C144.927 152.269 137.602 144.918 137.602 135.879C137.602 126.84 144.927 119.49 153.935 119.49C162.943 119.49 170.268 126.84 170.268 135.879C170.268 144.918 162.943 152.269 153.935 152.269ZM153.935 130.143C150.782 130.143 148.218 132.715 148.218 135.879C148.218 139.043 150.782 141.616 153.935 141.616C157.088 141.616 159.652 139.043 159.652 135.879C159.652 132.715 157.088 130.143 153.935 130.143Z" fill="#403F4C"/>
<path d="M153.934 148.945C152.554 148.945 151.179 148.721 149.858 148.285C148.653 147.885 147.65 147.076 147.007 146.032C145.802 145.808 144.688 145.163 143.875 144.178C141.965 141.845 140.908 138.899 140.908 135.874C140.908 128.667 146.752 122.803 153.934 122.803C161.116 122.803 166.961 128.667 166.961 135.874C166.961 143.081 161.116 148.945 153.934 148.945ZM152.448 133.972C153.966 134.436 155.283 135.363 156.238 136.588C156.307 136.364 156.344 136.119 156.344 135.874C156.344 134.542 155.261 133.456 153.934 133.456C153.372 133.456 152.857 133.647 152.448 133.972Z" fill="#403F4C"/>
<path d="M153.935 149.217C152.523 149.217 151.122 148.988 149.768 148.54L149.259 148.37C148.213 148.024 147.321 147.368 146.679 146.516C145.654 146.229 144.72 145.632 144.014 144.774L143.669 144.354C141.721 141.978 140.644 138.969 140.644 135.885C140.644 128.529 146.605 122.547 153.935 122.547C161.266 122.547 167.227 128.529 167.227 135.885C167.227 143.24 161.266 149.222 153.935 149.222V149.217ZM153.065 133.914C154.227 134.361 155.252 135.08 156.074 135.991C156.074 135.954 156.074 135.917 156.074 135.879C156.074 134.691 155.114 133.727 153.93 133.727C153.622 133.727 153.325 133.791 153.059 133.914H153.065Z" fill="#403F4C"/>
<path d="M135.262 157.308C131.981 157.308 129.97 156.972 128.314 156.157C125.161 154.602 123.435 151.369 124.025 148.119C124.444 145.824 126.095 143.784 128.34 142.793C130.543 141.823 133.022 141.989 135.193 143.24C137.422 141.978 140.156 141.855 142.412 142.979C144.822 144.178 146.319 146.623 146.319 149.36C146.319 152.407 144.456 154.996 141.324 156.28C139.662 156.961 137.624 157.308 135.262 157.308Z" fill="#403F4C"/>
<path d="M185.937 87.7758H185.926C184.392 87.7758 182.938 87.11 181.929 85.9488C179.201 82.8115 179.732 76.9258 179.907 74.9923C180.066 73.2186 181.101 71.6366 182.662 70.7897C193.183 65.0691 195.81 65.8947 197.222 66.3421C198.236 66.6617 199.128 67.2796 199.791 68.1158C203.682 73.0428 201.235 79.6583 200.943 80.3933C200.556 81.3681 199.892 82.2097 199.027 82.8062C197.827 83.6371 191.574 87.7758 185.937 87.7758Z" fill="#403F4C"/>
<path d="M96.8567 73.1492C95.5032 73.1492 94.192 72.6272 93.2047 71.6845C92.5359 71.0453 86.6704 65.2234 86.6279 56.7863C86.6279 56.0459 86.7766 55.3109 87.0685 54.6291C88.3106 51.7741 91.3256 49.7128 97.154 47.7366C100.424 46.6287 103.481 45.931 103.609 45.9043C105.849 45.393 108.168 46.3944 109.342 48.3811C110.976 51.1456 114.761 58.0647 114.65 62.6667C114.618 63.8652 114.188 65.0157 113.429 65.9372C108.099 72.3769 98.2528 73.08 97.1434 73.1386C97.0478 73.1386 96.9523 73.1439 96.862 73.1439L96.8567 73.1492ZM97.584 58.9861C97.9396 60.2112 98.5235 61.2925 99.0755 62.1341C100.482 61.8305 102.144 61.3298 103.497 60.5521C103.152 59.6306 102.659 58.5068 102.091 57.3349C100.328 57.8782 98.7093 58.4695 97.584 58.9861Z" fill="#403F4C"/>
<path d="M179.626 74.14C178.352 74.14 177.11 73.6819 176.133 72.8243L169.015 66.5764C167.375 65.1329 166.775 62.8266 167.513 60.7652C167.555 60.648 171.712 49.031 176.017 37.5684C178.554 30.8038 180.645 25.4081 182.238 21.5251C185.2 14.2971 186.553 11 190.656 11C193.427 11 198.9 12.0493 201.841 15.9856C203.778 18.5796 203.263 21.3547 200.487 29.5521C199.038 33.8293 196.909 39.6085 194.16 46.7246C189.499 58.7784 184.579 70.731 184.531 70.8482C183.878 72.4355 182.503 73.6073 180.836 74.0015C180.438 74.0974 180.03 74.14 179.626 74.14Z" fill="#403F4C"/>
<path d="M81.1802 179.295C79.6833 179.295 77.7936 178.779 75.7925 176.946C71.2222 172.754 64.4277 158.474 66.0361 152.349C66.6678 149.946 68.4141 148.199 70.7073 147.672C71.7105 147.438 75.4793 145.525 79.9488 142.537C84.4501 139.528 90.581 140.726 93.6225 145.211C99.2598 153.536 100.969 159.534 98.9997 164.093C96.1015 170.805 88.6435 177.01 83.399 178.917C82.847 179.119 82.0879 179.306 81.1802 179.306V179.295ZM76.7214 156.7C77.6132 159.976 80.0178 165.207 81.8544 167.806C84.4872 166.112 87.7942 163.002 89.1531 160.067C89.1319 159.262 88.4046 156.594 85.2357 151.789C83.2451 153.1 79.8214 155.252 76.7214 156.7Z" fill="#403F4C"/>
<path d="M74.9858 166.357C74.4709 166.357 73.9507 166.283 73.4464 166.128C72.0981 165.718 70.9675 164.786 70.304 163.545L69.805 162.607C68.4249 160.019 69.391 156.801 71.9601 155.411C73.5738 154.538 76.4402 152.817 77.7619 151.613C78.8076 150.665 80.1771 150.175 81.5891 150.25C82.9958 150.324 84.3175 150.953 85.257 152.002L85.9683 152.791C87.9324 154.974 87.7625 158.341 85.5862 160.312C82.8312 162.81 78.3565 165.265 77.4859 165.734C76.7056 166.155 75.8457 166.368 74.9805 166.368L74.9858 166.357Z" fill="#403F4C"/>
<path d="M76.6577 170.155C76.1428 170.155 75.6226 170.08 75.1183 169.926C73.77 169.516 72.6394 168.584 71.9759 167.343L71.4769 166.405C70.0968 163.816 71.0629 160.599 73.632 159.209C75.2457 158.336 78.1121 156.615 79.4338 155.411C80.4795 154.463 81.8543 153.973 83.261 154.048C84.6676 154.122 85.9894 154.751 86.9289 155.8L87.6402 156.588C89.6042 158.772 89.4344 162.139 87.258 164.109C84.5031 166.608 80.0283 169.063 79.1578 169.532C78.3775 169.953 77.5176 170.166 76.6523 170.166L76.6577 170.155Z" fill="#403F4C"/>
<path d="M78.4579 174.331C77.943 174.331 77.4228 174.256 76.9185 174.102C75.5702 173.692 74.4396 172.765 73.7761 171.518L73.2771 170.581C72.6136 169.335 72.4703 167.87 72.879 166.517C73.2877 165.164 74.222 164.029 75.4694 163.364C77.1627 162.453 80.4325 160.487 81.9347 159.124C82.9804 158.176 84.3552 157.686 85.7619 157.76C87.1685 157.835 88.4903 158.463 89.4298 159.513L90.1411 160.301C92.1051 162.485 91.9352 165.851 89.7589 167.822C86.7651 170.533 81.9082 173.196 80.9633 173.702C80.1883 174.118 79.3231 174.331 78.4579 174.331Z" fill="#403F4C"/>
<path d="M189.69 179.295C188.783 179.295 188.024 179.109 187.472 178.906C182.227 177.005 174.775 170.794 171.871 164.083C169.902 159.523 171.611 153.526 177.248 145.2C180.29 140.716 186.421 139.517 190.922 142.527C195.391 145.515 199.16 147.432 200.163 147.661C202.457 148.189 204.203 149.941 204.835 152.338C206.443 158.469 199.648 172.744 195.078 176.936C193.077 178.768 191.187 179.285 189.69 179.285V179.295ZM181.712 160.067C183.076 163.002 186.383 166.112 189.011 167.806C190.842 165.207 193.252 159.976 194.144 156.7C191.039 155.251 187.62 153.1 185.63 151.789C182.461 156.594 181.739 159.262 181.712 160.067Z" fill="#403F4C"/>
<path d="M195.89 166.357C195.025 166.357 194.16 166.144 193.385 165.723C192.515 165.255 188.04 162.799 185.285 160.301C183.108 158.33 182.939 154.964 184.903 152.78L185.614 151.992C186.559 150.942 187.875 150.314 189.282 150.239C190.689 150.165 192.063 150.66 193.109 151.603C194.436 152.807 197.302 154.527 198.906 155.395C201.48 156.786 202.451 160.008 201.071 162.597L200.572 163.534C199.909 164.781 198.778 165.713 197.43 166.118C196.926 166.272 196.411 166.347 195.89 166.347V166.357Z" fill="#403F4C"/>
<path d="M194.213 170.155C193.348 170.155 192.482 169.942 191.707 169.521C190.837 169.052 186.362 166.597 183.607 164.099C181.431 162.128 181.261 158.762 183.225 156.578L183.936 155.79C184.881 154.74 186.197 154.112 187.604 154.037C189.011 153.968 190.386 154.458 191.431 155.401C192.758 156.604 195.625 158.325 197.228 159.193C199.802 160.583 200.774 163.806 199.394 166.395L198.895 167.332C198.231 168.578 197.1 169.51 195.752 169.915C195.248 170.07 194.733 170.144 194.213 170.144V170.155Z" fill="#403F4C"/>
<path d="M192.418 174.331C191.553 174.331 190.693 174.118 189.912 173.702C188.968 173.196 184.111 170.533 181.117 167.822C178.94 165.851 178.771 162.485 180.735 160.301L181.446 159.513C182.391 158.463 183.707 157.835 185.114 157.76C186.51 157.691 187.895 158.181 188.941 159.124C190.443 160.487 193.713 162.453 195.422 163.369C198.002 164.759 198.979 167.987 197.599 170.576L197.1 171.513C196.436 172.76 195.306 173.686 193.957 174.097C193.453 174.251 192.933 174.326 192.418 174.326V174.331Z" fill="#403F4C"/>
<path d="M81.2025 148.157C71.1382 148.157 65.708 143.619 62.9265 139.815C59.0463 134.5 57.4432 126.936 58.1704 117.327C58.7649 109.46 60.7342 102.557 61.5517 99.9575C63.3193 94.338 68.6593 79.8767 80.0347 67.0132C94.08 51.135 112.107 43.0441 133.61 42.9695C133.7 42.9695 133.796 42.9695 133.886 42.9695C149.89 42.9695 165.507 47.8379 179.058 57.0634C189.897 64.4405 199.027 74.3691 204.118 84.303C208.338 92.543 208.954 99.4514 205.859 103.755C202.18 108.869 197.706 109.646 194.6 109.391C191.267 109.124 188.14 107.617 185.115 106.157C182.254 104.778 179.292 103.356 176.457 103.121C171.494 102.722 164.54 107.154 159.848 120.832C157.311 128.236 150.766 133.328 143.18 133.807C134.374 134.366 126.295 128.923 121.555 119.25C118.646 113.322 115.934 111.111 114.362 111.026C112.951 110.941 110.36 112.485 107.446 117.045C105.907 119.458 104.781 122.856 103.598 126.451C100.572 135.608 96.4316 148.151 81.2025 148.151V148.157ZM71.6743 103.159C69.1742 111.106 66.3237 126.441 71.4886 133.514C73.4473 136.199 76.6268 137.504 81.2025 137.504C88.0818 137.504 90.1414 133.338 93.5174 123.106C94.8603 119.048 96.2458 114.845 98.507 111.303C104.537 101.859 110.779 100.16 114.957 100.394C121.221 100.751 126.646 105.513 131.078 114.552C133.865 120.23 138.138 123.463 142.512 123.181C145.856 122.968 148.653 120.741 149.81 117.37C155.474 100.852 165.756 91.5576 177.322 92.511C182.116 92.9052 186.325 94.9293 189.706 96.5592C195.667 99.4301 196.028 99.2171 197.159 97.6564C197.398 96.687 197.032 91.7014 191.06 83.2696C180.895 68.9201 160.549 53.6225 133.891 53.6225C133.806 53.6225 133.732 53.6225 133.647 53.6225C115.297 53.6864 99.9296 60.5735 87.9757 74.0868C77.9539 85.4162 73.2402 98.1944 71.6743 103.164V103.159Z" fill="#403F4C"/>
<path d="M74.6626 108.698C73.1498 108.698 71.7007 108.267 70.3577 107.265C69.3439 106.509 67.624 104.746 67.5019 101.417C67.2631 94.748 74.4078 82.3267 77.0991 77.6501C79.923 72.7444 86.5529 61.9157 89.0424 59.7744C91.2665 57.8622 94.616 58.1179 96.5269 60.3497C98.3848 62.5282 98.1884 65.7774 96.1129 67.7109C94.9982 68.9626 90.4013 75.7645 85.969 83.5305C83.5219 87.8183 81.7862 91.2379 80.5759 93.8905C81.9666 92.7293 83.6387 91.2485 85.6452 89.3523C90.9533 84.3348 96.6755 78.236 100.858 73.783C102.201 72.3556 103.406 71.0719 104.42 70.0066C106.586 67.7428 125.908 48.0083 137.203 52.637C139.507 53.5797 143.361 56.3016 143.276 63.8705C143.186 72.1744 139.894 79.1202 137.246 84.7023C136.189 86.9341 134.639 90.2045 134.48 91.6374C136.455 90.5028 140.255 85.5918 142.602 82.5557C148.78 74.566 155.787 65.5057 165.31 64.4457C171.791 63.7213 176.829 64.8133 180.284 67.6896C184.674 71.3435 185.067 76.4995 185.253 78.9764C185.274 79.2267 185.284 79.4504 185.311 79.6422C185.401 80.3719 185.412 81.0963 185.422 81.7994C185.47 84.9313 185.481 85.6771 189.069 86.2204C191.967 86.6571 193.963 89.3736 193.528 92.2819C193.093 95.1901 190.38 97.1982 187.487 96.7561C175.013 94.8652 174.859 85.1604 174.806 81.9698C174.801 81.6076 174.79 81.1123 174.774 80.9418C174.732 80.6116 174.7 80.2227 174.668 79.786C174.541 78.0762 174.36 76.6061 173.511 75.8977C172.991 75.4609 171.255 74.5074 166.483 75.0401C161.419 75.6047 155.633 83.0831 150.989 89.0966C148.09 92.8465 145.351 96.3886 142.511 98.8547C136.853 103.76 132.272 102.839 129.416 101.198C125.244 98.7962 123.317 94.8599 123.991 90.1087C124.442 86.9288 125.929 83.7862 127.659 80.1429C129.974 75.2585 132.59 69.7296 132.659 63.764C132.659 63.2739 132.638 62.8957 132.606 62.6081C128.954 63.242 119.511 69.6124 112.074 77.3891C111.077 78.4331 109.898 79.6901 108.582 81.0963C103.613 86.3908 96.8029 93.6455 90.5977 99.2649C85.4063 103.968 79.6629 108.703 74.6573 108.703L74.6626 108.698ZM96.0651 67.7588C96.0279 67.7908 95.9908 67.8281 95.9536 67.86C95.9855 67.8334 96.0226 67.7961 96.0651 67.7588Z" fill="#403F4C"/>
<path d="M78.1664 93.571C77.9487 93.571 77.7258 93.571 77.5029 93.5604C70.3793 93.294 66.4831 85.544 65.3047 78.9925C64.896 76.7127 66.0054 74.4277 68.0437 73.3411C75.3584 69.4581 79.2864 69.245 80.64 69.3356C85.6084 69.6658 88.6075 74.8485 89.5524 84.7291C89.632 85.5334 89.5205 86.3483 89.2392 87.11C88.995 87.7652 88.22 89.4536 86.3038 90.9823C84.7963 92.1808 82.19 93.571 78.1664 93.571ZM78.1664 82.9181H78.177C78.2248 82.9181 78.3893 82.9181 78.4371 82.9181C78.4636 82.9181 78.522 82.9127 78.5751 82.9074C78.4159 82.0392 78.2354 81.2136 78.0443 80.5158C77.6993 80.6383 77.333 80.7768 76.9508 80.9313C77.3595 81.8528 77.7948 82.5878 78.1664 82.9181Z" fill="#403F4C"/>
<path d="M165.113 75.658C162.348 75.658 160.378 74.8057 159.136 74.0015C157.257 72.787 156.387 71.3009 156.1 70.715C155.744 69.9853 155.553 69.1863 155.553 68.3767C155.516 59.7691 157.799 55.0179 162.337 54.2509C165.708 53.6756 170.681 55.428 173.351 56.5146C175.491 57.3882 176.818 59.5507 176.642 61.8624C176.621 62.1394 176.409 64.6322 175.533 67.2901C173.415 73.7245 169.354 75.2052 167.125 75.5142C166.419 75.61 165.75 75.658 165.124 75.658H165.113Z" fill="#403F4C"/>
<path d="M127.256 63.0663C117.781 63.0663 114.819 58.1446 114.309 57.1326C113.831 56.1791 113.646 55.1085 113.784 54.0486C114.357 49.5956 116.517 39.1984 124.145 38.8202C128.933 38.5752 137.092 41.6379 139.48 42.5807C141.949 43.5554 143.318 46.208 142.697 48.7913C141.444 53.974 136.954 62.8053 128.041 63.0503C127.776 63.0556 127.516 63.0609 127.261 63.0609L127.256 63.0663ZM124.957 52.2216C125.626 52.3494 126.534 52.4346 127.739 52.4027C128.721 52.376 129.591 51.6357 130.303 50.6662C128.599 50.1496 127.001 49.7448 125.86 49.5583C125.552 50.2135 125.233 51.1669 124.952 52.2162L124.957 52.2216Z" fill="#403F4C"/>
<path d="M156.557 98.8175C150.58 98.8175 145.298 95.3234 144.624 94.8599C143.408 94.0237 142.596 92.724 142.379 91.2646C142.257 90.4656 141.322 83.2749 145.797 77.3465C146.238 76.7606 146.795 76.2759 147.432 75.9137C148.616 75.2479 152.22 73.2238 163.595 78.4544C165.703 79.4238 166.934 81.6503 166.648 83.9567C165.623 92.1967 163.537 95.5471 162.688 96.6017C161.945 97.5285 160.915 98.1783 159.763 98.45C158.685 98.7057 157.613 98.8122 156.557 98.8122V98.8175ZM152.931 87.2857C153.627 87.5787 154.364 87.829 155.076 87.9888C155.187 87.5733 155.299 87.1153 155.41 86.6359C154.614 86.3589 153.86 86.1192 153.213 85.9434C153.08 86.4068 152.99 86.8596 152.931 87.2857Z" fill="#403F4C"/>
<path d="M104.065 92.3832C102.706 92.3832 101.4 91.8612 100.413 90.9184C99.7439 90.2792 93.8784 84.4574 93.8359 76.0203C93.8359 75.2799 93.9846 74.5395 94.2765 73.8631C95.5186 71.0081 98.5336 68.9467 104.362 66.9706C107.632 65.8627 110.689 65.1649 110.817 65.1383C113.062 64.6323 115.376 65.6337 116.55 67.6151C118.184 70.3796 121.969 77.2986 121.858 81.9007C121.826 83.0992 121.396 84.2497 120.637 85.1712C115.307 91.6109 105.461 92.314 104.351 92.3725C104.256 92.3725 104.16 92.3779 104.07 92.3779L104.065 92.3832ZM104.792 78.2201C105.148 79.4452 105.731 80.5265 106.284 81.3681C107.69 81.0645 109.352 80.5638 110.711 79.7861C110.366 78.8593 109.872 77.7407 109.304 76.5689C107.542 77.1122 105.917 77.7035 104.797 78.2254L104.792 78.2201Z" fill="#403F4C"/>
<path d="M98.5396 102.631C98.115 102.631 97.685 102.594 97.2657 102.519C94.6222 102.056 92.5839 100.027 92.0796 97.3474C91.57 94.6576 92.7431 92.005 95.0575 90.5828C98.89 88.2339 101.783 89.4536 102.845 90.0875C104.867 91.2859 106.051 93.555 105.939 95.9998C105.849 97.928 104.947 99.6751 103.397 100.922C102.027 102.024 100.281 102.626 98.5396 102.626V102.631ZM98.5184 91.9784C97.8708 91.9784 97.2869 92.1914 96.7561 92.6175C95.9174 93.294 95.3866 94.3753 95.3335 95.5151C95.2698 96.9213 96.0395 98.3541 97.2975 99.1691C98.6723 100.059 100.063 99.9042 100.589 99.6751C100.589 99.6751 100.615 99.6645 100.626 99.6591C102.07 98.7536 102.823 97.0332 102.51 95.366C102.192 93.6722 100.817 92.3299 99.097 92.0316C98.9006 91.9997 98.7095 91.9784 98.5237 91.9784H98.5184Z" fill="#403F4C"/>
<path d="M133.986 94.7214C132.102 94.7214 130.164 94.0663 128.699 92.8838C127.059 91.5628 126.104 89.7252 126.013 87.6958C125.891 85.0858 127.096 82.7688 129.235 81.5011C130.637 80.6702 133.588 79.6422 137.628 82.119C140.053 83.6051 141.274 86.3855 140.743 89.1979C140.213 91.9996 138.089 94.1195 135.324 94.6042C134.889 94.6788 134.437 94.7161 133.991 94.7161L133.986 94.7214ZM132.112 91.1687C132.68 91.2965 133.8 91.2646 134.889 90.5029C135.993 89.7305 136.667 88.4362 136.614 87.2058C136.566 86.1618 136.088 85.1764 135.334 84.5692C134.782 84.1271 134.209 83.9833 133.487 84.1111C131.884 84.3934 130.605 85.6398 130.308 87.2111C130.021 88.7185 130.685 90.2685 131.953 91.1261C132.001 91.142 132.049 91.158 132.107 91.1687L134.851 86.6625L132.112 91.1687Z" fill="#403F4C"/>
<path d="M91.7709 94.6096C91.2348 94.6096 90.704 94.567 90.1785 94.4712C87.1157 93.9332 84.7536 91.5682 84.1591 88.4416C83.5645 85.2936 84.9287 82.1936 87.6359 80.5318C92.5672 77.5064 95.9962 78.6515 97.594 79.605C99.9561 81.0058 101.283 83.5998 101.15 86.54C101.044 88.8198 99.9561 90.9024 98.0823 92.4098C96.3306 93.8213 94.0163 94.6043 91.7656 94.6043L91.7709 94.6096ZM91.7709 83.9514C91.6329 83.9514 91.5745 83.9993 91.4525 84.1005C91.065 84.4095 90.5978 85.1072 90.5554 86.05C90.5235 86.6892 90.8261 87.7065 91.7709 88.4736C92.4716 89.0435 93.2201 89.2193 93.6925 89.2299C94.425 88.5215 94.786 87.4615 94.6002 86.4601C94.3613 85.2084 93.3262 84.2124 92.0204 83.9833C91.9143 83.9674 91.8399 83.9567 91.7762 83.9567L91.7709 83.9514Z" fill="#403F4C"/>
<path d="M177.326 82.9873C174.948 82.9873 172.501 82.1564 170.649 80.6649C168.695 79.0936 167.559 76.9204 167.448 74.5555C167.31 71.5034 168.679 68.8135 171.121 67.3647C172.793 66.3687 176.382 65.1862 181.631 68.4034C184.434 70.1239 185.851 73.341 185.236 76.6008C184.625 79.8393 182.178 82.2895 179.009 82.8488C178.462 82.9447 177.9 82.9926 177.332 82.9926L177.326 82.9873ZM177.273 72.3397C177.247 72.3397 177.215 72.345 177.173 72.3556C175.989 72.5634 175.012 73.4955 174.8 74.6194C174.646 75.4343 174.901 76.2972 175.437 76.9311C175.861 76.8672 176.445 76.6701 176.987 76.2067C177.762 75.5462 178.08 74.6567 178.048 74.0708C178.006 73.144 177.512 72.5314 177.268 72.345L177.273 72.3397Z" fill="#403F4C"/>
<path d="M141.232 66.2727C140.441 66.2727 139.65 66.1822 138.891 65.9958C136.545 65.4152 134.671 63.977 133.615 61.9423C132.25 59.3164 132.373 56.3868 133.933 54.1071C134.995 52.5571 137.638 50.059 143.44 50.7248C146.609 51.087 149.162 53.3401 149.943 56.4614C150.723 59.5614 149.566 62.72 146.997 64.515C145.356 65.6602 143.281 66.2727 141.227 66.2727H141.232ZM141.248 55.6198C141.248 55.6198 141.221 55.6198 141.211 55.6198C141.189 55.6198 141.089 55.6624 140.94 55.7689C139.862 56.52 139.347 57.8463 139.65 59.066C139.889 60.0248 140.637 60.8184 141.566 61.154C141.98 60.9409 142.564 60.4722 142.946 59.6839C143.467 58.6026 143.313 57.5746 143.026 57.0207C142.495 56.0033 141.577 55.6251 141.242 55.6251L141.248 55.6198Z" fill="#403F4C"/>
<path d="M164.599 86.2364C163.097 86.2364 161.982 85.7197 161.409 85.3788C159.461 84.223 158.32 82.0498 158.426 79.7008C158.511 77.8792 159.392 76.1694 160.846 74.9976C162.433 73.7192 164.573 73.1706 166.558 73.5168C169.106 73.9642 171.064 75.9137 171.553 78.4864C172.041 81.0644 170.916 83.6158 168.692 84.9794C167.152 85.9221 165.762 86.2311 164.604 86.2311L164.599 86.2364ZM163.155 75.8924C161.6 76.8458 160.783 78.6888 161.122 80.4785C161.462 82.2788 162.911 83.6957 164.732 84.0153C165.74 84.191 166.696 83.9514 167.487 83.3175C168.4 82.5824 168.978 81.4213 169.031 80.1962C169.106 78.6249 168.241 77.0642 166.834 76.2226C165.252 75.2745 163.644 75.5994 163.155 75.8924Z" fill="#403F4C"/>
<path d="M106.592 96.7509C104.83 96.7509 103.078 96.117 101.751 94.9665C99.7609 93.2461 99.0602 90.5189 99.9732 88.0208C100.886 85.512 103.19 83.8715 105.844 83.8448C110.133 83.7916 111.927 86.2577 112.5 87.3177C113.599 89.3418 113.467 91.8399 112.155 93.8373C111.136 95.382 109.475 96.4206 107.585 96.687C107.256 96.7349 106.922 96.7562 106.592 96.7562V96.7509ZM105.865 86.1778C104.846 86.3962 103.896 87.0514 103.296 87.9675C102.473 89.2192 102.41 90.9344 103.137 92.3406C103.96 93.9332 105.393 94.4818 105.966 94.4978C107.739 94.4765 109.337 93.3419 109.942 91.6748C110.552 89.9969 110.043 88.0741 108.673 86.8969C107.935 86.2577 107.076 85.9967 106.12 86.1299C106.035 86.1405 105.95 86.1565 105.86 86.1725L105.865 86.1778Z" fill="#403F4C"/>
<path d="M133.727 77.6981C131.943 77.6981 130.171 77.0536 128.828 75.8978C126.821 74.1667 126.12 71.4235 127.039 68.9041C127.957 66.3794 130.277 64.7282 132.952 64.6962C133.01 64.6909 133.032 64.6962 133.069 64.6962C137.326 64.6962 139.115 67.1411 139.693 68.201C140.797 70.2411 140.665 72.7552 139.343 74.7632C138.319 76.3186 136.641 77.3679 134.741 77.6342C134.406 77.6821 134.072 77.7035 133.732 77.7035L133.727 77.6981ZM133.079 75.3492C133.079 75.3492 133.085 75.3492 133.09 75.3492C134.842 75.3172 136.413 74.1986 137.013 72.5581C137.618 70.8962 137.114 68.9947 135.76 67.8229C135.038 67.1997 134.199 66.944 133.276 67.0771C132.172 67.2316 131.131 67.9081 130.484 68.8881C129.677 70.1186 129.608 71.8071 130.319 73.1919C131.11 74.7419 132.49 75.3065 133.063 75.3438C133.063 75.3438 133.074 75.3438 133.079 75.3438V75.3492Z" fill="#403F4C"/>
<path d="M188.93 120.001C188.93 120.001 187.428 123.708 187.523 126.712C186.642 133.536 197.784 129.754 197.784 129.754C202.582 131.117 232.669 141.973 235.859 132.976C239.049 123.98 235.509 105.87 229.017 103.35C226.267 102.28 222.106 100.671 214.345 104.267C218.448 96.6337 217.981 93.1502 217.074 90.3112C214.95 83.6585 197.152 79.0244 188.012 81.6823C178.871 84.3402 187.868 115.127 188.935 120.012L188.93 120.001Z" fill="#FFAB15"/>
<path d="M135.111 183.674C172.336 183.674 202.514 153.392 202.514 116.038C202.514 78.684 172.336 48.4025 135.111 48.4025C97.8853 48.4025 67.708 78.684 67.708 116.038C67.708 153.392 97.8853 183.674 135.111 183.674Z" fill="#A56E00"/>
<path d="M179.606 135.98C179.606 155.22 159.684 165.201 135.113 165.201C110.542 165.201 90.6201 155.22 90.6201 135.98C90.6201 116.741 110.542 95.5312 135.113 95.5312C159.684 95.5312 179.606 116.741 179.606 135.98Z" fill="#FFC112"/>
<path d="M116.291 146.942C122.38 146.942 127.316 141.989 127.316 135.879C127.316 129.769 122.38 124.816 116.291 124.816C110.202 124.816 105.266 129.769 105.266 135.879C105.266 141.989 110.202 146.942 116.291 146.942Z" fill="white"/>
<path d="M116.291 128.135C112.029 128.135 108.573 131.602 108.573 135.879C108.573 137.749 109.231 139.459 110.33 140.796C110.558 139.757 111.482 138.974 112.586 138.974C113.865 138.974 114.901 140.013 114.901 141.296C114.901 142.101 114.492 142.809 113.871 143.224C114.63 143.475 115.442 143.619 116.286 143.619C120.548 143.619 124.004 140.151 124.004 135.874C124.004 131.597 120.548 128.129 116.286 128.129L116.291 128.135Z" fill="#403F4C"/>
<path d="M116.291 143.885C115.447 143.885 114.603 143.746 113.791 143.48L113.276 143.31L113.727 143.006C114.295 142.622 114.64 141.983 114.64 141.296C114.64 140.162 113.722 139.24 112.591 139.24C111.641 139.24 110.797 139.917 110.596 140.854L110.479 141.387L110.134 140.966C108.961 139.538 108.318 137.733 108.318 135.879C108.318 131.464 111.901 127.868 116.302 127.868C120.702 127.868 124.285 131.464 124.285 135.879C124.285 140.295 120.702 143.89 116.302 143.89L116.291 143.885ZM114.428 143.113C115.038 143.272 115.665 143.352 116.291 143.352C120.4 143.352 123.744 139.997 123.744 135.874C123.744 131.751 120.4 128.395 116.291 128.395C112.183 128.395 108.839 131.751 108.839 135.874C108.839 137.44 109.332 138.969 110.235 140.236C110.643 139.325 111.562 138.708 112.586 138.708C114.009 138.708 115.166 139.869 115.166 141.296C115.166 141.983 114.895 142.633 114.423 143.113H114.428Z" fill="#403F4C"/>
<path d="M153.935 146.942C160.024 146.942 164.96 141.989 164.96 135.879C164.96 129.769 160.024 124.816 153.935 124.816C147.846 124.816 142.91 129.769 142.91 135.879C142.91 141.989 147.846 146.942 153.935 146.942Z" fill="white"/>
<path d="M153.934 128.135C149.671 128.135 146.216 131.602 146.216 135.879C146.216 137.749 146.874 139.459 147.973 140.796C148.201 139.757 149.125 138.974 150.229 138.974C151.508 138.974 152.543 140.013 152.543 141.296C152.543 142.101 152.134 142.809 151.513 143.224C152.272 143.475 153.085 143.619 153.929 143.619C158.191 143.619 161.647 140.151 161.647 135.874C161.647 131.597 158.191 128.129 153.929 128.129L153.934 128.135Z" fill="#403F4C"/>
<path d="M153.935 143.885C153.091 143.885 152.247 143.746 151.435 143.48L150.92 143.31L151.371 143.006C151.939 142.623 152.279 141.983 152.279 141.296C152.279 140.162 151.361 139.24 150.23 139.24C149.28 139.24 148.436 139.917 148.234 140.854L148.117 141.387L147.772 140.966C146.599 139.539 145.957 137.733 145.957 135.879C145.957 131.464 149.54 127.868 153.94 127.868C158.341 127.868 161.924 131.464 161.924 135.879C161.924 140.295 158.341 143.89 153.94 143.89L153.935 143.885ZM152.072 143.113C152.682 143.272 153.309 143.352 153.935 143.352C158.044 143.352 161.388 139.997 161.388 135.874C161.388 131.751 158.044 128.396 153.935 128.396C149.827 128.396 146.483 131.751 146.483 135.874C146.483 137.44 146.976 138.969 147.879 140.236C148.287 139.325 149.206 138.708 150.23 138.708C151.653 138.708 152.81 139.869 152.81 141.296C152.81 141.983 152.539 142.633 152.067 143.113H152.072Z" fill="#403F4C"/>
<path d="M130.649 151.374C131.138 151.614 132.13 151.981 135.257 151.976C138.399 151.976 141.005 151.166 141.005 149.355C141.005 147.544 138.893 147.006 137.502 148.066C136.472 148.849 134.052 148.807 132.656 147.922C130.803 146.751 129.391 148.226 129.237 149.068C129.057 150.064 129.8 150.953 130.644 151.369L130.649 151.374Z" fill="#403F4C"/>
<path d="M185.193 75.4716C185.193 75.4716 193.734 70.8216 195.629 71.4235C197.726 74.0814 196.006 78.4278 196.006 78.4278C196.006 78.4278 190.199 82.4546 185.931 82.4546C184.694 81.0325 185.193 75.477 185.193 75.477V75.4716Z" fill="#C6935C"/>
<path d="M104.775 51.0977C104.775 51.0977 93.2616 53.7024 91.9346 56.7544C91.9664 63.1622 96.8605 67.8175 96.8605 67.8175C96.8605 67.8175 105.343 67.3648 109.345 62.5336C109.43 58.9702 104.78 51.0977 104.78 51.0977H104.775Z" fill="#C6935C"/>
<path d="M172.508 62.5656C172.508 62.5656 189.054 16.3212 190.657 16.3212C192.26 16.3212 195.997 17.035 197.595 19.1762C199.192 21.3175 179.621 68.8136 179.621 68.8136L172.503 62.5656H172.508Z" fill="#D6B461"/>
<path d="M89.2289 148.194C87.817 146.106 84.9824 145.557 82.891 146.958C79.3983 149.297 74.329 152.295 71.8872 152.855C68.2405 153.696 77.6359 175.327 81.5852 173.894C85.5345 172.461 91.8406 167.236 94.1178 161.963C95.5828 158.575 91.9839 152.274 89.2236 148.194H89.2289Z" fill="#FFD985"/>
<path d="M74.9863 161.031L74.4873 160.093C74.5298 160.067 79.0205 157.648 81.3242 155.566L82.0355 156.354C79.6362 158.527 75.1774 160.93 74.9863 161.031Z" fill="#FFBA1F"/>
<path d="M76.6601 164.829L76.1611 163.891C76.2036 163.864 80.6943 161.446 82.998 159.364L83.7093 160.152C81.31 162.325 76.8512 164.727 76.6601 164.829Z" fill="#FFBA1F"/>
<path d="M78.4589 169.005L77.96 168.067C78.0077 168.04 82.9496 165.377 85.4922 163.076L86.2035 163.864C83.5654 166.251 78.6713 168.893 78.4642 169.005H78.4589Z" fill="#FFBA1F"/>
<path d="M181.642 148.194C183.054 146.106 185.889 145.557 187.98 146.958C191.473 149.296 196.542 152.295 198.984 152.855C202.631 153.696 193.235 175.327 189.286 173.894C185.337 172.461 179.031 167.236 176.754 161.963C175.288 158.575 178.887 152.274 181.648 148.194H181.642Z" fill="#FFD985"/>
<path d="M195.889 161.031L196.388 160.093C196.346 160.067 191.855 157.648 189.551 155.566L188.84 156.354C191.239 158.527 195.698 160.929 195.889 161.031Z" fill="#FFBA1F"/>
<path d="M194.211 164.828L194.71 163.891C194.668 163.864 190.177 161.446 187.873 159.364L187.162 160.152C189.561 162.325 194.02 164.727 194.211 164.828Z" fill="#FFBA1F"/>
<path d="M192.417 169.004L192.916 168.067C192.869 168.04 187.927 165.377 185.384 163.076L184.673 163.864C187.311 166.251 192.205 168.893 192.412 169.004H192.417Z" fill="#FFBA1F"/>
<path d="M66.615 101.561C63.9237 110.12 56.0677 142.835 81.2018 142.835C97.519 142.835 96.6697 124.054 102.976 114.184C109.277 104.314 118.295 100.554 126.316 116.912C134.336 133.269 150.818 130.803 154.831 119.111C158.844 107.414 166.578 96.9799 176.892 97.8268C187.205 98.6737 195.178 109.524 201.559 100.65C208.141 91.499 180.326 48.1415 133.63 48.3066C86.9346 48.4717 70.3413 89.7306 66.615 101.571V101.561Z" fill="#4D1600"/>
<path d="M74.714 105.497C73.7744 105.497 72.9623 105.225 72.2457 104.698C71.5662 104.192 70.7488 103.196 70.6798 101.3C70.3666 92.4366 88.6319 64.3235 91.1055 62.1982C91.9973 61.4312 93.3349 61.5377 94.0993 62.4272C94.8584 63.3167 94.7575 64.659 93.8764 65.426C92.9899 66.257 87.8675 73.6608 82.7186 82.7903C76.1896 94.3647 74.7617 99.6965 74.9104 101.215C75.7278 101.129 78.5995 100.208 86.4874 92.9319C92.2415 87.6214 98.5582 80.8941 103.171 75.9778C104.503 74.5556 105.703 73.2826 106.711 72.2226C106.908 72.0149 126.638 51.7583 135.997 55.5987C137.897 56.3764 140.153 58.443 140.089 63.8387C140.004 71.4396 136.878 78.0391 134.367 83.339C130.821 90.828 130.264 93.0917 133.109 94.7269C135.954 96.3675 140.609 90.3433 145.111 84.5214C150.902 77.0324 157.468 68.542 165.658 67.6259C171.248 67.0027 175.484 67.8549 178.249 70.1506C181.599 72.9417 181.907 77.0218 182.077 79.2163C182.098 79.5252 182.119 79.7969 182.146 80.0259C182.215 80.5905 182.225 81.1977 182.236 81.8422C182.289 85.0807 182.342 88.4257 188.595 89.3685C189.752 89.5443 190.554 90.6309 190.379 91.7921C190.203 92.9532 189.12 93.7522 187.963 93.5818C178.154 92.0957 178.048 85.2139 177.995 81.9061C177.984 81.3788 177.979 80.8781 177.936 80.5372C177.899 80.2496 177.873 79.9087 177.846 79.5305C177.703 77.645 177.506 75.0563 175.542 73.4211C173.7 71.887 170.531 71.3597 166.131 71.8498C159.729 72.5635 153.747 80.2975 148.471 87.1207C142.595 94.7163 137.053 101.891 130.996 98.4075C124.335 94.5725 127.482 87.925 130.529 81.4907C132.982 76.3133 135.763 70.4436 135.837 63.7748C135.859 62.1183 135.62 60.0356 134.383 59.5296C130.402 57.9051 118.108 66.4381 109.769 75.1575C108.766 76.2068 107.577 77.4745 106.255 78.886C101.324 84.1432 94.5664 91.3393 88.4568 96.8735C81.9596 102.765 77.6865 105.481 74.7033 105.481L74.714 105.497Z" fill="#FFE499"/>
<path d="M70.5332 78.0443C70.5332 78.0443 72.3274 88.0368 77.6992 88.2339C83.0711 88.431 84.2707 85.2351 84.2707 85.2351C84.2707 85.2351 83.2728 74.8431 80.2896 74.6461C77.3064 74.449 70.5332 78.0443 70.5332 78.0443Z" fill="#C6935C"/>
<path d="M171.339 61.4524C171.339 61.4524 170.702 69.6392 166.387 70.2411C162.076 70.8376 160.856 68.3608 160.856 68.3608C160.856 68.3608 160.818 59.913 163.207 59.5135C165.596 59.1141 171.339 61.4577 171.339 61.4577V61.4524Z" fill="#C6935C"/>
<path d="M137.532 47.5397C137.532 47.5397 135.122 57.5322 127.887 57.7292C120.652 57.9263 119.049 54.7304 119.049 54.7304C119.049 54.7304 120.386 44.3385 124.405 44.1414C128.423 43.9443 137.532 47.5397 137.532 47.5397Z" fill="#C6935C"/>
<path d="M161.376 83.3015C161.376 83.3015 152.458 79.1948 150.022 80.5637C146.773 84.8675 147.623 90.4656 147.623 90.4656C147.623 90.4656 153.446 94.4711 158.552 93.2674C160.431 90.929 161.381 83.3015 161.381 83.3015H161.376Z" fill="#C6935C"/>
<path d="M111.979 70.3317C111.979 70.3317 100.466 72.9363 99.1387 75.9884C99.1705 82.3961 104.065 87.0515 104.065 87.0515C104.065 87.0515 112.547 86.5987 116.549 81.7676C116.634 78.2042 111.984 70.3317 111.984 70.3317H111.979Z" fill="#C6935C"/>
<path d="M97.8208 95.1371C99.7689 93.9439 100.682 94.6896 100.634 95.7656C100.586 96.8415 99.1585 97.4541 98.1764 97.2783C97.1944 97.1025 96.9025 95.6963 97.8208 95.1371Z" fill="#0E7200"/>
<path d="M134.851 86.6679C132.398 85.1658 131.246 86.1033 131.31 87.4562C131.374 88.8091 133.168 89.5814 134.405 89.3631C135.642 89.1447 136.008 87.371 134.856 86.6679H134.851Z" fill="#0E7200"/>
<path d="M90.4059 85.0807C94.18 82.769 95.9476 84.2124 95.852 86.2951C95.7565 88.3724 92.9963 89.5602 91.0959 89.2246C89.1956 88.8891 88.633 86.1673 90.4059 85.0807Z" fill="#0E7200"/>
<path d="M178.865 72.9469C174.629 70.3529 172.644 71.9775 172.755 74.3052C172.862 76.6382 175.962 77.9698 178.09 77.5969C180.219 77.2241 180.85 74.1667 178.865 72.9469Z" fill="#0E7200"/>
<path d="M142.835 56.014C138.36 55.4974 137.346 57.596 138.318 59.4762C139.295 61.3565 142.352 61.2659 143.966 60.1421C145.579 59.0182 144.937 56.2591 142.835 56.014Z" fill="#0E7200"/>
<path d="M165.919 80.4359C164.401 81.368 163.69 80.7821 163.727 79.9459C163.764 79.1096 164.879 78.6302 165.643 78.7634C166.408 78.8965 166.636 79.9938 165.919 80.4306V80.4359Z" fill="#0E7200"/>
<path d="M105.9 89.1714C107.891 89.1501 108.241 90.1195 107.726 90.8972C107.211 91.6748 105.873 91.4991 105.215 90.9291C104.557 90.3592 104.966 89.1767 105.9 89.1661V89.1714Z" fill="#0E7200"/>
<path d="M133.004 70.0227C135.079 70.0014 135.446 71.0081 134.91 71.8231C134.373 72.638 132.977 72.4516 132.293 71.8604C131.608 71.2691 132.033 70.0334 133.009 70.0227H133.004Z" fill="#0E7200"/>
</svg>
