<svg width="300" height="200" viewBox="0 0 300 200" fill="none" xmlns="http://www.w3.org/2000/svg">
<mask id="mask0_358_197" style="mask-type:alpha" maskUnits="userSpaceOnUse" x="0" y="0" width="300" height="200">
<rect width="300" height="200" fill="#D9D9D9"/>
</mask>
<g mask="url(#mask0_358_197)">
</g>
<g clip-path="url(#clip0_358_197)">
<path d="M189.585 119.843C189.585 119.843 188.299 125.322 189.076 129.482C189.331 139.166 204.018 131.476 204.018 131.476C210.988 132.323 255.221 140.867 257.712 127.661C260.209 114.454 251.355 90.0577 241.768 87.9591C237.707 87.0747 231.568 85.733 221.547 92.4262C225.608 80.9212 224.202 76.1843 222.325 72.4292C217.927 63.6374 192.15 61.0741 179.998 66.7554C167.846 72.4442 187.035 113.285 189.577 119.843H189.585Z" fill="#FFAB15"/>
<path d="M237.872 136.812C228.636 136.812 217.673 135.433 207.428 133.859C206.164 133.664 205.102 133.499 204.34 133.395C202.111 134.481 194.521 137.839 190.168 135.276C188.882 134.519 187.342 132.937 187.207 129.669C186.556 125.989 187.312 121.582 187.633 120.001C187.342 119.281 186.923 118.299 186.422 117.115C183.864 111.097 179.115 99.8838 176.334 89.4731C172.647 75.6746 173.589 67.6848 179.213 65.054C185.278 62.2133 194.887 61.164 204.295 62.2958C209.111 62.8804 220.679 64.9491 223.992 71.5822C225.675 74.9551 227.186 79.2872 224.77 88.3488C233.063 84.1291 238.635 85.3508 242.164 86.1228C249.396 87.7043 254.257 98.4223 256.007 102.964C259.432 111.824 260.785 121.417 259.544 128.006C258.288 134.654 249.441 136.82 237.864 136.82L237.872 136.812ZM204.018 129.595C204.093 129.595 204.168 129.595 204.242 129.61C205.065 129.707 206.359 129.909 207.996 130.164C214.36 131.139 226.198 132.96 236.698 133.087C248.334 133.222 255.147 131.176 255.88 127.309C258.325 114.357 249.516 91.5643 241.379 89.7879C237.408 88.9185 231.964 87.7267 222.594 93.9852C221.921 94.4349 221.046 94.3974 220.41 93.9027C219.775 93.4081 219.528 92.5611 219.797 91.7966C223.671 80.8312 222.347 76.6265 220.665 73.2611C216.933 65.796 192.718 62.8729 180.806 68.4493C177.246 70.1132 176.947 77.2336 179.961 88.4987C182.675 98.6621 187.364 109.71 189.884 115.646C190.535 117.175 191.043 118.389 191.342 119.161C191.477 119.514 191.507 119.903 191.417 120.271C191.402 120.323 190.236 125.427 190.924 129.13C190.939 129.227 190.954 129.325 190.954 129.43C191.006 131.423 191.806 131.896 192.075 132.053C194.483 133.47 200.585 131.154 203.158 129.812C203.427 129.669 203.726 129.602 204.025 129.602L204.018 129.595Z" fill="#403F4C"/>
<path d="M195.269 130.524C197.161 132.465 210.591 141.317 215.729 142.501C220.867 143.685 207.63 174.123 202.066 172.107C196.502 170.091 187.618 162.738 184.41 155.318C181.202 147.898 195.276 130.531 195.276 130.531L195.269 130.524Z" fill="#FFD985"/>
<path d="M202.627 174.078C202.216 174.078 201.819 174.011 201.423 173.868C195.231 171.627 186.018 163.757 182.683 156.06C179.123 147.83 192.3 131.213 193.81 129.347L195.134 127.713L196.6 129.22C198.417 131.086 211.519 139.616 216.14 140.68C216.836 140.837 218.07 141.377 218.548 143.213C220.074 149.029 211.915 167.228 206.441 172.249C205.11 173.471 203.824 174.086 202.62 174.086L202.627 174.078ZM195.553 133.185C190.512 139.773 184.253 150.266 186.115 154.568C189.211 161.719 197.804 168.547 202.642 170.323C203.151 170.256 205.162 168.906 208.243 163.555C213.508 154.411 215.407 146.039 214.959 144.24C209.993 142.906 199.748 136.363 195.545 133.185H195.553Z" fill="#403F4C"/>
<path d="M78.5183 130.524C76.6263 132.465 63.1954 141.317 58.0579 142.501C52.9203 143.685 66.1568 174.123 71.7206 172.107C77.2844 170.091 86.1685 162.738 89.3767 155.318C92.5849 147.898 78.5108 130.531 78.5108 130.531L78.5183 130.524Z" fill="#FFD985"/>
<path d="M71.1597 174.078C69.9557 174.078 68.677 173.464 67.3384 172.242C61.8643 167.22 53.7055 149.022 55.2311 143.206C55.7172 141.369 56.9511 140.83 57.6391 140.672C62.2606 139.608 75.3625 131.079 77.1797 129.212L78.6454 127.706L79.9691 129.34C81.4797 131.206 94.6563 147.83 91.0967 156.052C87.7689 163.75 78.5482 171.62 72.3563 173.861C71.9674 174.003 71.5636 174.071 71.1523 174.071L71.1597 174.078ZM58.8207 144.24C58.3794 146.031 60.2714 154.411 65.5361 163.555C68.6246 168.914 70.6288 170.256 71.1373 170.323C75.9757 168.539 84.5757 161.719 87.6642 154.568C89.5263 150.266 83.2595 139.773 78.2267 133.185C74.0239 136.363 63.7787 142.906 58.8132 144.24H58.8207Z" fill="#403F4C"/>
<path d="M123.776 76.9037C125.138 74.3329 143.145 47.1181 165.729 56.5695C188.314 66.0283 179.168 89.2332 194.887 96.9682C210.614 104.703 199.172 120.75 196.891 127.054C187.454 117.887 123.776 76.9037 123.776 76.9037Z" fill="#FFD985"/>
<path d="M197.661 130.411L195.59 128.395C186.399 119.461 123.403 78.8825 122.767 78.4777L121.316 77.5483L122.124 76.0268C122.296 75.7045 141.373 44.3449 166.447 54.8456C179.646 60.3695 182.69 70.3605 185.375 79.1673C187.499 86.1377 189.338 92.1563 195.71 95.2893C210.546 102.59 203.853 116.59 200.256 124.108C199.576 125.532 198.985 126.761 198.649 127.698L197.661 130.419V130.411ZM126.334 76.3266C135.772 82.4202 183.318 113.24 196.196 123.943C196.413 123.478 196.644 122.999 196.884 122.489C201.46 112.91 204.691 103.886 194.064 98.6546C186.235 94.8021 183.984 87.4119 181.8 80.2616C179.235 71.8445 176.58 63.1427 165.004 58.3008C156.21 54.6207 147.109 56.4345 137.948 63.6973C132.234 68.2244 128.114 73.6658 126.327 76.3266H126.334Z" fill="#403F4C"/>
<path d="M199.576 132.008C199.576 159.08 171.51 173.126 136.893 173.126C102.277 173.126 74.2108 159.08 74.2108 132.008C74.2108 104.936 102.277 75.09 136.893 75.09C171.51 75.09 199.576 104.936 199.576 132.008Z" fill="#FFC112"/>
<path d="M136.893 175C97.6776 175 72.3413 158.121 72.3413 132.008C72.3413 118.112 79.2437 103.549 91.2837 92.0439C103.982 79.9018 120.18 73.2162 136.901 73.2162C153.622 73.2162 169.82 79.9018 182.518 92.0439C194.558 103.549 201.46 118.119 201.46 132.008C201.46 158.128 176.124 175 136.901 175H136.893ZM136.893 76.9638C102.643 76.9638 76.0804 106.555 76.0804 132.008C76.0804 155.85 99.9509 171.252 136.893 171.252C173.836 171.252 197.714 155.85 197.714 132.008C197.714 106.555 171.151 76.9638 136.893 76.9638Z" fill="#403F4C"/>
<path d="M110.376 147.433C118.954 147.433 125.908 140.463 125.908 131.866C125.908 123.268 118.954 116.298 110.376 116.298C101.797 116.298 94.8433 123.268 94.8433 131.866C94.8433 140.463 101.797 147.433 110.376 147.433Z" fill="white"/>
<path d="M110.376 120.968C104.371 120.968 99.5022 125.847 99.5022 131.865C99.5022 134.496 100.429 136.902 101.977 138.783C102.299 137.322 103.6 136.22 105.156 136.22C106.958 136.22 108.416 137.682 108.416 139.488C108.416 140.62 107.84 141.617 106.965 142.201C108.035 142.554 109.179 142.756 110.368 142.756C116.373 142.756 121.241 137.877 121.241 131.858C121.241 125.839 116.373 120.96 110.368 120.96L110.376 120.968Z" fill="#403F4C"/>
<path d="M110.375 143.138C109.186 143.138 107.997 142.943 106.853 142.569L106.128 142.329L106.764 141.901C107.564 141.362 108.05 140.462 108.05 139.496C108.05 137.899 106.756 136.602 105.163 136.602C103.825 136.602 102.636 137.554 102.351 138.873L102.187 139.623L101.701 139.031C100.048 137.022 99.1432 134.481 99.1432 131.873C99.1432 125.66 104.191 120.6 110.39 120.6C116.59 120.6 121.638 125.66 121.638 131.873C121.638 138.086 116.59 143.146 110.39 143.146L110.375 143.138ZM107.751 142.051C108.611 142.276 109.493 142.389 110.375 142.389C116.164 142.389 120.875 137.667 120.875 131.866C120.875 126.064 116.164 121.342 110.375 121.342C104.587 121.342 99.8761 126.064 99.8761 131.866C99.8761 134.069 100.572 136.22 101.843 138.004C102.419 136.722 103.712 135.853 105.156 135.853C107.16 135.853 108.79 137.487 108.79 139.496C108.79 140.462 108.409 141.377 107.743 142.051H107.751Z" fill="#403F4C"/>
<path d="M163.411 147.433C171.989 147.433 178.943 140.463 178.943 131.866C178.943 123.268 171.989 116.298 163.411 116.298C154.833 116.298 147.879 123.268 147.879 131.866C147.879 140.463 154.833 147.433 163.411 147.433Z" fill="white"/>
<path d="M163.411 120.968C157.406 120.968 152.538 125.847 152.538 131.865C152.538 134.496 153.465 136.902 155.013 138.783C155.335 137.322 156.636 136.22 158.191 136.22C159.994 136.22 161.452 137.682 161.452 139.488C161.452 140.62 160.876 141.617 160.001 142.201C161.071 142.554 162.215 142.756 163.404 142.756C169.409 142.756 174.277 137.877 174.277 131.858C174.277 125.839 169.409 120.96 163.404 120.96L163.411 120.968Z" fill="#403F4C"/>
<path d="M163.411 143.138C162.222 143.138 161.033 142.943 159.889 142.569L159.164 142.329L159.799 141.901C160.599 141.362 161.078 140.462 161.078 139.496C161.078 137.899 159.784 136.602 158.191 136.602C156.853 136.602 155.664 137.554 155.38 138.873L155.215 139.623L154.729 139.031C153.076 137.022 152.171 134.481 152.171 131.873C152.171 125.66 157.219 120.6 163.419 120.6C169.618 120.6 174.666 125.66 174.666 131.873C174.666 138.086 169.618 143.146 163.419 143.146L163.411 143.138ZM160.786 142.051C161.646 142.276 162.529 142.389 163.411 142.389C169.199 142.389 173.911 137.667 173.911 131.866C173.911 126.064 169.199 121.342 163.411 121.342C157.623 121.342 152.912 126.064 152.912 131.866C152.912 134.069 153.607 136.22 154.879 138.004C155.454 136.722 156.748 135.853 158.191 135.853C160.196 135.853 161.826 137.487 161.826 139.496C161.826 140.462 161.444 141.377 160.779 142.051H160.786Z" fill="#403F4C"/>
<path d="M130.604 153.669C131.292 154.006 132.691 154.523 137.095 154.516C141.5 154.508 145.194 153.377 145.194 150.828C145.194 148.28 142.218 147.523 140.259 149.014C138.808 150.116 135.398 150.056 133.431 148.812C130.821 147.163 128.832 149.239 128.615 150.423C128.361 151.825 129.408 153.077 130.597 153.661L130.604 153.669Z" fill="#403F4C"/>
<path d="M62.4177 154.006L61.7147 152.687C61.7745 152.65 68.1011 149.247 71.3467 146.316L72.3488 147.425C68.9686 150.483 62.6869 153.864 62.4177 154.006Z" fill="#FFBA1F"/>
<path d="M64.7808 159.35L64.0779 158.031C64.1377 158.001 70.4643 154.591 73.7098 151.66L74.7119 152.769C71.3318 155.827 65.05 159.208 64.7808 159.35Z" fill="#FFBA1F"/>
<path d="M67.3084 165.226L66.6055 163.907C66.6728 163.87 73.635 160.122 77.2171 156.884L78.2192 157.994C74.5025 161.351 67.6075 165.069 67.3159 165.226H67.3084Z" fill="#FFBA1F"/>
<path d="M211.773 152.814C211.511 152.672 205.222 149.292 201.842 146.234L202.844 145.124C206.089 148.062 212.416 151.465 212.476 151.495L211.773 152.814Z" fill="#FFBA1F"/>
<path d="M209.41 158.158C209.148 158.016 202.859 154.636 199.479 151.578L200.481 150.468C203.726 153.407 210.053 156.809 210.113 156.839L209.41 158.158Z" fill="#FFBA1F"/>
<path d="M206.882 164.035C206.59 163.877 199.688 160.167 195.979 156.802L196.981 155.693C200.563 158.93 207.518 162.678 207.593 162.715L206.89 164.035H206.882Z" fill="#FFBA1F"/>
<path d="M156.838 76.6789L155.903 75.5097C160.061 72.1594 165.677 65.0315 165.737 64.9641L166.911 65.8934C166.679 66.1933 161.138 73.2237 156.845 76.6789H156.838Z" fill="#FFBA1F"/>
<path d="M163.882 79.2572L162.948 78.088C167.105 74.7377 172.722 67.6173 172.781 67.5424L173.955 68.4718C173.724 68.7716 168.182 75.802 163.89 79.2572H163.882Z" fill="#FFBA1F"/>
<path d="M161.37 56.0898C157.107 62.1009 146.398 67.4599 139.84 69.9783C140.827 65.2264 140.483 59.8898 138.546 53.9537C131.711 33.0348 109.246 21.6347 88.3821 28.4853C67.5103 35.3358 56.136 57.8437 62.9711 78.7626C64.9154 84.7062 67.9889 89.1508 71.8702 92.3063C65.2893 93.8728 56.9436 95.012 51.4396 93.3931C42.4134 90.7473 37.3432 102.357 50.4824 104.853C58.3346 106.345 66.3662 103.751 72.7152 100.349C72.7152 101.166 72.8348 101.997 73.0966 102.814C74.4277 106.892 78.81 109.118 82.8781 107.776C84.4785 107.252 85.7871 106.255 86.7144 104.988C88.5541 107.956 92.2409 109.403 95.7033 108.263C97.7598 107.589 99.3452 106.127 100.235 104.328C102.209 105.925 104.924 106.525 107.519 105.67C109.972 104.861 111.752 102.942 112.484 100.648C114.451 102.192 117.128 102.754 119.678 101.915C122.483 100.993 124.405 98.6247 124.898 95.9039C126.663 96.7959 128.772 97.0207 130.806 96.3536C134.725 95.0645 136.923 90.9497 135.891 87.0072C137.006 87.1571 138.172 87.0597 139.316 86.6849C143.384 85.3508 145.606 80.9586 144.267 76.8813C144.102 76.3641 143.886 75.8844 143.624 75.4347C151.738 74.8276 162.589 72.1219 169.207 64.4918C177.979 54.3734 166.821 48.3998 161.37 56.0898Z" fill="#F26957"/>
<path d="M93.2728 110.152C90.775 110.152 88.367 109.133 86.6171 107.304C85.6749 108.151 84.5606 108.796 83.3342 109.193C78.4883 110.782 73.2535 108.129 71.6681 103.272C71.6008 103.062 71.541 102.852 71.4887 102.642C65.8725 105.363 58.1251 107.829 50.1981 106.322C43.7295 105.093 41.83 101.93 41.2766 100.154C40.5886 97.9502 41.1944 95.5967 42.8919 93.8579C45.0531 91.6468 48.4034 90.9348 51.8508 91.9466C55.6348 93.0559 61.6847 92.8685 68.7142 91.4519C65.5435 88.2215 63.1355 84.1142 61.5351 79.2199C54.4682 57.559 66.2913 34.1517 87.9109 27.0613C109.53 19.9634 132.877 31.8207 139.959 53.4891C141.582 58.4509 142.165 63.1878 141.709 67.6024C148.552 64.6868 156.711 60.0548 160.143 55.2205C162.23 52.2824 165.296 50.7609 168.354 51.1506C170.762 51.4579 172.692 52.9345 173.514 55.0931C174.18 56.8319 174.643 60.4971 170.321 65.4738C163.419 73.4411 152.687 75.9595 145.77 76.739C147.138 81.5059 144.499 86.5576 139.765 88.1091C139.062 88.3415 138.344 88.4839 137.619 88.5438C137.813 92.6212 135.27 96.4587 131.262 97.7778C129.497 98.3624 127.635 98.3924 125.878 97.8978C124.883 100.454 122.797 102.47 120.135 103.347C117.801 104.111 115.296 103.909 113.142 102.845C112.013 104.838 110.174 106.375 107.967 107.102C105.522 107.911 102.897 107.649 100.684 106.442C99.5545 107.964 97.9915 109.095 96.1519 109.703C95.1947 110.017 94.2225 110.167 93.2578 110.167L93.2728 110.152ZM86.7069 103.489C86.7069 103.489 86.7443 103.489 86.7667 103.489C87.2603 103.512 87.7164 103.774 87.9782 104.194C89.5037 106.652 92.4875 107.739 95.232 106.839C96.8399 106.315 98.1411 105.183 98.8889 103.661C99.0908 103.257 99.4647 102.957 99.9059 102.86C100.347 102.762 100.811 102.867 101.17 103.159C102.83 104.501 105.029 104.906 107.048 104.246C108.947 103.624 110.443 102.11 111.056 100.191C111.206 99.7266 111.572 99.3593 112.043 99.2169C112.514 99.0745 113.015 99.1644 113.404 99.4717C115.057 100.768 117.226 101.151 119.207 100.499C121.398 99.779 123.006 97.9202 123.417 95.6492C123.5 95.1845 123.799 94.7873 124.225 94.5699C124.651 94.36 125.145 94.36 125.564 94.5699C127.052 95.3194 128.742 95.4543 130.327 94.9297C133.468 93.8954 135.27 90.5825 134.433 87.3821C134.306 86.9024 134.433 86.3852 134.754 86.0105C135.084 85.6357 135.577 85.4483 136.071 85.5158C137.005 85.6357 137.933 85.5533 138.83 85.2535C142.106 84.1742 143.9 80.629 142.831 77.3461C142.696 76.9414 142.524 76.5441 142.315 76.1769C142.061 75.7272 142.053 75.18 142.293 74.7303C142.532 74.2731 142.988 73.9808 143.504 73.9358C158.483 72.8116 165.67 66.2683 168.07 63.5026C170.478 60.7219 171.443 58.0462 170.725 56.1574C170.299 55.0331 169.296 54.2911 167.98 54.1262C166.036 53.8789 164.017 54.9357 162.581 56.9594C158.356 62.9255 147.976 68.4569 140.371 71.38C139.862 71.5749 139.286 71.4774 138.868 71.1252C138.449 70.7729 138.262 70.2182 138.374 69.6786C139.339 65.0391 138.912 59.9049 137.125 54.426C130.552 34.3241 108.895 23.3212 88.8456 29.9094C68.789 36.4902 57.8185 58.1961 64.3918 78.2905C66.1642 83.7095 68.9984 88.0342 72.8123 91.1371C73.2535 91.4969 73.4554 92.074 73.3283 92.6362C73.2012 93.1908 72.7674 93.633 72.2141 93.7604C67.0989 94.9821 57.5343 96.736 51.0207 94.8322C48.6427 94.1352 46.4067 94.5549 45.0382 95.964C44.1109 96.9159 43.7818 98.1151 44.1408 99.2619C44.7465 101.196 47.162 102.695 50.7665 103.384C58.7832 104.906 66.7475 101.855 72.0121 99.0295C72.4758 98.7822 73.0367 98.7972 73.4928 99.067C73.9415 99.3368 74.2182 99.8315 74.2182 100.356C74.2182 101.038 74.3154 101.705 74.5323 102.35C75.6017 105.633 79.1464 107.432 82.4218 106.352C83.6707 105.94 84.7401 105.168 85.5178 104.104C85.802 103.714 86.2507 103.489 86.7218 103.489H86.7069Z" fill="#403F4C"/>
<path d="M103.436 84.7362C109.049 84.7362 113.599 80.1758 113.599 74.5503C113.599 68.9248 109.049 64.3644 103.436 64.3644C97.8229 64.3644 93.2728 68.9248 93.2728 74.5503C93.2728 80.1758 97.8229 84.7362 103.436 84.7362Z" fill="#D83935"/>
<path d="M103.481 79.7219C106.248 79.7219 108.491 77.4736 108.491 74.7002C108.491 71.9268 106.248 69.6785 103.481 69.6785C100.713 69.6785 98.4702 71.9268 98.4702 74.7002C98.4702 77.4736 100.713 79.7219 103.481 79.7219Z" fill="#632A26"/>
<path d="M85.8619 74.4904C88.629 74.4904 90.8723 72.2421 90.8723 69.4686C90.8723 66.6952 88.629 64.4469 85.8619 64.4469C83.0947 64.4469 80.8514 66.6952 80.8514 69.4686C80.8514 72.2421 83.0947 74.4904 85.8619 74.4904Z" fill="#632A26"/>
<path d="M114.601 65.0615C117.368 65.0615 119.611 62.8132 119.611 60.0397C119.611 57.2663 117.368 55.018 114.601 55.018C111.834 55.018 109.59 57.2663 109.59 60.0397C109.59 62.8132 111.834 65.0615 114.601 65.0615Z" fill="#632A26"/>
</g>
<defs>
<clipPath id="clip0_358_197">
<rect width="219" height="150" fill="white" transform="translate(41 25)"/>
</clipPath>
</defs>
</svg>
