<svg width="300" height="200" viewBox="0 0 300 200" fill="none" xmlns="http://www.w3.org/2000/svg">
<mask id="mask0_358_249" style="mask-type:alpha" maskUnits="userSpaceOnUse" x="0" y="0" width="300" height="200">
<rect width="300" height="200" fill="#D9D9D9"/>
</mask>
<g mask="url(#mask0_358_249)">
</g>
<path d="M179.097 124.816C179.097 124.816 177.93 129.801 178.636 133.586C178.867 142.396 192.196 135.4 192.196 135.4C198.521 136.17 238.663 143.944 240.923 131.928C243.19 119.913 235.155 97.7154 226.454 95.806C222.769 95.0013 217.197 93.7806 208.103 99.8704C211.788 89.4026 210.513 85.0927 208.809 81.6762C204.819 73.677 181.425 71.3447 170.397 76.5139C159.369 81.6898 176.783 118.849 179.091 124.816H179.097Z" fill="#FFAB15"/>
<path d="M222.918 140.255C214.537 140.255 204.588 139 195.29 137.568C194.143 137.391 193.18 137.241 192.487 137.145C190.465 138.134 183.577 141.189 179.627 138.857C178.46 138.168 177.061 136.729 176.939 133.756C176.349 130.408 177.034 126.398 177.326 124.959C177.061 124.304 176.681 123.411 176.227 122.334C173.906 116.858 169.596 106.656 167.072 97.1835C163.726 84.629 164.581 77.3595 169.684 74.9658C175.188 72.3813 183.909 71.4266 192.447 72.4563C196.817 72.9882 207.316 74.8704 210.323 80.9056C211.85 83.9743 213.22 87.9159 211.028 96.1606C218.555 92.3213 223.611 93.4328 226.814 94.1352C233.377 95.5741 237.788 105.326 239.376 109.458C242.484 117.519 243.713 126.248 242.586 132.242C241.446 138.291 233.417 140.262 222.912 140.262L222.918 140.255ZM192.196 133.688C192.263 133.688 192.331 133.688 192.399 133.702C193.146 133.79 194.32 133.974 195.806 134.206C201.581 135.093 212.325 136.75 221.853 136.866C232.413 136.988 238.595 135.127 239.261 131.608C241.48 119.824 233.485 99.0861 226.101 97.4699C222.498 96.6789 217.557 95.5946 209.053 101.289C208.443 101.698 207.649 101.664 207.072 101.214C206.495 100.764 206.271 99.9931 206.515 99.2975C210.031 89.3207 208.829 85.495 207.303 82.4331C203.916 75.641 181.941 72.9814 171.13 78.055C167.9 79.569 167.628 86.0474 170.363 96.297C172.827 105.544 177.082 115.596 179.369 120.997C179.959 122.388 180.421 123.493 180.692 124.195C180.814 124.516 180.842 124.87 180.76 125.205C180.747 125.252 179.688 129.896 180.312 133.265C180.326 133.354 180.339 133.442 180.339 133.538C180.387 135.352 181.113 135.781 181.357 135.925C183.543 137.214 189.081 135.106 191.415 133.886C191.659 133.756 191.931 133.695 192.202 133.695L192.196 133.688Z" fill="#403F4C"/>
<path d="M184.255 134.534C185.972 136.3 198.161 144.353 202.823 145.431C207.486 146.508 195.474 174.202 190.424 172.368C185.375 170.533 177.313 163.843 174.401 157.092C171.49 150.341 184.262 134.54 184.262 134.54L184.255 134.534Z" fill="#FFD985"/>
<path d="M190.933 174.161C190.56 174.161 190.2 174.1 189.841 173.97C184.221 171.931 175.86 164.771 172.833 157.767C169.603 150.28 181.561 135.161 182.932 133.463L184.133 131.976L185.463 133.347C187.112 135.045 199.003 142.805 203.197 143.774C203.828 143.917 204.948 144.408 205.382 146.079C206.766 151.371 199.362 167.928 194.394 172.497C193.186 173.609 192.019 174.168 190.926 174.168L190.933 174.161ZM184.513 136.954C179.939 142.949 174.259 152.496 175.949 156.41C178.758 162.916 186.556 169.128 190.947 170.745C191.408 170.683 193.234 169.456 196.03 164.587C200.808 156.267 202.532 148.65 202.124 147.013C197.618 145.799 188.32 139.846 184.506 136.954H184.513Z" fill="#403F4C"/>
<path d="M78.3031 134.534C76.5861 136.3 64.3974 144.353 59.735 145.431C55.0726 146.508 67.0848 174.202 72.1341 172.368C77.1833 170.533 85.2457 163.843 88.1572 157.092C91.0686 150.341 78.2963 134.54 78.2963 134.54L78.3031 134.534Z" fill="#FFD985"/>
<path d="M71.6251 174.161C70.5324 174.161 69.3719 173.602 68.1571 172.49C63.1893 167.921 55.7852 151.364 57.1696 146.072C57.6108 144.401 58.7306 143.91 59.3549 143.767C63.549 142.799 75.4391 135.038 77.0883 133.34L78.4184 131.969L79.6197 133.456C80.9906 135.154 92.9485 150.28 89.7181 157.76C86.6981 164.764 78.3302 171.924 72.7109 173.963C72.358 174.093 71.9915 174.154 71.6183 174.154L71.6251 174.161ZM60.4272 147.013C60.0268 148.643 61.7438 156.267 66.5216 164.587C69.3244 169.463 71.1432 170.683 71.6047 170.745C75.9956 169.122 83.8002 162.916 86.6031 156.41C88.2929 152.496 82.6058 142.949 78.0384 136.954C74.2243 139.846 64.9267 145.799 60.4204 147.013H60.4272Z" fill="#403F4C"/>
<path d="M119.375 85.7474C120.611 83.4083 136.953 58.647 157.448 67.2463C177.944 75.8456 169.644 96.9653 183.909 104.003C198.181 111.041 187.798 125.641 185.728 131.376C177.163 123.036 119.375 85.7474 119.375 85.7474Z" fill="#FFD985"/>
<path d="M186.427 134.431L184.547 132.597C176.206 124.468 119.036 87.5477 118.459 87.1795L117.143 86.3338L117.876 84.9495C118.032 84.6563 135.344 56.1238 158.1 65.6778C170.078 70.7037 172.84 79.794 175.277 87.8068C177.204 94.1489 178.874 99.6249 184.656 102.475C198.12 109.118 192.046 121.856 188.782 128.696C188.164 129.992 187.628 131.11 187.323 131.963L186.427 134.438V134.431ZM121.696 85.2223C130.261 90.7665 173.41 118.808 185.097 128.546C185.294 128.123 185.504 127.687 185.721 127.223C189.875 118.508 192.806 110.297 183.163 105.537C176.057 102.032 174.014 95.3082 172.033 88.8025C169.705 81.1443 167.296 73.2269 156.79 68.8216C148.809 65.4732 140.55 67.1235 132.236 73.7316C127.051 77.8505 123.312 82.8014 121.69 85.2223H121.696Z" fill="#403F4C"/>
<path d="M188.171 135.884C188.171 160.515 162.701 173.295 131.286 173.295C99.8708 173.295 74.4008 160.515 74.4008 135.884C74.4008 111.252 99.864 84.097 131.279 84.097C162.694 84.097 188.164 111.252 188.164 135.884H188.171Z" fill="#FFC112"/>
<path d="M131.279 175C95.6903 175 72.6973 159.643 72.6973 135.884C72.6973 123.241 78.9613 109.99 89.8878 99.5226C101.411 88.4751 116.111 82.3922 131.286 82.3922C146.461 82.3922 161.16 88.4751 172.684 99.5226C183.611 109.99 189.875 123.247 189.875 135.884C189.875 159.649 166.882 175 131.286 175H131.279ZM131.279 85.8019C100.197 85.8019 76.0906 112.725 76.0906 135.884C76.0906 157.576 97.7534 171.59 131.279 171.59C164.805 171.59 186.474 157.576 186.474 135.884C186.474 112.725 162.368 85.8019 131.279 85.8019Z" fill="#403F4C"/>
<path d="M107.214 149.918C114.999 149.918 121.31 143.577 121.31 135.754C121.31 127.932 114.999 121.59 107.214 121.59C99.429 121.59 93.1182 127.932 93.1182 135.754C93.1182 143.577 99.429 149.918 107.214 149.918Z" fill="white"/>
<path d="M107.214 125.839C101.764 125.839 97.3462 130.278 97.3462 135.754C97.3462 138.148 98.1877 140.337 99.5926 142.049C99.8844 140.719 101.065 139.716 102.477 139.716C104.112 139.716 105.436 141.046 105.436 142.69C105.436 143.719 104.913 144.626 104.119 145.158C105.09 145.479 106.128 145.663 107.207 145.663C112.657 145.663 117.075 141.223 117.075 135.747C117.075 130.271 112.657 125.832 107.207 125.832L107.214 125.839Z" fill="#403F4C"/>
<path d="M107.214 146.011C106.135 146.011 105.056 145.833 104.017 145.492L103.359 145.274L103.936 144.885C104.662 144.394 105.103 143.576 105.103 142.696C105.103 141.244 103.929 140.064 102.484 140.064C101.269 140.064 100.19 140.93 99.9319 142.13L99.7826 142.812L99.3415 142.274C97.8416 140.446 97.0204 138.134 97.0204 135.761C97.0204 130.108 101.601 125.505 107.227 125.505C112.854 125.505 117.435 130.108 117.435 135.761C117.435 141.414 112.854 146.017 107.227 146.017L107.214 146.011ZM104.832 145.022C105.612 145.226 106.413 145.329 107.214 145.329C112.467 145.329 116.742 141.032 116.742 135.754C116.742 130.476 112.467 126.18 107.214 126.18C101.961 126.18 97.6855 130.476 97.6855 135.754C97.6855 137.759 98.3167 139.716 99.4704 141.339C99.993 140.173 101.167 139.382 102.477 139.382C104.296 139.382 105.775 140.869 105.775 142.696C105.775 143.576 105.429 144.408 104.825 145.022H104.832Z" fill="#403F4C"/>
<path d="M155.344 149.918C163.129 149.918 169.44 143.577 169.44 135.754C169.44 127.932 163.129 121.59 155.344 121.59C147.56 121.59 141.249 127.932 141.249 135.754C141.249 143.577 147.56 149.918 155.344 149.918Z" fill="white"/>
<path d="M155.344 125.839C149.895 125.839 145.477 130.278 145.477 135.754C145.477 138.148 146.318 140.337 147.723 142.049C148.015 140.719 149.196 139.716 150.607 139.716C152.243 139.716 153.566 141.046 153.566 142.69C153.566 143.719 153.044 144.626 152.25 145.158C153.22 145.479 154.259 145.663 155.338 145.663C160.787 145.663 165.205 141.223 165.205 135.747C165.205 130.271 160.787 125.832 155.338 125.832L155.344 125.839Z" fill="#403F4C"/>
<path d="M155.344 146.011C154.265 146.011 153.186 145.833 152.148 145.492L151.49 145.274L152.066 144.885C152.793 144.394 153.227 143.576 153.227 142.696C153.227 141.244 152.053 140.064 150.607 140.064C149.393 140.064 148.313 140.93 148.056 142.13L147.906 142.812L147.465 142.274C145.965 140.446 145.144 138.134 145.144 135.761C145.144 130.108 149.725 125.505 155.351 125.505C160.977 125.505 165.558 130.108 165.558 135.761C165.558 141.414 160.977 146.017 155.351 146.017L155.344 146.011ZM152.962 145.022C153.743 145.226 154.544 145.329 155.344 145.329C160.597 145.329 164.873 141.032 164.873 135.754C164.873 130.476 160.597 126.18 155.344 126.18C150.092 126.18 145.816 130.476 145.816 135.754C145.816 137.759 146.447 139.716 147.601 141.339C148.123 140.173 149.298 139.382 150.607 139.382C152.426 139.382 153.906 140.869 153.906 142.696C153.906 143.576 153.56 144.408 152.956 145.022H152.962Z" fill="#403F4C"/>
<path d="M125.578 155.592C126.203 155.899 127.472 156.369 131.469 156.362C135.467 156.356 138.819 155.326 138.819 153.007C138.819 150.689 136.118 150 134.34 151.357C133.023 152.359 129.929 152.305 128.144 151.173C125.775 149.673 123.97 151.562 123.773 152.639C123.542 153.914 124.493 155.053 125.572 155.585L125.578 155.592Z" fill="#403F4C"/>
<path d="M63.6915 155.899L63.0536 154.699C63.1079 154.664 68.8493 151.568 71.7947 148.902L72.7041 149.911C69.6366 152.694 63.9358 155.769 63.6915 155.899Z" fill="#FFBA1F"/>
<path d="M65.8361 160.761L65.1982 159.561C65.2525 159.534 70.9939 156.431 73.9393 153.764L74.8487 154.774C71.7812 157.556 66.0804 160.631 65.8361 160.761Z" fill="#FFBA1F"/>
<path d="M68.13 166.107L67.4921 164.907C67.5531 164.873 73.8715 161.463 77.1222 158.517L78.0316 159.527C74.6587 162.582 68.4015 165.964 68.1368 166.107H68.13Z" fill="#FFBA1F"/>
<path d="M199.233 154.814C198.996 154.685 193.288 151.609 190.221 148.827L191.13 147.818C194.075 150.491 199.817 153.587 199.871 153.614L199.233 154.814Z" fill="#FFBA1F"/>
<path d="M197.089 159.677C196.851 159.547 191.144 156.472 188.076 153.689L188.986 152.68C191.931 155.353 197.672 158.449 197.727 158.477L197.089 159.677Z" fill="#FFBA1F"/>
<path d="M194.795 165.023C194.53 164.88 188.266 161.504 184.9 158.442L185.809 157.433C189.06 160.379 195.372 163.789 195.44 163.823L194.802 165.023H194.795Z" fill="#FFBA1F"/>
<path d="M149.379 85.5428L148.531 84.479C152.304 81.4307 157.401 74.9454 157.455 74.884L158.52 75.7296C158.31 76.0024 153.281 82.399 149.386 85.5428H149.379Z" fill="#FFBA1F"/>
<path d="M155.772 87.8887L154.924 86.8249C158.697 83.7766 163.794 77.2981 163.848 77.2299L164.914 78.0755C164.703 78.3483 159.674 84.7449 155.779 87.8887H155.772Z" fill="#FFBA1F"/>
<path d="M96.0093 89.4913C90.614 90.6369 77.3666 91.4553 82.5515 100.682C87.7365 109.902 98.6018 115.337 108.422 111.395C118.242 107.454 114.523 121.27 126.719 120.983C138.914 120.697 142.09 126.957 152.793 118.583C156.084 116.012 159.695 123.377 166.759 127.107C173.824 130.837 177.272 137.391 186.929 128.833C196.587 120.274 193.424 131.165 201.079 130.155C208.735 129.146 206.285 119.135 197.733 109.581L96.0093 89.4913Z" fill="#9AD5E2"/>
<path d="M178.432 135.079C175.087 135.079 172.392 133.224 169.759 131.403C168.51 130.544 167.221 129.651 165.809 128.908C162.633 127.23 160.136 124.905 158.134 123.036C156.478 121.495 154.605 119.749 154.041 120.185C146.264 126.268 141.656 125.28 136.328 124.134C133.695 123.568 130.716 122.927 126.766 123.016C119.498 123.166 116.865 118.958 114.944 115.876C113.118 112.943 112.501 111.954 109.182 113.284C99.009 117.369 86.8067 112.384 80.787 101.678C79.2057 98.8612 78.9207 96.338 79.9387 94.183C81.9814 89.8663 88.5169 88.7343 93.2879 87.9092C94.143 87.7591 94.9506 87.6227 95.5953 87.4864L96.0025 87.3977L198.799 107.692L199.254 108.204C205.905 115.637 208.958 123.159 207.241 127.837C206.352 130.244 204.262 131.785 201.351 132.167C197.007 132.74 195.026 130.23 193.845 128.73C193.417 128.191 192.935 127.578 192.671 127.557C192.481 127.544 191.388 127.598 188.287 130.346C184.344 133.838 181.174 135.072 178.446 135.072L178.432 135.079ZM154.204 115.957C156.512 115.957 158.731 118.024 160.896 120.035C162.823 121.829 165.002 123.861 167.703 125.286C169.332 126.146 170.784 127.148 172.06 128.035C176.654 131.206 179.186 132.951 185.579 127.291C188.782 124.454 191.008 123.322 193.017 123.493C195.019 123.67 196.125 125.068 197.021 126.193C198.107 127.564 198.758 128.389 200.815 128.116C202.674 127.871 203.19 127.032 203.414 126.425C204.35 123.868 202.321 117.956 196.668 111.45L96.0161 91.578C95.3917 91.7008 94.6995 91.8235 93.9733 91.9463C90.519 92.5464 84.7436 93.542 83.6102 95.9424C83.1895 96.829 83.4338 98.0837 84.3228 99.6727C89.3449 108.599 99.3755 112.821 107.662 109.493C114.136 106.888 116.593 110.829 118.391 113.714C120.176 116.578 121.73 119.067 126.671 118.938C131.096 118.828 134.333 119.531 137.184 120.145C142.226 121.229 145.266 121.884 151.544 116.967C152.447 116.257 153.336 115.964 154.211 115.964L154.204 115.957Z" fill="#403F4C"/>
<path d="M208.816 96.8017C203.475 122.347 177.401 112.548 144.174 105.531C110.947 98.5134 83.1555 96.9449 88.4965 71.3994C93.8376 45.8538 126.664 23.377 159.885 30.3942C193.112 37.4114 214.157 71.263 208.816 96.8085V96.8017Z" fill="#D2F4FF"/>
<path d="M147.397 29.0917C151.517 29.0917 155.697 29.5076 159.885 30.3942C193.112 37.4113 214.157 71.263 208.816 96.8085C206.19 109.37 198.548 113.387 187.506 113.387C176.464 113.387 161.059 109.104 144.174 105.537C110.947 98.5202 83.1555 96.9517 88.4965 71.4062C93.1657 49.0726 118.826 29.0917 147.397 29.0917ZM147.397 25C132.955 25 118.459 29.8213 106.576 38.5775C94.8556 47.2109 87.0171 58.572 84.5128 70.5606C82.9451 78.0551 83.807 84.1585 87.146 89.2117C94.2244 99.9182 110.519 103.089 131.15 107.099C135.1 107.87 139.179 108.661 143.339 109.54C147.499 110.42 151.551 111.341 155.473 112.234C167.811 115.044 178.473 117.478 187.506 117.478C201.738 117.478 210.01 110.993 212.8 97.6473C215.67 83.913 211.788 68.1124 202.145 54.3031C192.026 39.805 177.319 29.8963 160.719 26.3912C156.362 25.4705 151.876 25.0068 147.397 25.0068V25Z" fill="#403F4C"/>
<path d="M157.849 47.5041C169.556 58.3197 177.604 68.1056 180.109 65.296C182.552 62.5546 172.08 56.4035 160.4 46.4062C175.331 49.9523 186.468 54.7941 187.221 51.1934C187.974 47.5928 177.143 46.8904 163.129 44.3263C170.227 42.1918 176.519 40.6165 180.787 39.123C179.26 38.1274 177.686 37.1863 176.064 36.3203C171.415 38.1683 165.477 40.7461 158.765 43.0647C159.735 38.6389 160.787 34.5063 161.724 30.817C161.113 30.667 160.502 30.5238 159.885 30.3942C159.376 30.2851 158.867 30.1896 158.364 30.0941C157.828 33.9335 157.197 38.2433 156.308 42.7714C150.933 37.8137 146.406 32.9174 142.816 29.269C140.977 29.4054 139.158 29.6236 137.36 29.9168C140.672 33.0197 145.823 37.0227 151.503 41.8781C137.564 38.5502 127.255 34.9496 126.542 38.3865C125.789 42.0008 138.005 42.0554 153.173 44.8786C138.473 49.3113 126.413 50.7092 127.553 54.2076C128.734 57.8219 140.21 51.9845 155.46 46.7813C151.91 62.4659 146.692 74.3044 150.383 75.0887C154.075 75.8729 154.788 63.1888 157.855 47.5109L157.849 47.5041Z" fill="#A77CC1"/>
<path opacity="0.6" d="M184.9 68.4602C190.473 68.4602 194.992 63.9201 194.992 58.3197C194.992 52.7192 190.473 48.1792 184.9 48.1792C179.327 48.1792 174.808 52.7192 174.808 58.3197C174.808 63.9201 179.327 68.4602 184.9 68.4602Z" fill="white"/>
<path opacity="0.6" d="M195.433 80.8033C198.686 80.8033 201.324 78.1532 201.324 74.884C201.324 71.6149 198.686 68.9648 195.433 68.9648C192.179 68.9648 189.542 71.6149 189.542 74.884C189.542 78.1532 192.179 80.8033 195.433 80.8033Z" fill="white"/>
</svg>
