<svg width="300" height="200" viewBox="0 0 300 200" fill="none" xmlns="http://www.w3.org/2000/svg">
<mask id="mask0_1813_6539" style="mask-type:alpha" maskUnits="userSpaceOnUse" x="0" y="0" width="300" height="200">
<rect width="300" height="200" fill="#D9D9D9"/>
</mask>
<g mask="url(#mask0_1813_6539)">
</g>
<g clip-path="url(#clip0_1813_6539)">
<path d="M192.91 107.59C192.91 107.59 191.19 114.9 192.23 120.45C192.57 133.37 212.21 123.11 212.21 123.11C221.53 124.24 280.68 135.64 284.01 118.02C287.35 100.4 275.51 67.85 262.69 65.05C257.26 63.87 249.05 62.08 235.65 71.01C241.08 55.66 239.2 49.34 236.69 44.33C230.81 32.6 196.34 29.18 180.09 36.76C163.84 44.35 189.5 98.84 192.9 107.59H192.91Z" fill="#FFAB15"/>
<path d="M257.48 130.24C245.13 130.24 230.47 128.4 216.77 126.3C215.08 126.04 213.66 125.82 212.64 125.68C209.66 127.13 199.51 131.61 193.69 128.19C191.97 127.18 189.91 125.07 189.73 120.71C188.86 115.8 189.87 109.92 190.3 107.81C189.91 106.85 189.35 105.54 188.68 103.96C185.26 95.93 178.91 80.97 175.19 67.08C170.26 48.67 171.52 38.01 179.04 34.5C187.15 30.71 200 29.31 212.58 30.82C219.02 31.6 234.49 34.36 238.92 43.21C241.17 47.71 243.19 53.49 239.96 65.58C251.05 59.95 258.5 61.58 263.22 62.61C272.89 64.72 279.39 79.02 281.73 85.08C286.31 96.9 288.12 109.7 286.46 118.49C284.78 127.36 272.95 130.25 257.47 130.25L257.48 130.24ZM212.21 120.61C212.31 120.61 212.41 120.61 212.51 120.63C213.61 120.76 215.34 121.03 217.53 121.37C226.04 122.67 241.87 125.1 255.91 125.27C271.47 125.45 280.58 122.72 281.56 117.56C284.83 100.28 273.05 69.87 262.17 67.5C256.86 66.34 249.58 64.75 237.05 73.1C236.15 73.7 234.98 73.65 234.13 72.99C233.28 72.33 232.95 71.2 233.31 70.18C238.49 55.55 236.72 49.94 234.47 45.45C229.48 35.49 197.1 31.59 181.17 39.03C176.41 41.25 176.01 50.75 180.04 65.78C183.67 79.34 189.94 94.08 193.31 102C194.18 104.04 194.86 105.66 195.26 106.69C195.44 107.16 195.48 107.68 195.36 108.17C195.34 108.24 193.78 115.05 194.7 119.99C194.72 120.12 194.74 120.25 194.74 120.39C194.81 123.05 195.88 123.68 196.24 123.89C199.46 125.78 207.62 122.69 211.06 120.9C211.42 120.71 211.82 120.62 212.22 120.62L212.21 120.61Z" fill="#403F4C"/>
<path d="M200.51 121.85C203.04 124.44 221 136.25 227.87 137.83C234.74 139.41 217.04 180.02 209.6 177.33C202.16 174.64 190.28 164.83 185.99 154.93C181.7 145.03 200.52 121.86 200.52 121.86L200.51 121.85Z" fill="#FFD985"/>
<path d="M210.35 179.96C209.8 179.96 209.27 179.87 208.74 179.68C200.46 176.69 188.14 166.19 183.68 155.92C178.92 144.94 196.54 122.77 198.56 120.28L200.33 118.1L202.29 120.11C204.72 122.6 222.24 133.98 228.42 135.4C229.35 135.61 231 136.33 231.64 138.78C233.68 146.54 222.77 170.82 215.45 177.52C213.67 179.15 211.95 179.97 210.34 179.97L210.35 179.96ZM200.89 125.4C194.15 134.19 185.78 148.19 188.27 153.93C192.41 163.47 203.9 172.58 210.37 174.95C211.05 174.86 213.74 173.06 217.86 165.92C224.9 153.72 227.44 142.55 226.84 140.15C220.2 138.37 206.5 129.64 200.88 125.4H200.89Z" fill="#403F4C"/>
<path d="M44.39 121.85C41.86 124.44 23.9 136.25 17.03 137.83C10.16 139.41 27.86 180.02 35.3 177.33C42.74 174.64 54.62 164.83 58.91 154.93C63.2 145.03 44.38 121.86 44.38 121.86L44.39 121.85Z" fill="#FFD985"/>
<path d="M34.55 179.96C32.94 179.96 31.23 179.14 29.44 177.51C22.12 170.81 11.21 146.53 13.25 138.77C13.9 136.32 15.55 135.6 16.47 135.39C22.65 133.97 40.17 122.59 42.6 120.1L44.56 118.09L46.33 120.27C48.35 122.76 65.97 144.94 61.21 155.91C56.76 166.18 44.43 176.68 36.15 179.67C35.63 179.86 35.09 179.95 34.54 179.95L34.55 179.96ZM18.05 140.15C17.46 142.54 19.99 153.72 27.03 165.92C31.16 173.07 33.84 174.86 34.52 174.95C40.99 172.57 52.49 163.47 56.62 153.93C59.11 148.19 50.73 134.19 44 125.4C38.38 129.64 24.68 138.37 18.04 140.15H18.05Z" fill="#403F4C"/>
<path d="M104.91 50.3C106.73 46.87 130.81 10.56 161.01 23.17C191.21 35.78 178.98 66.75 200 77.07C221.02 87.39 205.73 108.8 202.68 117.21C190.06 104.98 104.91 50.3 104.91 50.3Z" fill="#FFD985"/>
<path d="M203.71 121.7L200.94 119.01C188.65 107.09 104.41 52.95 103.56 52.41L101.62 51.17L102.7 49.14C102.93 48.71 128.44 6.86999 161.97 20.88C179.62 28.25 183.69 41.58 187.28 53.33C190.12 62.63 192.58 70.66 201.1 74.84C220.94 84.58 211.99 103.26 207.18 113.29C206.27 115.19 205.48 116.83 205.03 118.08L203.71 121.71V121.7ZM108.33 49.53C120.95 57.66 184.53 98.78 201.75 113.06C202.04 112.44 202.35 111.8 202.67 111.12C208.79 98.34 213.11 86.3 198.9 79.32C188.43 74.18 185.42 64.32 182.5 54.78C179.07 43.55 175.52 31.94 160.04 25.48C148.28 20.57 136.11 22.99 123.86 32.68C116.22 38.72 110.71 45.98 108.32 49.53H108.33Z" fill="#403F4C"/>
<path d="M206.28 123.83C206.28 159.95 168.75 178.69 122.46 178.69C76.17 178.69 38.63 159.95 38.63 123.83C38.63 87.71 76.16 47.88 122.45 47.88C168.74 47.88 206.27 87.7 206.27 123.82L206.28 123.83Z" fill="#FFC112"/>
<path d="M122.45 181.19C70.01 181.19 36.13 158.67 36.13 123.83C36.13 105.29 45.36 85.86 61.46 70.51C78.44 54.31 100.1 45.39 122.46 45.39C144.82 45.39 166.48 54.31 183.46 70.51C199.56 85.86 208.79 105.3 208.79 123.83C208.79 158.68 174.91 181.19 122.46 181.19H122.45ZM122.45 50.39C76.65 50.39 41.13 89.87 41.13 123.83C41.13 155.64 73.05 176.19 122.45 176.19C171.85 176.19 203.78 155.64 203.78 123.83C203.78 89.87 168.26 50.39 122.45 50.39Z" fill="#403F4C"/>
<path d="M86.99 144.4C98.461 144.4 107.76 135.101 107.76 123.63C107.76 112.159 98.461 102.86 86.99 102.86C75.519 102.86 66.22 112.159 66.22 123.63C66.22 135.101 75.519 144.4 86.99 144.4Z" fill="white"/>
<path d="M86.99 109.09C78.96 109.09 72.45 115.6 72.45 123.63C72.45 127.14 73.69 130.35 75.76 132.86C76.19 130.91 77.93 129.44 80.01 129.44C82.42 129.44 84.37 131.39 84.37 133.8C84.37 135.31 83.6 136.64 82.43 137.42C83.86 137.89 85.39 138.16 86.98 138.16C95.01 138.16 101.52 131.65 101.52 123.62C101.52 115.59 95.01 109.08 86.98 109.08L86.99 109.09Z" fill="#403F4C"/>
<path d="M86.99 138.67C85.4 138.67 83.81 138.41 82.28 137.91L81.31 137.59L82.16 137.02C83.23 136.3 83.88 135.1 83.88 133.81C83.88 131.68 82.15 129.95 80.02 129.95C78.23 129.95 76.64 131.22 76.26 132.98L76.04 133.98L75.39 133.19C73.18 130.51 71.97 127.12 71.97 123.64C71.97 115.35 78.72 108.6 87.01 108.6C95.3 108.6 102.05 115.35 102.05 123.64C102.05 131.93 95.3 138.68 87.01 138.68L86.99 138.67ZM83.48 137.22C84.63 137.52 85.81 137.67 86.99 137.67C94.73 137.67 101.03 131.37 101.03 123.63C101.03 115.89 94.73 109.59 86.99 109.59C79.25 109.59 72.95 115.89 72.95 123.63C72.95 126.57 73.88 129.44 75.58 131.82C76.35 130.11 78.08 128.95 80.01 128.95C82.69 128.95 84.87 131.13 84.87 133.81C84.87 135.1 84.36 136.32 83.47 137.22H83.48Z" fill="#403F4C"/>
<path d="M157.91 144.4C169.381 144.4 178.68 135.101 178.68 123.63C178.68 112.159 169.381 102.86 157.91 102.86C146.439 102.86 137.14 112.159 137.14 123.63C137.14 135.101 146.439 144.4 157.91 144.4Z" fill="white"/>
<path d="M157.91 109.09C149.88 109.09 143.37 115.6 143.37 123.63C143.37 127.14 144.61 130.35 146.68 132.86C147.11 130.91 148.85 129.44 150.93 129.44C153.34 129.44 155.29 131.39 155.29 133.8C155.29 135.31 154.52 136.64 153.35 137.42C154.78 137.89 156.31 138.16 157.9 138.16C165.93 138.16 172.44 131.65 172.44 123.62C172.44 115.59 165.93 109.08 157.9 109.08L157.91 109.09Z" fill="#403F4C"/>
<path d="M157.91 138.67C156.32 138.67 154.73 138.41 153.2 137.91L152.23 137.59L153.08 137.02C154.15 136.3 154.79 135.1 154.79 133.81C154.79 131.68 153.06 129.95 150.93 129.95C149.14 129.95 147.55 131.22 147.17 132.98L146.95 133.98L146.3 133.19C144.09 130.51 142.88 127.12 142.88 123.64C142.88 115.35 149.63 108.6 157.92 108.6C166.21 108.6 172.96 115.35 172.96 123.64C172.96 131.93 166.21 138.68 157.92 138.68L157.91 138.67ZM154.4 137.22C155.55 137.52 156.73 137.67 157.91 137.67C165.65 137.67 171.95 131.37 171.95 123.63C171.95 115.89 165.65 109.59 157.91 109.59C150.17 109.59 143.87 115.89 143.87 123.63C143.87 126.57 144.8 129.44 146.5 131.82C147.27 130.11 149 128.95 150.93 128.95C153.61 128.95 155.79 131.13 155.79 133.81C155.79 135.1 155.28 136.32 154.39 137.22H154.4Z" fill="#403F4C"/>
<path d="M114.05 152.73C114.97 153.18 116.84 153.87 122.73 153.86C128.62 153.85 133.56 152.34 133.56 148.94C133.56 145.54 129.58 144.53 126.96 146.52C125.02 147.99 120.46 147.91 117.83 146.25C114.34 144.05 111.68 146.82 111.39 148.4C111.05 150.27 112.45 151.94 114.04 152.72L114.05 152.73Z" fill="#403F4C"/>
<path d="M22.86 153.17L21.92 151.41C22 151.36 30.46 146.82 34.8 142.91L36.14 144.39C31.62 148.47 23.22 152.98 22.86 153.17Z" fill="#FFBA1F"/>
<path d="M26.02 160.3L25.08 158.54C25.16 158.5 33.62 153.95 37.96 150.04L39.3 151.52C34.78 155.6 26.38 160.11 26.02 160.3Z" fill="#FFBA1F"/>
<path d="M29.4 168.14L28.46 166.38C28.55 166.33 37.86 161.33 42.65 157.01L43.99 158.49C39.02 162.97 29.8 167.93 29.41 168.14H29.4Z" fill="#FFBA1F"/>
<path d="M222.58 151.58C222.23 151.39 213.82 146.88 209.3 142.8L210.64 141.32C214.98 145.24 223.44 149.78 223.52 149.82L222.58 151.58Z" fill="#FFBA1F"/>
<path d="M219.42 158.71C219.07 158.52 210.66 154.01 206.14 149.93L207.48 148.45C211.82 152.37 220.28 156.91 220.36 156.95L219.42 158.71Z" fill="#FFBA1F"/>
<path d="M216.04 166.55C215.65 166.34 206.42 161.39 201.46 156.9L202.8 155.42C207.59 159.74 216.89 164.74 216.99 164.79L216.05 166.55H216.04Z" fill="#FFBA1F"/>
<path d="M149.12 50L147.87 48.44C153.43 43.97 160.94 34.46 161.02 34.37L162.59 35.61C162.28 36.01 154.87 45.39 149.13 50H149.12Z" fill="#FFBA1F"/>
<path d="M158.54 53.44L157.29 51.88C162.85 47.41 170.36 37.91 170.44 37.81L172.01 39.05C171.7 39.45 164.29 48.83 158.55 53.44H158.54Z" fill="#FFBA1F"/>
</g>
<defs>
<clipPath id="clip0_1813_6539">
<rect width="274.07" height="163.19" fill="white" transform="translate(13 18)"/>
</clipPath>
</defs>
</svg>
