<svg width="219" height="150" viewBox="0 0 219 150" fill="none" xmlns="http://www.w3.org/2000/svg">
<g clip-path="url(#clip0_358_27)">
<path d="M148.585 94.8434C148.585 94.8434 147.299 100.322 148.076 104.482C148.331 114.166 163.018 106.476 163.018 106.476C169.988 107.323 214.221 115.867 216.712 102.661C219.209 89.4544 210.355 65.0577 200.768 62.9591C196.707 62.0747 190.568 60.733 180.547 67.4262C184.608 55.9212 183.202 51.1843 181.325 47.4292C176.927 38.6374 151.15 36.0741 138.998 41.7554C126.846 47.4442 146.035 88.2851 148.577 94.8434H148.585Z" fill="#FFAB15"/>
<path d="M196.872 111.812C187.636 111.812 176.673 110.433 166.428 108.859C165.164 108.664 164.102 108.499 163.34 108.395C161.111 109.481 153.521 112.839 149.168 110.276C147.882 109.519 146.342 107.937 146.207 104.669C145.556 100.989 146.312 96.5822 146.633 95.0008C146.342 94.2812 145.923 93.2994 145.422 92.1151C142.864 86.0966 138.115 74.8838 135.334 64.4731C131.647 50.6746 132.589 42.6848 138.213 40.054C144.278 37.2133 153.887 36.164 163.295 37.2958C168.111 37.8804 179.679 39.9491 182.992 46.5822C184.675 49.9551 186.186 54.2872 183.77 63.3488C192.063 59.1291 197.635 60.3508 201.164 61.1228C208.396 62.7043 213.257 73.4223 215.007 77.9643C218.432 86.8236 219.785 96.4173 218.544 103.006C217.288 109.654 208.441 111.82 196.864 111.82L196.872 111.812ZM163.018 104.595C163.093 104.595 163.168 104.595 163.242 104.61C164.065 104.707 165.359 104.909 166.996 105.164C173.36 106.139 185.198 107.96 195.698 108.087C207.334 108.222 214.147 106.176 214.88 102.309C217.325 89.3569 208.516 66.5643 200.379 64.7879C196.408 63.9185 190.964 62.7267 181.594 68.9852C180.921 69.4349 180.046 69.3974 179.41 68.9027C178.775 68.4081 178.528 67.5611 178.797 66.7966C182.671 55.8312 181.347 51.6265 179.665 48.2611C175.933 40.796 151.718 37.8729 139.806 43.4493C136.246 45.1132 135.947 52.2336 138.961 63.4987C141.675 73.6621 146.364 84.71 148.884 90.6461C149.535 92.1751 150.043 93.3893 150.342 94.1613C150.477 94.5136 150.507 94.9033 150.417 95.2706C150.402 95.3231 149.236 100.427 149.924 104.13C149.939 104.227 149.954 104.325 149.954 104.43C150.006 106.423 150.806 106.896 151.075 107.053C153.483 108.47 159.585 106.154 162.158 104.812C162.427 104.669 162.726 104.602 163.025 104.602L163.018 104.595Z" fill="#403F4C"/>
<path d="M154.269 105.524C156.161 107.465 169.591 116.317 174.729 117.501C179.867 118.685 166.63 149.123 161.066 147.107C155.502 145.091 146.618 137.738 143.41 130.318C140.202 122.898 154.276 105.531 154.276 105.531L154.269 105.524Z" fill="#FFD985"/>
<path d="M161.627 149.078C161.216 149.078 160.819 149.011 160.423 148.868C154.231 146.627 145.018 138.757 141.683 131.06C138.123 122.83 151.3 106.213 152.81 104.347L154.134 102.713L155.6 104.22C157.417 106.086 170.519 114.616 175.14 115.68C175.836 115.837 177.07 116.377 177.548 118.213C179.074 124.029 170.915 142.228 165.441 147.249C164.11 148.471 162.824 149.086 161.62 149.086L161.627 149.078ZM154.553 108.185C149.512 114.773 143.253 125.266 145.115 129.568C148.211 136.719 156.804 143.547 161.642 145.323C162.151 145.256 164.162 143.906 167.243 138.555C172.508 129.411 174.407 121.039 173.959 119.24C168.993 117.906 158.748 111.363 154.545 108.185H154.553Z" fill="#403F4C"/>
<path d="M37.5183 105.524C35.6263 107.465 22.1954 116.317 17.0579 117.501C11.9203 118.685 25.1568 149.123 30.7206 147.107C36.2844 145.091 45.1685 137.738 48.3767 130.318C51.5849 122.898 37.5108 105.531 37.5108 105.531L37.5183 105.524Z" fill="#FFD985"/>
<path d="M30.1597 149.078C28.9557 149.078 27.677 148.464 26.3384 147.242C20.8643 142.22 12.7055 124.022 14.2311 118.206C14.7172 116.369 15.9511 115.83 16.6391 115.672C21.2606 114.608 34.3625 106.079 36.1797 104.212L37.6454 102.706L38.9691 104.34C40.4797 106.206 53.6563 122.83 50.0967 131.052C46.7689 138.75 37.5482 146.62 31.3563 148.861C30.9674 149.003 30.5636 149.071 30.1523 149.071L30.1597 149.078ZM17.8207 119.24C17.3794 121.031 19.2714 129.411 24.5361 138.555C27.6246 143.914 29.6288 145.256 30.1373 145.323C34.9757 143.539 43.5757 136.719 46.6642 129.568C48.5263 125.266 42.2595 114.773 37.2267 108.185C33.0239 111.363 22.7787 117.906 17.8132 119.24H17.8207Z" fill="#403F4C"/>
<path d="M82.7765 51.9037C84.1375 49.3329 102.145 22.1181 124.729 31.5695C147.314 41.0283 138.168 64.2332 153.887 71.9682C169.614 79.7032 158.172 95.7503 155.891 102.054C146.454 92.8871 82.7765 51.9037 82.7765 51.9037Z" fill="#FFD985"/>
<path d="M156.661 105.411L154.59 103.395C145.399 94.4611 82.4026 53.8825 81.7669 53.4777L80.3162 52.5483L81.1238 51.0268C81.2958 50.7045 100.373 19.3449 125.447 29.8456C138.646 35.3695 141.69 45.3605 144.375 54.1673C146.499 61.1377 148.338 67.1563 154.71 70.2893C169.546 77.5895 162.853 91.5904 159.256 99.1081C158.576 100.532 157.985 101.761 157.649 102.698L156.661 105.419V105.411ZM85.3341 51.3266C94.7716 57.4202 142.318 88.2401 155.196 98.9432C155.413 98.4785 155.644 97.9988 155.884 97.4891C160.46 87.9103 163.691 78.8862 153.064 73.6546C145.235 69.8021 142.984 62.4119 140.8 55.2616C138.235 46.8445 135.58 38.1427 124.004 33.3008C115.21 29.6207 106.109 31.4345 96.9477 38.6973C91.2344 43.2244 87.1139 48.6658 85.3266 51.3266H85.3341Z" fill="#403F4C"/>
<path d="M158.576 107.008C158.576 134.08 130.51 148.126 95.8933 148.126C61.2766 148.126 33.2108 134.08 33.2108 107.008C33.2108 79.9356 61.2766 50.09 95.8933 50.09C130.51 50.09 158.576 79.9356 158.576 107.008Z" fill="#FFC112"/>
<path d="M95.8934 150C56.6776 150 31.3413 133.121 31.3413 107.008C31.3413 93.112 38.2437 78.549 50.2837 67.0439C62.9817 54.9018 79.1796 48.2162 95.9009 48.2162C112.622 48.2162 128.82 54.9018 141.518 67.0439C153.558 78.549 160.46 93.1195 160.46 107.008C160.46 133.128 135.124 150 95.9009 150H95.8934ZM95.8934 51.9638C61.6431 51.9638 35.0804 81.5545 35.0804 107.008C35.0804 130.85 58.9509 146.252 95.8934 146.252C132.836 146.252 156.714 130.85 156.714 107.008C156.714 81.5545 130.151 51.9638 95.8934 51.9638Z" fill="#403F4C"/>
<path d="M69.3755 122.433C77.9538 122.433 84.9078 115.463 84.9078 106.866C84.9078 98.2679 77.9538 91.2982 69.3755 91.2982C60.7973 91.2982 53.8433 98.2679 53.8433 106.866C53.8433 115.463 60.7973 122.433 69.3755 122.433Z" fill="white"/>
<path d="M69.3755 95.9676C63.3705 95.9676 58.5022 100.847 58.5022 106.865C58.5022 109.496 59.4295 111.902 60.9775 113.783C61.2991 112.322 62.6003 111.22 64.1557 111.22C65.958 111.22 67.4162 112.682 67.4162 114.488C67.4162 115.62 66.8404 116.617 65.9655 117.201C67.0349 117.554 68.179 117.756 69.3681 117.756C75.3731 117.756 80.2414 112.877 80.2414 106.858C80.2414 100.839 75.3731 95.9601 69.3681 95.9601L69.3755 95.9676Z" fill="#403F4C"/>
<path d="M69.3755 118.138C68.1865 118.138 66.9974 117.943 65.8532 117.569L65.1279 117.329L65.7635 116.901C66.5637 116.362 67.0498 115.462 67.0498 114.496C67.0498 112.899 65.756 111.602 64.1632 111.602C62.8246 111.602 61.6355 112.554 61.3514 113.873L61.1868 114.623L60.7007 114.031C59.0481 112.022 58.1432 109.481 58.1432 106.873C58.1432 100.66 63.191 95.6003 69.3904 95.6003C75.5899 95.6003 80.6377 100.66 80.6377 106.873C80.6377 113.086 75.5899 118.146 69.3904 118.146L69.3755 118.138ZM66.7506 117.051C67.6106 117.276 68.4931 117.389 69.3755 117.389C75.1636 117.389 79.8749 112.667 79.8749 106.866C79.8749 101.064 75.1636 96.3424 69.3755 96.3424C63.5873 96.3424 58.8761 101.064 58.8761 106.866C58.8761 109.069 59.5715 111.22 60.8428 113.004C61.4187 111.722 62.7124 110.853 64.1557 110.853C66.1599 110.853 67.7901 112.487 67.7901 114.496C67.7901 115.462 67.4087 116.377 66.7432 117.051H66.7506Z" fill="#403F4C"/>
<path d="M122.411 122.433C130.989 122.433 137.943 115.463 137.943 106.866C137.943 98.2679 130.989 91.2982 122.411 91.2982C113.833 91.2982 106.879 98.2679 106.879 106.866C106.879 115.463 113.833 122.433 122.411 122.433Z" fill="white"/>
<path d="M122.411 95.9676C116.406 95.9676 111.538 100.847 111.538 106.865C111.538 109.496 112.465 111.902 114.013 113.783C114.335 112.322 115.636 111.22 117.191 111.22C118.994 111.22 120.452 112.682 120.452 114.488C120.452 115.62 119.876 116.617 119.001 117.201C120.071 117.554 121.215 117.756 122.404 117.756C128.409 117.756 133.277 112.877 133.277 106.858C133.277 100.839 128.409 95.9601 122.404 95.9601L122.411 95.9676Z" fill="#403F4C"/>
<path d="M122.411 118.138C121.222 118.138 120.033 117.943 118.889 117.569L118.164 117.329L118.799 116.901C119.599 116.362 120.078 115.462 120.078 114.496C120.078 112.899 118.784 111.602 117.191 111.602C115.853 111.602 114.664 112.554 114.38 113.873L114.215 114.623L113.729 114.031C112.076 112.022 111.171 109.481 111.171 106.873C111.171 100.66 116.219 95.6003 122.419 95.6003C128.618 95.6003 133.666 100.66 133.666 106.873C133.666 113.086 128.618 118.146 122.419 118.146L122.411 118.138ZM119.786 117.051C120.646 117.276 121.529 117.389 122.411 117.389C128.199 117.389 132.911 112.667 132.911 106.866C132.911 101.064 128.199 96.3424 122.411 96.3424C116.623 96.3424 111.912 101.064 111.912 106.866C111.912 109.069 112.607 111.22 113.879 113.004C114.454 111.722 115.748 110.853 117.191 110.853C119.196 110.853 120.826 112.487 120.826 114.496C120.826 115.462 120.444 116.377 119.779 117.051H119.786Z" fill="#403F4C"/>
<path d="M89.6042 128.669C90.2922 129.006 91.6906 129.523 96.0953 129.516C100.5 129.508 104.194 128.377 104.194 125.828C104.194 123.28 101.218 122.523 99.2586 124.014C97.8078 125.116 94.3977 125.056 92.4309 123.812C89.821 122.163 87.8318 124.239 87.615 125.423C87.3607 126.825 88.4076 128.077 89.5967 128.661L89.6042 128.669Z" fill="#403F4C"/>
<path d="M21.4177 129.006L20.7147 127.687C20.7745 127.65 27.1011 124.247 30.3467 121.316L31.3488 122.425C27.9686 125.483 21.6869 128.864 21.4177 129.006Z" fill="#FFBA1F"/>
<path d="M23.7808 134.35L23.0779 133.031C23.1377 133.001 29.4643 129.591 32.7098 126.66L33.7119 127.769C30.3318 130.827 24.05 134.208 23.7808 134.35Z" fill="#FFBA1F"/>
<path d="M26.3084 140.226L25.6055 138.907C25.6728 138.87 32.635 135.122 36.2171 131.884L37.2192 132.994C33.5025 136.351 26.6075 140.069 26.3159 140.226H26.3084Z" fill="#FFBA1F"/>
<path d="M170.773 127.814C170.511 127.672 164.222 124.292 160.842 121.234L161.844 120.124C165.089 123.062 171.416 126.465 171.476 126.495L170.773 127.814Z" fill="#FFBA1F"/>
<path d="M168.41 133.158C168.148 133.016 161.859 129.636 158.479 126.578L159.481 125.468C162.726 128.407 169.053 131.809 169.113 131.839L168.41 133.158Z" fill="#FFBA1F"/>
<path d="M165.882 139.035C165.59 138.877 158.688 135.167 154.979 131.802L155.981 130.693C159.563 133.93 166.518 137.678 166.593 137.715L165.89 139.035H165.882Z" fill="#FFBA1F"/>
<path d="M115.838 51.6789L114.903 50.5097C119.061 47.1594 124.677 40.0315 124.737 39.9641L125.911 40.8934C125.679 41.1933 120.138 48.2237 115.845 51.6789H115.838Z" fill="#FFBA1F"/>
<path d="M122.882 54.2572L121.948 53.088C126.105 49.7377 131.722 42.6173 131.781 42.5424L132.955 43.4718C132.724 43.7716 127.182 50.802 122.89 54.2572H122.882Z" fill="#FFBA1F"/>
<path d="M120.37 31.0898C116.107 37.1009 105.398 42.4599 98.8398 44.9783C99.8269 40.2264 99.4829 34.8898 97.5461 28.9537C90.711 8.0348 68.2464 -3.36529 47.3821 3.48525C26.5103 10.3358 15.136 32.8437 21.9711 53.7626C23.9154 59.7062 26.9889 64.1508 30.8702 67.3063C24.2893 68.8728 15.9436 70.012 10.4396 68.3931C1.4134 65.7473 -3.65684 77.3572 9.48241 79.8531C17.3346 81.3446 25.3662 78.7513 31.7152 75.3485C31.7152 76.1655 31.8348 76.9975 32.0966 77.8144C33.4277 81.8918 37.81 84.1178 41.8781 82.7762C43.4785 82.2516 44.7871 81.2547 45.7144 79.988C47.5541 82.9561 51.2409 84.4027 54.7033 83.2634C56.7598 82.5888 58.3452 81.1273 59.2351 79.3285C61.2093 80.9249 63.9239 81.5245 66.5189 80.6701C68.9717 79.8606 70.7516 77.9419 71.4844 75.6483C73.4512 77.1923 76.1284 77.7545 78.6785 76.915C81.4828 75.9931 83.4047 73.6247 83.8983 70.9039C85.6632 71.7959 87.772 72.0207 89.8061 71.3536C93.7247 70.0645 95.9233 65.9497 94.8913 62.0072C96.0055 62.1571 97.1721 62.0597 98.3163 61.6849C102.384 60.3508 104.606 55.9586 103.267 51.8813C103.102 51.3641 102.886 50.8844 102.624 50.4347C110.738 49.8276 121.589 47.1219 128.207 39.4918C136.979 29.3734 125.821 23.3998 120.37 31.0898Z" fill="#F26957"/>
<path d="M52.2728 85.1523C49.775 85.1523 47.367 84.1329 45.6171 82.3041C44.6749 83.1511 43.5606 83.7957 42.3342 84.1929C37.4883 85.7819 32.2535 83.1286 30.6681 78.2718C30.6008 78.0619 30.541 77.852 30.4887 77.6422C24.8725 80.3629 17.1251 82.8288 9.19814 81.3223C2.72947 80.0931 0.830003 76.9301 0.276614 75.1538C-0.411384 72.9502 0.194353 70.5967 1.89191 68.8579C4.05312 66.6468 7.40337 65.9348 10.8508 66.9466C14.6348 68.0559 20.6847 67.8685 27.7142 66.4519C24.5435 63.2215 22.1355 59.1142 20.5351 54.2199C13.4682 32.559 25.2913 9.15169 46.9109 2.06129C68.5304 -5.03659 91.8775 6.8207 98.9594 28.4891C100.582 33.4509 101.165 38.1878 100.709 42.6024C107.552 39.6868 115.711 35.0548 119.143 30.2205C121.23 27.2824 124.296 25.7609 127.354 26.1506C129.762 26.4579 131.692 27.9345 132.514 30.0931C133.18 31.8319 133.643 35.4971 129.321 40.4738C122.419 48.4411 111.687 50.9595 104.77 51.739C106.138 56.5059 103.499 61.5576 98.7649 63.1091C98.062 63.3415 97.344 63.4839 96.6187 63.5438C96.8131 67.6212 94.2705 71.4587 90.2622 72.7778C88.4973 73.3624 86.6352 73.3924 84.8778 72.8978C83.8832 75.4536 81.7968 77.4698 79.1346 78.3467C76.8013 79.1112 74.2961 78.9088 72.1424 77.8445C71.0132 79.8382 69.1736 81.3747 66.9675 82.1018C64.5221 82.9112 61.8972 82.6489 59.6837 81.4422C58.5545 82.9637 56.9915 84.0955 55.1519 84.7026C54.1947 85.0174 53.2225 85.1673 52.2578 85.1673L52.2728 85.1523ZM45.7069 78.4891C45.7069 78.4891 45.7443 78.4891 45.7667 78.4891C46.2603 78.5116 46.7164 78.7739 46.9782 79.1937C48.5037 81.6521 51.4875 82.7389 54.232 81.8394C55.8399 81.3148 57.1411 80.183 57.8889 78.6615C58.0908 78.2568 58.4647 77.957 58.9059 77.8595C59.3472 77.7621 59.8108 77.867 60.1698 78.1593C61.8299 79.501 64.0285 79.9057 66.0477 79.2461C67.9471 78.624 69.4428 77.11 70.056 75.1913C70.2055 74.7266 70.572 74.3593 71.0431 74.2169C71.5142 74.0745 72.0153 74.1644 72.4041 74.4717C74.0568 75.7684 76.2255 76.1506 78.2073 75.4986C80.3984 74.779 82.0062 72.9202 82.4175 70.6492C82.4998 70.1845 82.7989 69.7873 83.2251 69.5699C83.6514 69.36 84.145 69.36 84.5638 69.5699C86.0519 70.3194 87.742 70.4543 89.3274 69.9297C92.4682 68.8954 94.2705 65.5825 93.4329 62.3821C93.3058 61.9024 93.4329 61.3852 93.7545 61.0105C94.0835 60.6357 94.5771 60.4483 95.0707 60.5158C96.0054 60.6357 96.9328 60.5533 97.8301 60.2535C101.106 59.1742 102.9 55.629 101.831 52.3461C101.696 51.9414 101.524 51.5441 101.315 51.1769C101.061 50.7272 101.053 50.18 101.293 49.7303C101.532 49.2731 101.988 48.9808 102.504 48.9358C117.483 47.8116 124.67 41.2683 127.07 38.5026C129.478 35.7219 130.443 33.0462 129.725 31.1574C129.299 30.0331 128.296 29.2911 126.98 29.1262C125.036 28.8789 123.017 29.9357 121.581 31.9594C117.356 37.9255 106.976 43.4569 99.3707 46.38C98.8621 46.5749 98.2863 46.4774 97.8675 46.1252C97.4487 45.7729 97.2618 45.2182 97.374 44.6786C98.3387 40.0391 97.9124 34.9049 96.1251 29.426C89.5517 9.32407 67.8948 -1.67877 47.8456 4.90944C27.789 11.4902 16.8185 33.1961 23.3918 53.2905C25.1642 58.7095 27.9984 63.0342 31.8123 66.1371C32.2535 66.4969 32.4554 67.074 32.3283 67.6362C32.2012 68.1908 31.7674 68.633 31.2141 68.7604C26.0989 69.9821 16.5343 71.736 10.0207 69.8322C7.64267 69.1352 5.40668 69.5549 4.03816 70.964C3.11086 71.9159 2.78182 73.1151 3.14078 74.2619C3.74651 76.1956 6.16198 77.6946 9.76649 78.3842C17.7832 79.9057 25.7475 76.8552 31.0121 74.0295C31.4758 73.7822 32.0367 73.7972 32.4928 74.067C32.9415 74.3368 33.2182 74.8315 33.2182 75.3562C33.2182 76.0382 33.3154 76.7053 33.5323 77.3499C34.6017 80.6327 38.1464 82.4316 41.4218 81.3523C42.6707 80.94 43.7401 80.168 44.5178 79.1037C44.802 78.714 45.2507 78.4891 45.7218 78.4891H45.7069Z" fill="#403F4C"/>
<path d="M62.4357 59.7362C68.0486 59.7362 72.5987 55.1758 72.5987 49.5503C72.5987 43.9248 68.0486 39.3644 62.4357 39.3644C56.8229 39.3644 52.2728 43.9248 52.2728 49.5503C52.2728 55.1758 56.8229 59.7362 62.4357 59.7362Z" fill="#D83935"/>
<path d="M62.4806 54.7219C65.2478 54.7219 67.491 52.4736 67.491 49.7002C67.491 46.9268 65.2478 44.6785 62.4806 44.6785C59.7135 44.6785 57.4702 46.9268 57.4702 49.7002C57.4702 52.4736 59.7135 54.7219 62.4806 54.7219Z" fill="#632A26"/>
<path d="M44.8619 49.4904C47.629 49.4904 49.8723 47.2421 49.8723 44.4686C49.8723 41.6952 47.629 39.4469 44.8619 39.4469C42.0947 39.4469 39.8514 41.6952 39.8514 44.4686C39.8514 47.2421 42.0947 49.4904 44.8619 49.4904Z" fill="#632A26"/>
<path d="M73.6007 40.0615C76.3679 40.0615 78.6112 37.8132 78.6112 35.0397C78.6112 32.2663 76.3679 30.018 73.6007 30.018C70.8336 30.018 68.5903 32.2663 68.5903 35.0397C68.5903 37.8132 70.8336 40.0615 73.6007 40.0615Z" fill="#632A26"/>
</g>
<defs>
<clipPath id="clip0_358_27">
<rect width="219" height="150" fill="white"/>
</clipPath>
</defs>
</svg>
