<svg width="300" height="200" viewBox="0 0 300 200" fill="none" xmlns="http://www.w3.org/2000/svg">
<mask id="mask0_488_947" style="mask-type:alpha" maskUnits="userSpaceOnUse" x="0" y="0" width="300" height="200">
<rect width="300" height="200" fill="#D9D9D9"/>
</mask>
<g mask="url(#mask0_488_947)">
</g>
<g clip-path="url(#clip0_488_947)">
<path d="M129.783 28.3165C130.507 28.3165 131.247 28.3579 132.012 28.445C141.439 29.5146 146.136 35.3515 148.09 42.4115C150.044 35.3515 154.741 29.5146 164.169 28.445C164.929 28.3579 165.673 28.3165 166.392 28.3165C169.56 28.3165 172.341 29.1166 174.768 30.4141C177.595 29.6182 180.11 29.2534 182.355 29.2534C191.761 29.2534 196.45 35.6334 199.58 43.1453C203.234 37.1342 208.01 32.2838 215.513 32.2838C219.995 32.2838 225.444 34.0125 232.211 38.2535C233.238 38.896 223.948 58.3637 211.124 58.3637C208.372 58.3637 205.458 57.4683 202.453 55.3001C202.669 56.9211 210.737 74.316 211.307 81.89C211.323 82.089 211.402 82.288 211.427 82.4952C211.702 84.8043 212.363 88.5519 212.986 92.6478C219.325 102.452 222.962 113.297 222.962 123.781C222.962 125.746 222.829 127.649 222.58 129.498C233.928 142.387 243.073 163.21 240.118 163.347C240.08 163.347 240.043 163.347 240.001 163.347C236.73 163.347 221.096 157.924 209.86 153.327C206.102 156.768 201.642 159.732 196.608 162.215C183.872 168.491 167.473 171.688 149.578 171.688C131.683 171.688 115.201 168.479 102.452 162.169C97.5765 159.757 93.2409 156.884 89.5663 153.571C78.3804 158.115 63.2246 163.351 60.0114 163.351C59.9698 163.351 59.9324 163.351 59.895 163.351C57.0019 163.218 65.6938 143.286 76.6968 130.352C76.3685 128.242 76.1939 126.053 76.1939 123.785C76.1939 93.137 107.22 59.4416 146.17 57.5636C139.506 44.0449 132.377 39.8246 126.038 39.8246C116.137 39.8246 108.172 50.1347 106.967 51.366C106.967 51.366 112.774 28.3165 129.796 28.3165M181.357 64.8599C184.445 61.8792 192.339 56.2536 193.503 54.5747C191.362 55.5364 189.338 55.9593 187.438 55.9593C178.493 55.9593 172.291 46.582 169.352 39.8454C163.237 40.1977 156.445 44.6045 150.077 57.4807C161.275 57.5595 171.884 60.2831 181.357 64.8599ZM129.783 25C121.611 25 114.478 29.527 109.157 38.0918C105.35 44.2231 103.791 50.3006 103.729 50.5534C103.363 52.0085 104.02 53.5258 105.333 54.2596C105.84 54.5415 106.397 54.6783 106.954 54.6783C107.831 54.6783 108.696 54.3342 109.34 53.6751C109.519 53.4885 109.727 53.2564 110.014 52.9289C115.721 46.4286 121.112 43.1328 126.03 43.1328C131.297 43.1328 136.26 47.009 140.828 54.67C132.797 55.6194 124.937 57.8663 117.392 61.3776C108.817 65.3698 101.022 70.8005 94.2261 77.5205C80.6458 90.9522 72.8601 107.812 72.8601 123.773C72.8601 125.647 72.9723 127.516 73.1927 129.345C68.7948 134.734 64.3386 141.694 60.8261 148.684C54.7946 160.689 55.9461 163.338 56.3825 164.333C56.9769 165.697 58.2614 166.589 59.7287 166.655C59.816 166.655 59.9033 166.659 59.9989 166.659C64.2971 166.659 80.2052 160.847 88.9095 157.394C92.4137 160.304 96.4583 162.903 100.96 165.129C114 171.584 130.806 174.996 149.566 174.996C168.325 174.996 185.044 171.601 198.067 165.183C202.744 162.878 206.917 160.188 210.505 157.166C219.159 160.615 235.62 166.659 239.989 166.659C240.084 166.659 240.176 166.659 240.259 166.655C241.739 166.589 243.027 165.685 243.618 164.3C244.054 163.28 245.21 160.565 238.916 148.199C235.221 140.94 230.578 133.826 226.039 128.437C226.196 126.89 226.275 125.328 226.275 123.777C226.275 113.069 222.78 101.905 216.154 91.4497C215.954 90.1604 215.755 88.9292 215.563 87.7353C215.198 85.4552 214.877 83.4819 214.715 82.1014C214.682 81.8319 214.632 81.6081 214.595 81.4588C214.175 76.5753 211.402 69.0469 208.372 61.4398C209.278 61.5973 210.193 61.6761 211.116 61.6761C224.613 61.6761 234.024 44.6874 235.341 40.1231C236.156 37.3083 234.834 35.9817 233.974 35.4427C227.02 31.0816 220.98 28.9632 215.509 28.9632C211.298 28.9632 207.458 30.2608 204.086 32.8144C202.694 33.8716 201.368 35.1484 200.092 36.6698C198.737 34.369 197.257 32.4952 195.582 30.9448C191.986 27.62 187.534 25.9328 182.355 25.9328C180.11 25.9328 177.682 26.252 175.126 26.8862C172.382 25.6343 169.452 25 166.397 25C165.544 25 164.667 25.0497 163.794 25.1492C158.632 25.7338 154.338 27.6283 151.029 30.7831C149.932 31.8278 148.951 33.0051 148.09 34.311C147.23 33.0093 146.249 31.8319 145.151 30.7831C141.842 27.6283 137.548 25.7338 132.386 25.1492C131.513 25.0497 130.636 25 129.783 25ZM156 55.3001C159.712 49.1605 163.686 45.5124 167.864 44.4014C169.21 47.067 174.194 53.6129 174.194 53.6129C177.191 56.7594 180.43 58.7866 183.863 59.6654C182.932 60.4117 182.038 61.1413 181.236 61.8253C173.109 58.173 164.65 55.9883 156 55.3001Z" fill="#403F4C"/>
<path d="M59.8825 163.343C55.8795 163.156 74.0738 125.017 89.8739 120.054C99.3971 123.843 101.933 145.085 101.991 147.299C102.049 149.513 64.6503 163.562 59.8825 163.343Z" fill="#00A6CC"/>
<path d="M240.109 163.343C244.112 163.156 225.918 125.017 210.118 120.054C200.595 123.843 198.059 145.085 198.001 147.299C197.943 149.513 235.341 163.562 240.109 163.343Z" fill="#00A6CC"/>
<path d="M102.444 162.165C115.193 168.475 131.629 171.684 149.57 171.684C167.511 171.684 183.863 168.491 196.6 162.211C158.549 136.085 117.055 151.453 102.444 162.161V162.165Z" fill="#A8F5FF"/>
<path d="M232.211 38.2535C214.117 26.907 205.416 33.5399 199.58 43.1453C195.12 32.4331 187.492 24.0175 167.511 33.1337C166.201 33.7306 175.787 62.5093 193.491 54.5747C192.327 56.2536 184.433 61.8792 181.344 64.8599C171.73 60.2168 160.951 57.4766 149.57 57.4766C109.037 57.4766 76.1813 92.2457 76.1813 123.785C76.1813 141.363 86.3904 154.226 102.444 162.169C117.055 151.461 158.548 136.094 196.6 162.219C212.708 154.276 222.958 141.4 222.958 123.785C222.958 113.297 219.321 102.456 212.982 92.652C212.358 88.5561 211.697 84.8085 211.423 82.4994C211.398 82.2921 211.319 82.0931 211.303 81.8941C210.733 74.3201 202.665 56.9252 202.449 55.3043C219.483 67.5877 233.454 39.0411 232.207 38.2618L232.211 38.2535Z" fill="#00B4ED"/>
<path d="M184.1 121.713C184.1 136.686 168.5 144.455 149.258 144.455C130.016 144.455 114.416 136.686 114.416 121.713C114.416 106.739 130.016 90.2309 149.258 90.2309C168.5 90.2309 184.1 106.739 184.1 121.713Z" fill="#FFC112"/>
<path d="M134.518 130.244C139.286 130.244 143.152 126.389 143.152 121.634C143.152 116.878 139.286 113.023 134.518 113.023C129.75 113.023 125.884 116.878 125.884 121.634C125.884 126.389 129.75 130.244 134.518 130.244Z" fill="white"/>
<path d="M134.518 115.606C131.18 115.606 128.474 118.305 128.474 121.634C128.474 123.089 128.989 124.42 129.85 125.46C130.029 124.652 130.752 124.042 131.617 124.042C132.618 124.042 133.429 124.851 133.429 125.85C133.429 126.476 133.109 127.027 132.622 127.351C133.217 127.545 133.853 127.657 134.514 127.657C137.852 127.657 140.558 124.959 140.558 121.63C140.558 118.301 137.852 115.602 134.514 115.602L134.518 115.606Z" fill="#403F4C"/>
<path d="M134.518 127.869C133.857 127.869 133.196 127.761 132.56 127.554L132.157 127.421L132.51 127.185C132.955 126.886 133.225 126.389 133.225 125.854C133.225 124.971 132.506 124.254 131.621 124.254C130.877 124.254 130.216 124.78 130.058 125.51L129.966 125.924L129.696 125.597C128.777 124.486 128.274 123.081 128.274 121.638C128.274 118.201 131.08 115.403 134.526 115.403C137.972 115.403 140.778 118.201 140.778 121.638C140.778 125.075 137.972 127.873 134.526 127.873L134.518 127.869ZM133.059 127.268C133.537 127.392 134.027 127.454 134.518 127.454C137.735 127.454 140.354 124.842 140.354 121.634C140.354 118.425 137.735 115.813 134.518 115.813C131.301 115.813 128.682 118.425 128.682 121.634C128.682 122.853 129.068 124.042 129.775 125.029C130.095 124.32 130.814 123.839 131.616 123.839C132.731 123.839 133.637 124.743 133.637 125.854C133.637 126.389 133.425 126.895 133.055 127.268H133.059Z" fill="#403F4C"/>
<path d="M163.998 130.244C168.766 130.244 172.632 126.389 172.632 121.634C172.632 116.878 168.766 113.023 163.998 113.023C159.23 113.023 155.364 116.878 155.364 121.634C155.364 126.389 159.23 130.244 163.998 130.244Z" fill="white"/>
<path d="M163.998 115.606C160.66 115.606 157.954 118.305 157.954 121.634C157.954 123.089 158.469 124.42 159.33 125.46C159.509 124.652 160.232 124.042 161.096 124.042C162.098 124.042 162.909 124.851 162.909 125.85C162.909 126.476 162.589 127.027 162.102 127.351C162.697 127.545 163.333 127.657 163.994 127.657C167.332 127.657 170.038 124.959 170.038 121.63C170.038 118.301 167.332 115.602 163.994 115.602L163.998 115.606Z" fill="#403F4C"/>
<path d="M163.998 127.869C163.337 127.869 162.676 127.761 162.04 127.554L161.637 127.421L161.99 127.185C162.435 126.886 162.701 126.389 162.701 125.854C162.701 124.971 161.982 124.254 161.096 124.254C160.352 124.254 159.691 124.78 159.534 125.51L159.442 125.924L159.172 125.597C158.253 124.486 157.75 123.081 157.75 121.638C157.75 118.201 160.556 115.403 164.002 115.403C167.448 115.403 170.254 118.201 170.254 121.638C170.254 125.075 167.448 127.873 164.002 127.873L163.998 127.869ZM162.539 127.268C163.017 127.392 163.507 127.454 163.998 127.454C167.215 127.454 169.834 124.842 169.834 121.634C169.834 118.425 167.215 115.813 163.998 115.813C160.781 115.813 158.162 118.425 158.162 121.634C158.162 122.853 158.548 124.042 159.255 125.029C159.575 124.32 160.294 123.839 161.096 123.839C162.211 123.839 163.117 124.743 163.117 125.854C163.117 126.389 162.905 126.895 162.535 127.268H162.539Z" fill="#403F4C"/>
<path d="M145.762 133.693C146.145 133.88 146.922 134.166 149.37 134.162C151.831 134.162 153.872 133.532 153.872 132.122C153.872 130.713 152.218 130.294 151.129 131.119C150.322 131.728 148.427 131.695 147.333 131.007C145.883 130.095 144.777 131.243 144.656 131.898C144.515 132.673 145.097 133.366 145.758 133.689L145.762 133.693Z" fill="#403F4C"/>
<path d="M98.9024 135.845C101.602 135.845 103.791 133.783 103.791 131.239C103.791 128.695 101.602 126.633 98.9024 126.633C96.2027 126.633 94.014 128.695 94.014 131.239C94.014 133.783 96.2027 135.845 98.9024 135.845Z" fill="#404466"/>
<path d="M197.427 137.627C200.127 137.627 202.316 135.565 202.316 133.022C202.316 130.478 200.127 128.416 197.427 128.416C194.727 128.416 192.539 130.478 192.539 133.022C192.539 135.565 194.727 137.627 197.427 137.627Z" fill="#404466"/>
<path d="M164.169 28.445C154.741 29.5146 150.044 35.3516 148.09 42.4115C146.136 35.3516 141.439 29.5146 132.011 28.445C113.268 26.3225 106.954 51.366 106.954 51.366C108.999 49.2683 130.532 21.0078 147.961 61.4812C147.99 61.6139 148.015 61.7507 148.044 61.8792C148.061 61.8419 148.073 61.8087 148.09 61.7714C148.107 61.8087 148.119 61.8419 148.136 61.8792C148.165 61.7507 148.19 61.6139 148.219 61.4812C165.648 21.0037 187.181 49.2683 189.226 51.366C189.226 51.366 182.916 26.3225 164.169 28.445Z" fill="#7DBDF9"/>
</g>
<defs>
<clipPath id="clip0_488_947">
<rect width="188" height="150" fill="white" transform="translate(56 25)"/>
</clipPath>
</defs>
</svg>
