<svg width="929" height="791" viewBox="0 0 929 791" fill="none" xmlns="http://www.w3.org/2000/svg">
<path d="M16.3225 767.477C15.6061 774.887 21.1461 780.959 28.5964 780.959H28.6441C36.0944 780.959 42.1598 776.465 42.1598 770.919C42.1598 765.373 47.2222 760.879 53.383 760.879C59.5438 760.879 63.9854 766.951 63.269 774.362L62.9825 777.517C62.2661 784.928 67.615 791 74.9221 791C82.2291 791 91.0167 785.597 94.503 778.999L130.274 710.867C133.76 704.269 136.96 692.795 137.486 685.336L140.972 632.647C141.45 625.189 135.766 619.117 128.316 619.117H117.618C110.168 619.117 101.571 615.244 98.467 610.558C95.3627 605.873 86.7662 602 79.3158 602H63.3168C55.8664 602 44.1656 604.343 37.2884 607.211L15.6538 616.248C8.77663 619.117 2.7113 627.531 2.18596 634.99L0.0368319 665.877C-0.488511 673.335 4.6694 679.264 11.4511 679.12C18.2328 678.977 26.7816 682.802 30.3157 687.679C33.8498 692.556 33.2767 701.496 28.9784 707.568L28.7397 707.903C24.4414 713.975 20.3342 725.02 19.6178 732.431L16.2747 767.477H16.3225Z" fill="#BEDFC2"/>
<path d="M107.15 597.319C107.388 596.509 108.151 589.835 108.819 582.399L109.963 569.291C110.63 561.903 116.828 553.609 123.741 550.94L229.863 509.518C236.775 506.801 248.551 504.799 255.94 505.037L383.182 508.946C390.619 509.184 399.582 512.425 403.158 516.143C406.733 519.861 415.696 523.15 423.133 523.436L440.296 524.104C447.733 524.39 454.312 518.574 454.979 511.186V511.043C455.647 503.655 460.509 493.311 465.801 488.116L476.528 477.581C481.82 472.386 486.587 463.472 487.064 457.8C487.54 452.128 492.451 444.692 497.933 441.307C503.416 437.923 507.659 439.639 507.373 445.121C507.087 450.602 512.855 454.987 520.292 454.844L545.083 454.273C552.52 454.082 563.771 450.745 570.064 446.789L614.877 418.761C621.17 414.805 627.463 405.605 628.894 398.312L650.871 284.724C652.302 277.431 657.403 271.329 662.265 271.186C667.128 271.043 672.611 264.99 674.47 257.792L677.14 247.449C678.999 240.251 685.435 234.483 691.394 234.674C697.353 234.865 701.644 240.68 700.834 247.639C700.023 254.599 704.552 260.318 710.845 260.318C717.138 260.318 723.145 254.313 724.146 246.924L724.575 243.683C725.576 236.342 727.865 230.146 729.629 230.003C731.393 229.86 735.254 235.294 738.21 242.11L741.69 250.261C744.598 257.077 750.605 264.799 754.944 267.373C759.282 269.947 761.904 278.098 760.712 285.439L748.555 360.608C747.363 367.949 742.834 375.528 738.448 377.482C734.062 379.436 730.296 387.111 730.01 394.499L727.436 466.999C727.15 474.435 724.194 485.923 720.809 492.548L719.569 494.979C716.185 501.605 713.372 513.093 713.277 520.529L712.943 550.606C712.847 558.042 710.321 569.672 707.27 576.441L691.203 612.429C688.152 619.198 680.811 625.68 674.804 626.824C668.797 627.968 663.934 622.82 663.934 615.384V598.844C663.934 591.408 663.028 585.355 661.884 585.355C660.74 585.355 658.261 591.218 656.306 598.415L654.447 605.279C652.54 612.477 644.864 618.244 637.427 618.149L616.165 617.911C608.728 617.815 602.006 623.059 601.195 629.541C600.385 636.024 595.188 641.363 589.61 641.363C584.032 641.363 580.123 635.5 580.838 628.254C581.553 621.009 579.408 614.908 576.023 614.717C572.638 614.526 569.587 620.246 569.254 627.492C568.92 634.737 562.627 641.267 555.237 641.982L523.677 645.128C516.288 645.843 505.847 642.268 500.508 637.12L490.21 627.206C484.871 622.058 474.382 617.911 466.945 618.006H465.706C458.269 618.101 452.262 624.298 452.405 631.734L452.786 655.805C452.881 663.241 447.923 672.679 441.726 676.826L406.161 700.516C399.963 704.616 388.855 708 381.418 708H353.1C345.663 708 340.133 701.946 340.8 694.558L346.092 636.739C346.759 629.351 351.145 623.297 355.817 623.297C360.489 623.297 364.589 617.482 364.923 610.332C365.257 603.182 359.441 597.367 352.003 597.367H207.551C200.114 597.367 193.44 594.221 192.677 590.407C191.914 586.594 188.816 583.353 185.717 583.257C182.618 583.162 179.853 586.642 179.519 590.979C179.185 595.317 172.845 598.892 165.408 598.892H120.07C112.633 598.892 106.769 598.225 107.007 597.462L107.15 597.319Z" fill="#BEDFC2"/>
<path d="M156.275 674.936C156.8 667.456 161.145 656.668 165.872 650.914L187.739 624.35C192.466 618.597 202.444 613.898 209.893 613.898H226.603C234.051 613.898 240.115 620.035 240.115 627.467V628.33C240.115 635.81 245.08 641.9 251.144 641.9C257.208 641.9 263.032 635.858 264.035 628.426L264.99 621.474C265.993 614.089 272.916 608 280.364 608H300.989C308.438 608 315.79 613.994 317.318 621.282L322.57 646.071C324.098 653.407 321.424 664.004 316.602 669.71L300.799 688.314C295.976 694.02 285.95 698.671 278.502 698.671H276.115C268.666 698.671 258.258 694.355 253.006 689.081L251.812 687.882C246.561 682.608 237.489 678.293 231.664 678.293C225.839 678.293 217.436 683.183 212.901 689.129L209.129 694.164C204.641 700.109 194.853 705 187.405 705H167.591C160.143 705 154.509 698.911 155.034 691.431L156.228 674.936H156.275Z" fill="#BEDFC2"/>
<path d="M668.047 198.184C667.427 205.609 672.967 211.693 680.417 211.693H705.538C712.988 211.693 719.436 205.609 719.866 198.136L720.486 186.83C720.916 179.357 726.934 173.273 733.859 173.273C740.784 173.273 751.1 177.249 756.783 182.088L784.531 205.897C790.166 210.735 800.912 214.807 808.362 214.855L822.642 214.999C830.093 215.094 839.835 210.256 844.325 204.316L867.153 174.04C871.643 168.099 881.433 163.213 888.836 163.213H909.611C917.061 163.213 923.652 157.129 924.273 149.704L928.953 93.8463C929.574 86.421 923.986 80.337 916.536 80.337H860.515C853.064 80.337 843.513 75.307 839.262 69.1751L799.049 11.1619C794.799 5.03005 785.247 0 777.797 0H774.406C766.956 0 759.123 5.84444 757.022 13.0302L738.157 76.8879C736.056 84.0258 728.892 92.6966 722.253 96.0979L686.769 114.302C680.13 117.703 674.208 126.566 673.54 133.991L668.047 198.136V198.184Z" fill="#BEDFC2"/>
<path d="M3.04788 478.133L46.3834 423.944C51.0282 418.114 60.9403 413.288 68.4103 413.193L82.1532 413.001C89.6231 412.906 92.2089 417.828 87.9472 423.944L55.4815 470.297C51.2197 476.413 41.6428 480.714 34.2207 479.901C34.2207 479.901 3 476.461 3 478.133H3.04788Z" fill="#BEDFC2"/>
</svg>
