<svg width="199" height="162" viewBox="0 0 199 162" fill="none" xmlns="http://www.w3.org/2000/svg">
<path d="M25.48 94.5699C17.53 96.2499 -1.99001 97.45 5.64999 110.98C13.29 124.51 29.3 132.47 43.77 126.69C58.24 120.91 52.76 141.17 70.73 140.75C88.7 140.33 93.38 149.51 109.15 137.23C114 133.46 119.32 144.26 129.73 149.73C140.14 155.2 145.22 164.81 159.45 152.26C173.68 139.71 169.02 155.68 180.3 154.2C191.58 152.72 187.97 138.04 175.37 124.03L25.48 94.5699Z" fill="#9AD5E2"/>
<path d="M146.93 161.42C142 161.42 138.03 158.7 134.15 156.03C132.31 154.77 130.41 153.46 128.33 152.37C123.65 149.91 119.97 146.5 117.02 143.76C114.58 141.5 111.82 138.94 110.99 139.58C99.53 148.5 92.74 147.05 84.89 145.37C81.01 144.54 76.62 143.6 70.8 143.73C60.09 143.95 56.21 137.78 53.38 133.26C50.69 128.96 49.78 127.51 44.89 129.46C29.9 135.45 11.92 128.14 3.04997 112.44C0.719975 108.31 0.299974 104.61 1.79997 101.45C4.80997 95.12 14.44 93.46 21.47 92.25C22.73 92.03 23.92 91.83 24.87 91.63L25.47 91.5L176.94 121.26L177.61 122.01C187.41 132.91 191.91 143.94 189.38 150.8C188.07 154.33 184.99 156.59 180.7 157.15C174.3 157.99 171.38 154.31 169.64 152.11C169.01 151.32 168.3 150.42 167.91 150.39C167.63 150.37 166.02 150.45 161.45 154.48C155.64 159.6 150.97 161.41 146.95 161.41L146.93 161.42ZM111.23 133.38C114.63 133.38 117.9 136.41 121.09 139.36C123.93 141.99 127.14 144.97 131.12 147.06C133.52 148.32 135.66 149.79 137.54 151.09C144.31 155.74 148.04 158.3 157.46 150C162.18 145.84 165.46 144.18 168.42 144.43C171.37 144.69 173 146.74 174.32 148.39C175.92 150.4 176.88 151.61 179.91 151.21C182.65 150.85 183.41 149.62 183.74 148.73C185.12 144.98 182.13 136.31 173.8 126.77L25.49 97.63C24.57 97.81 23.55 97.99 22.48 98.17C17.39 99.05 8.87997 100.51 7.20997 104.03C6.58997 105.33 6.94997 107.17 8.25997 109.5C15.66 122.59 30.44 128.78 42.65 123.9C52.19 120.08 55.81 125.86 58.46 130.09C61.09 134.29 63.38 137.94 70.66 137.75C77.18 137.59 81.95 138.62 86.15 139.52C93.58 141.11 98.06 142.07 107.31 134.86C108.64 133.82 109.95 133.39 111.24 133.39L111.23 133.38Z" fill="#403F4C"/>
<path d="M191.7 105.29C183.83 142.75 145.41 128.38 96.45 118.09C47.49 107.8 6.54001 105.5 14.41 68.04C22.28 30.58 70.65 -2.37997 119.6 7.91003C168.56 18.2 199.57 67.84 191.7 105.3V105.29Z" fill="#D2F4FF"/>
<path d="M101.2 6C107.27 6 113.43 6.61 119.6 7.91C168.56 18.2 199.57 67.84 191.7 105.3C187.83 123.72 176.57 129.61 160.3 129.61C144.03 129.61 121.33 123.33 96.45 118.1C47.49 107.81 6.54 105.51 14.41 68.05C21.29 35.3 59.1 6 101.2 6ZM101.2 0C79.92 0 58.56 7.07 41.05 19.91C23.78 32.57 12.23 49.23 8.54 66.81C6.23 77.8 7.49999 86.75 12.42 94.16C22.85 109.86 46.86 114.51 77.26 120.39C83.08 121.52 89.09 122.68 95.22 123.97C101.35 125.26 107.32 126.61 113.1 127.92C131.28 132.04 146.99 135.61 160.3 135.61C181.27 135.61 193.46 126.1 197.57 106.53C201.8 86.39 196.08 63.22 181.87 42.97C166.96 21.71 145.29 7.18 120.83 2.04C114.41 0.69 107.8 0.01 101.2 0.01V0Z" fill="#403F4C"/>
<path d="M116.6 33C133.85 48.86 145.71 63.21 149.4 59.09C153 55.07 137.57 46.05 120.36 31.39C142.36 36.59 158.77 43.69 159.88 38.41C160.99 33.13 145.03 32.1 124.38 28.34C134.84 25.21 144.11 22.9 150.4 20.71C148.15 19.25 145.83 17.87 143.44 16.6C136.59 19.31 127.84 23.09 117.95 26.49C119.38 20 120.93 13.94 122.31 8.53001C121.41 8.31001 120.51 8.10001 119.6 7.91001C118.85 7.75001 118.1 7.61001 117.36 7.47001C116.57 13.1 115.64 19.42 114.33 26.06C106.41 18.79 99.74 11.61 94.45 6.26001C91.74 6.46001 89.06 6.78001 86.41 7.21001C91.29 11.76 98.88 17.63 107.25 24.75C86.71 19.87 71.52 14.59 70.47 19.63C69.36 24.93 87.36 25.01 109.71 29.15C88.05 35.65 70.28 37.7 71.96 42.83C73.7 48.13 90.61 39.57 113.08 31.94C107.85 54.94 100.16 72.3 105.6 73.45C111.04 74.6 112.09 56 116.61 33.01L116.6 33Z" fill="#A77CC1"/>
<path opacity="0.6" d="M156.46 63.73C164.672 63.73 171.33 57.0725 171.33 48.86C171.33 40.6475 164.672 33.99 156.46 33.99C148.248 33.99 141.59 40.6475 141.59 48.86C141.59 57.0725 148.248 63.73 156.46 63.73Z" fill="white"/>
<path opacity="0.6" d="M171.98 81.83C176.774 81.83 180.66 77.9438 180.66 73.15C180.66 68.3561 176.774 64.47 171.98 64.47C167.186 64.47 163.3 68.3561 163.3 73.15C163.3 77.9438 167.186 81.83 171.98 81.83Z" fill="white"/>
</svg>
