<svg width="61" height="49" viewBox="0 0 61 49" fill="none" xmlns="http://www.w3.org/2000/svg">
<path d="M7.57157 28.7073C5.12269 29.2172 -0.890131 29.5815 1.46325 33.6886C3.81663 37.7957 8.74826 40.212 13.2055 38.4575C17.6628 36.7029 15.9747 42.853 21.5101 42.7255C27.0455 42.598 28.4871 45.3846 33.3448 41.657C34.8387 40.5126 36.4775 43.791 39.6841 45.4514C42.8908 47.1119 44.4556 50.029 48.8389 46.2194C53.2222 42.4098 51.7868 47.2576 55.2614 46.8083C58.736 46.3591 57.624 41.9029 53.7428 37.65L7.57157 28.7073Z" fill="#9AD5E2"/>
<path d="M44.9823 49C43.4637 49 42.2408 48.1744 41.0456 47.3639C40.4788 46.9814 39.8935 46.5837 39.2528 46.2528C37.8112 45.5061 36.6777 44.471 35.769 43.6392C35.0174 42.9532 34.1672 42.1761 33.9115 42.3704C30.3814 45.0781 28.2899 44.6379 25.8718 44.1279C24.6766 43.876 23.3244 43.5907 21.5316 43.6301C18.2326 43.6969 17.0374 41.824 16.1657 40.4519C15.3371 39.1466 15.0567 38.7064 13.5505 39.2984C8.93303 41.1167 3.39457 38.8977 0.662307 34.1319C-0.0554122 32.8782 -0.184787 31.755 0.277265 30.7958C1.20445 28.8743 4.17082 28.3704 6.3363 28.0031C6.72442 27.9363 7.09098 27.8756 7.38361 27.8149L7.56843 27.7754L54.2264 36.8092L54.4328 37.0369C57.4515 40.3456 58.8376 43.6939 58.0583 45.7763C57.6548 46.8478 56.706 47.5338 55.3846 47.7038C53.4132 47.9588 52.5137 46.8417 51.9777 46.1739C51.7837 45.9341 51.5649 45.6609 51.4448 45.6518C51.3586 45.6457 50.8626 45.67 49.4549 46.8933C47.6652 48.4475 46.2267 48.997 44.9884 48.997L44.9823 49ZM33.9854 40.4883C35.0328 40.4883 36.04 41.4081 37.0227 42.3036C37.8975 43.1019 38.8863 44.0065 40.1122 44.641C40.8515 45.0234 41.5107 45.4697 42.0898 45.8643C44.1752 47.2758 45.3242 48.0529 48.2259 45.5334C49.6798 44.2706 50.6901 43.7667 51.6019 43.8426C52.5106 43.9215 53.0127 44.5438 53.4193 45.0447C53.9122 45.6548 54.2079 46.0221 55.1412 45.9007C55.9852 45.7914 56.2193 45.4181 56.321 45.1479C56.7461 44.0096 55.8251 41.3777 53.2591 38.4818L7.57459 29.6362C7.2912 29.6908 6.97701 29.7455 6.64741 29.8001C5.07952 30.0672 2.45815 30.5104 1.94373 31.5789C1.75275 31.9736 1.86364 32.5321 2.26717 33.2394C4.54662 37.2129 9.09936 39.092 12.8605 37.6106C15.7991 36.451 16.9142 38.2056 17.7305 39.4896C18.5406 40.7645 19.246 41.8725 21.4885 41.8149C23.4969 41.7663 24.9662 42.0789 26.2599 42.3521C28.5486 42.8348 29.9286 43.1262 32.7779 40.9376C33.1876 40.6219 33.5912 40.4914 33.9885 40.4914L33.9854 40.4883Z" fill="#403F4C"/>
<path d="M58.7729 31.9614C56.3487 43.3326 44.514 38.9705 29.4326 35.8469C14.3513 32.7263 1.73422 32.0282 4.16153 20.6539C6.58575 9.28271 21.4823 -0.722498 36.5636 2.40109C51.645 5.52468 61.1971 20.5932 58.7729 31.9644V31.9614Z" fill="#D2F4FF"/>
<path d="M30.8959 1.82134C32.7656 1.82134 34.6631 2.0065 36.5637 2.40113C51.645 5.52472 61.1972 20.5932 58.773 31.9644C57.5809 37.5559 54.1124 39.3439 49.1007 39.3439C44.089 39.3439 37.0966 37.4375 29.4327 35.85C14.3514 32.7264 1.73428 32.0282 4.16158 20.6539C6.27778 10.7155 17.9276 1.82134 30.8959 1.82134ZM30.8959 0C24.3409 0 17.7613 2.14614 12.3676 6.0438C7.04478 9.88682 3.49007 14.941 2.35034 20.2806C1.63879 23.6166 2.02999 26.3335 3.54552 28.5828C6.75831 33.3487 14.1542 34.7602 23.5184 36.5451C25.3112 36.8881 27.1625 37.2402 29.0507 37.6318C30.939 38.0234 32.778 38.4332 34.5584 38.8309C40.1585 40.0815 44.9977 41.1652 49.0976 41.1652C55.5571 41.1652 59.312 38.2784 60.578 32.3378C61.881 26.2242 60.1191 19.1908 55.7419 13.0438C51.1553 6.5902 44.4771 2.1765 36.9426 0.616219C34.965 0.206418 32.9289 0 30.8959 0Z" fill="#403F4C"/>
<path d="M35.6395 10.0174C40.9531 14.8318 44.6064 19.1878 45.7431 17.9371C46.852 16.7168 42.099 13.9788 36.7977 9.52863C43.5745 11.1071 48.6293 13.2624 48.9713 11.6596C49.3132 10.0568 44.397 9.74415 38.036 8.60278C41.2581 7.65265 44.1136 6.95144 46.0511 6.28665C45.358 5.84346 44.6434 5.42455 43.9072 5.03904C41.7971 5.86167 39.1018 7.00911 36.0554 8.0412C36.4959 6.07113 36.9733 4.23158 37.3984 2.58934C37.1212 2.52256 36.844 2.45881 36.5636 2.40114C36.3326 2.35257 36.1016 2.31007 35.8736 2.26757C35.6303 3.97659 35.3438 5.89506 34.9403 7.91068C32.5007 5.70382 30.4461 3.52429 28.8166 1.90027C27.9818 1.96098 27.1563 2.05812 26.34 2.18865C27.8432 3.56983 30.1812 5.3517 32.7594 7.51302C26.4324 6.03166 21.7534 4.42889 21.4299 5.95881C21.088 7.56766 26.6326 7.59194 33.5172 8.84866C26.8452 10.8218 21.3714 11.4441 21.8889 13.0013C22.4249 14.6102 27.6337 12.0117 34.5553 9.69559C32.9442 16.6774 30.5755 21.9471 32.2512 22.2962C33.9269 22.6453 34.2503 16.9991 35.6426 10.0204L35.6395 10.0174Z" fill="#A77CC1"/>
<path opacity="0.6" d="M47.9147 19.3456C50.4444 19.3456 52.4952 17.3247 52.4952 14.8317C52.4952 12.3388 50.4444 10.3179 47.9147 10.3179C45.385 10.3179 43.3342 12.3388 43.3342 14.8317C43.3342 17.3247 45.385 19.3456 47.9147 19.3456Z" fill="white"/>
<path opacity="0.6" d="M52.6985 24.84C54.1752 24.84 55.3723 23.6604 55.3723 22.2052C55.3723 20.75 54.1752 19.5703 52.6985 19.5703C51.2219 19.5703 50.0248 20.75 50.0248 22.2052C50.0248 23.6604 51.2219 24.84 52.6985 24.84Z" fill="white"/>
</svg>
