<svg width="130" height="80" viewBox="0 0 130 80" fill="none" xmlns="http://www.w3.org/2000/svg">
  <mask id="mask0_486_421" style="mask-type:alpha" maskUnits="userSpaceOnUse" x="0" y="0" width="130" height="80">
    <rect width="130" height="80" fill="#D9D9D9" />
  </mask>
  <g mask="url(#mask0_486_421)">
  </g>
  <path
    d="M42.5715 44.7073C40.1226 45.2172 34.1098 45.5815 36.4632 49.6886C38.8165 53.7957 43.7482 56.212 48.2054 54.4575C52.6627 52.7029 50.9746 58.853 56.51 58.7255C62.0454 58.598 63.487 61.3846 68.3447 57.657C69.8387 56.5126 71.4774 59.791 74.684 61.4514C77.8907 63.1119 79.4555 66.029 83.8388 62.2194C88.2221 58.4098 86.7867 63.2576 90.2613 62.8083C93.7359 62.3591 92.6239 57.9029 88.7427 53.65L42.5715 44.7073Z"
    fill="#9AD5E2" />
  <path
    d="M79.9822 65C78.4636 65 77.2407 64.1744 76.0456 63.3639C75.4788 62.9814 74.8935 62.5837 74.2528 62.2528C72.8112 61.5061 71.6776 60.471 70.7689 59.6392C70.0173 58.9532 69.1671 58.1761 68.9115 58.3704C65.3814 61.0781 63.2899 60.6379 60.8718 60.1279C59.6766 59.876 58.3243 59.5907 56.5316 59.6301C53.2325 59.6969 52.0374 57.824 51.1656 56.4519C50.337 55.1466 50.0567 54.7064 48.5504 55.2984C43.933 57.1167 38.3945 54.8977 35.6623 50.1319C34.9446 48.8782 34.8152 47.755 35.2772 46.7958C36.2044 44.8743 39.1708 44.3704 41.3363 44.0031C41.7244 43.9363 42.0909 43.8756 42.3836 43.8149L42.5684 43.7754L89.2263 52.8092L89.4327 53.0369C92.4515 56.3456 93.8376 59.6939 93.0583 61.7763C92.6548 62.8478 91.706 63.5338 90.3845 63.7038C88.4131 63.9588 87.5137 62.8417 86.9777 62.1739C86.7836 61.9341 86.5649 61.6609 86.4448 61.6518C86.3585 61.6457 85.8626 61.67 84.4549 62.8933C82.6652 64.4475 81.2267 64.997 79.9884 64.997L79.9822 65ZM68.9854 56.4883C70.0327 56.4883 71.04 57.4081 72.0226 58.3036C72.8974 59.1019 73.8862 60.0065 75.1122 60.641C75.8515 61.0234 76.5107 61.4697 77.0898 61.8643C79.1752 63.2758 80.3241 64.0529 83.2258 61.5334C84.6797 60.2706 85.6901 59.7667 86.6019 59.8426C87.5106 59.9215 88.0127 60.5438 88.4193 61.0447C88.9121 61.6548 89.2078 62.0221 90.1412 61.9007C90.9852 61.7914 91.2193 61.4181 91.321 61.1479C91.7461 60.0096 90.825 57.3777 88.2591 54.4818L42.5746 45.6362C42.2912 45.6908 41.977 45.7455 41.6474 45.8001C40.0795 46.0672 37.4581 46.5104 36.9437 47.5789C36.7527 47.9736 36.8636 48.5321 37.2671 49.2394C39.5466 53.2129 44.0993 55.092 47.8604 53.6106C50.7991 52.451 51.9142 54.2056 52.7304 55.4896C53.5406 56.7645 54.246 57.8725 56.4885 57.8149C58.4968 57.7663 59.9662 58.0789 61.2599 58.3521C63.5486 58.8348 64.9286 59.1262 67.7779 56.9376C68.1876 56.6219 68.5911 56.4914 68.9885 56.4914L68.9854 56.4883Z"
    fill="#403F4C" />
  <path
    d="M93.7729 47.9614C91.3487 59.3326 79.514 54.9705 64.4327 51.8469C49.3513 48.7264 36.7342 48.0282 39.1615 36.654C41.5858 25.2828 56.4823 15.2776 71.5637 18.4012C86.645 21.5247 96.1971 36.5933 93.7729 47.9645V47.9614Z"
    fill="#D2F4FF" />
  <path
    d="M65.8958 17.8213C67.7656 17.8213 69.6631 18.0065 71.5637 18.4011C86.645 21.5247 96.1971 36.5932 93.7729 47.9644C92.5808 53.5559 89.1124 55.3439 84.1006 55.3439C79.0889 55.3439 72.0965 53.4375 64.4327 51.85C49.3513 48.7264 36.7342 48.0282 39.1615 36.6539C41.2777 26.7155 52.9276 17.8213 65.8958 17.8213ZM65.8958 16C59.3409 16 52.7612 18.1461 47.3676 22.0438C42.0447 25.8868 38.49 30.941 37.3503 36.2806C36.6387 39.6166 37.0299 42.3335 38.5455 44.5828C41.7583 49.3487 49.1542 50.7602 58.5184 52.5451C60.3112 52.8881 62.1624 53.2402 64.0507 53.6318C65.9389 54.0234 67.7779 54.4332 69.5583 54.8309C75.1584 56.0815 79.9976 57.1652 84.0976 57.1652C90.557 57.1652 94.312 54.2784 95.578 48.3378C96.881 42.2242 95.119 35.1908 90.7419 29.0438C86.1552 22.5902 79.477 18.1765 71.9425 16.6162C69.965 16.2064 67.9289 16 65.8958 16Z"
    fill="#403F4C" />
  <path
    d="M70.6395 26.0174C75.9531 30.8318 79.6064 35.1878 80.7431 33.9371C81.852 32.7168 77.099 29.9788 71.7978 25.5286C78.5745 27.1071 83.6293 29.2624 83.9713 27.6596C84.3132 26.0568 79.397 25.7442 73.0361 24.6028C76.2581 23.6527 79.1136 22.9514 81.0511 22.2867C80.358 21.8435 79.6434 21.4246 78.9072 21.039C76.7971 21.8617 74.1019 23.0091 71.0554 24.0412C71.4959 22.0711 71.9733 20.2316 72.3984 18.5893C72.1212 18.5226 71.844 18.4588 71.5637 18.4011C71.3326 18.3526 71.1016 18.3101 70.8737 18.2676C70.6303 19.9766 70.3438 21.8951 69.9403 23.9107C67.5007 21.7038 65.4461 19.5243 63.8166 17.9003C62.9818 17.961 62.1563 18.0581 61.34 18.1886C62.8432 19.5698 65.1812 21.3517 67.7594 23.513C61.4324 22.0317 56.7534 20.4289 56.4299 21.9588C56.088 23.5677 61.6326 23.5919 68.5172 24.8487C61.8452 26.8218 56.3714 27.4441 56.8889 29.0013C57.4249 30.6102 62.6337 28.0117 69.5553 25.6956C67.9443 32.6774 65.5755 37.9471 67.2512 38.2962C68.9269 38.6453 69.2503 32.9991 70.6426 26.0204L70.6395 26.0174Z"
    fill="#A77CC1" />
  <path opacity="0.6"
    d="M82.9147 35.3456C85.4444 35.3456 87.4952 33.3247 87.4952 30.8317C87.4952 28.3388 85.4444 26.3179 82.9147 26.3179C80.385 26.3179 78.3342 28.3388 78.3342 30.8317C78.3342 33.3247 80.385 35.3456 82.9147 35.3456Z"
    fill="white" />
  <path opacity="0.6"
    d="M87.6985 40.84C89.1751 40.84 90.3722 39.6603 90.3722 38.2051C90.3722 36.7499 89.1751 35.5703 87.6985 35.5703C86.2218 35.5703 85.0247 36.7499 85.0247 38.2051C85.0247 39.6603 86.2218 40.84 87.6985 40.84Z"
    fill="white" />
</svg>