<svg width="289" height="38" viewBox="0 0 289 38" fill="none" xmlns="http://www.w3.org/2000/svg">
<path d="M24.64 36.36C28.88 24.04 27.68 18.72 25 15.44C23.48 13.56 21.4 12.2 19.04 11.28L21.76 2.4L15.8 0.599998C14.16 5.68 13.52 7.88 12.84 9.96C9.08 9.64 4.88 10.12 0.12 11.44L1.56 17.36C5.04 16.4 8.16 16.04 10.8 16.08L4.56 33.36L10.76 35.44C11.84 32.4 14.2 25.64 17.04 17C18.36 17.48 19.44 18.24 20.16 19.16C22.44 21.96 21.76 26.4 20.32 30.36L16.64 29.08L15.2 33.2L24.64 36.36ZM37.56 23.12C37.56 11.04 28.12 5.88 27.44 5.6L24.52 10.68C24.84 10.8 31.36 14.6 31.36 23.12H37.56ZM74.24 36C77 32.16 79.48 27.12 78 20.72C76.96 16.2 73.76 12.44 69.4 10.36C69.44 7.24 69.32 4.08 69.16 0.839999L62.8 1.28C63 3.96 63.12 6.4 63.12 8.88C60.28 8.68 57.28 9.12 54.52 10.16C54.16 6.28 54.48 3.44 54.52 3.24L48.28 2.72C48.2 3.28 47.6 7.84 48.56 13.6C46.8 15.24 45.2 17.28 44.2 19.8C42.32 24.48 42.92 30.8 47.84 33.56C53.48 36.72 59.6 33.64 63.28 29.28C66.32 25.64 67.84 21.44 68.64 17.04C70.12 18.2 71.4 19.92 71.92 22.12C72.52 24.48 72.12 26.8 70.72 29.48L68 28L65.96 31.88L74.24 36ZM62.68 15.04C62.12 18.88 60.8 22.36 58.4 25.32C56.96 27.08 53.72 29.8 51 28.2C49 27.08 49.32 23.96 50.04 22.08L50.68 20.6C51.4 22.64 52.4 24.52 54.04 26.6L59.04 22.96C57.44 20.76 56.36 18.52 55.72 16.36C57.8 15.4 60.48 14.56 62.68 15.04ZM110.08 19.2H118.88V13.48H108.84L108.24 10.72H118.88V5.08H107L106.04 0.319999L99.24 1.48L99.96 5.08H87.28V10.72H101.72L102.32 13.48H89.04V19.2H103.64L104.08 21L101.28 21.76L102.32 26.04L111.12 23.68L110.08 19.2ZM105.8 27.36C104.16 28.96 102.2 31.56 99.92 29.76C98.28 28.44 98.72 26.2 98.72 24.36H92.52C92.52 27 92.4 29.32 93.36 31.32C94.28 33.16 95.84 34.8 97.72 35.68C99.84 36.64 102.28 36.76 104.56 36C107 35.2 108.56 33.36 110.24 31.68L105.8 27.36ZM160.32 12.24V6H144.08L144.96 1.12L138.72 0.199998L137.76 6H127.72V12.24H136.76L134.76 23.56C137.28 23.04 139.44 22.64 141.6 22.36C143.72 22.08 145.92 22.04 148.12 22.48C152.16 23.28 152.04 27.28 148.8 28.76C147.6 29.28 146.4 29.52 145.32 29.76L145.04 27.28L140.52 27.72L141.32 36.08C147.44 36.16 157.08 34.12 157.48 25.96C157.6 22.96 156.56 20.44 154.28 18.72C151.56 16.56 147.36 15.76 142.32 16.2L143.08 12.24H160.32ZM172.184 25.992C172.184 21.6 173.72 17.784 176.792 14.52H173.432C170.288 17.424 168.464 21.6 168.464 25.992C168.464 30.384 170.264 34.536 173.432 37.44H176.792C173.72 34.176 172.184 30.36 172.184 25.992ZM192.016 34.848C200.44 29.04 200.272 20.232 200.2 17.976H192.88V14.424H189.112V17.976H185.176L185.032 16.2L181.264 16.488L182.176 27.816L185.92 27.48L185.464 21.528H196.24C195.928 23.736 194.968 27.72 191.968 30.24L191.128 29.04L188.968 30.6L192.016 34.848ZM223.792 20.376L224.296 16.728L208.84 14.496L208.36 18.192L223.792 20.376ZM222.976 27.192V22.2L209.128 22.128V25.704L220.24 25.776V27.192H222.976ZM224.512 33.936L225.04 30.264L208 27.84L207.496 31.56L224.512 33.936ZM249.448 17.232L248.8 13.704L246.496 14.136L247.144 17.688L249.448 17.232ZM243.304 34.056H249.4V18.264H241.312C241.24 16.92 241.048 15.696 240.856 14.256L237.16 14.736C237.328 16.008 237.52 17.088 237.568 18.264H231.448V21.792H237.4C236.632 26.64 235.12 29.184 231.88 32.424L234.712 34.896C238.456 31.248 240.592 26.904 241.168 21.792H245.632V31.44H243.304V34.056ZM252.736 18.144L252.064 14.568L249.784 15L250.408 18.576L252.736 18.144ZM273.544 31.344C272.464 28.488 271.36 26.256 269.56 24.192L275.752 16.536L271.312 13.08L269.608 15.144L271.072 16.32L266.704 21.816C264.664 20.376 262.24 19.584 259.792 18.984L258.76 22.608C260.776 23.136 262.624 23.592 264.232 24.672C264.304 24.696 264.328 24.696 264.304 24.72L257.488 33.216L260.392 35.52L267.184 27.12C268.552 28.776 269.272 30.648 269.992 32.568L273.544 31.344ZM285.136 25.992C285.136 30.36 283.6 34.176 280.528 37.44H283.888C287.056 34.536 288.856 30.384 288.856 25.992C288.856 21.6 287.032 17.424 283.888 14.52H280.528C283.6 17.784 285.136 21.6 285.136 25.992Z" fill="#FFA63E"/>
<path d="M24.64 36.36L22.418 42.998C26.0622 44.2178 30.0084 42.2717 31.259 38.638L24.64 36.36ZM25 15.44L19.5566 19.8411C19.5642 19.8504 19.5717 19.8597 19.5794 19.8691L25 15.44ZM19.04 11.28L12.3469 9.22987C11.2739 12.7331 13.0838 16.4712 16.4975 17.802L19.04 11.28ZM21.76 2.4L28.4531 4.45012C28.9982 2.67046 28.8121 0.746965 27.9359 -0.895189C27.0597 -2.53734 25.5656 -3.76293 23.7838 -4.30106L21.76 2.4ZM15.8 0.599998L17.8238 -6.10106C14.1725 -7.20382 10.3104 -5.18033 9.13853 -1.55055L15.8 0.599998ZM12.84 9.96L12.2464 16.9348C15.4831 17.2103 18.4841 15.2228 19.4935 12.1352L12.84 9.96ZM0.12 11.44L-1.75058 4.69456C-5.39222 5.70443 -7.57486 9.42247 -6.68167 13.0945L0.12 11.44ZM1.56 17.36L-5.24167 19.0145C-4.79412 20.8544 -3.62022 22.4346 -1.98785 23.3943C-0.355479 24.354 1.59608 24.6115 3.4215 24.1079L1.56 17.36ZM10.8 16.08L17.3839 18.4575C18.1522 16.33 17.845 13.9623 16.5593 12.1012C15.2736 10.2402 13.1678 9.11507 10.9061 9.0808L10.8 16.08ZM4.56 33.36L-2.02388 30.9825C-2.66385 32.7547 -2.56233 34.7101 -1.74226 36.4066C-0.922188 38.103 0.547165 39.3972 2.33357 39.9965L4.56 33.36ZM10.76 35.44L8.53356 42.0765C12.1531 43.2908 16.0781 41.3809 17.3561 37.7834L10.76 35.44ZM17.04 17L19.4322 10.4214C17.6519 9.77406 15.6852 9.87588 13.9812 10.7037C12.2773 11.5314 10.9816 13.0145 10.39 14.8141L17.04 17ZM20.16 19.16L14.6475 23.4742C14.6753 23.5097 14.7034 23.545 14.7319 23.58L20.16 19.16ZM20.32 30.36L18.0204 36.9715C21.6356 38.229 25.5905 36.3494 26.8986 32.7522L20.32 30.36ZM16.64 29.08L18.9396 22.4685C15.2921 21.1998 11.3062 23.1248 10.032 26.7704L16.64 29.08ZM15.2 33.2L8.59199 30.8904C7.97416 32.6581 8.09033 34.5996 8.91453 36.2811C9.73874 37.9625 11.2023 39.2436 12.978 39.838L15.2 33.2ZM37.56 23.12V30.12C41.426 30.12 44.56 26.986 44.56 23.12H37.56ZM27.44 5.6L30.1053 -0.872746C26.8575 -2.21007 23.1215 -0.933533 21.3711 2.1116L27.44 5.6ZM24.52 10.68L18.4511 7.1916C17.4271 8.97318 17.2376 11.1148 17.9329 13.0485C18.6282 14.9822 20.138 16.5128 22.0621 17.2343L24.52 10.68ZM31.36 23.12H24.36C24.36 26.986 27.494 30.12 31.36 30.12V23.12ZM31.259 38.638C35.7209 25.6731 35.483 17.2067 30.4206 11.0109L19.5794 19.8691C19.877 20.2333 22.0391 22.4069 18.021 34.082L31.259 38.638ZM30.4434 11.0389C27.9875 8.00142 24.796 6.01076 21.5825 4.75804L16.4975 17.802C18.004 18.3892 18.9725 19.1186 19.5566 19.8411L30.4434 11.0389ZM25.7331 13.3301L28.4531 4.45012L15.0669 0.349874L12.3469 9.22987L25.7331 13.3301ZM23.7838 -4.30106L17.8238 -6.10106L13.7762 7.30106L19.7362 9.10106L23.7838 -4.30106ZM9.13853 -1.55055C7.35032 3.98854 6.94555 5.46312 6.18653 7.78483L19.4935 12.1352C20.0944 10.2969 20.9697 7.37146 22.4615 2.75055L9.13853 -1.55055ZM13.4336 2.98521C8.64568 2.57773 3.59201 3.213 -1.75058 4.69456L1.99058 18.1854C6.16799 17.027 9.51432 16.7023 12.2464 16.9348L13.4336 2.98521ZM-6.68167 13.0945L-5.24167 19.0145L8.36167 15.7055L6.92167 9.78554L-6.68167 13.0945ZM3.4215 24.1079C6.30627 23.3121 8.76387 23.05 10.694 23.0792L10.9061 9.0808C7.55613 9.03005 3.77373 9.48785 -0.301502 10.6121L3.4215 24.1079ZM4.21612 13.7025L-2.02388 30.9825L11.1439 35.7375L17.3839 18.4575L4.21612 13.7025ZM2.33357 39.9965L8.53356 42.0765L12.9864 28.8035L6.78644 26.7235L2.33357 39.9965ZM17.3561 37.7834C18.452 34.6986 20.8303 27.8857 23.69 19.1859L10.39 14.8141C7.5697 23.3943 5.228 30.1014 4.16389 33.0966L17.3561 37.7834ZM14.6478 23.5786C14.7087 23.6007 14.7541 23.6215 14.7849 23.6373C14.8159 23.6532 14.8298 23.6629 14.8292 23.6625C14.8286 23.6621 14.8106 23.6496 14.7797 23.6207C14.7488 23.5919 14.7024 23.5443 14.6475 23.4742L25.6725 14.8458C24.0281 12.7446 21.7926 11.2798 19.4322 10.4214L14.6478 23.5786ZM14.7319 23.58C14.4446 23.2271 14.6701 23.153 14.6389 24.0924C14.6074 25.0381 14.3231 26.3682 13.7414 27.9678L26.8986 32.7522C27.7569 30.3918 28.5326 27.5219 28.6311 24.5576C28.7299 21.587 28.1554 17.8929 25.5881 14.74L14.7319 23.58ZM22.6196 23.7485L18.9396 22.4685L14.3404 35.6915L18.0204 36.9715L22.6196 23.7485ZM10.032 26.7704L8.59199 30.8904L21.808 35.5096L23.248 31.3896L10.032 26.7704ZM12.978 39.838L22.418 42.998L26.862 29.722L17.422 26.562L12.978 39.838ZM44.56 23.12C44.56 15.0889 41.3738 9.21045 38.0559 5.36331C34.9129 1.71899 31.4877 -0.303496 30.1053 -0.872746L24.7747 12.0727C24.0723 11.7835 25.7071 12.481 27.4541 14.5067C29.0262 16.3295 30.56 19.0711 30.56 23.12H44.56ZM21.3711 2.1116L18.4511 7.1916L30.5889 14.1684L33.5089 9.0884L21.3711 2.1116ZM22.0621 17.2343C21.6997 17.0984 21.4367 16.9628 21.4123 16.9505C21.3255 16.9067 21.2641 16.8729 21.2352 16.8567C21.174 16.8225 21.1512 16.8074 21.166 16.8168C21.1922 16.8333 21.2942 16.9 21.4481 17.0187C21.7597 17.2591 22.2068 17.6533 22.6542 18.1971C23.5098 19.2372 24.36 20.7929 24.36 23.12H38.36C38.36 16.9271 35.9502 12.3228 33.4658 9.30285C32.2433 7.81674 31.0003 6.70594 29.9994 5.93377C29.497 5.54626 29.0372 5.22978 28.6456 4.98227C28.5056 4.89378 27.7905 4.43042 26.9779 4.1257L22.0621 17.2343ZM31.36 30.12H37.56V16.12H31.36V30.12ZM74.24 36L71.1216 42.267C74.1939 43.7957 77.9213 42.8719 79.9241 40.0855L74.24 36ZM78 20.72L71.1782 22.2896L71.18 22.2971L78 20.72ZM69.4 10.36L62.4006 10.2703C62.3656 13.0006 63.9215 15.5021 66.386 16.6779L69.4 10.36ZM69.16 0.839999L76.1515 0.494745C76.0587 -1.38342 75.2142 -3.14529 73.8082 -4.39396C72.4022 -5.64264 70.5529 -6.27309 68.6769 -6.14331L69.16 0.839999ZM62.8 1.28L62.3169 -5.70331C60.4582 -5.57472 58.7275 -4.7105 57.508 -3.30201C56.2885 -1.89352 55.6808 -0.056982 55.8194 1.80094L62.8 1.28ZM63.12 8.88L62.6283 15.8627C64.5654 15.9991 66.4722 15.3247 67.8927 14.0007C69.3133 12.6766 70.12 10.8219 70.12 8.88H63.12ZM54.52 10.16L47.5499 10.8067C47.7517 12.981 48.9565 14.9366 50.8079 16.0946C52.6592 17.2527 54.9449 17.4804 56.9883 16.7104L54.52 10.16ZM54.52 3.24L61.3841 4.61284C61.7754 2.65609 61.3131 0.62534 60.1132 -0.969106C58.9133 -2.56355 57.0899 -3.5701 55.1013 -3.73582L54.52 3.24ZM48.28 2.72L48.8613 -4.25582C45.1678 -4.56362 41.8745 -1.93904 41.3504 1.73005L48.28 2.72ZM48.56 13.6L53.3321 18.7213C55.0499 17.1206 55.8508 14.7653 55.4648 12.4492L48.56 13.6ZM44.2 19.8L50.6955 22.4093C50.6992 22.4002 50.7028 22.3911 50.7064 22.3819L44.2 19.8ZM47.84 33.56L44.4152 39.665L44.4185 39.6668L47.84 33.56ZM63.28 29.28L68.6293 33.795C68.6371 33.7857 68.6449 33.7764 68.6527 33.7671L63.28 29.28ZM68.64 17.04L72.9582 11.5306C71.0279 10.0177 68.4466 9.62531 66.1539 10.4964C63.8612 11.3674 62.1916 13.3748 61.7529 15.7878L68.64 17.04ZM71.92 22.12L65.1077 23.7302C65.1168 23.7685 65.1261 23.8067 65.1358 23.8448L71.92 22.12ZM70.72 29.48L67.3744 35.6287C69.0231 36.5258 70.9631 36.7232 72.7588 36.1765C74.5545 35.6298 76.0553 34.3848 76.9244 32.7211L70.72 29.48ZM68 28L71.3456 21.8513C69.6997 20.9557 67.7634 20.7574 65.9701 21.3008C64.1768 21.8442 62.6762 23.0839 61.8042 24.7424L68 28ZM65.96 31.88L59.7642 28.6224C58.8876 30.2896 58.7199 32.2398 59.2991 34.0322C59.8782 35.8246 61.1552 37.3079 62.8416 38.147L65.96 31.88ZM62.68 15.04L69.6067 16.0502C70.1372 12.4126 67.7637 8.98449 64.1722 8.20089L62.68 15.04ZM58.4 25.32L63.8177 29.7527C63.8242 29.7447 63.8308 29.7366 63.8373 29.7286L58.4 25.32ZM51 28.2L54.5491 22.1665C54.5064 22.1413 54.4635 22.1167 54.4202 22.0925L51 28.2ZM50.04 22.08L43.615 19.3016C43.5757 19.3924 43.5384 19.4841 43.503 19.5765L50.04 22.08ZM50.68 20.6L57.2809 18.2703C56.3225 15.5548 53.7989 13.7033 50.921 13.6041C48.043 13.505 45.398 15.1785 44.255 17.8216L50.68 20.6ZM54.04 26.6L48.5431 30.9341C50.872 33.8878 55.1189 34.473 58.1599 32.2592L54.04 26.6ZM59.04 22.96L63.1599 28.6192C66.2843 26.3446 66.9743 21.9683 64.7012 18.8428L59.04 22.96ZM55.72 16.36L52.7866 10.0043C49.6296 11.4614 48.0206 15.0149 49.0084 18.3486L55.72 16.36ZM79.9241 40.0855C83.1973 35.5315 86.9589 28.3922 84.82 19.1429L71.18 22.2971C72.0011 25.8478 70.8027 28.7885 68.5559 31.9145L79.9241 40.0855ZM84.8218 19.1504C83.257 12.3498 78.5079 6.94927 72.414 4.04212L66.386 16.6779C69.0121 17.9307 70.663 20.0502 71.1782 22.2896L84.8218 19.1504ZM76.3994 10.4497C76.4423 7.10556 76.3132 3.76985 76.1515 0.494745L62.1685 1.18525C62.3268 4.39015 62.4377 7.37443 62.4006 10.2703L76.3994 10.4497ZM68.6769 -6.14331L62.3169 -5.70331L63.2831 8.26331L69.6431 7.82331L68.6769 -6.14331ZM55.8194 1.80094C56.0114 4.37399 56.12 6.62964 56.12 8.88H70.12C70.12 6.17035 69.9886 3.54601 69.7806 0.75906L55.8194 1.80094ZM63.6117 1.89729C59.7448 1.62497 55.7362 2.22127 52.0517 3.6096L56.9883 16.7104C58.8238 16.0187 60.8152 15.735 62.6283 15.8627L63.6117 1.89729ZM61.4901 9.51329C61.3415 7.91207 61.3341 6.52909 61.3662 5.54938C61.3822 5.06156 61.4076 4.68664 61.4276 4.44945C61.4377 4.32987 61.4457 4.25531 61.4489 4.22693C61.4649 4.08603 61.4456 4.30506 61.3841 4.61284L47.6559 1.86716C47.4491 2.90129 47.1456 6.44906 47.5499 10.8067L61.4901 9.51329ZM55.1013 -3.73582L48.8613 -4.25582L47.6987 9.69582L53.9387 10.2158L55.1013 -3.73582ZM41.3504 1.73005C41.2165 2.66669 40.5323 8.01291 41.6552 14.7508L55.4648 12.4492C54.6677 7.6671 55.1835 3.89331 55.2096 3.70995L41.3504 1.73005ZM43.7879 8.47874C41.4688 10.6397 39.1658 13.5081 37.6936 17.2181L50.7064 22.3819C51.2342 21.0519 52.1312 19.8402 53.3321 18.7213L43.7879 8.47874ZM37.7045 17.1907C35.1619 23.5202 35.1209 34.4511 44.4152 39.665L51.2648 27.455C50.8667 27.2317 50.5097 26.8569 50.319 25.9538C50.1034 24.9328 50.2198 23.5935 50.6955 22.4093L37.7045 17.1907ZM44.4185 39.6668C54.4153 45.2679 64.0527 39.2172 68.6293 33.795L57.9307 24.765C56.736 26.1804 55.2956 27.1845 54.0335 27.6154C52.9255 27.9936 52.0923 27.9187 51.2615 27.4532L44.4185 39.6668ZM68.6527 33.7671C72.7052 28.9147 74.5878 23.4584 75.5271 18.2922L61.7529 15.7878C61.0922 19.4216 59.9348 22.3652 57.9073 24.7929L68.6527 33.7671ZM64.3218 22.5494C64.7261 22.8662 65.0006 23.277 65.1077 23.7302L78.7323 20.5098C77.7994 16.563 75.5139 13.5338 72.9582 11.5306L64.3218 22.5494ZM65.1358 23.8448C65.2013 24.1025 65.3514 24.6388 64.5156 26.2389L76.9244 32.7211C78.8886 28.9612 79.8387 24.8575 78.7042 20.3952L65.1358 23.8448ZM74.0656 23.3313L71.3456 21.8513L64.6544 34.1487L67.3744 35.6287L74.0656 23.3313ZM61.8042 24.7424L59.7642 28.6224L72.1558 35.1376L74.1958 31.2576L61.8042 24.7424ZM62.8416 38.147L71.1216 42.267L77.3584 29.733L69.0784 25.613L62.8416 38.147ZM55.7533 14.0298C55.3361 16.8902 54.4156 19.1196 52.9627 20.9114L63.8373 29.7286C67.1845 25.6004 68.9039 20.8698 69.6067 16.0502L55.7533 14.0298ZM52.9823 20.8873C52.8618 21.0346 52.6628 21.2488 52.4237 21.4568C52.1783 21.6703 51.997 21.7849 51.9198 21.8256C51.8274 21.8742 52.0451 21.7352 52.5352 21.6954C52.7974 21.6742 53.1305 21.6827 53.5055 21.763C53.8863 21.8445 54.2418 21.9857 54.5491 22.1665L47.4509 34.2335C51.7706 36.7746 56.0452 35.475 58.4402 34.2144C60.8436 32.9495 62.7072 31.11 63.8177 29.7527L52.9823 20.8873ZM54.4202 22.0925C55.2786 22.5731 55.8504 23.2747 56.1644 23.9019C56.4438 24.46 56.478 24.8647 56.4833 24.9413C56.4897 25.0338 56.4777 25.0078 56.5013 24.8725C56.5238 24.7433 56.5584 24.6321 56.577 24.5835L43.503 19.5765C42.8654 21.2413 42.3513 23.5203 42.5167 25.9087C42.6794 28.2578 43.6768 32.1219 47.5798 34.3075L54.4202 22.0925ZM56.465 24.8584L57.105 23.3784L44.255 17.8216L43.615 19.3016L56.465 24.8584ZM44.0791 22.9297C45.0606 25.7107 46.4388 28.2652 48.5431 30.9341L59.5369 22.2659C58.3612 20.7748 57.7394 19.5693 57.2809 18.2703L44.0791 22.9297ZM58.1599 32.2592L63.1599 28.6192L54.9201 17.3008L49.9201 20.9408L58.1599 32.2592ZM64.7012 18.8428C63.5507 17.261 62.8361 15.7366 62.4316 14.3714L49.0084 18.3486C49.8839 21.3034 51.3293 24.259 53.3788 27.0772L64.7012 18.8428ZM58.6534 22.7157C59.3931 22.3743 60.1012 22.1216 60.6855 21.9906C61.318 21.8489 61.4345 21.9329 61.1878 21.8791L64.1722 8.20089C59.5907 7.2013 55.0883 8.94195 52.7866 10.0043L58.6534 22.7157ZM110.08 19.2V12.2C107.945 12.2 105.927 13.1742 104.599 14.8457C103.271 16.5172 102.779 18.7034 103.261 20.7829L110.08 19.2ZM118.88 19.2V26.2C122.746 26.2 125.88 23.066 125.88 19.2H118.88ZM118.88 13.48H125.88C125.88 9.61401 122.746 6.48 118.88 6.48V13.48ZM108.84 13.48L102 14.967C102.699 18.1848 105.547 20.48 108.84 20.48V13.48ZM108.24 10.72V3.72C106.122 3.72 104.119 4.67859 102.79 6.32734C101.461 7.97608 100.95 10.1378 101.4 12.207L108.24 10.72ZM118.88 10.72V17.72C122.746 17.72 125.88 14.586 125.88 10.72H118.88ZM118.88 5.08H125.88C125.88 1.21401 122.746 -1.92 118.88 -1.92V5.08ZM107 5.08L100.138 6.4639C100.797 9.73064 103.667 12.08 107 12.08V5.08ZM106.04 0.319999L112.902 -1.0639C112.154 -4.77331 108.593 -7.21665 104.863 -6.58032L106.04 0.319999ZM99.24 1.48L98.0629 -5.42032C96.1988 -5.10233 94.5427 -4.04367 93.4714 -2.48531C92.4002 -0.926955 92.0051 0.998508 92.3759 2.85281L99.24 1.48ZM99.96 5.08V12.08C102.057 12.08 104.044 11.1397 105.373 9.51792C106.703 7.8961 107.235 5.76361 106.824 3.70719L99.96 5.08ZM87.28 5.08V-1.92C83.414 -1.92 80.28 1.21401 80.28 5.08H87.28ZM87.28 10.72H80.28C80.28 14.586 83.414 17.72 87.28 17.72V10.72ZM101.72 10.72L108.56 9.23299C107.861 6.01517 105.013 3.72 101.72 3.72V10.72ZM102.32 13.48V20.48C104.438 20.48 106.441 19.5214 107.77 17.8727C109.099 16.2239 109.61 14.0622 109.16 11.993L102.32 13.48ZM89.04 13.48V6.48C85.174 6.48 82.04 9.61401 82.04 13.48H89.04ZM89.04 19.2H82.04C82.04 23.066 85.174 26.2 89.04 26.2V19.2ZM103.64 19.2L110.44 17.5378C109.674 14.4043 106.866 12.2 103.64 12.2V19.2ZM104.08 21L105.914 27.7556C109.578 26.7609 111.781 23.0262 110.88 19.3378L104.08 21ZM101.28 21.76L99.4464 15.0044C95.7855 15.9981 93.5823 19.7268 94.4779 23.4128L101.28 21.76ZM102.32 26.04L95.5179 27.6928C95.9631 29.5247 97.1283 31.0997 98.7499 32.0611C100.371 33.0226 102.312 33.2894 104.133 32.8011L102.32 26.04ZM111.12 23.68L112.933 30.4411C116.578 29.4636 118.792 25.773 117.939 22.0971L111.12 23.68ZM105.8 27.36L110.681 22.3429C107.962 19.6965 103.628 19.6994 100.912 22.3495L105.8 27.36ZM99.92 29.76L95.5309 35.2131C95.5481 35.2269 95.5652 35.2406 95.5825 35.2542L99.92 29.76ZM98.72 24.36H105.72C105.72 20.494 102.586 17.36 98.72 17.36V24.36ZM92.52 24.36V17.36C88.654 17.36 85.52 20.494 85.52 24.36H92.52ZM93.36 31.32L87.0493 34.3491C87.0656 34.383 87.0822 34.4168 87.099 34.4505L93.36 31.32ZM97.72 35.68L94.7524 42.0198C94.779 42.0323 94.8057 42.0446 94.8325 42.0567L97.72 35.68ZM104.56 36L102.379 29.3484C102.368 29.352 102.357 29.3556 102.346 29.3592L104.56 36ZM110.24 31.68L115.19 36.6297C116.514 35.3052 117.253 33.5051 117.24 31.6321C117.227 29.759 116.464 27.9692 115.121 26.6629L110.24 31.68ZM110.08 26.2H118.88V12.2H110.08V26.2ZM125.88 19.2V13.48H111.88V19.2H125.88ZM118.88 6.48H108.84V20.48H118.88V6.48ZM115.68 11.993L115.08 9.23299L101.4 12.207L102 14.967L115.68 11.993ZM108.24 17.72H118.88V3.72H108.24V17.72ZM125.88 10.72V5.08H111.88V10.72H125.88ZM118.88 -1.92H107V12.08H118.88V-1.92ZM113.862 3.6961L112.902 -1.0639L99.1782 1.7039L100.138 6.4639L113.862 3.6961ZM104.863 -6.58032L98.0629 -5.42032L100.417 8.38032L107.217 7.22032L104.863 -6.58032ZM92.3759 2.85281L93.0959 6.45281L106.824 3.70719L106.104 0.107185L92.3759 2.85281ZM99.96 -1.92H87.28V12.08H99.96V-1.92ZM80.28 5.08V10.72H94.28V5.08H80.28ZM87.28 17.72H101.72V3.72H87.28V17.72ZM94.8798 12.207L95.4798 14.967L109.16 11.993L108.56 9.23299L94.8798 12.207ZM102.32 6.48H89.04V20.48H102.32V6.48ZM82.04 13.48V19.2H96.04V13.48H82.04ZM89.04 26.2H103.64V12.2H89.04V26.2ZM96.8402 20.8622L97.2802 22.6622L110.88 19.3378L110.44 17.5378L96.8402 20.8622ZM102.246 14.2444L99.4464 15.0044L103.114 28.5156L105.914 27.7556L102.246 14.2444ZM94.4779 23.4128L95.5179 27.6928L109.122 24.3872L108.082 20.1072L94.4779 23.4128ZM104.133 32.8011L112.933 30.4411L109.307 16.9189L100.507 19.2789L104.133 32.8011ZM117.939 22.0971L116.899 17.6171L103.261 20.7829L104.301 25.2629L117.939 22.0971ZM100.912 22.3495C100.631 22.6231 100.357 22.9051 100.156 23.1118C99.9322 23.3415 99.769 23.5084 99.6126 23.6616C99.2702 23.9968 99.2099 24.0135 99.336 23.9331C99.4697 23.8479 100.194 23.4069 101.364 23.3724C102.7 23.333 103.722 23.8431 104.258 24.2658L95.5825 35.2542C97.2579 36.5769 99.3804 37.437 101.776 37.3663C104.006 37.3006 105.75 36.4471 106.864 35.7369C107.97 35.0315 108.85 34.2107 109.407 33.6647C109.701 33.3772 109.978 33.0926 110.184 32.8809C110.413 32.6462 110.559 32.4969 110.688 32.3705L100.912 22.3495ZM104.309 24.3069C104.546 24.4979 104.774 24.7292 104.976 24.9957C105.177 25.2607 105.326 25.525 105.433 25.7656C105.64 26.2299 105.67 26.5546 105.671 26.5621C105.672 26.5734 105.668 26.5396 105.667 26.4418C105.665 26.3426 105.667 26.211 105.673 26.0178C105.681 25.7836 105.688 25.6451 105.7 25.3236C105.709 25.0576 105.72 24.7199 105.72 24.36H91.72C91.72 24.678 91.7039 24.8351 91.6804 25.571C91.6624 26.1366 91.6452 27.0009 91.7394 27.9479C91.9368 29.9323 92.7017 32.9359 95.5309 35.2131L104.309 24.3069ZM98.72 17.36H92.52V31.36H98.72V17.36ZM85.52 24.36C85.52 26.2034 85.2262 30.5508 87.0493 34.3491L99.6707 28.2909C99.703 28.3583 99.6121 28.2222 99.559 27.5385C99.4967 26.7346 99.52 25.933 99.52 24.36H85.52ZM87.099 34.4505C88.6348 37.5222 91.2737 40.3915 94.7524 42.0198L100.688 29.3402C100.406 29.2085 99.9252 28.7978 99.621 28.1895L87.099 34.4505ZM94.8325 42.0567C98.5984 43.762 102.862 43.9446 106.774 42.6408L102.346 29.3592C101.698 29.5754 101.082 29.518 100.608 29.3033L94.8325 42.0567ZM106.741 42.6516C111.171 41.1992 114.109 37.7107 115.19 36.6297L105.29 26.7303C105.05 26.9705 104.817 27.209 104.612 27.4181C104.399 27.6357 104.215 27.8233 104.033 28.0052C103.67 28.369 103.393 28.6307 103.149 28.8386C102.684 29.2345 102.469 29.319 102.379 29.3484L106.741 42.6516ZM115.121 26.6629L110.681 22.3429L100.919 32.3771L105.359 36.6971L115.121 26.6629ZM160.32 12.24V19.24C164.186 19.24 167.32 16.106 167.32 12.24H160.32ZM160.32 6H167.32C167.32 2.13401 164.186 -1 160.32 -1V6ZM144.08 6L137.191 4.75774C136.823 6.79872 137.379 8.89783 138.709 10.4891C140.039 12.0804 142.006 13 144.08 13V6ZM144.96 1.12L151.849 2.36226C152.185 0.496949 151.751 -1.42503 150.645 -2.96433C149.539 -4.50364 147.856 -5.52868 145.981 -5.80514L144.96 1.12ZM138.72 0.199998L139.741 -6.72514C135.964 -7.28201 132.437 -4.70966 131.814 -0.943071L138.72 0.199998ZM137.76 6V13C141.185 13 144.107 10.5219 144.666 7.14307L137.76 6ZM127.72 6V-1C123.854 -1 120.72 2.13401 120.72 6H127.72ZM127.72 12.24H120.72C120.72 16.106 123.854 19.24 127.72 19.24V12.24ZM136.76 12.24L143.653 13.4579C144.013 11.4199 143.453 9.32701 142.123 7.7414C140.793 6.15579 138.83 5.24 136.76 5.24V12.24ZM134.76 23.56L127.867 22.3421C127.463 24.6268 128.218 26.9631 129.882 28.5801C131.545 30.197 133.902 30.8844 136.175 30.4156L134.76 23.56ZM141.6 22.36L142.5 29.3019C142.505 29.3012 142.511 29.3005 142.517 29.2997L141.6 22.36ZM148.12 22.48L146.747 29.3441L146.76 29.3467L148.12 22.48ZM148.8 28.76L151.583 35.1829C151.625 35.1647 151.667 35.1462 151.708 35.1272L148.8 28.76ZM145.32 29.76L138.364 30.5453C138.587 32.5185 139.637 34.3042 141.254 35.4578C142.87 36.6113 144.9 37.0241 146.839 36.5933L145.32 29.76ZM145.04 27.28L151.996 26.4947C151.567 22.6948 148.168 19.9424 144.362 20.3129L145.04 27.28ZM140.52 27.72L139.842 20.7529C135.998 21.1271 133.184 24.5429 133.552 28.3868L140.52 27.72ZM141.32 36.08L134.352 36.7468C134.692 40.3032 137.656 43.0327 141.229 43.0794L141.32 36.08ZM157.48 25.96L164.472 26.3027C164.473 26.2817 164.474 26.2608 164.474 26.2398L157.48 25.96ZM154.28 18.72L149.927 24.2018C149.972 24.2378 150.018 24.2733 150.064 24.3082L154.28 18.72ZM142.32 16.2L135.445 14.8806C135.032 17.0359 135.653 19.2603 137.123 20.8896C138.593 22.5189 140.743 23.3643 142.929 23.1735L142.32 16.2ZM143.08 12.24V5.24C139.723 5.24 136.838 7.62355 136.205 10.9206L143.08 12.24ZM167.32 12.24V6H153.32V12.24H167.32ZM160.32 -1H144.08V13H160.32V-1ZM150.969 7.24226L151.849 2.36226L138.071 -0.122259L137.191 4.75774L150.969 7.24226ZM145.981 -5.80514L139.741 -6.72514L137.699 7.12514L143.939 8.04514L145.981 -5.80514ZM131.814 -0.943071L130.854 4.85693L144.666 7.14307L145.626 1.34307L131.814 -0.943071ZM137.76 -1H127.72V13H137.76V-1ZM120.72 6V12.24H134.72V6H120.72ZM127.72 19.24H136.76V5.24H127.72V19.24ZM129.867 11.0221L127.867 22.3421L141.653 24.7779L143.653 13.4579L129.867 11.0221ZM136.175 30.4156C138.625 29.91 140.591 29.5494 142.5 29.3019L140.7 15.4181C138.289 15.7306 135.935 16.17 133.345 16.7044L136.175 30.4156ZM142.517 29.2997C144.114 29.0887 145.506 29.0959 146.747 29.3441L149.493 15.6159C146.334 14.9841 143.326 15.0713 140.683 15.4203L142.517 29.2997ZM146.76 29.3467C146.683 29.3314 146.078 29.1873 145.415 28.519C144.721 27.8192 144.259 26.8251 144.2 25.7458C144.083 23.5948 145.445 22.5969 145.892 22.3928L151.708 35.1272C155.395 33.4431 158.437 29.7052 158.18 24.9842C157.895 19.757 153.838 16.4764 149.48 15.6133L146.76 29.3467ZM146.017 22.3371C145.834 22.4162 145.588 22.5015 145.222 22.5985C144.814 22.7067 144.441 22.7845 143.801 22.9267L146.839 36.5933C147.707 36.4003 149.64 36.025 151.583 35.1829L146.017 22.3371ZM152.276 28.9747L151.996 26.4947L138.084 28.0653L138.364 30.5453L152.276 28.9747ZM144.362 20.3129L139.842 20.7529L141.198 34.6871L145.718 34.2471L144.362 20.3129ZM133.552 28.3868L134.352 36.7468L148.288 35.4132L147.488 27.0532L133.552 28.3868ZM141.229 43.0794C144.915 43.1276 150.014 42.57 154.529 40.442C159.271 38.2069 164.106 33.7629 164.472 26.3027L150.488 25.6173C150.46 26.1994 150.307 26.4614 150.152 26.6582C149.936 26.9323 149.473 27.3482 148.561 27.778C146.626 28.69 143.845 29.1124 141.411 29.0806L141.229 43.0794ZM164.474 26.2398C164.672 21.2984 162.872 16.4333 158.496 13.1318L150.064 24.3082C150.265 24.4597 150.323 24.565 150.36 24.6492C150.408 24.7602 150.51 25.0666 150.486 25.6802L164.474 26.2398ZM158.633 13.2382C153.887 9.46941 147.541 8.71756 141.711 9.22652L142.929 23.1735C147.179 22.8024 149.233 23.6506 149.927 24.2018L158.633 13.2382ZM149.195 17.5194L149.955 13.5594L136.205 10.9206L135.445 14.8806L149.195 17.5194ZM143.08 19.24H160.32V5.24H143.08V19.24ZM176.792 14.52L181.889 19.3176C183.803 17.2839 184.326 14.3072 183.218 11.7436C182.11 9.17995 179.585 7.52 176.792 7.52V14.52ZM173.432 14.52V7.52C171.672 7.52 169.976 8.18336 168.682 9.37788L173.432 14.52ZM173.432 37.44L168.702 42.6001C169.993 43.7835 171.681 44.44 173.432 44.44V37.44ZM176.792 37.44V44.44C179.585 44.44 182.11 42.7801 183.218 40.2164C184.326 37.6528 183.803 34.6761 181.889 32.6424L176.792 37.44ZM179.184 25.992C179.184 23.4288 180.008 21.3167 181.889 19.3176L171.695 9.72245C167.432 14.2513 165.184 19.7712 165.184 25.992H179.184ZM176.792 7.52H173.432V21.52H176.792V7.52ZM168.682 9.37788C164.081 13.6278 161.464 19.678 161.464 25.992H175.464C175.464 23.522 176.495 21.2202 178.182 19.6621L168.682 9.37788ZM161.464 25.992C161.464 32.294 164.05 38.3354 168.702 42.6001L178.162 32.2799C176.478 30.7366 175.464 28.474 175.464 25.992H161.464ZM173.432 44.44H176.792V30.44H173.432V44.44ZM181.889 32.6424C180.004 30.6392 179.184 28.5258 179.184 25.992H165.184C165.184 32.1942 167.436 37.7128 171.695 42.2376L181.889 32.6424ZM192.016 34.848L186.329 38.9288C188.553 42.0283 192.849 42.7764 195.989 40.611L192.016 34.848ZM200.2 17.976L207.197 17.7527C207.076 13.9756 203.979 10.976 200.2 10.976V17.976ZM192.88 17.976H185.88C185.88 21.842 189.014 24.976 192.88 24.976V17.976ZM192.88 14.424H199.88C199.88 10.558 196.746 7.424 192.88 7.424V14.424ZM189.112 14.424V7.424C185.246 7.424 182.112 10.558 182.112 14.424H189.112ZM189.112 17.976V24.976C192.978 24.976 196.112 21.842 196.112 17.976H189.112ZM185.176 17.976L178.199 18.5417C178.494 22.1764 181.529 24.976 185.176 24.976V17.976ZM185.032 16.2L192.009 15.6343C191.698 11.7935 188.341 8.92669 184.499 9.22036L185.032 16.2ZM181.264 16.488L180.731 9.50836C178.875 9.65022 177.151 10.5255 175.942 11.9406C174.733 13.3558 174.137 15.1943 174.287 17.0497L181.264 16.488ZM182.176 27.816L175.199 28.3777C175.349 30.2394 176.236 31.9639 177.664 33.1677C179.092 34.3716 180.942 34.9549 182.802 34.788L182.176 27.816ZM185.92 27.48L186.546 34.452C190.361 34.1096 193.192 30.7645 192.9 26.9453L185.92 27.48ZM185.464 21.528V14.528C183.515 14.528 181.654 15.3409 180.329 16.7711C179.004 18.2012 178.336 20.119 178.485 22.0627L185.464 21.528ZM196.24 21.528L203.171 22.5074C203.455 20.5 202.854 18.4681 201.525 16.9376C200.195 15.407 198.267 14.528 196.24 14.528V21.528ZM191.968 30.24L186.233 34.2542C187.359 35.8627 189.109 36.9244 191.056 37.1803C193.002 37.4362 194.967 36.8628 196.47 35.5999L191.968 30.24ZM191.128 29.04L196.863 25.0258C195.788 23.4902 194.142 22.4498 192.294 22.1377C190.445 21.8256 188.549 22.2678 187.03 23.3652L191.128 29.04ZM188.968 30.6L184.87 24.9252C181.742 27.1838 181.032 31.5466 183.281 34.6808L188.968 30.6ZM195.989 40.611C207.594 32.6101 207.28 20.3774 207.197 17.7527L193.204 18.1993C193.264 20.0866 193.286 25.4699 188.043 29.085L195.989 40.611ZM200.2 10.976H192.88V24.976H200.2V10.976ZM199.88 17.976V14.424H185.88V17.976H199.88ZM192.88 7.424H189.112V21.424H192.88V7.424ZM182.112 14.424V17.976H196.112V14.424H182.112ZM189.112 10.976H185.176V24.976H189.112V10.976ZM192.153 17.4103L192.009 15.6343L178.055 16.7657L178.199 18.5417L192.153 17.4103ZM184.499 9.22036L180.731 9.50836L181.798 23.4676L185.566 23.1796L184.499 9.22036ZM174.287 17.0497L175.199 28.3777L189.153 27.2543L188.241 15.9263L174.287 17.0497ZM182.802 34.788L186.546 34.452L185.294 20.508L181.55 20.844L182.802 34.788ZM192.9 26.9453L192.444 20.9933L178.485 22.0627L178.941 28.0147L192.9 26.9453ZM185.464 28.528H196.24V14.528H185.464V28.528ZM189.309 20.5486C189.205 21.2825 189.003 22.2198 188.64 23.0999C188.275 23.9852 187.857 24.5511 187.466 24.8801L196.47 35.5999C201.541 31.3408 202.803 25.1143 203.171 22.5074L189.309 20.5486ZM197.703 26.2258L196.863 25.0258L185.393 33.0542L186.233 34.2542L197.703 26.2258ZM187.03 23.3652L184.87 24.9252L193.066 36.2748L195.227 34.7148L187.03 23.3652ZM183.281 34.6808L186.329 38.9288L197.703 30.7672L194.656 26.5192L183.281 34.6808ZM223.792 20.376L222.811 27.3069C224.653 27.5676 226.523 27.0843 228.009 25.9636C229.494 24.8428 230.472 23.177 230.726 21.334L223.792 20.376ZM224.296 16.728L231.23 17.686C231.757 13.873 229.106 10.35 225.297 9.79987L224.296 16.728ZM208.84 14.496L209.841 7.56787C207.986 7.30005 206.101 7.78697 204.609 8.91967C203.116 10.0524 202.14 11.7363 201.898 13.5945L208.84 14.496ZM208.36 18.192L201.418 17.2905C200.924 21.0933 203.582 24.5856 207.379 25.1229L208.36 18.192ZM222.976 27.192V34.192C226.842 34.192 229.976 31.058 229.976 27.192H222.976ZM222.976 22.2H229.976C229.976 18.3482 226.864 15.2201 223.012 15.2001L222.976 22.2ZM209.128 22.128L209.164 15.1281C207.302 15.1184 205.512 15.8516 204.191 17.1654C202.871 18.4792 202.128 20.2652 202.128 22.128H209.128ZM209.128 25.704H202.128C202.128 29.5523 205.234 32.6789 209.083 32.7039L209.128 25.704ZM220.24 25.776H227.24C227.24 21.9277 224.134 18.8011 220.285 18.7761L220.24 25.776ZM220.24 27.192H213.24C213.24 31.058 216.374 34.192 220.24 34.192V27.192ZM224.512 33.936L223.544 40.8687C227.362 41.4018 230.892 38.7479 231.441 34.9323L224.512 33.936ZM225.04 30.264L231.969 31.2603C232.233 29.4209 231.755 27.5518 230.641 26.0649C229.526 24.578 227.866 23.5955 226.026 23.3338L225.04 30.264ZM208 27.84L208.986 20.9098C207.14 20.6472 205.265 21.1319 203.778 22.2565C202.291 23.381 201.314 25.0525 201.063 26.9002L208 27.84ZM207.496 31.56L200.559 30.6202C200.042 34.4402 202.71 37.9596 206.528 38.4927L207.496 31.56ZM230.726 21.334L231.23 17.686L217.362 15.77L216.858 19.418L230.726 21.334ZM225.297 9.79987L209.841 7.56787L207.84 21.4241L223.296 23.6561L225.297 9.79987ZM201.898 13.5945L201.418 17.2905L215.302 19.0935L215.782 15.3975L201.898 13.5945ZM207.379 25.1229L222.811 27.3069L224.773 13.4451L209.341 11.2611L207.379 25.1229ZM229.976 27.192V22.2H215.976V27.192H229.976ZM223.012 15.2001L209.164 15.1281L209.092 29.1279L222.94 29.1999L223.012 15.2001ZM202.128 22.128V25.704H216.128V22.128H202.128ZM209.083 32.7039L220.195 32.7759L220.285 18.7761L209.173 18.7041L209.083 32.7039ZM213.24 25.776V27.192H227.24V25.776H213.24ZM220.24 34.192H222.976V20.192H220.24V34.192ZM231.441 34.9323L231.969 31.2603L218.111 29.2677L217.583 32.9397L231.441 34.9323ZM226.026 23.3338L208.986 20.9098L207.014 34.7702L224.054 37.1942L226.026 23.3338ZM201.063 26.9002L200.559 30.6202L214.433 32.4998L214.937 28.7798L201.063 26.9002ZM206.528 38.4927L223.544 40.8687L225.48 27.0033L208.464 24.6273L206.528 38.4927ZM249.448 17.232L250.807 24.0988C254.563 23.3555 257.025 19.7329 256.333 15.9674L249.448 17.232ZM248.8 13.704L255.685 12.4394C255.349 10.6091 254.297 8.98789 252.764 7.93417C251.23 6.88045 249.339 6.48093 247.51 6.82389L248.8 13.704ZM246.496 14.136L245.206 7.25589C241.419 7.96589 238.918 11.6022 239.61 15.3923L246.496 14.136ZM247.144 17.688L240.258 18.9443C240.594 20.7885 241.656 22.4207 243.206 23.4753C244.756 24.5299 246.664 24.9188 248.503 24.5548L247.144 17.688ZM243.304 34.056H236.304C236.304 37.922 239.438 41.056 243.304 41.056V34.056ZM249.4 34.056V41.056C253.266 41.056 256.4 37.922 256.4 34.056H249.4ZM249.4 18.264H256.4C256.4 14.398 253.266 11.264 249.4 11.264V18.264ZM241.312 18.264L234.322 18.6385C234.521 22.3536 237.592 25.264 241.312 25.264V18.264ZM240.856 14.256L247.795 13.3309C247.285 9.50799 243.779 6.8176 239.955 7.31429L240.856 14.256ZM237.16 14.736L236.259 7.79429C234.415 8.03373 232.742 8.99676 231.609 10.471C230.477 11.9452 229.977 13.8094 230.22 15.6526L237.16 14.736ZM237.568 18.264V25.264C239.474 25.264 241.298 24.4867 242.618 23.1118C243.938 21.7368 244.64 19.883 244.562 17.9785L237.568 18.264ZM231.448 18.264V11.264C227.582 11.264 224.448 14.398 224.448 18.264H231.448ZM231.448 21.792H224.448C224.448 25.658 227.582 28.792 231.448 28.792V21.792ZM237.4 21.792L244.314 22.8873C244.634 20.8646 244.053 18.8032 242.723 17.2459C241.393 15.6887 239.448 14.792 237.4 14.792V21.792ZM231.88 32.424L226.93 27.4743C225.559 28.8452 224.818 30.7234 224.884 32.6611C224.95 34.5989 225.816 36.4226 227.277 37.6976L231.88 32.424ZM234.712 34.896L230.109 40.1696C232.856 42.5679 236.985 42.4547 239.597 39.9096L234.712 34.896ZM241.168 21.792V14.792C237.605 14.792 234.611 17.4679 234.212 21.0082L241.168 21.792ZM245.632 21.792H252.632C252.632 17.926 249.498 14.792 245.632 14.792V21.792ZM245.632 31.44V38.44C249.498 38.44 252.632 35.306 252.632 31.44H245.632ZM243.304 31.44V24.44C239.438 24.44 236.304 27.574 236.304 31.44H243.304ZM252.736 18.144L254.013 25.0265C255.841 24.6873 257.459 23.6347 258.51 22.101C259.561 20.5673 259.959 18.6785 259.616 16.8512L252.736 18.144ZM252.064 14.568L258.944 13.2752C258.6 11.4488 257.545 9.83389 256.01 8.78629C254.475 7.73869 252.587 7.34442 250.761 7.69036L252.064 14.568ZM249.784 15L248.481 8.12236C244.721 8.83469 242.231 12.4338 242.888 16.2033L249.784 15ZM250.408 18.576L243.512 19.7793C243.834 21.621 244.878 23.2576 246.414 24.3244C247.949 25.3912 249.847 25.7996 251.685 25.4585L250.408 18.576ZM256.333 15.9674L255.685 12.4394L241.915 14.9686L242.563 18.4966L256.333 15.9674ZM247.51 6.82389L245.206 7.25589L247.786 21.0161L250.09 20.5841L247.51 6.82389ZM239.61 15.3923L240.258 18.9443L254.03 16.4317L253.382 12.8797L239.61 15.3923ZM248.503 24.5548L250.807 24.0988L248.089 10.3652L245.785 10.8212L248.503 24.5548ZM243.304 41.056H249.4V27.056H243.304V41.056ZM256.4 34.056V18.264H242.4V34.056H256.4ZM249.4 11.264H241.312V25.264H249.4V11.264ZM248.302 17.8895C248.211 16.1873 247.96 14.5675 247.795 13.3309L233.917 15.1811C234.137 16.8245 234.269 17.6527 234.322 18.6385L248.302 17.8895ZM239.955 7.31429L236.259 7.79429L238.062 21.6777L241.758 21.1977L239.955 7.31429ZM230.22 15.6526C230.439 17.31 230.543 17.7955 230.574 18.5495L244.562 17.9785C244.497 16.3805 244.217 14.706 244.1 13.8194L230.22 15.6526ZM237.568 11.264H231.448V25.264H237.568V11.264ZM224.448 18.264V21.792H238.448V18.264H224.448ZM231.448 28.792H237.4V14.792H231.448V28.792ZM230.486 20.6967C230.187 22.5876 229.806 23.6389 229.392 24.4151C228.963 25.2175 228.297 26.1078 226.93 27.4743L236.83 37.3737C238.703 35.5002 240.413 33.4985 241.743 31.0069C243.086 28.4891 243.845 25.8444 244.314 22.8873L230.486 20.6967ZM227.277 37.6976L230.109 40.1696L239.315 29.6224L236.483 27.1504L227.277 37.6976ZM239.597 39.9096C244.483 35.149 247.364 29.317 248.124 22.5758L234.212 21.0082C233.82 24.491 232.429 27.347 229.827 29.8824L239.597 39.9096ZM241.168 28.792H245.632V14.792H241.168V28.792ZM238.632 21.792V31.44H252.632V21.792H238.632ZM245.632 24.44H243.304V38.44H245.632V24.44ZM236.304 31.44V34.056H250.304V31.44H236.304ZM259.616 16.8512L258.944 13.2752L245.184 15.8608L245.856 19.4368L259.616 16.8512ZM250.761 7.69036L248.481 8.12236L251.087 21.8776L253.367 21.4456L250.761 7.69036ZM242.888 16.2033L243.512 19.7793L257.304 17.3727L256.68 13.7967L242.888 16.2033ZM251.685 25.4585L254.013 25.0265L251.459 11.2615L249.131 11.6935L251.685 25.4585ZM273.544 31.344L275.825 37.9621C277.614 37.3455 279.077 36.0307 279.881 34.3174C280.685 32.6041 280.761 30.6383 280.092 28.8681L273.544 31.344ZM269.56 24.192L264.117 19.7901C261.979 22.4334 262.05 26.2306 264.284 28.7928L269.56 24.192ZM275.752 16.536L281.195 20.9379C282.376 19.4768 282.921 17.602 282.706 15.7352C282.491 13.8684 281.535 12.1664 280.052 11.0121L275.752 16.536ZM271.312 13.08L275.612 7.55614C272.623 5.22961 268.325 5.70256 265.914 8.62345L271.312 13.08ZM269.608 15.144L264.21 10.6875C263.018 12.1317 262.454 13.9934 262.644 15.8565C262.835 17.7195 263.764 19.4285 265.224 20.6013L269.608 15.144ZM271.072 16.32L276.552 20.6753C278.949 17.6599 278.459 13.2748 275.456 10.8627L271.072 16.32ZM266.704 21.816L262.667 27.5348C265.699 29.6751 269.875 29.0769 272.184 26.1713L266.704 21.816ZM259.792 18.984L261.458 12.1852C257.802 11.289 254.091 13.4457 253.06 17.0668L259.792 18.984ZM258.76 22.608L252.028 20.6908C251.512 22.5012 251.747 24.4429 252.68 26.0777C253.614 27.7125 255.166 28.9027 256.987 29.3796L258.76 22.608ZM264.232 24.672L260.329 30.483C260.852 30.8344 261.421 31.1135 262.019 31.3128L264.232 24.672ZM264.304 24.72L259.354 19.7703C259.174 19.9506 259.004 20.1407 258.844 20.3396L264.304 24.72ZM257.488 33.216L252.028 28.8356C250.862 30.2888 250.324 32.1469 250.532 33.9983C250.74 35.8497 251.678 37.5418 253.137 38.6997L257.488 33.216ZM260.392 35.52L256.041 41.0037C259.05 43.3909 263.42 42.9078 265.835 39.9213L260.392 35.52ZM267.184 27.12L272.581 22.6618C271.243 21.0422 269.248 20.1091 267.147 20.1201C265.047 20.1311 263.062 21.0851 261.741 22.7187L267.184 27.12ZM269.992 32.568L263.438 35.0259C264.769 38.577 268.687 40.4217 272.273 39.1861L269.992 32.568ZM280.092 28.8681C278.877 25.6555 277.416 22.5501 274.836 19.5912L264.284 28.7928C265.304 29.9619 266.051 31.3205 266.997 33.8199L280.092 28.8681ZM275.003 28.5939L281.195 20.9379L270.309 12.1341L264.117 19.7901L275.003 28.5939ZM280.052 11.0121L275.612 7.55614L267.012 18.6039L271.452 22.0599L280.052 11.0121ZM265.914 8.62345L264.21 10.6875L275.006 19.6005L276.71 17.5365L265.914 8.62345ZM265.224 20.6013L266.688 21.7773L275.456 10.8627L273.992 9.68666L265.224 20.6013ZM265.592 11.9647L261.224 17.4607L272.184 26.1713L276.552 20.6753L265.592 11.9647ZM270.741 16.0972C267.608 13.8861 264.15 12.8448 261.458 12.1852L258.126 25.7828C260.331 26.3232 261.72 26.8659 262.667 27.5348L270.741 16.0972ZM253.06 17.0668L252.028 20.6908L265.492 24.5252L266.524 20.9012L253.06 17.0668ZM256.987 29.3796C259.317 29.9901 259.899 30.1938 260.329 30.483L268.135 18.861C265.35 16.9902 262.235 16.2819 260.534 15.8364L256.987 29.3796ZM262.019 31.3128C262.12 31.3466 262.261 31.3901 262.189 31.3676C262.181 31.365 262.082 31.3344 261.956 31.2898C261.85 31.2523 261.545 31.1428 261.174 30.957C260.864 30.8023 260.029 30.3649 259.213 29.4982C258.249 28.473 257.313 26.8282 257.313 24.7058C257.313 22.843 258.045 21.5163 258.415 20.9387C258.805 20.3297 259.201 19.9236 259.354 19.7703L269.254 29.6697C269.413 29.5104 269.814 29.099 270.207 28.4854C270.579 27.903 271.313 26.5722 271.313 24.7057C271.313 22.5796 270.376 20.9313 269.408 19.903C268.589 19.0331 267.75 18.5927 267.435 18.435C267.057 18.2462 266.745 18.1337 266.63 18.093C266.495 18.0453 266.385 18.0113 266.365 18.0049C266.269 17.9749 266.38 18.0094 266.446 18.0312L262.019 31.3128ZM258.844 20.3396L252.028 28.8356L262.948 37.5964L269.764 29.1004L258.844 20.3396ZM253.137 38.6997L256.041 41.0037L264.743 30.0363L261.839 27.7323L253.137 38.6997ZM265.835 39.9213L272.627 31.5213L261.741 22.7187L254.949 31.1187L265.835 39.9213ZM261.787 31.5782C262.309 32.21 262.683 33.0131 263.438 35.0259L276.546 30.1101C275.861 28.2829 274.795 25.3419 272.581 22.6618L261.787 31.5782ZM272.273 39.1861L275.825 37.9621L271.264 24.7259L267.712 25.9499L272.273 39.1861ZM280.528 37.44L275.431 32.6424C273.517 34.6761 272.995 37.6528 274.102 40.2164C275.21 42.7801 277.735 44.44 280.528 44.44V37.44ZM283.888 37.44V44.44C285.639 44.44 287.327 43.7835 288.618 42.6001L283.888 37.44ZM283.888 14.52L288.638 9.37788C287.344 8.18336 285.649 7.52 283.888 7.52V14.52ZM280.528 14.52V7.52C277.735 7.52 275.21 9.17995 274.102 11.7436C272.995 14.3072 273.517 17.2839 275.431 19.3176L280.528 14.52ZM278.136 25.992C278.136 28.5258 277.316 30.6392 275.431 32.6424L285.625 42.2376C289.884 37.7128 292.136 32.1942 292.136 25.992H278.136ZM280.528 44.44H283.888V30.44H280.528V44.44ZM288.618 42.6001C293.271 38.3354 295.856 32.294 295.856 25.992H281.856C281.856 28.474 280.842 30.7366 279.158 32.2799L288.618 42.6001ZM295.856 25.992C295.856 19.678 293.239 13.6278 288.638 9.37788L279.138 19.6621C280.825 21.2202 281.856 23.522 281.856 25.992H295.856ZM283.888 7.52H280.528V21.52H283.888V7.52ZM275.431 19.3176C277.312 21.3167 278.136 23.4288 278.136 25.992H292.136C292.136 19.7712 289.888 14.2513 285.625 9.72245L275.431 19.3176Z" fill="white"/>
</svg>
