<svg width="37" height="37" viewBox="0 0 37 37" fill="none" xmlns="http://www.w3.org/2000/svg">
<path d="M36.0104 19.7358L27.6309 21.937C24.869 22.6617 22.7118 24.8153 21.986 27.5709L19.7795 35.9368C19.6278 36.5187 19.1047 36.9199 18.5032 36.9199C17.9035 36.9199 17.3788 36.5185 17.227 35.9368L15.0222 27.5709C14.2946 24.8153 12.1376 22.6617 9.37571 21.937L0.996153 19.7358C0.416802 19.5827 0.0114746 19.0587 0.0114746 18.4601C0.0114746 17.8612 0.416984 17.3373 0.996153 17.1843L9.37571 14.9831C12.1376 14.2585 14.2947 12.1048 15.0222 9.34904L17.227 0.983109C17.3786 0.40126 17.9035 -0.000152588 18.5032 -0.000152588C19.1047 -0.000152588 19.6278 0.40126 19.7795 0.983109L21.986 9.34904C22.7118 12.1048 24.869 14.2585 27.6309 14.9831L36.0104 17.1843C36.5898 17.3373 36.9951 17.8612 36.9951 18.4601C36.9953 19.0587 36.5898 19.5827 36.0104 19.7358Z" fill="white"/>
</svg>
