<svg width="94" height="93" viewBox="0 0 94 93" fill="none" xmlns="http://www.w3.org/2000/svg">
<g clip-path="url(#clip0_693_742)">
<path d="M91.4955 55.856L77.7796 59.4608C73.2575 60.648 69.7272 64.1728 68.5379 68.684L64.9291 82.3774C64.6802 83.3267 63.8215 83.9867 62.8401 83.9867C61.8569 83.9867 60.9982 83.3267 60.7478 82.3774L57.139 68.6838C55.9499 64.1726 52.4194 60.648 47.8974 59.4606L34.1815 55.8559C33.2307 55.6059 32.5696 54.7503 32.5696 53.7686C32.5696 52.787 33.2307 51.9315 34.1815 51.6812L47.8974 48.0767C52.4194 46.8909 55.9499 43.3647 57.139 38.8534L60.7478 25.1597C60.9982 24.2104 61.8571 23.5504 62.8401 23.5504C63.8215 23.5504 64.6802 24.2104 64.9291 25.1597L68.5377 38.8534C69.727 43.3647 73.2574 46.8909 77.7794 48.0767L91.4953 51.6812C92.4459 51.9313 93.1072 52.787 93.1072 53.7686C93.1072 54.7503 92.4461 55.6059 91.4955 55.856Z" fill="white"/>
<path d="M44.2194 30.9337L35.8398 33.1349C33.078 33.8595 30.9208 36.0132 30.195 38.7688L27.9885 47.1347C27.8368 47.7166 27.3136 48.1178 26.7122 48.1178C26.1125 48.1178 25.5877 47.7164 25.436 47.1347L23.2312 38.7688C22.5035 36.0132 20.3466 33.8595 17.5847 33.1349L9.20514 30.9337C8.62579 30.7806 8.22046 30.2566 8.22046 29.6579C8.22046 29.0591 8.62597 28.5351 9.20514 28.3822L17.5847 26.181C20.3466 25.4563 22.5037 23.3027 23.2312 20.5469L25.436 12.181C25.5876 11.5991 26.1125 11.1977 26.7122 11.1977C27.3136 11.1977 27.8368 11.5991 27.9885 12.181L30.195 20.5469C30.9208 23.3027 33.078 25.4563 35.8398 26.181L44.2194 28.3822C44.7988 28.5351 45.2041 29.0591 45.2041 29.6579C45.2043 30.2566 44.7988 30.7806 44.2194 30.9337Z" fill="white"/>
</g>
<defs>
<clipPath id="clip0_693_742">
<rect width="92.8121" height="92.6612" fill="white" transform="matrix(1 0 0 -1 0.294922 92.9539)"/>
</clipPath>
</defs>
</svg>
