<svg width="65" height="65" viewBox="0 0 65 65" fill="none" xmlns="http://www.w3.org/2000/svg">
<path d="M58.1505 21.4449H50.107V17.6326C50.107 17.1888 50.0849 16.7504 50.0525 16.3147H50.107C49.4316 7.20561 41.8043 0 32.5253 0C32.5168 0 32.5084 0.000761719 32.4999 0.000761719C32.4914 0.000761719 32.483 0 32.4745 0C23.1956 0 15.5683 7.20561 14.8927 16.3147H14.9471C14.9147 16.7504 14.8927 17.1888 14.8927 17.6326V21.4449H6.8495C3.96538 21.4449 1.66969 23.8607 1.81657 26.7413L3.64394 60.2174C3.78067 62.8974 5.99346 65 8.67687 65H56.3231C59.0065 65 61.2192 62.8974 61.3561 60.2174L63.1836 26.7413C63.3304 23.8607 61.0346 21.4449 58.1505 21.4449ZM35.1175 43.3954V50.69C35.1175 51.9459 34.0898 52.9736 32.8339 52.9736C31.5778 52.9736 30.5503 51.9458 30.5503 50.69V43.3954C29.0803 42.5848 28.0725 41.039 28.0725 39.2416C28.0725 36.612 30.2043 34.4801 32.8339 34.4801C35.4635 34.4801 37.5953 36.612 37.5953 39.2416C37.5953 41.0391 36.5876 42.5849 35.1175 43.3954ZM43.0791 21.4449H21.9209V17.6326C21.9209 11.7943 26.6647 7.04247 32.4999 7.02876C38.3351 7.04247 43.079 11.7942 43.079 17.6326V21.4449H43.0791Z" fill="white"/>
</svg>
