<svg width="86" height="68" viewBox="0 0 86 68" fill="none" xmlns="http://www.w3.org/2000/svg">
<g clip-path="url(#clip0_358_268)">
<path d="M78.6216 35.1272C75.1751 37.6436 69.4279 36.4886 65.4254 35.4383C66.8537 32.8265 67.6462 29.6448 67.6462 25.8256C67.6462 11.9041 56.3913 0.619019 42.507 0.619019C28.6226 0.619019 17.3646 11.901 17.3646 25.8226C17.3646 29.845 18.3722 33.1653 20.1415 35.8541C16.1666 36.8674 10.7051 37.8561 7.38142 35.4291C1.61881 31.2218 -3.19771 39.972 4.93938 42.279C12.7908 44.5058 18.6425 41.2348 22.4791 38.6569C22.8754 39.0357 23.2901 39.3961 23.7232 39.741C21.6497 42.5746 18.965 45.3281 15.8195 45.7285C8.74835 46.6279 11.2273 56.3083 18.7285 52.3936C23.7754 49.7603 26.2819 45.8487 27.6888 42.1927C28.2233 42.4484 28.7731 42.6886 29.3383 42.9104C27.4738 46.939 24.829 51.1247 21.0938 52.252C13.0611 54.6759 17.8408 66.0873 25.7782 59.8842C31.6114 55.3258 33.6357 49.4646 34.4067 44.3949C35.2331 44.5643 36.0778 44.7121 36.9348 44.8292C36.2406 49.6863 34.803 55.0086 31.2828 57.2169C23.8737 61.8646 32.0261 72.7986 38.2403 64.1469C42.8572 57.7189 43.149 50.8752 42.421 45.2388C42.7128 45.245 43.0077 45.2481 43.3026 45.2481C43.7326 45.2481 44.1596 45.2419 44.5835 45.2327C43.9845 50.8783 44.4391 57.7066 49.1942 64.0206C55.6019 72.5275 63.5055 61.4118 55.9951 56.9335C52.4441 54.8176 50.8837 49.5724 50.0758 44.7491C50.6717 44.6567 51.2584 44.552 51.8298 44.4319C52.8342 49.5108 55.1319 55.3812 61.2938 59.7025C69.5415 65.4867 73.7252 53.8443 65.5789 51.8362C61.7761 50.8998 58.9102 46.825 56.8367 42.8826C57.5678 42.5716 58.2743 42.2328 58.947 41.8539C60.3293 45.6053 62.8359 49.674 68.0363 52.3906C75.5376 56.3052 78.0134 46.6248 70.9453 45.7255C67.5756 45.2973 64.7373 42.1681 62.6116 39.1343C62.8942 38.8602 63.1676 38.5768 63.4287 38.2811C67.2653 40.8683 73.1508 44.2163 81.0698 41.971C89.2069 39.664 84.3904 30.9138 78.6278 35.1211L78.6216 35.1272Z" fill="#F26957"/>
<path d="M33.1661 68C32.7361 68 32.3613 67.9446 32.0511 67.8706C29.9039 67.3655 28.196 65.4405 27.8059 63.0751C27.3851 60.5433 28.537 58.218 30.9606 56.6964C33.5808 55.0548 35.3102 51.3403 36.2409 45.3528C35.7955 45.2851 35.3532 45.2081 34.917 45.1249C33.7958 51.6545 30.9299 56.6472 26.1625 60.3709C23.6037 62.3698 20.962 62.8595 18.9132 61.7168C17.1684 60.7405 16.1455 58.6861 16.3697 56.601C16.4435 55.9172 16.7322 54.6267 17.8258 53.4717C15.7554 54.2325 13.8693 54.0631 12.53 52.9666C11.243 51.9132 10.7146 50.1792 11.1815 48.5499C11.7191 46.6711 13.384 45.4206 15.7462 45.1218C18.0746 44.8262 20.4122 43.0983 22.8819 39.8458C22.7252 39.7134 22.5716 39.5779 22.418 39.4393C18.1514 42.2421 12.3427 45.0202 4.77386 42.8735C2.03078 42.0942 0.304452 40.4772 0.0372091 38.4321C-0.177814 36.7812 0.620843 35.155 2.07686 34.2895C3.75404 33.2916 5.81826 33.5257 7.74425 34.9332C10.6624 37.0646 15.4943 36.3439 19.1743 35.4599C17.5677 32.7095 16.7506 29.4724 16.7506 25.8226C16.7506 11.5838 28.3035 0 42.5043 0C56.705 0 68.2579 11.5838 68.2579 25.8226C68.2579 29.2999 67.6067 32.3922 66.3257 35.0318C70.1746 35.9897 75.2615 36.8151 78.2595 34.6283C80.1855 33.2208 82.2528 32.9867 83.9269 33.9846C85.3799 34.8501 86.1816 36.4763 85.9666 38.1272C85.6993 40.1723 83.973 41.7893 81.2299 42.5685C73.655 44.7153 67.8155 41.9187 63.5212 39.0912C63.4844 39.1313 63.4475 39.1682 63.4106 39.2083C66.0585 42.8704 68.5497 44.8077 71.0194 45.1218C73.3846 45.4237 75.0465 46.6742 75.584 48.5499C76.0509 50.1792 75.5195 51.9132 74.2355 52.9666C73.0406 53.946 71.4095 54.1863 69.6002 53.6842C70.2146 54.5528 70.4419 55.4182 70.5248 55.9357C70.8566 58.0054 69.9443 60.1122 68.2487 61.1778C66.2612 62.4252 63.598 62.0741 60.9409 60.2107C59.9733 59.5331 59.0733 58.8001 58.2439 58.0147C59.3682 59.3391 59.8566 60.9684 59.6078 62.7117C59.2699 65.0833 57.6081 67.0514 55.4701 67.6027C54.1094 67.9538 51.4246 68.0062 48.7031 64.3933C44.8326 59.2559 43.2599 53.1883 43.905 45.8641C43.6439 45.8672 43.3797 45.8672 43.1155 45.8641C43.9265 53.176 42.495 59.2806 38.7383 64.5073C36.6986 67.347 34.6283 67.9969 33.163 67.9969L33.1661 68ZM34.4102 43.782C34.4501 43.782 34.4931 43.7851 34.533 43.7944C35.344 43.9607 36.1795 44.1054 37.0212 44.2225C37.184 44.244 37.3283 44.3303 37.4266 44.4627C37.5249 44.5952 37.5679 44.7584 37.5434 44.9216C36.5819 51.6483 34.6406 55.8433 31.6087 57.7436C29.6244 58.988 28.6783 60.8575 29.0131 62.878C29.3203 64.729 30.6811 66.2906 32.3275 66.6756C34.1737 67.1099 36.0966 66.0843 37.743 63.7927C41.4261 58.6646 42.7561 52.6247 41.8131 45.3251C41.7916 45.1465 41.8438 44.9678 41.9636 44.8354C42.0834 44.703 42.2554 44.6352 42.4305 44.629C43.1432 44.6414 43.862 44.6383 44.5654 44.6229C44.7436 44.6106 44.9125 44.6906 45.0323 44.82C45.1521 44.9494 45.2105 45.128 45.192 45.3036C44.418 52.6155 45.8863 58.6184 49.6799 63.6541C51.3786 65.9087 53.323 66.8881 55.1599 66.4107C56.7941 65.9888 58.1211 64.3964 58.3852 62.5392C58.674 60.5126 57.6849 58.6646 55.676 57.4664C52.6103 55.64 50.5799 51.5159 49.4649 44.857C49.4372 44.6937 49.4771 44.5274 49.5724 44.395C49.6676 44.2625 49.815 44.1732 49.9748 44.1455C50.6229 44.0438 51.1881 43.9422 51.698 43.8344C51.8578 43.8005 52.0267 43.8344 52.1619 43.9237C52.3001 44.013 52.3953 44.1578 52.426 44.318C53.7285 50.8999 56.7419 55.7694 61.6382 59.2036C63.9052 60.7928 66.0186 61.1255 67.5913 60.1368C68.8722 59.3329 69.5603 57.7221 69.3053 56.1359C69.0135 54.3248 67.6005 52.9789 65.4257 52.443C62.1297 51.6299 59.1378 48.6022 56.2872 43.1784C56.2074 43.0244 56.1951 42.8457 56.2534 42.6856C56.3118 42.5254 56.4347 42.393 56.5913 42.3252C57.3286 42.0111 58.0197 41.6753 58.6402 41.3273C58.7969 41.238 58.9842 41.2257 59.1532 41.2873C59.3221 41.3489 59.4542 41.4844 59.5156 41.6507C61.2389 46.3261 64.1141 49.6648 68.3101 51.8547C70.3835 52.9358 72.2573 52.9943 73.4491 52.0179C74.3553 51.2757 74.727 50.0498 74.3952 48.8948C73.999 47.5119 72.7088 46.5848 70.8566 46.3477C67.9323 45.975 65.0663 43.7358 62.099 39.5009C61.9239 39.2545 61.9577 38.9157 62.1727 38.7031C62.4522 38.4321 62.7164 38.1549 62.956 37.8839C63.1618 37.6529 63.5028 37.6097 63.7577 37.7822C68.1258 40.7298 73.5782 43.4648 80.8889 41.3889C83.1375 40.7513 84.5413 39.507 84.7409 37.9732C84.8914 36.812 84.3232 35.6632 83.2941 35.0503C82.0624 34.3172 80.4865 34.5267 78.9752 35.6293C75.3966 38.2411 69.7661 37.2186 65.2598 36.039C65.0755 35.9897 64.925 35.8603 64.8513 35.6878C64.7776 35.5123 64.7868 35.3152 64.8759 35.1488C66.2981 32.5462 67.02 29.4108 67.02 25.8319C67.02 12.2707 56.0169 1.24124 42.495 1.24124C28.9732 1.24124 17.9793 12.2645 17.9793 25.8226C17.9793 29.5556 18.8794 32.8142 20.6548 35.5154C20.7654 35.6817 20.7869 35.8911 20.7163 36.0759C20.6456 36.2607 20.489 36.4024 20.2955 36.4517C16.3022 37.4711 10.5795 38.5245 7.02239 35.9281C5.51108 34.8254 3.93834 34.6129 2.70349 35.349C1.67138 35.962 1.10311 37.1108 1.2567 38.2719C1.45636 39.8058 2.86015 41.0501 5.10868 41.6877C12.4379 43.7666 18.0592 40.8869 22.1416 38.1457C22.3812 37.9855 22.7006 38.0132 22.9064 38.2134C23.2873 38.5769 23.6897 38.9311 24.1075 39.2606C24.3655 39.467 24.4177 39.8397 24.2212 40.1076C21.4105 43.9484 18.6889 45.9873 15.8998 46.3446C14.0475 46.5818 12.7574 47.5088 12.3611 48.8918C12.0294 50.0467 12.401 51.2726 13.3072 52.0149C14.5021 52.9943 16.3759 52.9358 18.4463 51.8516C22.547 49.711 25.3854 46.4801 27.1178 41.9741C27.1793 41.8139 27.3052 41.6877 27.4649 41.623C27.6247 41.5583 27.8028 41.5645 27.9564 41.6384C28.4755 41.8848 29.0162 42.1219 29.566 42.3375C29.7227 42.3991 29.8486 42.5254 29.9131 42.6825C29.9776 42.8396 29.9715 43.0182 29.9008 43.1722C27.339 48.7008 24.5191 51.867 21.2753 52.8434C19.1313 53.4902 17.7889 54.907 17.5923 56.7334C17.4203 58.3319 18.1913 59.9027 19.5122 60.6419C21.131 61.5474 23.2259 61.107 25.4069 59.4007C30.0667 55.7601 32.8129 50.8198 33.805 44.3056C33.8296 44.1393 33.9218 43.9884 34.06 43.8929C34.1644 43.819 34.2873 43.782 34.4102 43.782ZM50.7857 45.2604C51.8547 51.1802 53.664 54.83 56.3087 56.4069C56.7173 56.6502 57.092 56.9182 57.4299 57.2046C54.4165 54.0415 52.4107 50.0621 51.3509 45.1588C51.1697 45.1927 50.9823 45.2266 50.7857 45.2604ZM28.0178 43.0275C26.525 46.6187 24.3317 49.4184 21.3644 51.5128C23.9601 50.5241 26.3038 47.8076 28.5063 43.24C28.3435 43.1722 28.1807 43.1014 28.0178 43.0275ZM57.691 43.1845C59.872 47.1793 62.0898 49.6833 64.4274 50.7829C61.8686 48.7193 59.9518 46.0582 58.6187 42.7349C58.3207 42.8889 58.0105 43.0398 57.688 43.1845H57.691Z" fill="#403F4C"/>
<path d="M42.5039 37.7206C46.0513 37.7206 48.927 34.8372 48.927 31.2803C48.927 27.7235 46.0513 24.8401 42.5039 24.8401C38.9566 24.8401 36.0809 27.7235 36.0809 31.2803C36.0809 34.8372 38.9566 37.7206 42.5039 37.7206Z" fill="#D83935"/>
<path d="M42.5039 34.5575C44.2547 34.5575 45.674 33.1345 45.674 31.379C45.674 29.6235 44.2547 28.2004 42.5039 28.2004C40.7531 28.2004 39.3339 29.6235 39.3339 31.379C39.3339 33.1345 40.7531 34.5575 42.5039 34.5575Z" fill="#632A26"/>
<path d="M32.9446 29.3523C34.6954 29.3523 36.1146 27.9293 36.1146 26.1738C36.1146 24.4183 34.6954 22.9952 32.9446 22.9952C31.1938 22.9952 29.7745 24.4183 29.7745 26.1738C29.7745 27.9293 31.1938 29.3523 32.9446 29.3523Z" fill="#632A26"/>
<path d="M52.0632 29.3523C53.814 29.3523 55.2332 27.9293 55.2332 26.1738C55.2332 24.4183 53.814 22.9952 52.0632 22.9952C50.3124 22.9952 48.8931 24.4183 48.8931 26.1738C48.8931 27.9293 50.3124 29.3523 52.0632 29.3523Z" fill="#632A26"/>
</g>
<defs>
<clipPath id="clip0_358_268">
<rect width="86" height="68" fill="white"/>
</clipPath>
</defs>
</svg>
