<svg width="130" height="80" viewBox="0 0 130 80" fill="none" xmlns="http://www.w3.org/2000/svg">
<mask id="mask0_486_410" style="mask-type:alpha" maskUnits="userSpaceOnUse" x="0" y="0" width="130" height="80">
<rect width="130" height="80" fill="#D9D9D9"/>
</mask>
<g mask="url(#mask0_486_410)">
</g>
<g clip-path="url(#clip0_486_410)">
<path d="M100.622 41.1273C97.1751 43.6436 91.4279 42.4886 87.4254 41.4384C88.8537 38.8265 89.6462 35.6449 89.6462 31.8257C89.6462 17.9042 78.3913 6.61908 64.507 6.61908C50.6226 6.61908 39.3646 17.9011 39.3646 31.8226C39.3646 35.8451 40.3722 39.1653 42.1415 41.8542C38.1667 42.8675 32.7051 43.8561 29.3814 41.4291C23.6188 37.2219 18.8023 45.9721 26.9394 48.279C34.7908 50.5058 40.6425 47.2349 44.4791 44.6569C44.8754 45.0358 45.2901 45.3961 45.7232 45.7411C43.6497 48.5747 40.965 51.3282 37.8195 51.7286C30.7484 52.628 33.2273 62.3084 40.7285 58.3937C45.7754 55.7603 48.282 51.8487 49.6888 48.1928C50.2233 48.4484 50.7732 48.6887 51.3384 48.9104C49.4738 52.939 46.829 57.1247 43.0938 58.252C35.0611 60.676 39.8408 72.0873 47.7782 65.8842C53.6115 61.3258 55.6357 55.4646 56.4068 50.395C57.2331 50.5644 58.0778 50.7122 58.9348 50.8292C58.2406 55.6864 56.803 61.0086 53.2828 63.217C45.8737 67.8647 54.0261 78.7986 60.2403 70.1469C64.8572 63.719 65.149 56.8753 64.421 51.2389C64.7128 51.245 65.0077 51.2481 65.3026 51.2481C65.7326 51.2481 66.1596 51.242 66.5835 51.2327C65.9845 56.8783 66.4391 63.7067 71.1942 70.0207C77.6019 78.5276 85.5055 67.4119 77.9951 62.9336C74.4441 60.8177 72.8837 55.5724 72.0758 50.7492C72.6717 50.6568 73.2584 50.552 73.8298 50.4319C74.8342 55.5108 77.1319 61.3813 83.2938 65.7025C91.5415 71.4867 95.7253 59.8444 87.5789 57.8362C83.7761 56.8999 80.9102 52.8251 78.8367 48.8827C79.5678 48.5716 80.2743 48.2328 80.947 47.854C82.3293 51.6054 84.8359 55.6741 90.0364 58.3906C97.5376 62.3053 100.013 52.6249 92.9453 51.7255C89.5756 51.2974 86.7373 48.1681 84.6116 45.1343C84.8942 44.8602 85.1676 44.5769 85.4287 44.2812C89.2653 46.8684 95.1508 50.2163 103.07 47.971C111.207 45.6641 106.39 36.9139 100.628 41.1211L100.622 41.1273Z" fill="#F26957"/>
<path d="M55.1661 74C54.736 74 54.3613 73.9446 54.051 73.8706C51.9039 73.3655 50.196 71.4405 49.8059 69.0751C49.385 66.5433 50.537 64.218 52.9606 62.6964C55.5808 61.0548 57.3102 57.3403 58.2409 51.3528C57.7955 51.2851 57.3532 51.2081 56.917 51.1249C55.7958 57.6545 52.9299 62.6472 48.1625 66.3709C45.6037 68.3698 42.962 68.8595 40.9131 67.7168C39.1684 66.7405 38.1455 64.6861 38.3697 62.601C38.4434 61.9172 38.7322 60.6267 39.8257 59.4717C37.7554 60.2325 35.8693 60.0631 34.53 58.9666C33.243 57.9132 32.7146 56.1792 33.1815 54.5499C33.7191 52.6711 35.384 51.4206 37.7462 51.1218C40.0745 50.8262 42.4122 49.0983 44.8818 45.8458C44.7252 45.7134 44.5716 45.5779 44.418 45.4393C40.1513 48.2421 34.3426 51.0202 26.7738 48.8735C24.0308 48.0942 22.3044 46.4772 22.0372 44.4321C21.8222 42.7812 22.6208 41.155 24.0768 40.2895C25.754 39.2916 27.8182 39.5257 29.7442 40.9332C32.6624 43.0646 37.4943 42.3439 41.1742 41.4599C39.5677 38.7095 38.7506 35.4724 38.7506 31.8226C38.7506 17.5838 50.3035 6 64.5042 6C78.705 6 90.2579 17.5838 90.2579 31.8226C90.2579 35.2999 89.6066 38.3922 88.3257 41.0318C92.1746 41.9897 97.2615 42.8151 100.259 40.6283C102.185 39.2208 104.253 38.9867 105.927 39.9846C107.38 40.8501 108.182 42.4763 107.967 44.1272C107.699 46.1723 105.973 47.7893 103.23 48.5685C95.6549 50.7153 89.8155 47.9187 85.5212 45.0912C85.4843 45.1313 85.4475 45.1682 85.4106 45.2083C88.0585 48.8704 90.5497 50.8077 93.0194 51.1218C95.3846 51.4237 97.0464 52.6742 97.584 54.5499C98.0509 56.1792 97.5195 57.9132 96.2355 58.9666C95.0406 59.946 93.4095 60.1863 91.6002 59.6842C92.2146 60.5528 92.4419 61.4182 92.5248 61.9357C92.8566 64.0054 91.9442 66.1122 90.2486 67.1778C88.2612 68.4252 85.598 68.0741 82.9409 66.2107C81.9733 65.5331 81.0733 64.8001 80.2439 64.0147C81.3682 65.3391 81.8566 66.9684 81.6078 68.7117C81.2699 71.0833 79.6081 73.0514 77.4701 73.6027C76.1093 73.9538 73.4246 74.0062 70.703 70.3933C66.8326 65.2559 65.2599 59.1883 65.905 51.8641C65.6439 51.8672 65.3797 51.8672 65.1155 51.8641C65.9265 59.176 64.495 65.2806 60.7383 70.5073C58.6986 73.347 56.6283 73.9969 55.163 73.9969L55.1661 74ZM56.4102 49.782C56.4501 49.782 56.4931 49.7851 56.533 49.7944C57.344 49.9607 58.1795 50.1054 59.0211 50.2225C59.1839 50.244 59.3283 50.3303 59.4266 50.4627C59.5249 50.5952 59.5679 50.7584 59.5433 50.9216C58.5819 57.6483 56.6405 61.8433 53.6087 63.7436C51.6244 64.988 50.6783 66.8575 51.0131 68.878C51.3203 70.729 52.681 72.2906 54.3275 72.6756C56.1736 73.1099 58.0965 72.0843 59.743 69.7927C63.426 64.6646 64.7561 58.6247 63.8131 51.3251C63.7916 51.1465 63.8438 50.9678 63.9636 50.8354C64.0834 50.703 64.2554 50.6352 64.4305 50.629C65.1432 50.6414 65.8619 50.6383 66.5654 50.6229C66.7435 50.6106 66.9125 50.6906 67.0323 50.82C67.1521 50.9494 67.2104 51.128 67.192 51.3036C66.4179 58.6155 67.8862 64.6184 71.6799 69.6541C73.3785 71.9087 75.323 72.8881 77.1599 72.4107C78.7941 71.9888 80.1211 70.3964 80.3852 68.5392C80.674 66.5126 79.6849 64.6646 77.6759 63.4664C74.6103 61.64 72.5799 57.5159 71.4648 50.857C71.4372 50.6937 71.4771 50.5274 71.5723 50.395C71.6676 50.2625 71.815 50.1732 71.9747 50.1455C72.6229 50.0438 73.1881 49.9422 73.698 49.8344C73.8577 49.8005 74.0267 49.8344 74.1618 49.9237C74.3001 50.013 74.3953 50.1578 74.426 50.318C75.7284 56.8999 78.7418 61.7694 83.6382 65.2036C85.9052 66.7928 88.0185 67.1255 89.5913 66.1368C90.8722 65.3329 91.5603 63.7221 91.3053 62.1359C91.0135 60.3248 89.6005 58.9789 87.4257 58.443C84.1297 57.6299 81.1378 54.6022 78.2872 49.1784C78.2073 49.0244 78.1951 48.8457 78.2534 48.6856C78.3118 48.5254 78.4347 48.393 78.5913 48.3252C79.3285 48.0111 80.0197 47.6753 80.6402 47.3273C80.7968 47.238 80.9842 47.2257 81.1532 47.2873C81.3221 47.3489 81.4542 47.4844 81.5156 47.6507C83.2389 52.3261 86.1141 55.6648 90.3101 57.8547C92.3835 58.9358 94.2573 58.9943 95.4491 58.0179C96.3553 57.2757 96.727 56.0498 96.3952 54.8948C95.999 53.5119 94.7088 52.5848 92.8566 52.3477C89.9322 51.975 87.0663 49.7358 84.099 45.5009C83.9239 45.2545 83.9577 44.9157 84.1727 44.7031C84.4522 44.4321 84.7164 44.1549 84.956 43.8839C85.1618 43.6529 85.5028 43.6097 85.7577 43.7822C90.1258 46.7298 95.5781 49.4648 102.889 47.3889C105.137 46.7513 106.541 45.507 106.741 43.9732C106.891 42.812 106.323 41.6632 105.294 41.0503C104.062 40.3172 102.487 40.5267 100.975 41.6293C97.3966 44.2411 91.7661 43.2186 87.2598 42.039C87.0755 41.9897 86.925 41.8603 86.8513 41.6878C86.7775 41.5123 86.7868 41.3152 86.8758 41.1488C88.2981 38.5462 89.0199 35.4108 89.0199 31.8319C89.0199 18.2707 78.0169 7.24124 64.495 7.24124C50.9731 7.24124 39.9793 18.2645 39.9793 31.8226C39.9793 35.5556 40.8793 38.8142 42.6548 41.5154C42.7654 41.6817 42.7869 41.8911 42.7163 42.0759C42.6456 42.2607 42.4889 42.4024 42.2954 42.4517C38.3021 43.4711 32.5795 44.5245 29.0224 41.9281C27.5111 40.8254 25.9383 40.6129 24.7035 41.349C23.6714 41.962 23.1031 43.1108 23.2567 44.2719C23.4563 45.8058 24.8601 47.0501 27.1087 47.6877C34.4379 49.7666 40.0592 46.8869 44.1416 44.1457C44.3812 43.9855 44.7006 44.0132 44.9064 44.2134C45.2873 44.5769 45.6897 44.9311 46.1075 45.2606C46.3655 45.467 46.4177 45.8397 46.2211 46.1076C43.4105 49.9484 40.6889 51.9873 37.8997 52.3446C36.0475 52.5818 34.7573 53.5088 34.3611 54.8918C34.0293 56.0467 34.401 57.2726 35.3072 58.0149C36.5021 58.9943 38.3759 58.9358 40.4462 57.8516C44.547 55.711 47.3853 52.4801 49.1178 47.9741C49.1792 47.8139 49.3052 47.6877 49.4649 47.623C49.6246 47.5583 49.8028 47.5645 49.9564 47.6384C50.4755 47.8848 51.0161 48.1219 51.566 48.3375C51.7227 48.3991 51.8486 48.5254 51.9131 48.6825C51.9776 48.8396 51.9715 49.0182 51.9008 49.1722C49.339 54.7008 46.5191 57.867 43.2753 58.8434C41.1312 59.4902 39.7889 60.907 39.5923 62.7334C39.4203 64.3319 40.1913 65.9027 41.5121 66.6419C43.1309 67.5474 45.2259 67.107 47.4068 65.4007C52.0667 61.7601 54.8128 56.8198 55.805 50.3056C55.8296 50.1393 55.9217 49.9884 56.06 49.8929C56.1644 49.819 56.2873 49.782 56.4102 49.782ZM72.7857 51.2604C73.8547 57.1802 75.6639 60.83 78.3087 62.4069C78.7173 62.6502 79.092 62.9182 79.4299 63.2046C76.4165 60.0415 74.4107 56.0621 73.3509 51.1588C73.1697 51.1927 72.9823 51.2266 72.7857 51.2604ZM50.0178 49.0275C48.525 52.6187 46.3317 55.4184 43.3644 57.5128C45.96 56.5241 48.3038 53.8076 50.5062 49.24C50.3434 49.1722 50.1806 49.1014 50.0178 49.0275ZM79.691 49.1845C81.8719 53.1793 84.0898 55.6833 86.4274 56.7829C83.8686 54.7193 81.9518 52.0582 80.6187 48.7349C80.3207 48.8889 80.0105 49.0398 79.6879 49.1845H79.691Z" fill="#403F4C"/>
<path d="M64.5039 43.7206C68.0513 43.7206 70.927 40.8372 70.927 37.2803C70.927 33.7235 68.0513 30.8401 64.5039 30.8401C60.9566 30.8401 58.0809 33.7235 58.0809 37.2803C58.0809 40.8372 60.9566 43.7206 64.5039 43.7206Z" fill="#D83935"/>
<path d="M64.5039 40.5575C66.2547 40.5575 67.674 39.1344 67.674 37.3789C67.674 35.6235 66.2547 34.2004 64.5039 34.2004C62.7531 34.2004 61.3339 35.6235 61.3339 37.3789C61.3339 39.1344 62.7531 40.5575 64.5039 40.5575Z" fill="#632A26"/>
<path d="M54.9446 35.3523C56.6954 35.3523 58.1147 33.9292 58.1147 32.1737C58.1147 30.4183 56.6954 28.9952 54.9446 28.9952C53.1938 28.9952 51.7746 30.4183 51.7746 32.1737C51.7746 33.9292 53.1938 35.3523 54.9446 35.3523Z" fill="#632A26"/>
<path d="M74.0632 35.3523C75.814 35.3523 77.2333 33.9292 77.2333 32.1737C77.2333 30.4183 75.814 28.9952 74.0632 28.9952C72.3124 28.9952 70.8932 30.4183 70.8932 32.1737C70.8932 33.9292 72.3124 35.3523 74.0632 35.3523Z" fill="#632A26"/>
</g>
<defs>
<clipPath id="clip0_486_410">
<rect width="86" height="68" fill="white" transform="translate(22 6)"/>
</clipPath>
</defs>
</svg>
