<svg width="130" height="80" viewBox="0 0 130 80" fill="none" xmlns="http://www.w3.org/2000/svg">
<path d="M83.8056 32.21H47.3395C46.0102 32.21 44.9326 31.1324 44.9326 29.8031V16.1061C44.9326 14.7768 46.0102 13.6992 47.3395 13.6992H83.8019C85.1312 13.6992 86.2088 14.7768 86.2088 16.1061V29.8031C86.2088 31.1324 85.1312 32.21 83.8019 32.21H83.8056ZM49.7501 27.3962H81.3987V18.513H49.7501V27.3962Z" fill="#403F4C"/>
<path d="M91.4967 52.9388H40.8522C39.5229 52.9388 38.4453 51.8612 38.4453 50.5319V36.8349C38.4453 35.5055 39.5229 34.428 40.8522 34.428H91.4967C92.826 34.428 93.9036 35.5055 93.9036 36.8349V50.5319C93.9036 51.8612 92.826 52.9388 91.4967 52.9388ZM43.2591 48.125H89.0898V39.2417H43.2591V48.125Z" fill="#403F4C"/>
<path d="M93.0772 65.1546H36.7672C35.4379 65.1546 34.3604 64.077 34.3604 62.7477V49.0507C34.3604 47.7213 35.4379 46.6438 36.7672 46.6438H93.0772C94.4065 46.6438 95.484 47.7213 95.484 49.0507V62.7477C95.484 64.077 94.4065 65.1546 93.0772 65.1546ZM39.1741 60.3408H90.6703V51.4576H39.1741V60.3408Z" fill="#403F4C"/>
<path d="M95.9325 77.9999H33.7572C32.7945 77.9999 31.8872 77.5704 31.2689 76.8187C30.6283 76.0411 30.3765 75.0265 30.569 74.0304L33.2018 60.6148C33.5054 59.0707 34.8459 57.9487 36.39 57.9487H93.3035C94.8476 57.9487 96.188 59.0707 96.4916 60.6148L99.1244 74.0304C99.3207 75.0265 99.0652 76.0411 98.4246 76.8187C97.8062 77.5704 96.899 77.9999 95.9362 77.9999H95.9325ZM35.6383 73.1861H94.0477L92.0037 62.7625H37.686L35.642 73.1861H35.6383Z" fill="#403F4C"/>
<path d="M86.4387 22.1603H86.3943L43.374 21.6307C41.9188 21.6122 40.7005 20.6976 40.4154 19.4053C40.1414 18.1722 40.7524 16.9577 41.941 16.3837L43.8998 15.4395C48.8469 6.27854 50.2614 6.11191 51.4019 5.9786C52.6794 5.82678 64.1065 5.81938 65.4025 5.81567C78.4849 5.81567 78.8218 5.94157 79.3402 6.14153C80.303 6.51552 80.6251 6.64142 86.2535 16.1912L87.7902 16.8873C89.0196 17.4428 89.6824 18.7055 89.401 19.957C89.1122 21.2604 87.8976 22.1603 86.4387 22.1603ZM48.5951 16.8799L81.3028 17.2835C78.9736 13.3511 77.8295 11.5441 77.2666 10.7183C73.1231 10.5961 56.0416 10.6035 52.4794 10.7294C51.8536 11.4404 50.5132 13.4066 48.5951 16.8799Z" fill="#403F4C"/>
<path d="M33.4384 44.7739C31.8203 44.7739 30.4835 43.8111 30.1799 42.4151C29.8873 41.0821 30.5909 39.7824 31.9313 39.1825L34.5604 38.0087C42.7512 24.7079 43.5066 24.4191 44.3768 24.0858C44.873 23.897 45.4358 23.6822 64.5946 23.386C66.5238 23.3563 83.4793 23.1045 85.2752 23.3119C86.4787 23.4526 88.4894 23.6859 95.6878 36.8423L98.9278 38.379C100.198 38.9788 100.861 40.2526 100.579 41.545C100.272 42.9558 98.9574 43.9222 97.3097 43.9407L33.4977 44.7665C33.4977 44.7665 33.4606 44.7665 33.4458 44.7665L33.4384 44.7739ZM46.3689 28.6441C45.2284 30.1437 42.3402 34.5835 39.0594 39.8861L91.4887 39.2084C88.0969 33.0135 85.4197 29.0477 84.3458 28.0775C80.1764 27.9109 51.553 28.3441 46.3689 28.6441Z" fill="#403F4C"/>
<path d="M51.5045 36.546C50.2899 36.546 49.2198 35.7869 48.8273 34.639C48.4274 33.4763 48.8273 32.2025 49.8159 31.4693L64.5683 20.5569C65.5532 19.8274 66.89 19.8126 67.8935 20.5161L82.4755 30.7324C83.4716 31.4323 83.9085 32.6838 83.5567 33.8465C83.2012 35.0167 82.1422 35.8239 80.9129 35.8535L51.5748 36.5497C51.5526 36.5497 51.5304 36.5497 51.5045 36.5497V36.546ZM66.2901 25.2706L57.7549 31.5841L74.7253 31.1805L66.2901 25.2706Z" fill="#403F4C"/>
<path d="M51.9052 36.5461C50.6647 36.5461 49.5872 35.7722 49.2132 34.6021C48.8429 33.4357 49.2798 32.1841 50.3055 31.4917L64.6653 21.7864C65.6133 21.1458 66.8464 21.131 67.8091 21.7493L81.9986 30.8362C83.0317 31.4954 83.5057 32.7247 83.1761 33.8948C82.8429 35.0835 81.7764 35.9018 80.5211 35.9277L51.9718 36.5461C51.9496 36.5461 51.9274 36.5461 51.9089 36.5461H51.9052ZM66.2946 26.4964L58.7666 31.5842L73.7337 31.2584L66.2946 26.4964Z" fill="#403F4C"/>
<path d="M53.2566 37.0644C52.031 37.0644 50.9719 36.3016 50.6053 35.1463C50.2388 33.991 50.672 32.7579 51.6866 32.0729L64.68 23.2896C65.6132 22.6601 66.8277 22.6453 67.7757 23.2526L80.6247 31.4804C81.643 32.1321 82.1133 33.3467 81.7874 34.502C81.4579 35.6758 80.4062 36.4831 79.1695 36.509L53.3233 37.0681C53.301 37.0681 53.2788 37.0681 53.2603 37.0681L53.2566 37.0644ZM66.2871 28.0108L60.2403 32.0988L72.2636 31.8396L66.2871 28.0145V28.0108Z" fill="#403F4C"/>
<path d="M66.7488 25.5448C66.6488 25.5448 66.5525 25.5448 66.46 25.5448H66.1785H65.8971C65.0603 25.5559 63.7976 25.5707 62.8089 24.5969C62.3831 24.1747 61.8721 23.4193 61.8721 22.2122C61.8721 19.8349 63.805 17.8983 66.1785 17.8983C68.5521 17.8983 70.485 19.8349 70.485 22.2122C70.485 23.4193 69.9777 24.1747 69.5482 24.5969C68.6669 25.467 67.5671 25.5485 66.7488 25.5485V25.5448ZM66.1785 21.1532C65.886 21.4346 65.6712 21.8234 65.6712 22.2085C65.6712 22.4862 65.9008 22.7084 66.1785 22.7084C66.4563 22.7084 66.6858 22.4825 66.6858 22.2085C66.6858 21.8234 66.4674 21.4346 66.1785 21.1532Z" fill="#403F4C"/>
<path d="M79.5581 41.8449H52.6159C51.2865 41.8449 50.209 40.7673 50.209 39.438V33.069C50.209 31.7397 51.2865 30.6621 52.6159 30.6621H79.5581C80.8875 30.6621 81.965 31.7397 81.965 33.069V39.438C81.965 40.7673 80.8875 41.8449 79.5581 41.8449ZM55.0227 37.0311H77.1512V35.4759H55.0227V37.0311Z" fill="#403F4C"/>
<path d="M63.6315 27.5295H62.1022C60.7729 27.5295 59.6953 28.6071 59.6953 29.9364V32.3692C59.6953 33.6985 60.7729 34.7761 62.1022 34.7761H63.6315C64.9608 34.7761 66.0384 33.6985 66.0384 32.3692V29.9364C66.0384 28.6071 64.9608 27.5295 63.6315 27.5295Z" fill="#403F4C"/>
<path d="M66.8532 27.5295H65.3239C63.9946 27.5295 62.917 28.6071 62.917 29.9364V32.3692C62.917 33.6985 63.9946 34.7761 65.3239 34.7761H66.8532C68.1825 34.7761 69.26 33.6985 69.26 32.3692V29.9364C69.26 28.6071 68.1825 27.5295 66.8532 27.5295Z" fill="#403F4C"/>
<path d="M70.0749 27.5295H68.5456C67.2163 27.5295 66.1387 28.6071 66.1387 29.9364V32.3692C66.1387 33.6985 67.2163 34.7761 68.5456 34.7761H70.0749C71.4041 34.7761 72.4817 33.6985 72.4817 32.3692V29.9364C72.4817 28.6071 71.4041 27.5295 70.0749 27.5295Z" fill="#403F4C"/>
<path d="M51.5045 48.6693C50.2899 48.6693 49.2198 47.9102 48.8273 46.7623C48.4274 45.5996 48.8273 44.3258 49.8159 43.5926L64.5683 32.6802C65.5532 31.9507 66.8863 31.9322 67.8935 32.6395L82.4755 42.8558C83.4716 43.5556 83.9085 44.8072 83.5567 45.9699C83.2012 47.14 82.1422 47.9473 80.9129 47.9769L51.5748 48.673C51.5526 48.673 51.5304 48.673 51.5045 48.673V48.6693ZM66.2901 37.394L57.7549 43.7074L74.7253 43.3038L66.2901 37.394Z" fill="#403F4C"/>
<path d="M51.9052 48.6694C50.6647 48.6694 49.5872 47.8955 49.2132 46.7254C48.8429 45.559 49.2798 44.3074 50.3055 43.6149L64.6653 33.9097C65.6133 33.2691 66.8464 33.2542 67.8091 33.8726L81.9986 42.9595C83.0317 43.6186 83.5057 44.848 83.1761 46.0181C82.8429 47.2068 81.7764 48.0251 80.5211 48.051L51.9718 48.6694C51.9496 48.6694 51.9274 48.6694 51.9089 48.6694H51.9052ZM66.2946 38.6197L58.7666 43.7075L73.7337 43.3817L66.2946 38.6197Z" fill="#403F4C"/>
<path d="M66.7488 37.6643C66.6488 37.6643 66.5525 37.6643 66.46 37.6643H66.1785H65.8971C65.0603 37.6754 63.7976 37.6902 62.8089 36.7164C62.3831 36.2942 61.8721 35.5388 61.8721 34.3317C61.8721 31.9544 63.805 30.0178 66.1785 30.0178C68.5521 30.0178 70.485 31.9544 70.485 34.3317C70.485 35.5388 69.9777 36.2942 69.5482 36.7164C68.6669 37.5865 67.5708 37.668 66.7488 37.668V37.6643ZM66.1785 33.2727C65.886 33.5541 65.6712 33.9429 65.6712 34.328C65.6712 34.6057 65.9008 34.8279 66.1785 34.8279C66.4563 34.8279 66.6858 34.602 66.6858 34.328C66.6858 33.9429 66.4674 33.5541 66.1785 33.2727Z" fill="#403F4C"/>
<path d="M53.2566 49.1248C52.031 49.1248 50.9719 48.362 50.6053 47.2067C50.2388 46.0514 50.672 44.8184 51.6866 44.1333L64.68 35.3501C65.6132 34.7206 66.8277 34.7058 67.7757 35.313L80.6247 43.5409C81.643 44.1926 82.1133 45.4071 81.7874 46.5624C81.4579 47.7362 80.4062 48.5435 79.1695 48.5694L53.3233 49.1285C53.301 49.1285 53.2788 49.1285 53.2603 49.1285L53.2566 49.1248ZM66.2871 40.0713L60.2403 44.1592L72.2636 43.9L66.2871 40.075V40.0713Z" fill="#403F4C"/>
<path d="M63.6315 39.5898H62.1022C60.7729 39.5898 59.6953 40.6674 59.6953 41.9967V44.4295C59.6953 45.7588 60.7729 46.8364 62.1022 46.8364H63.6315C64.9608 46.8364 66.0384 45.7588 66.0384 44.4295V41.9967C66.0384 40.6674 64.9608 39.5898 63.6315 39.5898Z" fill="#403F4C"/>
<path d="M66.8532 39.5898H65.3239C63.9946 39.5898 62.917 40.6674 62.917 41.9967V44.4295C62.917 45.7588 63.9946 46.8364 65.3239 46.8364H66.8532C68.1825 46.8364 69.26 45.7588 69.26 44.4295V41.9967C69.26 40.6674 68.1825 39.5898 66.8532 39.5898Z" fill="#403F4C"/>
<path d="M70.0749 39.5898H68.5456C67.2163 39.5898 66.1387 40.6674 66.1387 41.9967V44.4295C66.1387 45.7588 67.2163 46.8364 68.5456 46.8364H70.0749C71.4041 46.8364 72.4817 45.7588 72.4817 44.4295V41.9967C72.4817 40.6674 71.4041 39.5898 70.0749 39.5898Z" fill="#403F4C"/>
<path d="M101.342 58.8967C101.32 58.8967 101.298 58.8967 101.275 58.8967L28.4839 58.0081C26.1215 57.9821 25.1439 56.6898 25.0143 55.4938C24.8958 54.3903 25.5068 53.1128 27.1138 52.6463L28.8172 51.939C39.2297 43.0854 40.2332 42.8928 40.8997 42.7632C41.1848 42.7077 41.9402 42.5633 65.8794 42.8114C74.6886 42.9039 90.0408 43.0965 91.7034 43.2335C94.1844 43.4409 96.1654 46.0699 98.9056 50.0579C99.635 51.1207 100.327 52.1279 100.776 52.624L102.49 53.6497C104.171 54.2792 104.615 55.616 104.467 56.6195C104.412 57.0046 103.997 58.9004 101.342 58.9004V58.8967ZM34.7122 53.2683L95.7951 54.0163C95.5248 53.6312 95.2397 53.2165 94.9435 52.7833C93.9918 51.4021 92.0478 48.5694 91.1332 48.0176C87.3525 47.8103 46.7207 47.3844 41.9958 47.4992C40.9812 48.1583 38.1633 50.3912 34.7122 53.2683Z" fill="#403F4C"/>
<path d="M35.0229 55.8752C33.8343 55.8752 32.79 55.1346 32.4049 54.0126C32.0161 52.8758 32.4049 51.6353 33.3714 50.917L45.7576 41.7523C46.7203 41.0414 48.0201 41.0266 48.9976 41.7116L61.2431 50.2912C62.217 50.9762 62.6428 52.1982 62.2984 53.335C61.954 54.4755 60.9135 55.2642 59.7175 55.2901L35.0858 55.8752C35.0636 55.8752 35.0414 55.8752 35.0192 55.8752H35.0229ZM47.4424 46.4957L41.4807 50.9059L53.3374 50.6245L47.4424 46.4957Z" fill="#403F4C"/>
<path d="M35.3611 55.8751C34.1503 55.8751 33.0987 55.116 32.7358 53.9755C32.3729 52.8313 32.8024 51.6056 33.8059 50.928L45.8626 42.7779C46.7809 42.1559 47.9843 42.1373 48.9211 42.7372L60.8408 50.3689C61.8517 51.0169 62.3145 52.2203 61.9924 53.3682C61.6665 54.5309 60.6223 55.3308 59.4003 55.3567L35.4278 55.8751C35.4056 55.8751 35.3871 55.8751 35.3648 55.8751H35.3611ZM47.4474 47.5102L42.4226 50.9058L52.413 50.691L47.4474 47.5102Z" fill="#403F4C"/>
<path d="M47.821 46.6366C47.7358 46.6366 47.6543 46.6366 47.5803 46.6366H47.3507H47.1211C46.4027 46.644 45.1956 46.6625 44.2514 45.7294C43.8403 45.3258 43.3516 44.6 43.3516 43.4521C43.3516 41.2415 45.1475 39.4456 47.3507 39.4456C49.5539 39.4456 51.3498 41.2415 51.3498 43.4521C51.3498 44.6 50.861 45.3221 50.45 45.7294C49.6058 46.5625 48.5504 46.6403 47.821 46.6403V46.6366ZM47.347 42.0672C46.9026 42.3671 46.5323 42.8967 46.5323 43.4521C46.5323 43.8964 46.8952 44.2593 47.347 44.2593C47.7987 44.2593 48.1616 43.8964 48.1616 43.4521C48.1616 42.8967 47.7913 42.3671 47.347 42.0672Z" fill="#403F4C"/>
<path d="M36.4975 55.9085C35.3014 55.9085 34.235 55.1346 33.8906 54.0052C33.5425 52.8647 33.9869 51.6576 34.9978 51.0059L45.9102 43.9556C46.7952 43.3816 47.9505 43.3705 48.8503 43.9185L59.6368 50.5171C60.6588 51.1429 61.1365 52.3315 60.8255 53.472C60.5107 54.6347 59.4776 55.4308 58.252 55.4568L36.553 55.9048C36.5345 55.9048 36.516 55.9048 36.4975 55.9048V55.9085ZM47.4395 48.699L43.9736 50.9392L50.8684 50.7948L47.4395 48.699Z" fill="#403F4C"/>
<path d="M45.2064 47.4807H43.9215C42.5922 47.4807 41.5146 48.5583 41.5146 49.8876V51.9279C41.5146 53.2572 42.5922 54.3348 43.9215 54.3348H45.2064C46.5357 54.3348 47.6133 53.2572 47.6133 51.9279V49.8876C47.6133 48.5583 46.5357 47.4807 45.2064 47.4807Z" fill="#403F4C"/>
<path d="M47.9135 47.4807H46.6286C45.2993 47.4807 44.2217 48.5583 44.2217 49.8876V51.9279C44.2217 53.2572 45.2993 54.3348 46.6286 54.3348H47.9135C49.2428 54.3348 50.3203 53.2572 50.3203 51.9279V49.8876C50.3203 48.5583 49.2428 47.4807 47.9135 47.4807Z" fill="#403F4C"/>
<path d="M50.6156 47.4807H49.3307C48.0014 47.4807 46.9238 48.5583 46.9238 49.8876V51.9279C46.9238 53.2572 48.0014 54.3348 49.3307 54.3348H50.6156C51.9449 54.3348 53.0225 53.2572 53.0225 51.9279V49.8876C53.0225 48.5583 51.9449 47.4807 50.6156 47.4807Z" fill="#403F4C"/>
<path d="M71.4887 55.8753C70.3001 55.8753 69.2559 55.1347 68.8708 54.0127C68.482 52.8759 68.8708 51.6355 69.8372 50.9171L82.2234 41.7524C83.1824 41.0415 84.4822 41.0267 85.4634 41.708L97.7126 50.2913C98.6865 50.9764 99.1123 52.1983 98.7679 53.3351C98.4236 54.4756 97.3831 55.2643 96.187 55.2902L71.5554 55.8753C71.5331 55.8753 71.5109 55.8753 71.4887 55.8753ZM83.9082 46.4959L77.9466 50.906L89.8032 50.6246L83.9082 46.4959Z" fill="#403F4C"/>
<path d="M71.8216 55.8752C70.6108 55.8752 69.5592 55.1198 69.1963 53.9756C68.8334 52.8314 69.2592 51.6058 70.2627 50.9281L82.3193 42.7781C83.2414 42.156 84.4411 42.1375 85.3816 42.741L97.3012 50.3727C98.3121 51.0207 98.775 52.2241 98.4528 53.372C98.127 54.5347 97.0828 55.3346 95.8608 55.3605L71.8883 55.8789C71.8661 55.8789 71.8475 55.8789 71.8253 55.8789L71.8216 55.8752ZM83.9116 47.5104L78.8868 50.9059L88.8772 50.6911L83.9116 47.5104Z" fill="#403F4C"/>
<path d="M83.3384 46.6364C82.609 46.6364 81.5573 46.5623 80.7094 45.7255C80.2983 45.3181 79.8096 44.5961 79.8096 43.4482C79.8096 41.2376 81.6055 39.4417 83.8087 39.4417C86.0119 39.4417 87.8115 41.2376 87.8115 43.4482C87.8115 44.5961 87.3227 45.3181 86.9117 45.7255C85.9675 46.6586 84.764 46.6401 84.042 46.6327H83.8124H83.5828C83.5088 46.6327 83.4273 46.6327 83.3421 46.6327L83.3384 46.6364ZM83.8124 42.067C83.3718 42.3669 83.0015 42.8965 83.0015 43.4519C83.0015 43.8962 83.3643 44.2591 83.8124 44.2591C84.2604 44.2591 84.627 43.8962 84.627 43.4519C84.627 42.8965 84.2567 42.3669 83.8124 42.067Z" fill="#403F4C"/>
<path d="M72.9632 55.9085C71.7672 55.9085 70.7008 55.1309 70.3564 54.0052C70.0083 52.8647 70.4527 51.6613 71.4673 51.0059L82.3797 43.9556C83.2647 43.3816 84.42 43.3705 85.3198 43.9185L96.1063 50.5171C97.1283 51.1429 97.606 52.3278 97.295 53.472C96.9802 54.6347 95.9471 55.4308 94.7214 55.4568L73.0225 55.9048C73.004 55.9048 72.9854 55.9048 72.9669 55.9048L72.9632 55.9085ZM83.9053 48.699L80.4394 50.9392L87.3342 50.7948L83.909 48.699H83.9053Z" fill="#403F4C"/>
<path d="M81.6723 47.4807H80.3874C79.0581 47.4807 77.9805 48.5583 77.9805 49.8876V51.9279C77.9805 53.2572 79.0581 54.3348 80.3874 54.3348H81.6723C83.0015 54.3348 84.0791 53.2572 84.0791 51.9279V49.8876C84.0791 48.5583 83.0015 47.4807 81.6723 47.4807Z" fill="#403F4C"/>
<path d="M84.3754 47.4807H83.0905C81.7612 47.4807 80.6836 48.5583 80.6836 49.8876V51.9279C80.6836 53.2572 81.7612 54.3348 83.0905 54.3348H84.3754C85.7047 54.3348 86.7823 53.2572 86.7823 51.9279V49.8876C86.7823 48.5583 85.7047 47.4807 84.3754 47.4807Z" fill="#403F4C"/>
<path d="M87.0785 47.4807H85.7936C84.4643 47.4807 83.3867 48.5583 83.3867 49.8876V51.9279C83.3867 53.2572 84.4643 54.3348 85.7936 54.3348H87.0785C88.4078 54.3348 89.4854 53.2572 89.4854 51.9279V49.8876C89.4854 48.5583 88.4078 47.4807 87.0785 47.4807Z" fill="#403F4C"/>
<path d="M45.0394 30.0845C43.1657 30.0845 41.118 29.0847 40.2478 27.5851C39.0296 25.4892 39.137 23.2082 40.5404 21.4901C41.9327 19.7794 44.6691 19.1202 47.1982 21.1568C47.898 21.7197 48.2239 22.6269 48.0461 23.5082L47.9462 23.997C48.4942 24.5376 48.8089 25.2448 48.8867 26.1113C49.0459 27.8739 48.0795 29.3551 46.4206 29.8809C45.9873 30.0179 45.5208 30.0845 45.0431 30.0845H45.0394Z" fill="#403F4C"/>
<path d="M41.4216 48.6361C39.8812 48.6361 38.2741 47.8251 37.5335 46.5513C36.556 44.8665 36.6559 42.9484 37.8001 41.5413C39.3516 39.638 41.84 39.9491 43.3989 41.2044C44.0876 41.7598 44.4135 42.6411 44.2543 43.5076C44.632 44.0186 44.7801 44.5925 44.8245 45.0924C44.9652 46.6402 44.0765 47.9918 42.6139 48.4546C42.2325 48.5768 41.8252 48.6324 41.4142 48.6361H41.4216ZM40.4033 44.9702C40.6403 45.048 41.2216 44.9702 41.5364 44.5814C41.6548 44.4333 41.6956 44.2037 41.6734 44.0889C41.5808 43.9445 41.4882 43.8556 41.4364 43.8149C41.3956 43.8149 41.3438 43.8223 41.2772 43.8334L40.3811 44.948C40.3811 44.948 40.3885 44.9554 40.4033 44.9665V44.9702Z" fill="#403F4C"/>
<path d="M85.2598 30.0845C84.7821 30.0845 84.3155 30.0179 83.8823 29.8809C82.2234 29.3514 81.2532 27.8739 81.4162 26.1113C81.4939 25.2449 81.8087 24.5376 82.3567 23.997L82.2567 23.5082C82.079 22.6269 82.4048 21.7197 83.1047 21.1569C85.6375 19.1166 88.3702 19.7794 89.7625 21.4864C91.1659 23.2083 91.2733 25.4855 90.055 27.5851C89.1811 29.0848 87.1371 30.0845 85.2635 30.0845H85.2598Z" fill="#403F4C"/>
<path d="M90.9262 48.9358C90.5151 48.9358 90.1115 48.8766 89.7264 48.7544C88.2638 48.2878 87.3788 46.9363 87.5195 45.3922C87.5639 44.8923 87.7158 44.3183 88.0935 43.8073C87.9342 42.9408 88.2638 42.0559 88.9525 41.5041C90.5115 40.2488 92.9998 39.9415 94.5513 41.8411C95.6955 43.2445 95.7992 45.1663 94.8216 46.8511C94.081 48.1249 92.474 48.9358 90.9336 48.9358H90.9262ZM90.6781 44.3887C90.6559 44.5035 90.6966 44.733 90.8151 44.8812C91.1409 45.2811 91.7482 45.3514 91.9704 45.2589L91.0706 44.1332C91.0076 44.1184 90.9558 44.1147 90.9151 44.1147C90.8632 44.1554 90.7706 44.2443 90.6781 44.3887Z" fill="#403F4C"/>
<path d="M52.6121 12.8809C50.4163 12.8809 48.0243 11.7145 47.006 9.96301C45.5692 7.49318 45.6877 4.81599 47.3244 2.80902C48.9167 0.853892 52.0715 0.113313 55.0116 2.48317C55.7115 3.04601 56.0373 3.95321 55.8596 4.8345L55.6818 5.7195C55.6707 5.77504 55.6559 5.83058 55.6411 5.88242C56.2854 6.39713 56.8371 7.19695 56.9519 8.47445C57.1297 10.4222 56.0595 12.0589 54.234 12.6402C53.723 12.8031 53.175 12.8809 52.6121 12.8809Z" fill="#403F4C"/>
<path d="M78.4362 12.8808C77.8733 12.8808 77.3253 12.8031 76.8143 12.6401C74.9851 12.0588 73.9186 10.4221 74.0964 8.47438C74.2112 7.20059 74.7629 6.39706 75.4072 5.88236C75.3924 5.83052 75.3776 5.77497 75.3665 5.71943L75.1887 4.83444C75.011 3.95315 75.3368 3.04594 76.0367 2.4831C78.2621 0.687196 81.6207 0.224334 83.7239 2.80895C85.3606 4.81592 85.4791 7.48941 84.0423 9.96295C83.0241 11.7144 80.632 12.8808 78.4362 12.8808Z" fill="#403F4C"/>
<path d="M83.8022 16.1061H47.3398V29.8031H83.8022V16.1061Z" fill="#67402B"/>
<path d="M91.497 36.8385H40.8525V50.5355H91.497V36.8385Z" fill="#F2ECDE"/>
<path d="M93.0775 49.0508H36.7676V62.7478H93.0775V49.0508Z" fill="#F2ECDE"/>
<path d="M95.9328 75.593H33.7575C33.2205 75.593 32.8206 75.0598 32.9317 74.4932L35.5645 61.0777C35.6459 60.6555 35.9903 60.3556 36.3902 60.3556H93.3037C93.7036 60.3556 94.048 60.6555 94.1295 61.0777L96.7622 74.4932C96.8733 75.0598 96.4734 75.593 95.9365 75.593H95.9328Z" fill="#9E978F"/>
<path d="M86.7934 19.0794L84.5643 18.0685C84.1606 17.402 79.0506 8.61134 78.4656 8.38547C77.8583 8.14848 53.16 8.19292 51.6788 8.36695C50.4236 8.51507 46.8466 15.0248 45.7875 17.0021C45.732 17.1021 45.6876 17.191 45.6468 17.265L42.9844 18.5499C42.529 18.7684 42.8067 19.2164 43.4029 19.2238L86.4231 19.7534C87.0378 19.7608 87.2896 19.3016 86.7934 19.0794Z" fill="#44C17A"/>
<path d="M32.9084 41.382L36.2187 39.9083C36.8149 38.9344 44.3688 26.6704 45.2353 26.3409C46.1351 25.9965 82.7975 25.4559 84.9933 25.7114C86.8558 25.9262 92.1621 35.4204 93.7358 38.3049C93.8173 38.4531 93.8839 38.579 93.9432 38.69L97.8904 40.56C98.5681 40.8822 98.1571 41.5302 97.2684 41.5413L33.4564 42.367C32.5455 42.3781 32.1715 41.7116 32.9046 41.382H32.9084Z" fill="#44C17A"/>
<path d="M51.2457 33.406L65.998 22.4899C66.1461 22.3788 66.3535 22.3751 66.509 22.4825L81.091 32.6987C81.4206 32.9283 81.2577 33.4282 80.8503 33.4393L51.516 34.1355C51.105 34.1466 50.9198 33.643 51.2457 33.4023V33.406Z" fill="#44C17A"/>
<path d="M51.6532 33.4874L66.013 23.7821C66.1574 23.6821 66.3611 23.6821 66.5092 23.7747L80.7024 32.8616C81.0208 33.0653 80.8653 33.5096 80.4691 33.5207L51.9198 34.1391C51.5199 34.1465 51.3384 33.7022 51.6569 33.4874H51.6532Z" fill="#F2ECDE"/>
<path d="M53.0309 34.0651L66.028 25.2781C66.1613 25.1893 66.3428 25.1856 66.4761 25.2744L79.3214 33.4986C79.6103 33.6837 79.4696 34.0873 79.1104 34.0947L53.2679 34.6539C52.905 34.6613 52.7421 34.2576 53.0309 34.0614V34.0651Z" fill="white"/>
<path d="M68.0785 22.2084C68.0785 23.26 67.2268 23.1304 66.1789 23.1304C65.131 23.1304 64.2793 23.26 64.2793 22.2084C64.2793 21.1568 65.131 20.3014 66.1789 20.3014C67.2268 20.3014 68.0785 21.1531 68.0785 22.2084Z" fill="#EFBB55"/>
<path d="M79.5585 33.0728H52.6162V39.4417H79.5585V33.0728Z" fill="#F2ECDE"/>
<path d="M63.6318 29.9364H62.1025V32.3692H63.6318V29.9364Z" fill="#80CFDB"/>
<path d="M66.8535 29.9364H65.3242V32.3692H66.8535V29.9364Z" fill="#80CFDB"/>
<path d="M70.0752 29.9364H68.5459V32.3692H70.0752V29.9364Z" fill="#80CFDB"/>
<path d="M51.2457 45.5292L65.998 34.613C66.1461 34.5019 66.3535 34.4982 66.509 34.6056L81.091 44.8219C81.4206 45.0515 81.2577 45.5514 80.8503 45.5625L51.516 46.2586C51.105 46.2697 50.9198 45.7661 51.2457 45.5255V45.5292Z" fill="#44C17A"/>
<path d="M51.6532 45.6107L66.013 35.9054C66.1574 35.8054 66.3611 35.8054 66.5092 35.898L80.7024 44.9849C81.0208 45.1886 80.8653 45.6329 80.4691 45.644L51.9198 46.2624C51.5199 46.2698 51.3384 45.8255 51.6569 45.6107H51.6532Z" fill="#F2ECDE"/>
<path d="M68.0785 34.3317C68.0785 35.3833 67.2268 35.2537 66.1789 35.2537C65.131 35.2537 64.2793 35.3833 64.2793 34.3317C64.2793 33.28 65.131 32.4247 66.1789 32.4247C67.2268 32.4247 68.0785 33.2763 68.0785 34.3317Z" fill="#EFBB55"/>
<path d="M53.0309 46.1291L66.028 37.3421C66.1613 37.2532 66.3428 37.2495 66.4761 37.3384L79.3214 45.5625C79.6103 45.7477 79.4696 46.1513 79.1104 46.1587L53.2679 46.7178C52.905 46.7252 52.7421 46.3216 53.0309 46.1254V46.1291Z" fill="white"/>
<path d="M63.6318 41.9966H62.1025V44.4294H63.6318V41.9966Z" fill="#80CFDB"/>
<path d="M66.8535 41.9966H65.3242V44.4294H66.8535V41.9966Z" fill="#80CFDB"/>
<path d="M70.0752 41.9966H68.5459V44.4294H70.0752V41.9966Z" fill="#80CFDB"/>
<path d="M27.8878 54.9273L30.091 54.0127C30.839 53.3758 40.311 45.3257 41.3589 45.1221C42.4513 44.911 88.8856 45.4109 91.5072 45.6293C93.729 45.8145 97.2134 52.2649 98.9945 54.2349C99.0834 54.3349 99.1648 54.4237 99.2315 54.4978L101.479 55.8419C102.279 56.0715 102.368 56.4973 101.305 56.4862L28.5136 55.5975C27.4249 55.5864 26.9991 55.1273 27.8878 54.9236V54.9273Z" fill="#44C17A"/>
<path d="M34.8054 52.8536L47.1916 43.689C47.3175 43.5964 47.4916 43.5927 47.6212 43.6853L59.8666 52.2649C60.1444 52.4574 60.0073 52.8796 59.6667 52.887L35.035 53.472C34.6907 53.4794 34.5351 53.0573 34.8091 52.8574L34.8054 52.8536Z" fill="#44C17A"/>
<path d="M35.1499 52.9202L47.2065 44.7701C47.3287 44.6887 47.499 44.685 47.6249 44.7664L59.5408 52.3981C59.8111 52.5684 59.6778 52.9424 59.3446 52.9498L35.372 53.4682C35.0351 53.4756 34.8832 53.1016 35.1499 52.9202Z" fill="#F2ECDE"/>
<path d="M48.9433 43.4482C48.9433 44.3332 48.2286 44.2221 47.351 44.2221C46.4734 44.2221 45.7588 44.3295 45.7588 43.4482C45.7588 42.5669 46.4734 41.8485 47.351 41.8485C48.2286 41.8485 48.9433 42.5669 48.9433 43.4482Z" fill="#EFBB55"/>
<path d="M36.3046 53.0238L47.2171 45.9735C47.3281 45.9031 47.48 45.8994 47.5947 45.9698L58.3813 52.572C58.6257 52.7202 58.5035 53.0423 58.2035 53.0497L36.5046 53.4978C36.2009 53.5052 36.0639 53.1793 36.3046 53.0238Z" fill="white"/>
<path d="M45.2068 49.8875H43.9219V51.9277H45.2068V49.8875Z" fill="#80CFDB"/>
<path d="M47.9138 49.8875H46.6289V51.9277H47.9138V49.8875Z" fill="#80CFDB"/>
<path d="M50.616 49.8875H49.3311V51.9277H50.616V49.8875Z" fill="#80CFDB"/>
<path d="M71.2703 52.8536L83.6565 43.689C83.7824 43.5964 83.9564 43.5927 84.086 43.6853L96.3315 52.2649C96.6092 52.4574 96.4722 52.8796 96.1315 52.887L71.4999 53.472C71.1555 53.4794 71 53.0573 71.274 52.8574L71.2703 52.8536Z" fill="#44C17A"/>
<path d="M71.6118 52.9202L83.6684 44.7701C83.7906 44.6887 83.9609 44.685 84.0868 44.7664L96.0027 52.3981C96.273 52.5684 96.1397 52.9424 95.8065 52.9498L71.8339 53.4682C71.497 53.4756 71.3452 53.1016 71.6118 52.9202Z" fill="#F2ECDE"/>
<path d="M85.4042 43.4482C85.4042 44.3332 84.6896 44.2221 83.812 44.2221C82.9344 44.2221 82.2197 44.3295 82.2197 43.4482C82.2197 42.5669 82.9344 41.8485 83.812 41.8485C84.6896 41.8485 85.4042 42.5669 85.4042 43.4482Z" fill="#EFBB55"/>
<path d="M72.7704 53.0238L83.6829 45.9735C83.794 45.9031 83.9458 45.8994 84.0606 45.9698L94.8471 52.572C95.0915 52.7202 94.9693 53.0423 94.6694 53.0497L72.9704 53.4978C72.6668 53.5052 72.5298 53.1793 72.7704 53.0238Z" fill="white"/>
<path d="M81.6726 49.8875H80.3877V51.9277H81.6726V49.8875Z" fill="#80CFDB"/>
<path d="M84.3747 49.8875H83.0898V51.9277H84.3747V49.8875Z" fill="#80CFDB"/>
<path d="M87.0779 49.8875H85.793V51.9277H87.0779V49.8875Z" fill="#80CFDB"/>
<path d="M45.5502 23.7007C44.5282 23.7007 43.6173 24.3968 44.4134 24.93C45.2095 25.4632 46.3796 25.13 46.487 26.326C46.6796 28.4367 43.147 27.785 42.3249 26.3742C41.8028 25.4781 41.4659 24.1561 42.4027 23.0082C43.6913 21.4234 45.6835 23.0304 45.6835 23.0304L45.5465 23.7044L45.5502 23.7007Z" fill="#EFBB55"/>
<path d="M41.7967 43.5334C41.1043 43.5334 40.4896 44.0037 41.0265 44.3629C41.5634 44.7221 42.3596 44.4962 42.4299 45.3071C42.5595 46.7364 40.1674 46.2921 39.612 45.3367C39.2602 44.7295 39.0307 43.8371 39.6639 43.0595C40.5377 41.9893 41.8856 43.0743 41.8856 43.0743L41.793 43.5297L41.7967 43.5334Z" fill="#EFBB55"/>
<path d="M84.7491 23.7007C85.7711 23.7007 86.682 24.3968 85.8859 24.93C85.0898 25.4632 83.9197 25.13 83.8123 26.326C83.6197 28.4367 87.1523 27.785 87.9743 26.3742C88.4964 25.4781 88.8334 24.1561 87.8966 23.0082C86.608 21.4234 84.6158 23.0304 84.6158 23.0304L84.7528 23.7044L84.7491 23.7007Z" fill="#EFBB55"/>
<path d="M90.5523 43.8332C91.2448 43.8332 91.8594 44.3035 91.3225 44.6627C90.7856 45.0219 89.9895 44.796 89.9191 45.6069C89.7895 47.0362 92.1816 46.5919 92.737 45.6365C93.0888 45.0293 93.3184 44.1369 92.6852 43.3593C91.8113 42.2891 90.4635 43.3741 90.4635 43.3741L90.556 43.8295L90.5523 43.8332Z" fill="#EFBB55"/>
<path d="M53.3234 5.24169C51.9792 5.24169 50.7832 6.1563 51.8311 6.85615C52.879 7.556 54.4157 7.11906 54.5601 8.69279C54.8119 11.4663 50.1685 10.6072 49.091 8.75203C48.4059 7.57451 47.9616 5.83785 49.1946 4.32707C50.8906 2.24605 53.5085 4.3567 53.5085 4.3567L53.3308 5.24169H53.3234Z" fill="#EFBB55"/>
<path d="M77.7251 5.24169C79.0693 5.24169 80.2653 6.1563 79.2174 6.85615C78.1695 7.556 76.6328 7.11906 76.4884 8.69279C76.2366 11.4663 80.88 10.6072 81.9576 8.75203C82.6426 7.57451 83.0869 5.83785 81.8539 4.32707C80.1579 2.24605 77.54 4.3567 77.54 4.3567L77.7177 5.24169H77.7251Z" fill="#EFBB55"/>
</svg>
