<svg width="163" height="154" viewBox="0 0 163 154" fill="none" xmlns="http://www.w3.org/2000/svg">
<path d="M57.5905 60.3652C55.1137 58.0561 54.9804 54.1622 57.2991 51.6747L62.3845 46.2395C64.6896 43.7584 68.5769 43.6249 71.0602 45.9476L75.2844 49.8948L61.8284 64.306L57.6041 60.3588L57.5905 60.3652Z" fill="#006398"/>
<path d="M67.3067 68.0954L64.3504 65.3304L76.4471 52.3734L79.4034 55.1385C86.7068 50.5049 96.4875 51.1892 103.09 57.3758L138.642 90.6863L153.475 104.587C156.083 107.034 156.231 111.137 153.789 113.749L130.665 138.511C128.222 141.124 124.126 141.272 121.519 138.825L108.82 126.929L71.1256 91.6341C64.5236 85.4476 63.1824 75.7217 67.2995 68.1155L67.3067 68.0954Z" fill="white"/>
<ellipse cx="9.95853" cy="9.97557" rx="9.95853" ry="9.97557" fill="white"/>
<ellipse cx="28.8797" cy="32.9194" rx="4.97927" ry="4.98779" fill="white"/>
</svg>
