<svg width="48" height="48" viewBox="0 0 48 48" fill="none" xmlns="http://www.w3.org/2000/svg">
<path d="M5.70178 18.3404V30.0526H21.2333V16.7447H7.29666C6.41456 16.7447 5.70178 17.4598 5.70178 18.3404Z" fill="#4B4B4B"/>
<path d="M40.7033 16.7447H26.7667V30.0527H42.2982V18.3405C42.2982 17.4598 41.5854 16.7447 40.7033 16.7447Z" fill="#4B4B4B"/>
<path d="M5.70178 46.405C5.70178 47.2871 6.41466 48 7.29666 48H21.2333V34.6927H5.70178V46.405Z" fill="#4B4B4B"/>
<path d="M26.7667 48H40.7033C41.5854 48 42.2982 47.2871 42.2982 46.405V34.6928H26.7667V48Z" fill="#4B4B4B"/>
<path d="M29.5615 12.9633C29.8391 12.6487 30.062 12.307 30.2177 11.9455C30.3731 11.5844 30.4615 11.2023 30.4615 10.816C30.4618 10.5593 30.4219 10.3015 30.339 10.0541C30.2464 9.77796 30.112 9.52728 29.9457 9.31024C29.6965 8.98369 29.3773 8.7324 29.0243 8.56348C28.6714 8.3949 28.2837 8.30768 27.8882 8.30768C27.5983 8.30768 27.3048 8.35486 27.0191 8.45208C26.5901 8.59742 26.1787 8.85807 25.832 9.23274C25.4846 9.60774 25.2033 10.0951 25.0185 10.6842C24.7771 11.4504 24.0543 13.1887 24.0343 13.2313H23.9655C23.9452 13.1887 23.2227 11.4504 22.9813 10.6842C22.8578 10.2912 22.6924 9.94363 22.492 9.64487C22.1919 9.19626 21.8139 8.85741 21.4019 8.63583C20.9898 8.41367 20.5458 8.30739 20.1115 8.30768C19.5847 8.30801 19.0701 8.46274 18.6349 8.75986C18.4177 8.90811 18.22 9.09289 18.0543 9.31024C17.8877 9.52728 17.7533 9.77792 17.6607 10.0541C17.5775 10.3018 17.5381 10.5596 17.5385 10.816C17.5385 11.0731 17.5775 11.3293 17.6497 11.5779C17.7764 12.0133 18.0018 12.4264 18.3038 12.8037C18.7577 13.3696 19.3855 13.857 20.1481 14.2068C20.9103 14.5562 21.8088 14.7671 22.8011 14.7671C23.3632 14.7668 23.9782 14.772 23.9998 14.7671C24.0214 14.772 24.636 14.7668 25.1988 14.7671C25.9544 14.7671 26.6563 14.6451 27.2844 14.4322C28.2271 14.1124 29.0053 13.5914 29.5615 12.9633ZM26.4575 10.3228C26.6561 10.0266 26.8874 9.82509 27.1316 9.69332C27.376 9.56154 27.6349 9.50051 27.8882 9.49986C28.1952 9.49986 28.491 9.59159 28.7279 9.75439C28.8474 9.83579 28.9521 9.93429 29.0396 10.0489C29.1271 10.1636 29.1978 10.2944 29.2481 10.4439C29.2875 10.5612 29.3066 10.6842 29.3069 10.8157C29.3069 10.9475 29.2869 11.088 29.2441 11.2352C29.1696 11.4933 29.0243 11.772 28.8064 12.0434C28.4812 12.45 27.9957 12.8363 27.3835 13.1166C26.7708 13.3976 26.0326 13.5743 25.1988 13.5743C25.1541 13.5743 25.1106 13.5737 25.0687 13.5723C25.3719 13.0472 25.7384 12.252 26.1161 11.0524C26.2081 10.7608 26.325 10.5208 26.4575 10.3228ZM18.8372 11.4614C18.7381 11.2314 18.6928 11.013 18.6928 10.816C18.6928 10.6842 18.7122 10.5615 18.7516 10.4446L18.7518 10.4439C18.8019 10.2944 18.8725 10.1636 18.9604 10.0489C19.0914 9.87711 19.2621 9.74078 19.4599 9.64614C19.6575 9.55154 19.8814 9.49981 20.1115 9.49981C20.2803 9.49981 20.4517 9.52728 20.6195 9.58478C20.8715 9.67069 21.1151 9.82214 21.3336 10.0576C21.5515 10.2931 21.746 10.6151 21.8838 11.0527C22.2612 12.252 22.628 13.0472 22.9312 13.5727C22.889 13.5737 22.8458 13.5743 22.8011 13.5743C22.1659 13.5743 21.5859 13.472 21.0747 13.2988C20.3081 13.0398 19.6966 12.6189 19.2905 12.159C19.087 11.929 18.9354 11.6903 18.8372 11.4614Z" fill="#4B4B4B"/>
</svg>
