<svg width="40" height="40" viewBox="0 0 40 40" fill="none" xmlns="http://www.w3.org/2000/svg">
<mask id="mask0_281_215" style="mask-type:alpha" maskUnits="userSpaceOnUse" x="0" y="0" width="40" height="40">
<rect width="40" height="40" rx="4" fill="white"/>
</mask>
<g mask="url(#mask0_281_215)">
</g>
<g clip-path="url(#clip0_281_215)">
<path d="M5.14288 14.2L14.2857 10.2333L19.7087 8.53333L35.4286 14.2L34.8572 20.7939L18.5434 27.8L5.14288 21.9616V14.2Z" fill="#B6E9EB"/>
<path d="M6.28571 31.2V21L33.7143 19.8666V31.7666L20 36.8666L6.28571 31.2Z" fill="#B6E9EB"/>
<path d="M35.5514 13.4668L31.9751 12.0027C31.6336 12.3108 31.1442 12.5918 30.4483 12.7052C30.3311 12.7249 30.1832 12.7372 30.015 12.7495L33.9787 14.3713L30.8256 15.6628C31.2079 15.9068 31.5214 16.099 31.733 16.2247C31.7661 16.2444 31.7942 16.2666 31.8248 16.2863L34.5292 15.1797V19.8502L28.5621 22.2927C28.5391 22.3839 28.5187 22.4578 28.506 22.4923C28.3072 23.106 27.7285 23.5152 27.0709 23.5152C26.7574 23.5152 26.454 23.424 26.1966 23.2589L20.2473 25.6939V21.0234L23.1098 19.8527C22.9033 19.584 22.7121 19.3228 22.5235 19.0615L19.7578 20.1928L17.372 19.2168C17.1808 19.4781 16.9845 19.7393 16.7755 20.0055L19.2659 21.0234V25.6939L13.5944 23.3722C13.3879 23.4634 13.1662 23.5152 12.9368 23.5152C12.2893 23.5152 11.7234 23.1159 11.5144 22.5219L6.78604 20.5872V20.5576L5.47841 20.0228V15.3818L8.01466 16.4194C8.09368 16.3504 8.17779 16.2814 8.2721 16.2272C8.44544 16.1237 8.69269 15.9733 8.98582 15.786L5.92958 14.5364L10.2578 12.7643C9.88052 12.752 9.67915 12.7274 9.55679 12.7076C8.9221 12.6041 8.46328 12.3626 8.12681 12.089L4 13.7748V20.9667L5.30763 21.5016V32.0429L19.8624 38L34.6924 31.932V21.3783L36 20.8435V13.6516L35.5514 13.4668V13.4668ZM19.2633 36.2057L6.78095 31.0989V21.6174L19.2608 26.7242V36.2033L19.2633 36.2057ZM33.2191 30.9856L20.2447 36.2944V26.7242L33.2191 21.4153V30.9856V30.9856Z" fill="#207CAF"/>
<path d="M9.76329 11.4877C10.6045 11.6232 13.9895 11.4507 16.4926 11.2954C13.9207 14.1791 10.1609 16.5451 8.93741 17.2747C8.68251 17.4275 8.80487 17.637 8.96035 17.6863C9.11584 17.7331 11.6954 18.8299 11.6954 18.8299C11.8458 18.894 11.958 19.0221 11.9936 19.1749C11.9936 19.1749 12.6385 21.9009 12.7125 22.1227C12.7838 22.3445 13.0413 22.3051 13.1509 22.1941C17.2548 18.1102 19.09 14.1495 19.8343 12.0718C19.8879 12.0767 19.9414 12.0792 19.9975 12.0792C20.0535 12.0792 20.1045 12.0742 20.1581 12.0718C20.9049 14.1495 22.7376 18.1102 26.8415 22.1941C26.9537 22.3051 27.2086 22.3445 27.2799 22.1227C27.3513 21.9009 27.9987 19.1749 27.9987 19.1749C28.037 19.0197 28.1466 18.8915 28.297 18.8299C28.297 18.8299 30.874 17.7331 31.032 17.6863C31.1875 17.6395 31.3099 17.4275 31.055 17.2747C29.8315 16.5451 26.0666 14.1741 23.4947 11.288C25.957 11.4458 29.3778 11.6257 30.2317 11.4877C31.6056 11.2658 31.682 10.0113 31.5291 9.49621C31.4195 9.12651 30.1475 5.98407 28.9342 4.62604C28.4525 4.08382 27.4839 3.74123 26.7982 4.25634C25.4523 5.26685 23.3545 6.92557 22.2227 7.82271C21.9347 7.14 21.3204 6.62242 19.9975 6.62242C18.6745 6.62242 18.0348 7.15725 17.7544 7.85968C16.7322 7.03155 14.6064 5.31861 13.1942 4.25634C12.5085 3.73876 11.5399 4.08382 11.0582 4.62604C9.84485 5.98407 8.57291 9.12651 8.4633 9.49621C8.31036 10.0138 8.38683 11.2683 9.76074 11.4901L9.76329 11.4877Z" fill="#FFA63E"/>
</g>
<defs>
<clipPath id="clip0_281_215">
<rect width="32" height="34" fill="white" transform="translate(4 4)"/>
</clipPath>
</defs>
</svg>
