<svg width="40" height="40" viewBox="0 0 40 40" fill="none" xmlns="http://www.w3.org/2000/svg">
<mask id="mask0_281_218" style="mask-type:alpha" maskUnits="userSpaceOnUse" x="0" y="0" width="40" height="40">
<rect width="40" height="40" fill="#D9D9D9"/>
</mask>
<g mask="url(#mask0_281_218)">
<rect x="2" y="3" width="35" height="35" rx="4" fill="white"/>
<path d="M14.7743 13.0123H11.9241V15.8722H14.7743V13.0123Z" fill="#207CAF"/>
<path d="M17.1346 19.0454H9.56379C9.1208 19.0454 8.76166 18.685 8.76166 18.2405V10.644C8.76166 10.1995 9.1208 9.83911 9.56379 9.83911H17.1346C17.5776 9.83911 17.9367 10.1995 17.9367 10.644V18.2405C17.9367 18.685 17.5776 19.0454 17.1346 19.0454ZM10.3659 17.4357H16.3325V11.4488H10.3659V17.4357Z" fill="#207CAF"/>
<path d="M22.9746 21.0249H20.1243V23.8848H22.9746V21.0249Z" fill="#207CAF"/>
<path d="M22.9746 27.4963H20.1243V30.3562H22.9746V27.4963Z" fill="#207CAF"/>
<path d="M29.4362 27.4963H26.586V30.3562H29.4362V27.4963Z" fill="#207CAF"/>
<path d="M29.4362 21.0249H26.586V23.8848H29.4362V21.0249Z" fill="#207CAF"/>
<path d="M26.2054 24.2605H23.3552V27.1204H26.2054V24.2605Z" fill="#207CAF"/>
<path d="M26.2053 13.0123H23.3551V15.8722H26.2053V13.0123Z" fill="#207CAF"/>
<path d="M28.5656 19.0454H20.9948C20.5518 19.0454 20.1927 18.685 20.1927 18.2405V10.644C20.1927 10.1995 20.5518 9.83911 20.9948 9.83911H28.5656C29.0086 9.83911 29.3678 10.1995 29.3678 10.644V18.2405C29.3678 18.685 29.0086 19.0454 28.5656 19.0454ZM21.7969 17.4357H27.7635V11.4488H21.7969V17.4357Z" fill="#207CAF"/>
<path d="M14.7743 24.2605H11.9241V27.1204H14.7743V24.2605Z" fill="#207CAF"/>
<path d="M17.1346 30.2936H9.56379C9.1208 30.2936 8.76166 29.9332 8.76166 29.4887V21.8922C8.76166 21.4477 9.1208 21.0873 9.56379 21.0873H17.1346C17.5776 21.0873 17.9367 21.4477 17.9367 21.8922V29.4887C17.9367 29.9332 17.5776 30.2936 17.1346 30.2936ZM10.3659 28.6839H16.3325V22.6971H10.3659V28.6839Z" fill="#207CAF"/>
<path d="M5.06951 16.4223C4.47882 16.4223 4 15.9418 4 15.3491V6.07314C4 5.48044 4.47882 5 5.06951 5H14.3141C14.9048 5 15.3836 5.48044 15.3836 6.07314C15.3836 6.66583 14.9048 7.14628 14.3141 7.14628H6.13902V15.3491C6.13902 15.9418 5.6602 16.4223 5.06951 16.4223Z" fill="#207CAF"/>
<path d="M33.9304 36H24.6858C24.0951 36 23.6163 35.5196 23.6163 34.9269C23.6163 34.3342 24.0951 33.8537 24.6858 33.8537H32.8609V25.6508C32.8609 25.0581 33.3397 24.5776 33.9304 24.5776C34.5211 24.5776 34.9999 25.0581 34.9999 25.6508V34.9269C34.9999 35.5196 34.5211 36 33.9304 36Z" fill="#207CAF"/>
<path d="M14.3141 36H5.06951C4.47882 36 4 35.5195 4 34.9268V25.6508C4 25.0581 4.47882 24.5777 5.06951 24.5777C5.6602 24.5777 6.13902 25.0581 6.13902 25.6508V33.8537H14.3141C14.9048 33.8537 15.3836 34.3341 15.3836 34.9268C15.3836 35.5195 14.9048 36 14.3141 36Z" fill="#207CAF"/>
<path d="M33.9305 16.4223C33.3398 16.4223 32.861 15.9418 32.861 15.3491V7.14628H24.6858C24.0951 7.14628 23.6163 6.66583 23.6163 6.07314C23.6163 5.48044 24.0951 5 24.6858 5H33.9305C34.5212 5 35 5.48044 35 6.07314V15.3491C35 15.9418 34.5212 16.4223 33.9305 16.4223Z" fill="#207CAF"/>
</g>
</svg>
