<svg width="100" height="100" viewBox="0 0 100 100" fill="none" xmlns="http://www.w3.org/2000/svg">
<path d="M50 100C77.6142 100 100 77.6142 100 50C100 22.3858 77.6142 0 50 0C22.3858 0 0 22.3858 0 50C0 77.6142 22.3858 100 50 100Z" fill="#207CAF"/>
<path d="M45.3057 69.0324C44.1843 69.0343 43.0927 68.67 42.1956 67.9946L42.1399 67.9527L30.4256 58.955C29.8831 58.5374 29.4278 58.0165 29.0857 57.4222C28.7436 56.8279 28.5215 56.1718 28.432 55.4913C28.3425 54.8108 28.3873 54.1192 28.5639 53.4561C28.7406 52.793 29.0456 52.1713 29.4615 51.6266C29.8775 51.0818 30.3962 50.6246 30.9881 50.2812C31.58 49.9377 32.2335 49.7147 32.9112 49.6248C33.5889 49.5349 34.2777 49.5799 34.9381 49.7573C35.5985 49.9347 36.2177 50.2409 36.7602 50.6585L44.3478 56.5008L62.2777 33.0138C62.6934 32.4693 63.2119 32.0123 63.8036 31.669C64.3952 31.3257 65.0484 31.1027 65.7259 31.0129C66.4034 30.923 67.0918 30.9681 67.752 31.1454C68.4121 31.3227 69.031 31.6288 69.5733 32.0462L69.5748 32.0474L69.4635 32.2025L69.5778 32.0474C70.6719 32.8917 71.3877 34.1373 71.5682 35.5109C71.7486 36.8846 71.379 38.274 70.5403 39.3743L49.4509 66.9878C48.963 67.6241 48.3357 68.1389 47.6176 68.4924C46.8995 68.8459 46.11 69.0286 45.3103 69.0262L45.3057 69.0324Z" fill="white"/>
</svg>
