<svg width="100" height="100" viewBox="0 0 100 100" fill="none" xmlns="http://www.w3.org/2000/svg">
<path d="M50 0C45.4379 0 41.7386 3.69766 41.7386 8.25937C41.7386 12.8215 45.4379 16.5187 50 16.5187C54.5621 16.5187 58.2579 12.8215 58.2579 8.25937C58.2579 3.69766 54.5621 0 50 0Z" fill="#207CAF"/>
<path d="M50 83.4812C45.4379 83.4812 41.7386 87.1787 41.7386 91.7406C41.7386 96.3027 45.4379 99.9999 50 99.9999C54.5621 99.9999 58.2579 96.3027 58.2579 91.7406C58.2579 87.1787 54.5621 83.4812 50 83.4812Z" fill="#207CAF"/>
<path d="M73.6733 73.6741C70.4499 76.9006 70.4499 82.1303 73.6733 85.3567C76.8998 88.5833 82.1314 88.5833 85.3546 85.3567C88.5812 82.1321 88.5812 76.9006 85.3546 73.6741C82.1279 70.4477 76.8998 70.4493 73.6733 73.6741Z" fill="#207CAF"/>
<path d="M16.5158 50.0001C16.5193 45.4399 12.82 41.7424 8.25791 41.7424C3.69583 41.7407 -0.00351324 45.4401 2.50625e-06 50.0018C-0.00351324 54.562 3.69232 58.2594 8.25791 58.2594C12.82 58.2594 16.5158 54.5622 16.5158 50.0001Z" fill="#207CAF" fill-opacity="0.3"/>
<path d="M91.7421 41.7406C87.18 41.7406 83.4842 45.44 83.4807 50C83.4807 54.5621 87.18 58.2593 91.7421 58.2611C96.3041 58.2611 100.003 54.5619 100 50C100.003 45.4398 96.3041 41.7406 91.7421 41.7406Z" fill="#207CAF"/>
<path d="M14.6454 73.6757C11.419 76.9005 11.419 82.132 14.6454 85.3566C17.8688 88.5831 23.0969 88.5831 26.3234 85.3566C29.5501 82.1302 29.5501 76.9005 26.3234 73.6739C23.1002 70.4476 17.8721 70.4476 14.6454 73.6757Z" fill="#207CAF" fill-opacity="0.5"/>
<path d="M85.3579 26.3278C88.5845 23.1012 88.5845 17.8699 85.3579 14.6434C82.1314 11.4186 76.8998 11.4168 73.6733 14.6434C70.4466 17.8699 70.4499 23.0994 73.6733 26.326C76.8998 29.5526 82.1314 29.5526 85.3579 26.3278Z" fill="#207CAF"/>
</svg>
