<svg width="40" height="40" viewBox="0 0 40 40" fill="none" xmlns="http://www.w3.org/2000/svg">
<path d="M32.9735 10.5209L33.5264 9.73873H33.5302L33.9784 9.10394C35.0349 7.60776 34.7011 5.52388 33.2152 4.44251C33.2152 4.44247 33.2151 4.44244 33.2151 4.4424C33.2148 4.44222 33.2146 4.44204 33.2143 4.44186L31.4185 3.13382L31.4176 3.13317C29.916 2.04114 27.8294 2.40031 26.7645 3.90774C26.7645 3.90783 26.7644 3.90791 26.7643 3.908C26.7643 3.90811 26.7642 3.90822 26.7641 3.90834L25.7634 5.32409L24.9095 6.53206L26.1055 7.40263L30.8659 10.8678L32.0956 11.763L32.9735 10.5209Z" fill="#207CAF" stroke="white" stroke-width="3"/>
<path d="M32.2027 11.1017L32.2944 10.972L33.1487 9.76395L31.9525 8.89318L27.6728 5.77788L26.4433 4.88292L25.5653 6.12451L25.4837 6.23994C22.744 5.67036 19.8119 6.73311 18.0863 9.17643C18.0862 9.17653 18.0861 9.17662 18.0861 9.17672L9.65288 21.1128L9.65281 21.1129L6.13558 26.092L6.13534 26.0924C5.04566 27.6359 5.38959 29.7807 6.92257 30.8955C6.92265 30.8956 6.92273 30.8957 6.92281 30.8957L15.104 36.8469L15.1043 36.8471C16.6522 37.9726 18.7983 37.6035 19.8964 36.049C19.8966 36.0487 19.8968 36.0485 19.8969 36.0482L22.9097 31.7865L22.91 31.786L31.8506 19.1297L31.8508 19.1295C33.5782 16.6833 33.6171 13.5355 32.2027 11.1017Z" fill="#E3FAFF" stroke="white" stroke-width="3"/>
<path d="M32.7531 8.23873C33.3398 7.40776 33.1509 6.25046 32.3321 5.65498L30.5353 4.34629C29.7165 3.75081 28.5762 3.94257 27.9894 4.77355L26.9883 6.1899L31.7486 9.65509L32.7498 8.23873H32.7531Z" fill="#207CAF"/>
<path d="M30.3702 11.095L31.0697 10.1059L26.79 6.9906L26.0906 7.97969C23.6905 7.04106 20.8794 7.82157 19.3114 10.042L10.878 21.9784L7.36073 26.9575C6.74083 27.8356 6.93973 29.0534 7.80495 29.6825L15.9864 35.6339C16.8516 36.263 18.0516 36.0612 18.6716 35.1831L21.6849 30.9206L30.6255 18.2642C32.1935 16.0438 32.0178 13.0934 30.3735 11.0883L30.3702 11.095Z" fill="#E3FAFF"/>
<path d="M33.1292 8.56824C33.1406 8.55519 33.1514 8.54148 33.1615 8.52714C33.9049 7.47443 33.6676 6.00827 32.6265 5.25083C32.6264 5.2508 32.6264 5.25078 32.6264 5.25076C32.6263 5.25071 32.6262 5.25066 32.6262 5.25061L30.8297 3.94213L30.8294 3.94191C29.783 3.18092 28.3272 3.42849 27.5811 4.48494C27.5811 4.48501 27.581 4.48508 27.581 4.48514L26.58 5.9013C26.4222 6.12458 26.473 6.43323 26.694 6.59414L31.4544 10.0593C31.5626 10.1381 31.6978 10.1702 31.8298 10.1484C31.9619 10.1267 32.0797 10.053 32.1569 9.94369L33.1292 8.56824Z" fill="#207CAF" stroke="#207CAF" stroke-linejoin="round"/>
<path d="M31.0339 18.5527C32.6567 16.2547 32.5573 13.2379 30.9955 11.0768L31.4779 10.3946C31.6358 10.1713 31.5851 9.86261 31.364 9.70166L27.0843 6.58636C26.9761 6.50762 26.8409 6.47551 26.7089 6.49723C26.5768 6.51894 26.459 6.59267 26.3818 6.70191L25.9008 7.38211C23.3762 6.57629 20.5251 7.4565 18.903 9.75347C18.903 9.7535 18.9029 9.75353 18.9029 9.75356L10.4696 21.6899L10.4696 21.6899L6.95235 26.669L6.95227 26.6691C6.17577 27.769 6.42301 29.2958 7.51082 30.0869C7.51085 30.0869 7.51087 30.0869 7.5109 30.0869L15.6923 36.0382L15.6924 36.0383C16.7852 36.833 18.3008 36.5752 19.08 35.4715L22.0932 31.2092L22.0933 31.2091L31.0339 18.5527L31.0339 18.5527Z" fill="#E3FAFF" stroke="#207CAF" stroke-linejoin="round"/>
<path d="M31.0487 15.5396C31.3002 14.2908 30.7551 13.1231 29.8314 12.9315C28.9076 12.74 27.9548 13.597 27.7034 14.8458C27.4519 16.0946 27.9969 17.2622 28.9207 17.4538C29.8445 17.6454 30.7972 16.7884 31.0487 15.5396Z" fill="white"/>
<path d="M25.8525 16.9623C26.2186 16.9623 26.5155 16.661 26.5155 16.2894C26.5155 15.9178 26.2186 15.6166 25.8525 15.6166C25.4863 15.6166 25.1895 15.9178 25.1895 16.2894C25.1895 16.661 25.4863 16.9623 25.8525 16.9623Z" fill="white"/>
</svg>
