<svg width="26" height="26" viewBox="0 0 26 26" fill="none" xmlns="http://www.w3.org/2000/svg">
<path d="M24.3728 14.8003C24.8007 14.7667 25.1315 14.4098 25.1315 13.98V12.0199C25.1315 11.5902 24.8007 11.2333 24.3728 11.1997L21.7756 10.996C21.6111 10.9829 21.4691 10.8801 21.4037 10.7269L20.5498 8.66406C20.4863 8.51084 20.5124 8.33707 20.6208 8.21187L22.3156 6.23123C22.594 5.90423 22.5753 5.41841 22.2726 5.11571L20.8861 3.72926C20.5834 3.42655 20.0958 3.406 19.7706 3.68628L17.79 5.38104C17.6648 5.48755 17.4891 5.51558 17.3378 5.45205L15.2749 4.59626C15.1217 4.53273 15.0171 4.38885 15.004 4.22442L14.8022 1.62716C14.7686 1.19926 14.4117 0.86853 13.9819 0.86853H12.0218C11.592 0.86853 11.2352 1.19926 11.2015 1.62716L10.9979 4.22442C10.9848 4.38885 10.8801 4.53273 10.7288 4.59626L8.66592 5.45205C8.5127 5.51558 8.33893 5.48755 8.21187 5.38104L6.23122 3.68628C5.90609 3.40787 5.42027 3.42655 5.1157 3.72926L3.72925 5.11571C3.42655 5.41841 3.40786 5.90423 3.68627 6.23123L5.38104 8.21187C5.48754 8.33707 5.51557 8.51084 5.45204 8.66406L4.59812 10.7269C4.53646 10.8801 4.39071 10.9848 4.22815 10.996L1.62902 11.1997C1.20112 11.2333 0.870392 11.5902 0.870392 12.0199V13.98C0.870392 14.4098 1.20112 14.7667 1.62902 14.8003L4.22815 15.0021C4.39258 15.0152 4.53646 15.1198 4.59812 15.2731L5.45204 17.3359C5.51557 17.4892 5.48754 17.6648 5.38104 17.79L3.68627 19.7706C3.40786 20.0958 3.42655 20.5816 3.72925 20.8861L5.1157 22.2726C5.42027 22.5753 5.90609 22.594 6.23122 22.3156L8.21187 20.6208C8.33706 20.5143 8.5127 20.4863 8.66592 20.5498L10.7288 21.4037C10.882 21.4673 10.9866 21.6111 10.9979 21.7756L11.2015 24.3728C11.2352 24.8007 11.592 25.1315 12.0218 25.1315H13.9819C14.4117 25.1315 14.7686 24.8007 14.8022 24.3728L15.004 21.7756C15.0171 21.6111 15.1217 21.4673 15.2749 21.4037L17.3378 20.5498C17.4891 20.4863 17.6667 20.5143 17.79 20.6208L19.7706 22.3156C20.0958 22.594 20.5834 22.5753 20.8861 22.2726L22.2726 20.8861C22.5772 20.5816 22.594 20.0958 22.3156 19.7706L20.6208 17.79C20.5143 17.6648 20.4863 17.4892 20.5498 17.3359L21.4037 15.2731C21.4673 15.1198 21.6093 15.0152 21.7756 15.0021L24.3728 14.8003V14.8003ZM12.9991 17.1005C11.9041 17.1005 10.8745 16.6745 10.0991 15.9009C9.32551 15.1255 8.89762 14.0959 8.89762 13.0009C8.89762 11.906 9.32364 10.8764 10.0991 10.1028C10.8727 9.32739 11.9041 8.90136 12.9991 8.90136C14.094 8.90136 15.1236 9.32739 15.899 10.1028C16.6726 10.8764 17.1005 11.906 17.1005 13.0009C17.1005 14.0959 16.6745 15.1255 15.899 15.9009C15.1254 16.6745 14.0959 17.1005 12.9991 17.1005V17.1005Z" fill="#C29217"/>
<path d="M24.3728 14.8003C24.8007 14.7667 25.1315 14.4098 25.1315 13.98V12.0199C25.1315 11.5902 24.8007 11.2333 24.3728 11.1997L21.7756 10.996C21.6111 10.9829 21.4691 10.8801 21.4037 10.7269L20.5498 8.66406C20.4863 8.51084 20.5124 8.33707 20.6208 8.21187L22.3156 6.23123C22.594 5.90423 22.5753 5.41841 22.2726 5.11571L20.8861 3.72926C20.5834 3.42655 20.0958 3.406 19.7706 3.68628L17.79 5.38104C17.6648 5.48755 17.4891 5.51558 17.3378 5.45205L15.2749 4.59626C15.1217 4.53273 15.0171 4.38885 15.004 4.22442L14.8022 1.62716C14.7686 1.19926 14.4117 0.86853 13.9819 0.86853H12.0218C11.592 0.86853 11.2352 1.19926 11.2015 1.62716L10.9979 4.22442C10.9848 4.38885 10.8801 4.53273 10.7288 4.59626L8.66592 5.45205C8.5127 5.51558 8.33893 5.48755 8.21187 5.38104L6.23122 3.68628C5.90609 3.40787 5.42027 3.42655 5.1157 3.72926L3.72925 5.11571C3.42655 5.41841 3.40786 5.90423 3.68627 6.23123L5.38104 8.21187C5.48754 8.33707 5.51557 8.51084 5.45204 8.66406L4.59812 10.7269C4.53646 10.8801 4.39071 10.9848 4.22815 10.996L1.62902 11.1997C1.20112 11.2333 0.870392 11.5902 0.870392 12.0199V13.98C0.870392 14.4098 1.20112 14.7667 1.62902 14.8003L4.22815 15.0021C4.39258 15.0152 4.53646 15.1198 4.59812 15.2731L5.45204 17.3359C5.51557 17.4892 5.48754 17.6648 5.38104 17.79L3.68627 19.7706C3.40786 20.0958 3.42655 20.5816 3.72925 20.8861L5.1157 22.2726C5.42027 22.5753 5.90609 22.594 6.23122 22.3156L8.21187 20.6208C8.33706 20.5143 8.5127 20.4863 8.66592 20.5498L10.7288 21.4037C10.882 21.4673 10.9866 21.6111 10.9979 21.7756L11.2015 24.3728C11.2352 24.8007 11.592 25.1315 12.0218 25.1315H13.9819C14.4117 25.1315 14.7686 24.8007 14.8022 24.3728L15.004 21.7756C15.0171 21.6111 15.1217 21.4673 15.2749 21.4037L17.3378 20.5498C17.4891 20.4863 17.6667 20.5143 17.79 20.6208L19.7706 22.3156C20.0958 22.594 20.5834 22.5753 20.8861 22.2726L22.2726 20.8861C22.5772 20.5816 22.594 20.0958 22.3156 19.7706L20.6208 17.79C20.5143 17.6648 20.4863 17.4892 20.5498 17.3359L21.4037 15.2731C21.4673 15.1198 21.6093 15.0152 21.7756 15.0021L24.3728 14.8003V14.8003ZM12.9991 17.1005C11.9041 17.1005 10.8745 16.6745 10.0991 15.9009C9.32551 15.1255 8.89762 14.0959 8.89762 13.0009C8.89762 11.906 9.32364 10.8764 10.0991 10.1028C10.8727 9.32739 11.9041 8.90136 12.9991 8.90136C14.094 8.90136 15.1236 9.32739 15.899 10.1028C16.6726 10.8764 17.1005 11.906 17.1005 13.0009C17.1005 14.0959 16.6745 15.1255 15.899 15.9009C15.1254 16.6745 14.0959 17.1005 12.9991 17.1005V17.1005Z" fill="#C29217"/>
</svg>
