<svg width="130" height="80" viewBox="0 0 130 80" fill="none" xmlns="http://www.w3.org/2000/svg">
<mask id="mask0_486_456" style="mask-type:alpha" maskUnits="userSpaceOnUse" x="0" y="0" width="130" height="80">
<rect width="130" height="80" fill="#D9D9D9"/>
</mask>
<g mask="url(#mask0_486_456)">
</g>
<g clip-path="url(#clip0_486_456)">
<path d="M46.2753 21.0413C50.8802 19.5213 67.3062 14.5027 74.5203 16.3285C73.2913 22.1071 71.6044 29.7093 72.3712 36.2479C73.1379 42.7865 46.2753 21.0413 46.2753 21.0413Z" fill="#006E9E"/>
<path d="M102.139 46.4664C102.522 43.2889 110.014 26.3221 107.337 26.1954C104.66 26.0687 98.3181 34.4266 91.7722 39.2224C71.0108 43.4352 33.8256 8.08207 29.3674 13.6991C28.0924 15.3043 23.4481 22.9458 23.1151 32.6379C23.1633 32.3082 23.2137 31.9718 23.2751 31.6224C23.5182 30.2335 29.8647 22.0809 49.0094 36.0033C46.5777 44.9202 30.2569 47.3444 24.6859 42.6512C24.6859 42.6512 24.5325 42.5376 24.3135 42.2624C25.17 45.1561 26.5305 48.1087 28.5481 51.0417C40.275 68.0697 63.6566 67.5149 82.339 55.617C86.9286 52.695 89.0952 49.264 91.0077 50.2795C92.9202 51.2951 101.843 56.6325 104.264 55.8704C106.115 54.3918 101.758 49.644 102.139 46.4664Z" fill="#207CAF"/>
<path d="M24.688 42.6511C30.259 47.3443 46.5777 44.9202 49.0116 36.0033C29.8647 22.0809 23.5182 30.2334 23.275 31.6224C23.2137 31.9718 23.1611 32.3081 23.1151 32.6379C23.0099 35.6844 23.3298 38.9341 24.3156 42.2624C24.5347 42.5375 24.688 42.6511 24.688 42.6511Z" fill="#CC1948"/>
<path d="M60.9444 34.4069C64.3707 35.2346 75.8982 36.2697 79.7408 36.2697C78.0802 40.8254 73.9244 44.5511 71.2254 45.6911C68.5265 46.8311 60.9444 34.4069 60.9444 34.4069Z" fill="#006E9E"/>
<path d="M29.9414 16.132C29.8384 17.0055 30.0443 18.5954 30.6621 18.4425C31.2799 18.2897 29.9414 16.132 29.9414 16.132Z" fill="#403F4C"/>
<path d="M28.8044 16.132C28.9073 17.0055 28.7014 18.5954 28.0836 18.4425C27.4658 18.2897 28.8044 16.132 28.8044 16.132Z" fill="#403F4C"/>
<path d="M39.8412 22.1704C39.8412 22.1704 41.9377 22.4412 44.3431 22.094C43.9948 23.3323 43.6837 24.184 42.0911 24.2604C40.4984 24.3369 39.839 22.1704 39.839 22.1704H39.8412Z" fill="#403F4C"/>
<path d="M23.1282 32.4829L24.9838 33.9177L26.0945 31.1747L28.2194 33.5814L29.8603 30.9345L31.8407 33.2931L33.8211 31.0786L35.9943 33.3411L38.0711 31.2227L40.4853 33.0529L42.1831 31.6333C27.3191 23.1619 23.6671 28.7855 23.1282 32.4829Z" fill="white"/>
<path d="M47.3663 39.2027L44.6192 38.2789L43.6531 40.7336L41.1907 39.0979L39.9354 41.5526L37.1839 40.109L35.6876 42.2755L33.2252 40.3493L31.2448 42.4196L29.3126 40.5415L27.1876 42.5157L25.2554 40.6376L24.3112 42.2624C29.7683 48.4472 42.435 45.4356 47.3641 39.2027H47.3663Z" fill="white"/>
<path d="M50.3762 33.1992C35.0631 22.2229 26.8128 25.3306 23.8532 26.7065C23.4589 28.5628 23.1872 30.5523 23.1149 32.638C23.1631 32.3082 23.2135 31.9719 23.2748 31.6224C23.518 30.2335 29.8645 22.081 49.0092 36.0034C46.5775 44.9203 30.2567 47.3444 24.6857 42.6512C24.6857 42.6512 24.5323 42.5376 24.3132 42.2624C25.1698 45.1561 26.5302 48.1088 28.5479 51.0418C40.2748 68.0697 63.6563 67.515 82.3388 55.617C83.3071 54.999 84.168 54.3613 84.9414 53.7454C70.5987 50.9457 66.5437 44.7892 50.3762 33.2014V33.1992Z" fill="#A4E2F7"/>
<path d="M48.5756 60.0897C49.5373 61.5093 55.1872 65.7111 58.4623 67.8841C58.5258 67.9278 58.6113 67.9125 58.6617 67.8513C61.2226 64.7218 62.9599 62.4396 63.4703 61.7626C63.5404 61.6709 63.4812 61.5377 63.3673 61.5245C58.8128 62.0203 53.9166 61.4175 48.7202 59.8604C48.5931 59.8451 48.5055 59.9849 48.5778 60.0897H48.5756Z" fill="#C5EEFC"/>
<path d="M30.8723 13.092C33.7115 13.092 39.4249 16.5534 46.4878 20.9737C50.6195 19.6197 62.7736 15.9354 70.7127 15.9354C72.1433 15.9354 73.438 16.0555 74.5224 16.3285C73.3372 21.904 71.7249 29.1764 72.301 35.5534C72.577 35.6736 72.8553 35.7915 73.1313 35.9072C75.8522 36.1278 78.3211 36.2698 79.7407 36.2698C79.5194 36.8747 79.2543 37.4622 78.9564 38.0322C82.1614 39.004 85.246 39.5718 88.1092 39.5718C89.3777 39.5718 90.6001 39.4605 91.7721 39.2224C98.2676 34.4615 104.566 26.1932 107.276 26.1932C107.296 26.1932 107.317 26.1932 107.337 26.1932C110.014 26.3199 102.522 43.2867 102.139 46.4642C101.755 49.6418 106.113 54.3897 104.264 55.8682C104.104 55.9184 103.915 55.9424 103.701 55.9424C100.691 55.9424 92.793 51.2274 91.0076 50.2774C90.7731 50.1529 90.5344 50.0939 90.289 50.0939C88.9527 50.0939 87.3819 51.7974 84.9415 53.741C84.5712 54.038 84.1791 54.3394 83.765 54.6386C83.7366 54.6583 83.7081 54.6801 83.6796 54.6998C83.4868 54.8395 83.2896 54.9771 83.0881 55.1169C83.0552 55.1409 83.0202 55.1628 82.9851 55.1868C82.7748 55.3287 82.5623 55.4707 82.3411 55.6126C75.9113 59.7075 68.9229 62.4592 62.0463 63.6123C61.205 64.6911 60.0571 66.1434 58.6616 67.8469C58.6309 67.884 58.5871 67.9037 58.5433 67.9037C58.5148 67.9037 58.4885 67.8949 58.4622 67.8797C57.001 66.91 55.071 65.5385 53.2921 64.191C43.4668 63.7957 34.5045 59.6856 28.5502 51.0374C26.5303 48.1065 25.1721 45.1517 24.3155 42.258C23.3297 38.9298 23.0098 35.6801 23.115 32.6336C23.1238 32.3497 23.1391 32.0701 23.1566 31.7906C23.1632 31.6923 23.1698 31.5962 23.1763 31.5001C23.1895 31.3188 23.2026 31.1398 23.218 30.9607C23.2289 30.8428 23.2399 30.727 23.2508 30.6113C23.2662 30.4562 23.2815 30.3011 23.299 30.1461C23.3122 30.0194 23.3275 29.8928 23.3428 29.7661C23.3604 29.6263 23.3779 29.4887 23.3954 29.3511C23.4129 29.2157 23.4327 29.0825 23.4502 28.9493C23.4677 28.827 23.4874 28.7047 23.5071 28.5824C23.529 28.4383 23.551 28.2941 23.5751 28.1522C23.5904 28.0626 23.6079 27.9731 23.6232 27.8836C24.9355 20.5194 28.3092 15.0313 29.3673 13.6991C29.6959 13.2841 30.2064 13.092 30.8723 13.092ZM30.8723 12C29.5886 12 28.8788 12.5547 28.5085 13.0199C27.8754 13.817 26.7319 15.6187 25.5971 18.0713C24.1753 21.1375 23.1216 24.4657 22.5476 27.6957L22.5301 27.7897C22.5191 27.8508 22.5082 27.912 22.4972 27.9731C22.4753 28.0954 22.4578 28.2199 22.4381 28.3422L22.4271 28.4164L22.4227 28.447C22.4052 28.5628 22.3855 28.6785 22.3702 28.7943C22.3504 28.9318 22.3307 29.0716 22.3132 29.2092C22.2935 29.3511 22.276 29.4931 22.2584 29.6372C22.2431 29.7683 22.2278 29.8971 22.2124 30.0282C22.1949 30.1876 22.1796 30.347 22.1642 30.5064L22.1598 30.5545C22.1489 30.6593 22.1401 30.762 22.1314 30.8668C22.116 31.0502 22.1029 31.238 22.0897 31.4237L22.0832 31.5241C22.0788 31.5918 22.0744 31.6574 22.07 31.7251C22.0503 32.0374 22.0372 32.3234 22.0284 32.5964C21.9101 36.0252 22.3285 39.3797 23.2727 42.5682C24.2126 45.7392 25.6869 48.7967 27.6564 51.6554C30.6401 55.9861 34.4476 59.358 38.978 61.6795C43.1404 63.811 47.8263 65.0165 52.911 65.2655C54.5671 66.5147 56.3986 67.8163 57.8642 68.7882C58.0679 68.9236 58.3067 68.9956 58.5521 68.9956C58.9289 68.9956 59.2794 68.8297 59.5182 68.537C60.6048 67.2092 61.6607 65.8923 62.6575 64.6147C69.5341 63.3983 76.5357 60.6072 82.9369 56.5321C83.1451 56.401 83.3576 56.2591 83.6095 56.0887L83.6446 56.0647L83.7168 56.0167C83.9184 55.8791 84.1243 55.7328 84.3302 55.5843L84.4091 55.5275L84.4201 55.5209C84.821 55.2283 85.2175 54.9269 85.6293 54.5993L85.6359 54.5949C86.2559 54.1014 86.8277 53.6166 87.3315 53.1907C88.5474 52.1599 89.6975 51.1859 90.2999 51.1859C90.3722 51.1859 90.4314 51.2011 90.5037 51.2405C90.7578 51.3759 91.1456 51.5942 91.6407 51.8694C96.4296 54.5513 101.208 57.0344 103.714 57.0344C104.047 57.0344 104.34 56.9929 104.608 56.9099C104.737 56.8684 104.857 56.8051 104.962 56.7199C105.766 56.0778 106.014 55.0951 105.701 53.7978C105.486 52.9155 105.041 51.9502 104.568 50.926C103.88 49.4387 103.103 47.7506 103.241 46.5953C103.357 45.6213 104.399 42.7079 105.405 39.8885C108.404 31.4936 109.701 27.3682 108.654 25.8088C108.365 25.3786 107.92 25.1275 107.403 25.1034C107.366 25.1034 107.328 25.1013 107.289 25.1013C105.409 25.1013 103.092 27.2895 99.157 31.1551C96.7582 33.5115 94.0483 36.1759 91.3296 38.1982C90.3241 38.386 89.2462 38.4799 88.1202 38.4799C85.855 38.4799 83.2984 38.0955 80.5052 37.3377C80.6038 37.104 80.6958 36.8725 80.7791 36.641C80.9018 36.3069 80.8514 35.9334 80.6476 35.6408C80.4439 35.3482 80.1087 35.1756 79.7494 35.1756C78.4482 35.1756 76.1413 35.0511 73.4051 34.8328L73.3526 34.8109C72.9626 28.9624 74.3581 22.4041 75.4885 17.0972L75.6046 16.5534C75.7273 15.9791 75.3724 15.4134 74.8028 15.2693C73.6812 14.9854 72.3076 14.8413 70.7237 14.8413C67.2185 14.8413 62.5786 15.527 56.9265 16.8832C52.4575 17.9555 48.5251 19.1698 46.6455 19.7747C43.4011 17.7459 40.2793 15.824 37.6219 14.411C34.4739 12.7447 32.3971 12 30.8723 12Z" fill="#403F4C"/>
</g>
<defs>
<clipPath id="clip0_486_456">
<rect width="87" height="57" fill="white" transform="translate(22 12)"/>
</clipPath>
</defs>
</svg>
