<svg width="119" height="78" viewBox="0 0 119 78" fill="none" xmlns="http://www.w3.org/2000/svg">
<g clip-path="url(#clip0_372_446)">
<path d="M33.2042 12.3723C39.5029 10.2923 61.9706 3.42476 71.8381 5.92315C70.1571 13.8307 67.8498 24.2337 68.8985 33.1813C69.9473 42.1289 33.2042 12.3723 33.2042 12.3723Z" fill="#006E9E"/>
<path d="M109.615 47.1646C110.139 42.8163 120.387 19.5986 116.725 19.4252C113.064 19.2519 104.389 30.6889 95.4353 37.2517C67.0375 43.0165 16.1749 -5.36142 10.077 2.32502C8.33307 4.52157 1.98049 14.9784 1.52502 28.2413C1.59095 27.7901 1.65987 27.3298 1.74377 26.8517C2.07638 24.951 10.7572 13.7949 36.9437 32.8466C33.6175 45.0487 11.2936 48.3659 3.67351 41.9436C3.67351 41.9436 3.46376 41.7882 3.16411 41.4117C4.33574 45.3715 6.19657 49.4119 8.95634 53.4255C24.9966 76.7269 56.9782 75.9678 82.5324 59.6864C88.8101 55.6878 91.7736 50.9928 94.3895 52.3825C97.0055 53.7721 109.21 61.0761 112.521 60.0331C115.053 58.0099 109.093 51.5128 109.615 47.1646Z" fill="#207CAF"/>
<path d="M3.67673 41.9437C11.2968 48.366 33.6178 45.0487 36.9469 32.8466C10.7575 13.7949 2.0766 24.951 1.74399 26.8517C1.66009 27.3299 1.58817 27.7901 1.52524 28.2414C1.38141 32.4103 1.8189 36.8572 3.16732 41.4117C3.46697 41.7883 3.67673 41.9437 3.67673 41.9437Z" fill="#CC1948"/>
<path d="M53.2688 30.662C57.9553 31.7946 73.7229 33.2112 78.9788 33.2112C76.7074 39.4452 71.0231 44.5436 67.3314 46.1036C63.6397 47.6636 53.2688 30.662 53.2688 30.662Z" fill="#006E9E"/>
<path d="M10.8623 5.65417C10.7215 6.84958 11.0032 9.02521 11.8482 8.81601C12.6932 8.60682 10.8623 5.65417 10.8623 5.65417Z" fill="#403F4C"/>
<path d="M9.30717 5.65417C9.448 6.84958 9.16633 9.02521 8.32132 8.81601C7.4763 8.60682 9.30717 5.65417 9.30717 5.65417Z" fill="#403F4C"/>
<path d="M24.4035 13.9175C24.4035 13.9175 27.2712 14.288 30.5613 13.8129C30.0849 15.5073 29.6594 16.6729 27.4809 16.7775C25.3025 16.8821 24.4005 13.9175 24.4005 13.9175H24.4035Z" fill="#403F4C"/>
<path d="M1.54321 28.0292L4.08125 29.9926L5.60047 26.2391L8.50708 29.5324L10.7515 25.9103L13.4603 29.1379L16.1691 26.1076L19.1417 29.2037L21.9823 26.3048L25.2845 28.8092L27.6068 26.8666C7.27552 15.2742 2.28035 22.9696 1.54321 28.0292Z" fill="white"/>
<path d="M34.6965 37.2248L30.9389 35.9607L29.6174 39.3198L26.2493 37.0814L24.5324 40.4405L20.7687 38.4651L18.7221 41.4297L15.3541 38.7938L12.6452 41.6269L10.0023 39.0568L7.09572 41.7584L4.45281 39.1883L3.16132 41.4117C10.6256 49.8752 27.9514 45.754 34.6935 37.2248H34.6965Z" fill="white"/>
<path d="M38.8135 29.0094C17.8679 13.9892 6.58312 18.2419 2.53484 20.1246C1.99547 22.6648 1.62391 25.3874 1.52502 28.2414C1.59095 27.7901 1.65987 27.3299 1.74377 26.8517C2.07638 24.951 10.7572 13.795 36.9437 32.8467C33.6175 45.0488 11.2936 48.366 3.67351 41.9437C3.67351 41.9437 3.46376 41.7883 3.16411 41.4117C4.33574 45.3715 6.19657 49.412 8.95634 53.4255C24.9966 76.7269 56.9782 75.9678 82.5324 59.6865C83.8568 58.8407 85.0345 57.9681 86.0922 57.1253C66.4742 53.294 60.9276 44.8694 38.8135 29.0124V29.0094Z" fill="#A4E2F7"/>
<path d="M36.3505 65.8068C37.666 67.7494 45.394 73.4992 49.8737 76.4728C49.9606 76.5326 50.0775 76.5117 50.1464 76.428C53.6493 72.1455 56.0256 69.0225 56.7237 68.096C56.8196 67.9705 56.7387 67.7882 56.5829 67.7703C50.3532 68.4487 43.656 67.6238 36.5483 65.493C36.3745 65.4721 36.2546 65.6634 36.3535 65.8068H36.3505Z" fill="#C5EEFC"/>
<path d="M12.1357 1.49425C16.0192 1.49425 23.8341 6.23103 33.4948 12.2798C39.1462 10.4269 55.7708 5.38529 66.6301 5.38529C68.5868 5.38529 70.3577 5.54965 71.841 5.92322C70.2199 13.5529 68.0145 23.5046 68.8025 32.231C69.1801 32.3954 69.5606 32.5568 69.9382 32.7152C73.6599 33.017 77.0369 33.2113 78.9786 33.2113C78.676 34.0391 78.3134 34.843 77.9059 35.623C82.2898 36.9529 86.5088 37.7299 90.4253 37.7299C92.1602 37.7299 93.8323 37.5775 95.4354 37.2517C104.32 30.7368 112.935 19.4223 116.642 19.4223C116.669 19.4223 116.699 19.4223 116.726 19.4223C120.387 19.5956 110.139 42.8133 109.615 47.1616C109.09 51.5099 115.051 58.0069 112.521 60.0301C112.303 60.0988 112.045 60.1317 111.751 60.1317C107.634 60.1317 96.8318 53.6795 94.3896 52.3795C94.069 52.2092 93.7424 52.1285 93.4068 52.1285C91.5789 52.1285 89.4304 54.4595 86.0923 57.1193C85.5859 57.5257 85.0496 57.9382 84.4832 58.3476C84.4443 58.3745 84.4053 58.4044 84.3663 58.4313C84.1027 58.6225 83.833 58.8108 83.5573 59.0021C83.5123 59.0349 83.4644 59.0648 83.4165 59.0977C83.1288 59.292 82.8381 59.4862 82.5355 59.6805C73.7408 65.2839 64.1819 69.0494 54.7759 70.6274C53.6253 72.1037 52.0551 74.091 50.1463 76.4221C50.1044 76.4729 50.0444 76.4998 49.9845 76.4998C49.9456 76.4998 49.9096 76.4878 49.8736 76.4669C47.875 75.14 45.2351 73.2632 42.8019 71.4193C29.3626 70.8784 17.1039 65.254 8.95943 53.4195C6.19666 49.409 4.33883 45.3655 3.1672 41.4057C1.81877 36.8513 1.38129 32.4044 1.52512 28.2354C1.5371 27.8469 1.55808 27.4644 1.58205 27.0818C1.59104 26.9474 1.60003 26.8159 1.60902 26.6844C1.627 26.4363 1.64498 26.1913 1.66595 25.9462C1.68094 25.7848 1.69592 25.6264 1.7109 25.468C1.73188 25.2559 1.75285 25.0437 1.77682 24.8315C1.7948 24.6582 1.81578 24.4848 1.83675 24.3115C1.86073 24.1202 1.8847 23.932 1.90867 23.7437C1.93264 23.5584 1.95961 23.3761 1.98358 23.1938C2.00755 23.0264 2.03452 22.8591 2.06149 22.6917C2.09146 22.4945 2.12142 22.2972 2.15438 22.103C2.17536 21.9805 2.19933 21.8579 2.22031 21.7354C4.01521 11.6582 8.62982 4.14805 10.0771 2.32506C10.5266 1.75724 11.2248 1.49425 12.1357 1.49425ZM12.1357 0C10.3798 0 9.40891 0.75908 8.9025 1.39563C8.03651 2.48644 6.47234 4.95195 4.92015 8.30805C2.97542 12.5039 1.53411 17.0584 0.749024 21.4784L0.725052 21.6069C0.710069 21.6906 0.695087 21.7743 0.680104 21.8579C0.650139 22.0253 0.626167 22.1956 0.599199 22.363L0.584216 22.4646L0.578223 22.5064C0.554251 22.6648 0.527283 22.8232 0.506307 22.9816C0.479339 23.1699 0.45237 23.3611 0.428398 23.5494C0.40143 23.7437 0.377458 23.9379 0.353486 24.1352C0.33251 24.3145 0.311535 24.4908 0.290559 24.6701C0.266587 24.8883 0.245612 25.1064 0.224636 25.3246L0.218643 25.3903C0.203661 25.5338 0.191675 25.6743 0.179689 25.8177C0.158713 26.0687 0.140734 26.3257 0.122755 26.5798L0.113766 26.7172C0.107773 26.8099 0.10178 26.8995 0.0957869 26.9922C0.0688184 27.4195 0.0508394 27.811 0.0388534 28.1846C-0.122958 32.8765 0.449374 37.4669 1.74087 41.8301C3.02636 46.1694 5.04301 50.3533 7.73686 54.2653C11.8181 60.1915 17.026 64.8057 23.2228 67.9825C28.9161 70.8993 35.3256 72.549 42.2805 72.8896C44.5459 74.5991 47.0509 76.3802 49.0556 77.7101C49.3343 77.8954 49.6609 77.994 49.9965 77.994C50.5119 77.994 50.9913 77.7669 51.318 77.3664C52.8042 75.5494 54.2485 73.7474 55.6119 71.9991C65.018 70.3345 74.5948 66.5152 83.3505 60.9386C83.6352 60.7593 83.9259 60.5651 84.2705 60.332L84.3184 60.2991L84.4173 60.2333C84.693 60.0451 84.9746 59.8448 85.2563 59.6416L85.3642 59.5639L85.3792 59.5549C85.9275 59.1545 86.4699 58.7421 87.0332 58.2938L87.0422 58.2878C87.8902 57.6124 88.6723 56.949 89.3615 56.3662C91.0246 54.9556 92.5977 53.6228 93.4218 53.6228C93.5207 53.6228 93.6016 53.6437 93.7004 53.6975C94.048 53.8828 94.5784 54.1816 95.2556 54.5582C101.806 58.228 108.341 61.626 111.769 61.626C112.225 61.626 112.626 61.5692 112.992 61.4556C113.169 61.3988 113.334 61.3122 113.477 61.1956C114.577 60.317 114.916 58.9722 114.487 57.197C114.194 55.9897 113.585 54.6687 112.938 53.2671C111.997 51.232 110.933 48.9218 111.122 47.3409C111.281 46.008 112.707 42.0214 114.083 38.1632C118.185 26.6754 119.959 21.0301 118.526 18.8963C118.131 18.3076 117.523 17.9639 116.815 17.931C116.765 17.931 116.714 17.928 116.66 17.928C114.089 17.928 110.918 20.9225 105.537 26.2122C102.255 29.4368 98.5488 33.0828 94.8301 35.8501C93.4547 36.1071 91.9805 36.2356 90.4403 36.2356C87.3419 36.2356 83.845 35.7097 80.0244 34.6726C80.1593 34.3529 80.2851 34.0361 80.399 33.7193C80.5668 33.2621 80.4979 32.751 80.2192 32.3506C79.9405 31.9501 79.482 31.714 78.9906 31.714C77.2107 31.714 74.0554 31.5437 70.3128 31.2448L70.2409 31.2149C69.7075 23.2117 71.6162 14.2372 73.1624 6.97517L73.3213 6.23103C73.4891 5.44506 73.0036 4.67103 72.2245 4.47379C70.6903 4.08529 68.8115 3.88805 66.6451 3.88805C61.8507 3.88805 55.5041 4.82644 47.7731 6.6823C41.6602 8.14966 36.2815 9.81126 33.7105 10.6391C29.2727 7.86276 25.0027 5.23287 21.3679 3.29931C17.062 1.01908 14.2213 0 12.1357 0Z" fill="#403F4C"/>
</g>
<defs>
<clipPath id="clip0_372_446">
<rect width="119" height="78" fill="white"/>
</clipPath>
</defs>
</svg>
