<svg width="79" height="62" viewBox="0 0 79 62" fill="none" xmlns="http://www.w3.org/2000/svg">
<path d="M32.3906 30.4638C30.9847 30.8405 29.5506 30.2978 28.7222 29.205C28.5511 30.5656 27.5806 31.7527 26.1747 32.1294C24.7688 32.5061 23.3347 31.9633 22.5063 30.8706C22.3353 32.2311 21.3647 33.4182 19.9588 33.7949C18.5529 34.1716 17.1188 33.6289 16.2904 32.5361C16.1193 33.8967 15.1488 35.0837 13.7429 35.4605C12.337 35.8371 10.9029 35.2944 10.0745 34.2016C9.90351 35.5622 8.93288 36.7493 7.52699 37.126C5.67341 37.6227 3.76785 36.5229 3.27105 34.6688L34.8477 26.2079C35.3445 28.062 34.2441 29.9672 32.3906 30.4638Z" fill="#FFA63E"/>
<path d="M5.05835 23.1531C5.31008 21.8334 6.29464 20.7743 7.59224 20.4266L23.9846 16.0343C25.2821 15.6866 26.6644 16.1116 27.5423 17.1286L34.6079 25.3129L3.03139 33.7738L5.05835 23.1531Z" fill="#FFA63E"/>
<path d="M11.2425 46.9304C11.3905 47.4809 11.7409 47.9106 12.1988 48.1762C12.6572 48.4401 13.2046 48.5287 13.7554 48.3817L22.444 46.0535L19.8125 36.2325L21.3043 35.8328L23.9358 45.6538L32.6245 43.3257C33.175 43.1777 33.6047 42.8273 33.8698 42.3695C34.1336 41.9105 34.2222 41.3632 34.075 40.8124L31.6415 31.7305L33.8793 31.1309L36.3128 40.2128C36.9364 42.544 35.5547 44.9378 33.224 45.5634L14.355 50.6193C12.0238 51.2429 9.6303 49.8606 9.00474 47.53L6.57124 38.448L8.80898 37.8484L11.2425 46.9304Z" fill="#FFA63E"/>
<path d="M23.9437 38.3233L25.4355 37.9236L26.3682 41.4045L24.8764 41.8042L23.9437 38.3233Z" fill="#FFA63E"/>
<path d="M17.2801 40.1088L18.7719 39.7091L19.7046 43.19L18.2128 43.5897L17.2801 40.1088Z" fill="#FFA63E"/>
<path d="M37.4876 46.8873C37.4876 46.8873 38.0002 48.1856 37.962 49.2328C38.2501 51.6166 34.3785 50.2672 34.3785 50.2672C32.7011 50.7312 22.1878 54.4389 21.0992 51.2889C20.0106 48.1388 21.294 41.8302 23.5602 40.9661C24.5217 40.6 25.9746 40.0466 28.6729 41.3236C27.2623 38.6503 27.436 37.4329 27.7579 36.4453C28.5161 34.1296 34.7301 32.5588 37.9112 33.5081C41.0881 34.4616 37.8731 45.1803 37.4876 46.883V46.8873Z" fill="#FFAB15"/>
<path d="M26.2881 52.8128C28.5458 52.4765 31.1805 51.7401 33.6288 50.9781C33.9295 50.8844 34.1837 50.8078 34.3658 50.7525C34.9504 50.9398 36.9285 51.4846 37.9027 50.6971C38.1908 50.463 38.5084 50.0203 38.4237 49.2158C38.4491 48.292 38.106 47.2363 37.9705 46.8575C38.0171 46.6702 38.0806 46.4148 38.1611 46.104C38.5678 44.5332 39.326 41.6088 39.6309 38.9525C40.0333 35.4322 39.5123 33.5081 38.0425 33.0654C36.4541 32.5886 34.0651 32.6822 31.8031 33.3037C30.6467 33.623 27.8892 34.551 27.3174 36.3005C27.0251 37.1902 26.8133 38.3098 27.7325 40.4424C25.551 39.7103 24.2295 40.2126 23.395 40.5318C21.6837 41.1831 20.8832 43.9926 20.6163 45.1675C20.0995 47.4662 20.1165 49.8713 20.6587 51.4421C21.2051 53.0256 23.4501 53.2342 26.2838 52.8128H26.2881ZM34.3107 49.8075C34.3107 49.8075 34.2726 49.816 34.2557 49.8202C34.0566 49.8756 33.7474 49.9692 33.3577 50.0927C31.837 50.5652 29.0032 51.4421 26.4406 51.8592C23.5983 52.319 21.8574 52.0636 21.5397 51.1398C20.4723 48.0536 21.8023 42.1367 23.7296 41.4045C24.67 41.0469 25.9577 40.5574 28.478 41.7493C28.6559 41.8344 28.8719 41.7961 29.0117 41.6514C29.1473 41.5066 29.1769 41.2895 29.0837 41.1108C27.741 38.5609 27.9104 37.4797 28.1984 36.5943C28.8423 34.6276 34.6623 33.027 37.7799 33.9593C38.7118 34.236 39.0422 35.9728 38.7118 38.8504C38.4153 41.4428 37.6698 44.3247 37.2673 45.8741C37.1657 46.2743 37.081 46.5893 37.0386 46.7894C37.0174 46.8788 37.0259 46.9767 37.0598 47.0618C37.064 47.0746 37.5384 48.2835 37.5003 49.22C37.5003 49.2456 37.5003 49.2711 37.5003 49.2924C37.5596 49.7819 37.3817 49.9266 37.3224 49.9777C36.7845 50.4119 35.2087 50.0671 34.5268 49.833C34.4548 49.8075 34.3827 49.8032 34.3065 49.8117L34.3107 49.8075Z" fill="#403F4C"/>
<path d="M37.6402 51.6166C37.0853 51.9912 33.3789 53.4427 32.0743 53.464C30.7697 53.4853 32.4132 61.5563 33.8661 61.3519C35.3147 61.1476 37.8435 59.8237 38.9999 58.1891C40.1563 56.5545 37.6402 51.6123 37.6402 51.6123V51.6166Z" fill="#FFD985"/>
<path d="M33.9634 61.8116C35.5773 61.569 38.1823 60.1472 39.3768 58.4615C39.9571 57.6442 39.8936 56.2309 39.1947 54.1408C38.7033 52.685 38.0807 51.4548 38.0553 51.4037L37.8181 50.9397L37.386 51.2292C36.848 51.5867 33.2434 52.983 32.07 53C31.8921 53 31.566 53.0724 31.3584 53.4895C30.6891 54.8219 31.7312 59.6577 32.7986 61.1603C33.1459 61.6499 33.5272 61.8712 33.9296 61.8116C33.9423 61.8116 33.955 61.8116 33.9634 61.8074V61.8116ZM37.4326 52.2465C38.3136 54.1068 39.2921 56.9759 38.6229 57.9209C37.5131 59.4917 35.0944 60.7006 33.8279 60.8879H33.8152C33.6966 60.8453 33.2772 60.4154 32.8071 58.9596C32.087 56.7332 31.9175 54.4048 32.1674 53.928C33.4382 53.8599 36.255 52.7999 37.4326 52.2465V52.2465Z" fill="#403F4C"/>
<path d="M62.5045 42.2514C63.0975 41.9449 66.16 39.3908 66.8123 38.2585C67.4646 37.1219 73.6913 42.4813 72.8102 43.6562C71.9292 44.8311 69.5529 46.4103 67.5663 46.636C65.5797 46.8616 62.5045 42.2557 62.5045 42.2557V42.2514Z" fill="#FFD985"/>
<path d="M67.795 47.0701C69.8197 46.7679 72.2299 45.2014 73.1787 43.9328C73.4244 43.6051 73.4159 43.1666 73.1575 42.6217C72.3697 40.9531 68.6633 37.6966 67.1808 37.637C66.7106 37.6157 66.4946 37.8711 66.4099 38.0244C65.8253 39.046 62.8645 41.5405 62.2926 41.8385L61.8309 42.0769L62.119 42.5111C62.4494 43.0049 65.4187 47.3468 67.6171 47.0957C67.6764 47.0871 67.7357 47.0829 67.795 47.0744V47.0701ZM72.429 43.3837C71.6581 44.4053 69.4258 45.9506 67.5112 46.1677C66.3633 46.2996 64.3385 44.0478 63.1483 42.3706C64.203 41.6044 66.4903 39.642 67.1638 38.5565C67.6171 38.582 69.4597 39.6377 71.2345 41.5533C72.2765 42.6771 72.4459 43.2517 72.429 43.3795V43.3837Z" fill="#403F4C"/>
<path d="M52.0377 33.9506C51.6099 33.3716 46.2177 27.3482 41.033 30.494C35.8484 33.6398 38.9278 38.9992 35.3612 41.4724C31.7947 43.9456 35.1749 47.466 35.9627 48.9261C37.9409 46.3337 52.0377 33.9506 52.0377 33.9506V33.9506Z" fill="#FFD985"/>
<path d="M35.8949 49.7776L36.3269 49.2072C38.2542 46.6786 52.1986 34.4232 52.3384 34.2998L52.6603 34.0188L52.4062 33.674C52.3511 33.6017 46.548 26.6034 40.7915 30.094C37.7629 31.9287 37.3774 34.4913 37.0386 36.7517C36.7717 38.5396 36.5387 40.0848 35.0943 41.0852C31.7268 43.4179 33.8744 46.6063 35.0265 48.3218C35.2468 48.6453 35.4332 48.9262 35.5518 49.1433L35.8906 49.7734L35.8949 49.7776ZM51.3896 33.9039C49.3013 35.7429 38.7837 45.0398 36.0177 48.1345C35.9499 48.0281 35.8737 47.9174 35.7975 47.8024C34.3319 45.6187 33.2136 43.5243 35.6238 41.8514C37.3986 40.6212 37.6824 38.7226 37.9577 36.8922C38.2797 34.734 38.6143 32.5034 41.2701 30.8901C43.2906 29.6641 45.5822 29.779 48.0856 31.2264C49.6486 32.1288 50.8558 33.3122 51.3853 33.8996L51.3896 33.9039Z" fill="#403F4C"/>
<path d="M35.4841 50.2373C36.4626 56.8822 43.8414 59.3044 52.3131 58.0401C60.7847 56.7758 67.1427 52.3062 66.1642 45.6613C65.1857 39.0163 57.2351 32.7205 48.7634 33.9805C40.2918 35.2448 34.5056 43.5924 35.4841 50.2331V50.2373Z" fill="#FFC112"/>
<path d="M52.3808 58.4998C61.9792 57.0695 67.5663 52.0039 66.6217 45.5931C66.1176 42.1834 63.9023 38.863 60.539 36.4792C56.9937 33.9634 52.7875 32.9162 48.6957 33.525C44.6038 34.1337 40.8806 36.3643 38.2162 39.808C35.6874 43.0688 34.5268 46.8957 35.0309 50.3054C35.9755 56.7162 42.7909 59.9301 52.3851 58.4998H52.3808ZM48.8312 34.4444C57.2139 33.1929 64.7876 39.4845 65.7068 45.7335C66.5709 51.5824 61.2846 56.2351 52.2453 57.5803C43.206 58.9297 36.8057 56.018 35.9416 50.1692C35.0182 43.9244 40.4485 35.6917 48.8312 34.4444V34.4444Z" fill="#403F4C"/>
<path d="M59.0226 50.2926C61.1444 50.2926 62.8645 48.564 62.8645 46.4316C62.8645 44.2993 61.1444 42.5707 59.0226 42.5707C56.9008 42.5707 55.1807 44.2993 55.1807 46.4316C55.1807 48.564 56.9008 50.2926 59.0226 50.2926Z" fill="white"/>
<path d="M46.2474 53.2894C48.3692 53.2894 50.0893 51.5608 50.0893 49.4284C50.0893 47.2961 48.3692 45.5675 46.2474 45.5675C44.1255 45.5675 42.4055 47.2961 42.4055 49.4284C42.4055 51.5608 44.1255 53.2894 46.2474 53.2894Z" fill="white"/>
<path d="M55.3755 52.8426C55.2273 52.9618 54.9223 53.1661 53.8591 53.4173C52.7959 53.6684 51.8428 53.6003 51.6988 52.9831C51.5548 52.3658 52.2325 52.0168 52.7874 52.2637C53.1983 52.4467 54.0158 52.2381 54.4225 51.8295C54.9604 51.2846 55.5534 51.672 55.672 51.9486C55.8118 52.2722 55.6297 52.634 55.3755 52.8426Z" fill="#403F4C"/>
<path d="M66.9393 42.0088C67.9051 41.4257 69.1589 40.1784 69.214 40.1273L68.9513 39.8634C68.9513 39.8634 67.6764 41.1319 66.7487 41.6896L66.9393 42.0088Z" fill="#FFBA1F"/>
<path d="M68.028 42.9582C68.9937 42.375 70.2475 41.1277 70.3026 41.0767L70.04 40.8127C70.04 40.8127 68.765 42.0813 67.8373 42.6389L68.028 42.9582Z" fill="#FFBA1F"/>
<path d="M69.0107 44.1714C70.0739 43.5328 71.4505 42.1621 71.5056 42.1025L71.243 41.8386C71.243 41.8386 69.8409 43.2349 68.8159 43.8521L69.0065 44.1714H69.0107Z" fill="#FFBA1F"/>
<path d="M32.5063 56.1712C32.5783 56.1499 34.2726 55.6561 35.2468 55.0857L35.0605 54.7622C34.1244 55.3071 32.4215 55.8051 32.4046 55.8136L32.5063 56.1712V56.1712Z" fill="#FFBA1F"/>
<path d="M32.8028 57.5888C32.8748 57.5675 34.5691 57.0737 35.5434 56.5033L35.357 56.1798C34.4209 56.7247 32.7181 57.2227 32.7011 57.2312L32.8028 57.5888Z" fill="#FFBA1F"/>
<path d="M33.112 59.1468C33.1925 59.1255 35.052 58.5806 36.1237 57.9549L35.9373 57.6313C34.9037 58.2316 33.0273 58.7807 33.0103 58.7892L33.112 59.1468V59.1468Z" fill="#FFBA1F"/>
<path d="M43.9388 35.1L44.1251 34.7807C42.9857 34.1124 41.3549 32.5672 41.338 32.5502L41.0838 32.8184C41.1516 32.8822 42.7612 34.4061 43.9388 35.1V35.1Z" fill="#FFBA1F"/>
<path d="M42.308 35.9897L42.4944 35.6704C41.355 35.0021 39.7242 33.4568 39.7072 33.4398L39.4531 33.708C39.5208 33.7719 41.1305 35.2958 42.308 35.9897Z" fill="#FFBA1F"/>
<path d="M47.4165 46.8446C45.9636 46.8446 44.786 48.028 44.786 49.4881C44.786 50.1266 45.0105 50.7098 45.3833 51.1695C45.4595 50.8162 45.7772 50.548 46.1542 50.548C46.5905 50.548 46.942 50.9014 46.942 51.3398C46.942 51.6165 46.8023 51.8549 46.5905 51.9996C46.8489 52.0848 47.1284 52.1358 47.4165 52.1358C48.8694 52.1358 50.0469 50.9524 50.0469 49.4924C50.0469 48.0323 48.8694 46.8489 47.4165 46.8489V46.8446Z" fill="#403F4C"/>
<path d="M47.4164 52.2254C47.1284 52.2254 46.8404 52.1786 46.565 52.0849L46.3914 52.0253L46.5438 51.9231C46.7387 51.7912 46.8531 51.5741 46.8531 51.34C46.8531 50.9526 46.5396 50.6376 46.1541 50.6376C45.828 50.6376 45.5442 50.8674 45.4722 51.1867L45.4341 51.3698L45.3155 51.225C44.9173 50.7355 44.697 50.1225 44.697 49.4882C44.697 47.9813 45.9169 46.7511 47.4207 46.7511C48.9244 46.7511 50.1443 47.9771 50.1443 49.4882C50.1443 50.9994 48.9244 52.2254 47.4207 52.2254H47.4164ZM46.7811 51.9615C46.9886 52.0168 47.2046 52.0423 47.4164 52.0423C48.8185 52.0423 49.9579 50.8972 49.9579 49.4882C49.9579 48.0792 48.8185 46.9341 47.4164 46.9341C46.0144 46.9341 44.8749 48.0792 44.8749 49.4882C44.8749 50.0246 45.0444 50.5439 45.3536 50.9781C45.4934 50.6674 45.8068 50.4545 46.1541 50.4545C46.6413 50.4545 47.0352 50.8504 47.0352 51.34C47.0352 51.5741 46.942 51.7954 46.7811 51.9615Z" fill="#403F4C"/>
<path d="M60.3062 43.8011C58.8575 43.7032 57.5995 44.8057 57.502 46.2615C57.4597 46.8958 57.6461 47.496 57.9892 47.977C58.0908 47.628 58.4212 47.3853 58.7982 47.4109C59.2345 47.4407 59.5607 47.8195 59.531 48.2537C59.5141 48.5262 59.3573 48.7603 59.1371 48.888C59.3912 48.9902 59.6623 49.0583 59.9503 49.0796C61.399 49.1775 62.657 48.0749 62.7545 46.6191C62.8519 45.1633 61.7548 43.899 60.3062 43.8011V43.8011Z" fill="#403F4C"/>
<path d="M59.946 49.1688C59.658 49.1475 59.3742 49.0837 59.1031 48.973L58.9337 48.9049L59.0946 48.8112C59.2979 48.692 59.4293 48.4834 59.442 48.2493C59.4674 47.862 59.1751 47.5257 58.7896 47.5001C58.4677 47.4788 58.1627 47.6917 58.0738 48.0024L58.023 48.1812L57.9128 48.028C57.5485 47.5129 57.3706 46.8829 57.413 46.2529C57.5147 44.746 58.8151 43.6051 60.3103 43.7073C61.8056 43.8095 62.945 45.1163 62.8433 46.619C62.7417 48.1216 61.4413 49.2667 59.946 49.1645V49.1688ZM59.3276 48.8623C59.5309 48.9304 59.7427 48.973 59.9545 48.9858C61.3523 49.0794 62.568 48.0152 62.6612 46.6104C62.7544 45.2057 61.6954 43.984 60.2976 43.8903C58.8998 43.7967 57.6841 44.8609 57.5909 46.2656C57.557 46.7977 57.6883 47.3298 57.9679 47.7853C58.1289 47.4831 58.455 47.2958 58.8024 47.3171C59.2852 47.3511 59.6538 47.7726 59.6199 48.2578C59.6029 48.492 59.497 48.7048 59.3276 48.858V48.8623Z" fill="#403F4C"/>
<path d="M71.62 41.8301C75.1454 41.8301 78.0034 38.958 78.0034 35.415C78.0034 31.8721 75.1454 29 71.62 29C68.0945 29 65.2366 31.8721 65.2366 35.415C65.2366 38.958 68.0945 41.8301 71.62 41.8301Z" fill="#FFC112" stroke="#403F4C" stroke-miterlimit="10"/>
<path d="M68.244 32.8439C68.8878 32.5118 69.5952 32.2139 70.3492 31.9585C72.4374 31.2433 73.7505 31.6605 74.2843 33.227C74.8603 34.9212 74.1699 36.1472 72.2892 36.7942C72.052 36.8751 71.7851 36.956 71.4928 37.0241L72.3104 39.4292L70.6711 39.9911L68.2482 32.8481L68.244 32.8439ZM71.0693 35.7811C71.2853 35.7385 71.4971 35.6874 71.7046 35.6193C72.645 35.2958 73.0262 34.6488 72.7594 33.8613C72.4967 33.0823 71.8698 32.8566 70.8786 33.1972C70.6626 33.2696 70.4635 33.3632 70.2814 33.4696L71.0693 35.7853V35.7811Z" fill="white"/>
<path d="M38.7872 8.46494L46.7005 7.06555C46.9773 7.01707 47.2524 7.0946 47.4581 7.27938C47.4581 7.27938 47.2224 9.35114 50.4048 9.93295C53.5871 10.5147 54.2071 8.51157 54.2071 8.51157C54.4712 8.41128 54.7578 8.43903 54.9964 8.57947L61.7612 12.6535C62.1582 12.8906 62.3041 13.3966 62.104 13.8307L60.6513 16.9738C60.4606 17.3884 60.0044 17.6161 59.5708 17.5107L56.6877 16.8019L54.6058 26.7163C54.4492 27.4637 53.7294 27.9562 52.9941 27.8226L40.769 25.5951C40.0338 25.4614 39.5695 24.7503 39.7261 24.003L41.808 14.0885L38.8515 13.7331C38.4097 13.6799 38.0791 13.3121 38.0682 12.8588L37.9923 9.43694C37.9824 8.96849 38.3213 8.54751 38.7847 8.46835L38.7872 8.46494Z" fill="#FFA63E"/>
</svg>
