<svg width="198" height="115" viewBox="0 0 198 115" fill="none" xmlns="http://www.w3.org/2000/svg">
<path d="M99.1226 108.608C99.0819 108.678 99.042 108.745 99.003 108.811C98.9623 108.742 98.9206 108.671 98.8779 108.598C98.601 108.125 98.3108 107.609 98.0028 107.062L97.9962 107.05C97.6889 106.504 97.3653 105.929 97.0368 105.366C96.3916 104.259 95.6721 103.1 94.933 102.202C94.5637 101.753 94.1326 101.298 93.6439 100.941C93.1704 100.595 92.4687 100.214 91.5998 100.214C70.6397 100.214 49.3136 97.0209 33.3068 89.3344C17.3708 81.6819 6.95001 69.7349 6.95001 52.1067C6.95001 39.3762 13.8774 27.661 28.8697 19.027C43.929 10.3543 67.05 4.86328 99 4.86328C130.95 4.86328 154.071 10.3543 169.13 19.027C184.123 27.661 191.05 39.3762 191.05 52.1067C191.05 69.7349 180.629 81.6819 164.693 89.3344C148.686 97.0209 127.36 100.214 106.4 100.214C105.53 100.214 104.827 100.597 104.354 100.943C103.865 101.301 103.435 101.757 103.065 102.207C102.327 103.107 101.608 104.269 100.963 105.376C100.634 105.939 100.311 106.515 100.004 107.061C99.6934 107.612 99.4012 108.132 99.1226 108.608Z" fill="white" stroke="#403F4C" stroke-width="4"/>
</svg>
