<svg width="338" height="228" viewBox="0 0 338 228" fill="none" xmlns="http://www.w3.org/2000/svg">
<path d="M269.515 38.7864C270.486 38.3691 278.937 35.2904 291.633 34.1352C291.633 34.0768 291.631 34.0225 291.629 33.9655C291.63 28.6911 295.905 24.4148 301.179 24.4122C306.455 24.4129 310.732 28.6852 310.734 33.9618C310.734 34.0155 310.731 34.0717 310.729 34.1296C323.427 35.279 331.885 38.3517 332.854 38.7678C334.545 39.4932 334.788 40.4598 334.788 41.909C334.789 42.8775 334.79 48.1972 334.79 48.1972L267.581 48.2145C267.581 48.2145 267.579 42.8948 267.578 41.9264C267.579 40.4772 267.821 39.5114 269.515 38.7864ZM297.057 33.7829C298.399 33.7315 299.772 33.7007 301.183 33.701C302.592 33.698 303.965 33.7302 305.308 33.7834C305.207 31.5859 303.401 29.8342 301.181 29.8322C298.96 29.8356 297.156 31.5871 297.057 33.7829Z" fill="#207CAF"/>
<path d="M333.761 54.2201C335.238 53.1434 335.56 51.0672 334.477 49.586L332.099 46.3483C331.022 44.8713 328.946 44.5494 327.465 45.6329L324.945 47.4741L331.235 56.0569L333.754 54.2158L333.761 54.2201Z" fill="#FFCD4E"/>
<path d="M328.053 57.7328L329.817 56.4429L324.162 48.7262L322.399 50.0162C318.78 47.0647 313.491 46.8008 309.552 49.6876L288.342 65.2311L279.492 71.7177C277.936 72.8597 277.593 75.0469 278.735 76.6029L289.543 91.3507C290.685 92.9068 292.872 93.2502 294.428 92.1082L302.004 86.5573L324.491 70.0894C328.43 67.2025 329.775 62.0817 328.056 57.744L328.053 57.7328Z" fill="white"/>
<path d="M302.923 130.415C301.091 134.827 295.904 137.149 291.396 135.577L281.226 132.032C276.717 130.461 269.337 127.888 264.828 126.316L254.658 122.771C250.149 121.2 247.528 116.156 248.836 111.562L263.81 58.996L323.871 79.9318L302.923 130.415Z" fill="#207CAF"/>
<path d="M151.404 60.8057L71.6306 26.9744C70.927 26.6782 70.1206 26.8873 69.6401 27.4796L15.3312 95.7867C14.3016 97.0933 15.4856 98.9747 17.0814 98.5741L36.008 93.7136L51.0567 154.059C51.2969 155 52.2235 155.558 53.1329 155.314L146.033 131.43C146.96 131.186 147.509 130.245 147.268 129.322L132.22 68.976L151.146 64.1156C152.742 63.6975 152.914 61.4677 151.387 60.8231L151.404 60.8057Z" fill="#FFA89C"/>
<path d="M163.399 56.7316H126.541C125.989 56.7316 125.541 57.1794 125.541 57.7316V136.437C125.541 136.989 125.989 137.437 126.541 137.437H241.115C241.667 137.437 242.115 136.989 242.115 136.437V29.3355C242.115 28.7832 241.667 28.3355 241.115 28.3355H208.741C208.188 28.3355 207.741 27.8877 207.741 27.3355V6.91742C207.741 6.36513 207.293 5.91742 206.741 5.91742H165.399C164.847 5.91742 164.399 6.36514 164.399 6.91742V55.7316C164.399 56.2839 163.951 56.7316 163.399 56.7316Z" fill="#FFCAC2"/>
<rect x="173.366" y="17.8737" width="8.96722" height="8.96722" fill="#F26957"/>
<rect x="209.235" y="44.7754" width="8.96722" height="8.96722" fill="#F26957"/>
<rect x="194.29" y="71.677" width="8.96722" height="8.96722" fill="#F26957"/>
<rect x="158.421" y="71.677" width="8.96722" height="8.96722" fill="#F26957"/>
<rect x="173.366" y="44.7754" width="8.96722" height="8.96722" fill="#F26957"/>
<rect x="191.301" y="17.8737" width="8.96722" height="8.96722" fill="#F26957"/>
<rect x="227.169" y="44.7754" width="8.96722" height="8.96722" fill="#F26957"/>
<rect x="212.224" y="71.677" width="8.96722" height="8.96722" fill="#F26957"/>
<rect x="176.355" y="71.677" width="8.96722" height="8.96722" fill="#F26957"/>
<rect x="191.301" y="44.7754" width="8.96722" height="8.96722" fill="#F26957"/>
<path d="M3.18096 141.685L16.9711 138.47C21.5176 137.411 25.1405 133.987 26.4551 129.511L30.4441 115.925C30.7193 114.983 31.595 114.348 32.5744 114.376C33.5556 114.403 34.3939 115.087 34.6169 116.043L37.8308 129.833C38.8899 134.376 42.3135 137.999 46.7928 139.314L60.3789 143.305C61.3207 143.582 61.9562 144.456 61.9284 145.437C61.9006 146.418 61.2167 147.255 60.2607 147.478L46.4706 150.693C41.9242 151.751 38.301 155.176 36.9866 159.652L32.9976 173.238C32.7209 174.18 31.8451 174.815 30.864 174.788C29.8846 174.76 29.0463 174.076 28.8248 173.12L25.611 159.33C24.5518 154.787 21.1284 151.162 16.6491 149.849L3.06298 145.858C2.12139 145.582 1.48566 144.708 1.51344 143.726C1.54122 142.745 2.2252 141.908 3.18096 141.685Z" fill="#FFF5DD"/>
<path d="M49.6559 167.933L58.0808 165.97C60.8576 165.324 63.0713 163.232 63.8736 160.498L66.3124 152.197C66.4803 151.62 67.0137 151.234 67.614 151.251C68.2124 151.268 68.7248 151.684 68.8597 152.27L70.8233 160.695C71.4715 163.47 73.5632 165.683 76.2989 166.486L84.5992 168.923C85.1731 169.092 85.5628 169.627 85.5458 170.226C85.5289 170.824 85.1093 171.337 84.527 171.473L76.1021 173.437C73.3253 174.083 71.1116 176.175 70.3076 178.909L67.8705 187.209C67.7028 187.787 67.1675 188.173 66.5691 188.156C65.9689 188.139 65.4581 187.723 65.3232 187.137L63.3579 178.712C62.7116 175.937 60.6197 173.723 57.884 172.921L49.5837 170.484C49.0098 170.315 48.6201 169.779 48.6371 169.181C48.6539 168.582 49.0734 168.07 49.6559 167.933Z" fill="#FFF5DD"/>
<path d="M96.6404 97.2895C95.725 97.2895 94.9217 96.6169 94.7909 95.6642L94.4173 92.9553C85.7303 91.2553 78.9862 84.1749 77.7906 75.2825C77.7159 74.7967 77.8466 74.2923 78.1642 73.9C78.4631 73.5077 78.9115 73.2461 79.3972 73.1714L117.022 68.09C117.022 68.09 117.19 68.09 117.265 68.09C117.676 68.09 118.068 68.2208 118.405 68.4823C118.797 68.7812 119.058 69.2296 119.133 69.7153C120.329 78.6078 115.714 87.2201 107.793 91.1619L108.167 93.8707C108.242 94.3565 108.111 94.8609 107.793 95.2532C107.494 95.6455 107.046 95.907 106.56 95.9631L96.9207 97.2708C96.9207 97.2708 96.7525 97.2708 96.6591 97.2708L96.6404 97.2895Z" fill="#F26957"/>
<path d="M117.265 69.9768C118.442 78.7012 113.491 86.8277 105.738 90.0597L106.299 94.151L96.6591 95.4587L96.0987 91.3674C87.7666 90.3212 80.8357 83.8013 79.6588 75.0769L117.284 69.9955L117.265 69.9768ZM117.284 66.2592C117.116 66.2592 116.947 66.2592 116.779 66.2965L79.1544 71.378C78.1642 71.5087 77.2862 72.0318 76.6884 72.8164C76.0906 73.6011 75.829 74.5912 75.9598 75.5813C77.2115 84.8101 83.9369 92.2454 92.7733 94.5246L92.9601 95.9444C93.2217 97.8126 94.8096 99.1763 96.6591 99.1763C96.8273 99.1763 96.9954 99.1763 97.1635 99.139L106.803 97.8312C107.793 97.7005 108.671 97.1774 109.269 96.3928C109.867 95.6081 110.129 94.618 109.998 93.6279L109.811 92.2081C117.713 87.6684 122.234 78.7012 120.983 69.4724C120.852 68.4823 120.329 67.6043 119.544 67.0064C118.89 66.502 118.087 66.2405 117.284 66.2405V66.2592Z" fill="#403F4C"/>
<path d="M79.2104 74.1242C78.3511 74.1242 77.5851 73.5264 77.3983 72.667C77.3609 72.4989 73.5685 56.059 65.5541 38.8344C65.1244 37.9004 65.5167 36.7795 66.4508 36.3498C66.5816 36.275 69.9069 34.7618 75.5301 33.0244C75.7169 32.9684 75.9038 32.9497 76.0719 32.9497C76.8192 32.9497 77.5291 33.3981 77.8093 34.1266C78.0148 34.6311 78.2576 35.2849 78.5566 36.0695C78.4258 35.397 78.2763 34.7431 78.1456 34.0893C77.9401 33.1178 78.5379 32.1464 79.4906 31.9035C81.2094 31.4552 82.9654 31.0255 84.7028 30.6519C84.8336 30.6332 84.9644 30.6145 85.0951 30.6145C85.4501 30.6145 85.8051 30.7266 86.1226 30.9134L86.1787 30.9508C86.4402 30.5211 86.8886 30.2035 87.4117 30.1101C89.1864 29.7738 90.9986 29.4936 92.792 29.232C97.0328 28.6529 101.33 28.3727 105.608 28.354C106.598 28.354 107.401 29.12 107.476 30.1101C107.588 31.9596 107.719 33.9959 107.831 35.9761C108.074 33.9585 108.373 31.8475 108.728 29.998C108.896 29.12 109.662 28.4848 110.558 28.4848C110.596 28.4848 110.633 28.4848 110.652 28.4848C116.294 28.7837 119.694 29.4749 119.843 29.5123C120.796 29.7178 121.431 30.6145 121.319 31.5859C119.918 42.2906 119.339 66.8757 119.32 67.1185C119.301 68.0339 118.61 68.7999 117.695 68.9307L79.472 74.1055C79.472 74.1055 79.3038 74.1055 79.2291 74.1055L79.2104 74.1242Z" fill="#C1944C"/>
<path d="M105.608 30.2408C105.888 34.6497 106.336 42.2345 106.355 44.7565L108.933 44.1587C108.933 44.1587 109.493 35.9201 110.54 30.3529C116.088 30.6332 119.432 31.3431 119.432 31.3431C117.994 42.2719 117.414 67.0812 117.414 67.0812L79.1917 72.256C79.1917 72.256 75.418 55.6666 67.2168 38.0498C67.2168 38.0498 70.4861 36.5179 76.0532 34.8179C77.1741 37.6388 79.7895 44.6258 82.0127 52.9578L83.5632 52.7523C83.5632 52.7523 81.8445 42.6829 79.939 33.7156C81.5269 33.286 83.227 32.875 85.0578 32.5013C86.0666 37.3586 87.1315 42.8323 87.7106 47.0544L89.448 47.2972C89.448 47.2972 88.682 39.7498 87.7293 31.9596C89.4106 31.642 91.1854 31.3617 93.0162 31.1002C97.6679 30.465 101.909 30.2408 105.57 30.2408H105.608ZM105.57 26.5045C101.217 26.5045 96.8273 26.8221 92.5118 27.4012C90.681 27.6441 88.8315 27.943 87.038 28.2793C86.5523 28.3727 86.104 28.5595 85.7116 28.8024C85.4875 28.765 85.282 28.7463 85.0578 28.7463C84.7962 28.7463 84.5347 28.765 84.2731 28.821C82.4797 29.1947 80.705 29.6243 78.9862 30.0914C78.239 30.2969 77.6038 30.6892 77.1367 31.231C76.7818 31.1189 76.4268 31.0628 76.0532 31.0628C75.6982 31.0628 75.3246 31.1189 74.951 31.231C69.197 32.9871 65.7783 34.575 65.6288 34.6497C63.7606 35.5278 62.9573 37.7509 63.8167 39.6191C71.7377 56.6381 75.4928 72.9098 75.5301 73.078C75.9224 74.7967 77.4543 75.9923 79.173 75.9923C79.3412 75.9923 79.5093 75.9923 79.6775 75.955L117.9 70.7801C119.712 70.5373 121.095 69.0054 121.132 67.1559C121.132 66.913 121.711 42.4213 123.112 31.8288C123.374 29.8859 122.085 28.0924 120.179 27.6815C120.03 27.6441 116.48 26.9155 110.708 26.6166C110.633 26.6166 110.577 26.6166 110.502 26.6166C109.606 26.6166 108.765 26.9342 108.092 27.4946C107.42 26.8781 106.523 26.5045 105.552 26.5045H105.57Z" fill="#403F4C"/>
<path d="M102.899 132.859C102.488 132.859 102.095 132.729 101.759 132.486C101.367 132.187 101.105 131.739 101.031 131.253L96.5284 97.9807C96.3976 96.9532 97.1075 96.0191 98.135 95.8883L104.916 94.9729C104.916 94.9729 105.085 94.9729 105.159 94.9729C105.57 94.9729 105.963 95.1037 106.299 95.3466C106.691 95.6455 106.953 96.0938 107.027 96.5796L111.53 129.852C111.661 130.879 110.951 131.813 109.923 131.944L103.142 132.859C103.142 132.859 102.974 132.859 102.899 132.859Z" fill="#FFA89C"/>
<path d="M105.197 96.8224L109.699 130.095L102.917 131.01L98.4152 97.7378L105.197 96.8224ZM105.197 93.0861C105.029 93.0861 104.86 93.0861 104.692 93.1235L97.9108 94.0389C96.9207 94.1696 96.0426 94.6927 95.4448 95.4773C94.847 96.262 94.5855 97.2521 94.7162 98.2422L99.2185 131.514C99.4801 133.383 101.068 134.746 102.917 134.746C103.086 134.746 103.254 134.746 103.422 134.709L110.203 133.794C111.193 133.663 112.072 133.14 112.669 132.355C113.267 131.57 113.529 130.58 113.398 129.59L108.896 96.318C108.634 94.4499 107.046 93.0861 105.197 93.0861Z" fill="#403F4C"/>
<path d="M243.553 162.451C243.553 162.451 241.293 168.149 241.461 172.745C240.191 183.207 257.266 177.285 257.266 177.285C264.664 179.321 311.032 195.593 315.833 181.768C320.634 167.944 314.973 140.257 304.979 136.465C300.738 134.858 294.33 132.43 282.43 138.034C288.651 126.302 287.885 120.959 286.465 116.625C283.121 106.462 255.715 99.5686 241.685 103.735C227.674 107.919 241.853 154.96 243.553 162.433V162.451Z" fill="#FFAB15"/>
<path d="M292.966 188.456C283.009 186.98 271.389 183.748 260.591 180.404C259.265 179.993 258.144 179.657 257.34 179.414C254.762 180.236 246.038 182.627 241.741 179.171C240.471 178.144 239.07 176.201 239.443 172.67C239.331 168.616 240.844 163.983 241.442 162.32C241.237 161.498 240.957 160.378 240.602 159.014C238.808 152.12 235.464 139.286 234.119 127.629C232.344 112.179 234.642 103.735 241.125 101.792C248.13 99.6994 258.667 100.11 268.643 102.838C273.743 104.239 285.905 108.312 288.427 115.99C289.716 119.894 290.65 124.808 286.596 134.167C296.217 130.954 302.046 133.158 305.726 134.559C313.273 137.418 316.804 149.748 317.981 154.904C320.26 164.992 320.186 175.547 317.794 182.441C315.384 189.39 305.483 190.306 292.985 188.456H292.966ZM257.583 175.267C257.583 175.267 257.751 175.304 257.826 175.323C258.704 175.566 260.068 175.977 261.787 176.519C268.493 178.592 280.991 182.441 292.294 184.271C304.829 186.289 312.507 185.168 313.909 181.114C318.616 167.57 312.75 141.602 304.25 138.389C300.103 136.82 294.424 134.672 283.308 139.902C282.523 140.276 281.571 140.108 280.954 139.473C280.356 138.838 280.226 137.885 280.637 137.1C286.559 125.91 285.811 121.165 284.541 117.279C281.701 108.648 256.033 101.624 242.283 105.715C238.173 106.929 236.716 114.551 238.173 127.18C239.481 138.557 242.769 151.205 244.543 158.005C244.992 159.761 245.365 161.144 245.552 162.022C245.646 162.414 245.608 162.844 245.459 163.217C245.44 163.273 243.348 168.579 243.516 172.689C243.516 172.801 243.516 172.913 243.516 173.006C243.254 175.155 244.039 175.79 244.301 176.014C246.673 177.92 253.623 176.406 256.631 175.379C256.948 175.267 257.266 175.248 257.602 175.286L257.583 175.267Z" fill="#403F4C"/>
<path d="M242.881 183.207C245.328 184.851 261.675 191.221 267.429 191.314C273.182 191.408 265.934 226.828 259.526 225.932C253.137 225.035 241.984 219.225 236.884 212.051C231.784 204.877 242.881 183.188 242.881 183.188V183.207Z" fill="#FFD985"/>
<path d="M259.096 227.949C251.979 226.884 240.49 220.645 235.221 213.247C232.662 209.66 232.942 203.458 236.025 194.285C238.192 187.896 240.938 182.497 241.05 182.273L242.096 180.236L244.002 181.507C246.374 183.076 262.272 189.203 267.447 189.278C268.232 189.278 269.67 189.596 270.586 191.427C273.537 197.274 268.942 218.496 264.234 225.091C262.702 227.239 261.021 228.211 259.246 227.949C259.19 227.949 259.134 227.949 259.096 227.931V227.949ZM243.796 185.971C239.91 194.135 235.595 206.727 238.547 210.874C243.441 217.768 254.108 223.073 259.694 223.895H259.75C260.273 223.709 262.123 221.822 264.197 215.433C267.372 205.662 268.12 195.443 267.018 193.351C261.413 193.052 248.99 188.4 243.796 185.971Z" fill="#403F4C"/>
<path d="M133.219 142.107C130.604 140.762 117.097 129.553 114.22 124.583C111.343 119.595 83.8808 143.116 87.7666 148.272C91.6524 153.428 102.133 160.359 110.895 161.349C119.656 162.339 133.219 142.126 133.219 142.126V142.107Z" fill="#FFD985"/>
<path d="M109.886 163.255C100.956 161.928 90.326 155.053 86.1413 149.486C85.0578 148.048 85.0952 146.123 86.2347 143.732C89.7095 136.409 106.056 122.117 112.595 121.856C114.668 121.762 115.621 122.883 115.995 123.556C118.573 128.04 131.631 138.987 134.153 140.295L136.19 141.341L134.919 143.246C133.462 145.414 120.366 164.469 110.67 163.367C110.409 163.329 110.147 163.311 109.886 163.273V163.255ZM89.448 147.076C92.8481 151.56 102.693 158.341 111.137 159.294C116.2 159.873 125.13 149.991 130.38 142.63C125.728 139.267 115.64 130.655 112.669 125.891C110.67 126.003 102.544 130.636 94.7162 139.043C90.1205 143.975 89.3733 146.497 89.448 147.058V147.076Z" fill="#403F4C"/>
<path d="M179.382 105.678C181.269 103.137 205.05 76.7022 227.917 90.508C250.783 104.314 237.202 127.834 252.932 138.688C268.662 149.542 253.754 164.992 250.279 171.4C241.554 160.023 179.382 105.678 179.382 105.678Z" fill="#FFD985"/>
<path d="M250.578 175.136L248.672 172.633C240.172 161.536 178.672 107.751 178.055 107.209L176.635 105.976L177.756 104.463C177.999 104.146 203.593 73.4329 228.982 88.7519C242.339 96.8037 244.039 108.05 245.534 117.97C246.711 125.816 247.738 132.598 254.108 136.988C268.96 147.226 259.489 161.218 254.407 168.747C253.436 170.167 252.614 171.4 252.091 172.353L250.596 175.117L250.578 175.136ZM182.24 105.472C191.45 113.543 237.837 154.343 250.036 167.925C250.335 167.458 250.671 166.972 251.007 166.468C257.471 156.884 262.403 147.693 251.773 140.351C243.946 134.952 242.694 126.62 241.48 118.587C240.06 109.115 238.584 99.3258 226.871 92.2454C217.959 86.8651 207.853 87.3695 196.812 93.7213C189.918 97.6818 184.594 102.875 182.259 105.453L182.24 105.472Z" fill="#403F4C"/>
<path d="M252.408 177.154C248.093 206.316 215.549 216.946 178.186 211.397C140.823 205.849 112.781 186.233 117.097 157.071C121.412 127.909 156.478 100.279 193.841 105.808C231.205 111.357 256.724 147.992 252.408 177.135V177.154Z" fill="#FFC112"/>
<path d="M177.868 213.415C135.536 207.138 110.895 184.907 115.061 156.772C117.284 141.808 127.054 127.236 141.888 116.774C157.524 105.734 176.075 101.138 194.122 103.809C212.168 106.481 228.589 116.27 240.34 131.384C251.493 145.694 256.612 162.489 254.389 177.453C250.223 205.587 220.164 219.692 177.85 213.415H177.868ZM193.524 107.845C156.553 102.352 123.15 129.964 119.096 157.388C115.285 183.057 138.6 203.476 178.466 209.38C218.333 215.302 246.561 202.523 250.372 176.855C254.445 149.449 230.495 113.318 193.524 107.845Z" fill="#403F4C"/>
<path d="M156.142 179.657C165.5 179.657 173.086 172.071 173.086 162.713C173.086 153.355 165.5 145.768 156.142 145.768C146.784 145.768 139.197 153.355 139.197 162.713C139.197 172.071 146.784 179.657 156.142 179.657Z" fill="white"/>
<path d="M213.382 188.157C222.74 188.157 230.327 180.571 230.327 171.213C230.327 161.855 222.74 154.269 213.382 154.269C204.024 154.269 196.438 161.855 196.438 171.213C196.438 180.571 204.024 188.157 213.382 188.157Z" fill="white"/>
<path d="M174.506 189.446C175.197 189.913 176.617 190.698 181.381 191.408C186.144 192.118 190.31 191.483 190.703 188.736C191.095 185.99 188.013 184.701 185.659 185.99C183.921 186.943 180.241 186.326 178.317 184.682C175.757 182.497 173.291 184.402 172.862 185.654C172.357 187.111 173.291 188.643 174.487 189.465L174.506 189.446Z" fill="#403F4C"/>
<path d="M113.659 141.042C109.4 138.483 103.87 133.009 103.627 132.785L104.786 131.626C104.786 131.626 110.409 137.194 114.5 139.641L113.659 141.042Z" fill="#FFBA1F"/>
<path d="M108.858 145.208C104.599 142.649 99.0691 137.175 98.8262 136.951L99.9845 135.792C99.9845 135.792 105.608 141.36 109.699 143.807L108.858 145.208Z" fill="#FFBA1F"/>
<path d="M104.543 150.532C99.8537 147.73 93.7821 141.715 93.5393 141.453L94.6975 140.295C94.6975 140.295 100.881 146.422 105.402 149.131L104.561 150.532H104.543Z" fill="#FFBA1F"/>
<path d="M265.542 203.196C265.224 203.103 257.751 200.936 253.455 198.432L254.277 197.012C258.405 199.404 265.915 201.589 265.99 201.627L265.542 203.196Z" fill="#FFBA1F"/>
<path d="M264.215 209.417C263.898 209.324 256.425 207.157 252.128 204.653L252.95 203.233C257.079 205.625 264.589 207.81 264.664 207.848L264.215 209.417Z" fill="#FFBA1F"/>
<path d="M262.852 216.255C262.497 216.161 254.295 213.77 249.569 211.024L250.391 209.604C254.949 212.238 263.225 214.648 263.3 214.685L262.852 216.255Z" fill="#FFBA1F"/>
<path d="M215.101 110.722L214.279 109.32C219.304 106.387 226.497 99.606 226.572 99.5313L227.693 100.708C227.394 100.988 220.295 107.677 215.101 110.722Z" fill="#FFBA1F"/>
<path d="M222.294 114.626L221.472 113.225C226.497 110.292 233.689 103.51 233.764 103.436L234.885 104.613C234.586 104.893 227.487 111.581 222.294 114.626Z" fill="#FFBA1F"/>
<path d="M223.097 179.246C222.536 179.171 222.032 178.854 221.696 178.349C219.192 174.557 216.166 172.483 212.71 172.147C208.693 171.773 205.275 173.903 204.658 174.538C203.873 175.342 202.584 175.379 201.781 174.594C200.978 173.81 200.94 172.521 201.725 171.717C203.014 170.372 207.684 167.607 213.083 168.112C216.353 168.411 221.079 170.055 225.096 176.126C225.712 177.06 225.451 178.331 224.517 178.947C224.087 179.227 223.583 179.339 223.097 179.265V179.246Z" fill="#403F4C"/>
<path d="M145.4 167.719C144.914 167.645 144.466 167.402 144.129 167.01C143.401 166.15 143.531 164.861 144.391 164.133C149.995 159.481 155.002 159.294 158.215 159.948C163.54 161.031 167.201 165.048 168.042 166.711C168.546 167.719 168.154 168.934 167.164 169.457C166.174 169.98 164.941 169.569 164.418 168.579C164.025 167.794 161.354 164.768 157.393 163.964C153.993 163.273 150.5 164.394 147.006 167.29C146.539 167.682 145.96 167.813 145.4 167.738V167.719Z" fill="#403F4C"/>
<path d="M31.8278 49.6555C44.9875 49.6555 55.6555 38.9875 55.6555 25.8278C55.6555 12.668 44.9875 2 31.8278 2C18.668 2 8 12.668 8 25.8278C8 38.9875 18.668 49.6555 31.8278 49.6555Z" fill="#FFC112" stroke="#403F4C" stroke-width="3" stroke-miterlimit="10"/>
<path d="M19.6233 15.8861C22.0228 14.6413 24.659 13.5242 27.4689 12.5666C35.2514 9.8855 40.1451 11.4495 42.1341 17.3225C44.281 23.6742 41.7079 28.2704 34.6989 30.6962C33.8149 30.9994 32.8204 31.3027 31.7311 31.558L34.7778 40.5749L28.6687 42.6815L19.6391 15.9021L19.6233 15.8861ZM30.1525 26.8979C30.9576 26.7383 31.7469 26.5468 32.5204 26.2915C36.0249 25.0786 37.4457 22.6528 36.4512 19.7004C35.4724 16.7798 33.1361 15.934 29.4422 17.2107C28.6371 17.482 27.8951 17.8332 27.2163 18.2321L30.1525 26.9139V26.8979Z" fill="white"/>
</svg>
