<svg width="130" height="80" viewBox="0 0 130 80" fill="none" xmlns="http://www.w3.org/2000/svg">
<path d="M65.4629 78C48.3151 78 34.3662 64.0997 34.3662 47.0166C34.3662 29.9336 48.3174 16.0332 65.4629 16.0332C82.6085 16.0332 96.5597 29.9336 96.5597 47.0166C96.5597 64.0997 82.6085 78 65.4629 78ZM65.4629 18.8291C49.8631 18.8291 37.1724 31.4737 37.1724 47.0166C37.1724 62.5596 49.8631 75.2041 65.4629 75.2041C81.0627 75.2041 93.7535 62.5596 93.7535 47.0166C93.7535 31.4737 81.0627 18.8291 65.4629 18.8291Z" fill="#403F4C"/>
<path d="M87.8551 33.7221H87.2144L86.7958 33.2421C86.0194 32.3544 86.0054 30.5254 86.1317 29.1461L86.1995 28.4005L86.8613 28.044C91.1477 25.7281 92.1649 26.0473 92.5484 26.1684L92.96 26.2966L93.2265 26.6321C94.6156 28.3772 93.7059 30.8073 93.596 31.0799L93.4393 31.4737L93.0886 31.7137C92.7893 31.9187 90.1071 33.7221 87.8551 33.7221ZM88.8864 30.1386C88.884 30.3413 88.8864 30.5417 88.8934 30.7234C89.6487 30.4765 90.4835 30.0431 91.0986 29.668C91.1383 29.4932 91.1687 29.2952 91.1781 29.1041C90.5701 29.3325 89.7306 29.7123 88.8864 30.1386Z" fill="#403F4C"/>
<path d="M48.0818 27.3545L47.6445 26.9397C47.5393 26.8396 45.0558 24.4537 45.0371 21.0939V20.798L45.154 20.5278C45.8719 18.8875 49.1575 17.839 51.7882 17.2472L52.7821 17.0236L53.3012 17.8973C53.8297 18.785 55.5531 21.8279 55.5087 23.6476L55.497 24.1322L55.186 24.505C53.0931 27.0166 49.1271 27.2962 48.6828 27.3195L48.0794 27.3521L48.0818 27.3545ZM47.876 21.5693C48.0327 22.8367 48.7248 23.8899 49.1785 24.4584C50.1536 24.3116 51.6643 23.9248 52.6371 23.1117C52.457 22.4057 51.9566 21.2734 51.3977 20.2249C49.8777 20.6396 48.4466 21.1825 47.876 21.5693Z" fill="#403F4C"/>
<path d="M85.6209 28.6963L80.2939 24.0505L80.6166 23.1534C80.6354 23.1022 82.464 18.0276 84.3582 13.0182C85.4713 10.0685 86.3903 7.71765 87.0895 6.02612C88.406 2.83412 88.7989 2 89.933 2C90.9082 2 93.0362 2.37745 94.1118 3.80803C94.6357 4.50468 94.6029 5.29452 93.3776 8.88494C92.7439 10.7442 91.8108 13.2582 90.6018 16.3594C88.5534 21.6227 86.3879 26.8417 86.3669 26.893L85.6186 28.694L85.6209 28.6963ZM83.5818 23.2024L84.5219 24.0202C87.8378 15.9423 91.0812 7.47301 91.5676 5.23627C91.3151 5.08716 90.969 4.966 90.6369 4.88911C89.4466 7.36117 86.0348 16.4339 83.5841 23.2024H83.5818Z" fill="#403F4C"/>
<path d="M41.7146 60.134C38.4688 60.134 36.0135 59.0343 34.4186 56.8651C30.607 51.6857 33.3593 42.126 33.951 40.262C34.7109 37.8599 37.0096 31.6832 41.9017 26.1893C47.9045 19.4511 55.612 16.0168 64.8068 15.9842C71.7052 15.9562 78.4517 18.0368 84.3025 21.9884C88.9513 25.1291 92.8636 29.3463 95.036 33.5588C96.7243 36.8347 97.0237 39.5118 95.8755 41.0962C93.4178 44.4885 90.3591 43.0277 87.899 41.8534C86.5614 41.215 85.1771 40.5533 83.7553 40.4368C79.8922 40.1176 76.9481 44.5561 75.4795 48.8082C74.4833 51.6903 71.9251 53.6708 68.9622 53.8572C65.478 54.0762 62.2485 51.8884 60.3334 48.0091C59.0566 45.4252 57.6535 43.9643 56.3767 43.8921C55.2005 43.8292 53.7857 44.9429 52.4902 46.9536C51.7466 48.1092 51.2344 49.647 50.6943 51.2779C49.3824 55.2225 47.7502 60.1317 41.7169 60.1317L41.7146 60.134ZM64.9237 18.7801C64.8863 18.7801 64.8512 18.7801 64.8162 18.7801C56.4539 18.808 49.4502 21.9255 43.9993 28.0439C39.465 33.1348 37.3324 38.8711 36.6261 41.1008C36.3759 41.893 35.5388 44.7192 35.3002 47.8599C35.0524 51.1032 35.5317 53.6452 36.6823 55.2109C37.7346 56.6414 39.3808 57.3358 41.7146 57.3358C45.5286 57.3358 46.5973 54.7006 48.0284 50.3996C48.6013 48.6777 49.193 46.8953 50.126 45.4461C52.0365 42.4755 54.251 40.9727 56.5334 41.1008C58.9303 41.236 61.0559 43.1442 62.8495 46.7742C64.2479 49.6074 66.4695 51.215 68.7845 51.0683C70.6413 50.9518 72.1893 49.7379 72.8254 47.8995C75.1732 41.1031 79.3426 37.2727 83.9845 37.6502C85.923 37.8086 87.6184 38.6171 89.1127 39.3324C92.1807 40.7979 92.7349 40.6558 93.6002 39.4605C93.9112 39.0318 93.8855 37.4452 92.5408 34.8356C90.6046 31.0844 86.9379 27.1445 82.7287 24.302C77.3807 20.6883 71.2259 18.7778 64.9284 18.7778L64.9237 18.7801Z" fill="#403F4C"/>
<path d="M38.8372 42.8693C38.3321 42.8693 37.8877 42.7249 37.4925 42.4313C37.1114 42.1494 36.6507 41.6019 36.6133 40.5883C36.466 36.4713 44.6552 24.0691 45.7753 23.1139L47.6017 25.2364C47.6017 25.2364 47.618 25.2224 47.6274 25.2131C47.1854 25.6511 44.999 28.8408 42.8944 32.5268C40.6518 36.455 39.7608 38.7407 39.5013 39.8358C40.1981 39.4816 41.5544 38.5823 44.0075 36.3082C46.4535 34.0389 49.1146 31.2267 51.0579 29.1717C51.6472 28.5496 52.1757 27.9904 52.62 27.5267C54.0114 26.0822 56.3802 23.9456 58.8613 22.2821C62.0182 20.1665 64.3637 19.4675 66.0333 20.1479C67.0061 20.5439 68.1567 21.5668 68.1286 24.188C68.0888 27.6153 66.6881 30.5533 65.5633 32.9112C63.9755 36.2407 63.9755 36.8069 64.8197 37.2892C65.7247 37.8064 67.9088 34.9942 69.5059 32.9438C72.1157 29.5934 75.0715 25.7979 78.8738 25.3762C81.4671 25.0873 83.4525 25.495 84.7714 26.5854C86.4013 27.9321 86.5462 29.845 86.6234 30.8749C86.6328 31.0007 86.6421 31.1148 86.6515 31.208C86.6842 31.4783 86.6889 31.7579 86.6936 32.0538C86.7029 32.6572 86.7146 33.3399 86.9929 33.8315C87.1075 34.0319 87.4536 34.6447 89.0975 34.8917L88.6789 37.6573C83.9669 36.949 83.9131 33.5496 83.8898 32.0981C83.8851 31.8791 83.8827 31.6717 83.8687 31.5482C83.8523 31.4177 83.8406 31.2616 83.8266 31.0845C83.7705 30.3413 83.6933 29.3254 82.9801 28.736C82.2786 28.1558 80.9667 27.9554 79.1848 28.1535C76.5611 28.4447 73.9911 31.7439 71.7228 34.6563C70.4741 36.2593 69.2955 37.7738 68.1146 38.792C66.9687 39.7798 65.2242 40.7421 63.4236 39.7146C61.92 38.8549 61.2512 37.5035 61.4944 35.8027C61.6721 34.5538 62.3012 33.2374 63.0284 31.7113C64.0878 29.4885 65.2897 26.9699 65.3225 24.1577C65.3318 23.2793 65.1541 22.811 64.9717 22.7364C63.6037 22.1772 58.3889 25.5743 54.6427 29.4629C54.2031 29.9196 53.6793 30.4718 53.097 31.0892C45.7122 38.9015 41.4656 42.867 38.8348 42.867L38.8372 42.8693Z" fill="#403F4C"/>
<path d="M40.3744 36.257C40.2902 36.257 40.206 36.257 40.1172 36.2523C36.717 36.1265 35.7326 31.2057 35.6297 30.6442L35.4473 29.64L36.3546 29.1624C37.1356 28.75 39.8108 27.4079 41.4033 27.5174C42.5468 27.5943 44.0037 28.6777 44.462 33.4098L44.4924 33.7314L44.3778 34.0343C44.0621 34.8754 42.8672 36.257 40.3744 36.257ZM38.6509 31.1521C39.0204 32.2961 39.6378 33.4355 40.2224 33.4564C40.9987 33.4844 41.4056 33.3027 41.6091 33.1535C41.4547 32.0002 41.1671 30.8399 40.9122 30.3343C40.4095 30.4322 39.5442 30.7444 38.6509 31.1498V31.1521Z" fill="#403F4C"/>
<path d="M78.6863 28.4214C76.8717 28.4214 75.8708 27.4335 75.5481 26.7811L75.4055 26.4922V26.1684C75.3914 22.9298 76.1327 21.1613 77.6106 20.912C78.9155 20.693 81.0832 21.4922 81.9531 21.8463L82.9025 22.2308L82.823 23.249C82.7856 23.7313 82.3694 27.9647 79.4346 28.3678C79.1727 28.4051 78.9225 28.4214 78.6863 28.4214ZM78.221 25.5649C78.3917 25.6185 78.6606 25.6534 79.0488 25.5999C79.3247 25.5626 79.6474 24.8496 79.8462 24.0574C79.3177 23.8874 78.8173 23.7569 78.4665 23.6986C78.3519 24.125 78.256 24.8473 78.221 25.5649Z" fill="#403F4C"/>
<path d="M61.9981 22.9136C58.3782 22.9136 57.3142 21.1848 57.1365 20.8307L56.9424 20.4462L56.9985 20.0199C57.0055 19.9686 57.1669 18.7431 57.5691 17.4896C58.2543 15.3554 59.3019 14.2393 60.6792 14.1717C62.6529 14.0716 66.3289 15.4718 67.0445 15.7538L68.1833 16.1988L67.8957 17.3824C67.8419 17.6037 66.5324 22.7925 62.3232 22.909C62.2132 22.9113 62.1057 22.9136 62.0005 22.9136H61.9981ZM59.8912 19.7053C60.2443 19.9034 60.9481 20.1527 62.2437 20.1154C63.4737 20.0828 64.2851 18.8572 64.7318 17.8903C63.3357 17.4173 61.7152 16.9653 60.9107 16.9653C60.5693 17.2659 60.132 18.4658 59.8888 19.7077L59.8912 19.7053Z" fill="#403F4C"/>
<path d="M74.8946 38.5542C72.5585 38.5542 70.4516 37.1679 70.1826 36.9838L69.6799 36.6413L69.5887 36.0402C69.57 35.9167 69.1467 32.981 70.9146 30.6557L71.0923 30.4227L71.3472 30.2806C72.7479 29.4978 75.5307 30.4717 77.6212 31.4269L78.5566 31.8533L78.4304 32.8692C78.3204 33.7452 77.8855 36.6949 76.8846 37.9321L76.583 38.3072L76.1129 38.4167C75.7061 38.5123 75.2992 38.5519 74.897 38.5519L74.8946 38.5542ZM72.334 35.0104C72.9958 35.3575 73.9896 35.7583 74.8946 35.7583H74.911C75.1074 35.2574 75.3179 34.4372 75.4792 33.5588C74.4433 33.1534 73.4191 32.8482 72.8648 32.7853C72.4369 33.5728 72.341 34.4442 72.334 35.0104Z" fill="#403F4C"/>
<path d="M51.2576 35.7677L50.8203 35.353C50.715 35.2528 48.2316 32.8669 48.2129 29.5072V29.2113L48.3298 28.941C49.0477 27.3007 52.3332 26.2522 54.964 25.6604L55.9578 25.4368L56.477 26.3105C57.0055 27.1982 58.7289 30.2411 58.6845 32.0608L58.6728 32.5454L58.3618 32.9182C56.2689 35.4298 52.3028 35.7094 51.8585 35.7327L51.2552 35.7653L51.2576 35.7677ZM51.0518 29.9825C51.2084 31.2499 51.9006 32.3031 52.3543 32.8716C53.3294 32.7248 54.8401 32.338 55.8129 31.5249C55.6328 30.8189 55.1324 29.6866 54.5735 28.6381C53.0535 29.0528 51.6224 29.5957 51.0518 29.9825Z" fill="#403F4C"/>
<path d="M49.3459 40.2203C49.2126 40.2203 49.0817 40.2086 48.9531 40.1877C48.1743 40.0525 47.5757 39.4561 47.426 38.6686C47.2764 37.8787 47.6225 37.0982 48.3076 36.6811C49.5166 35.9449 50.3725 36.2338 50.7747 36.4691C51.3757 36.8232 51.7124 37.4756 51.6797 38.2119C51.654 38.7827 51.3804 39.3046 50.908 39.6797C50.4754 40.0269 49.9025 40.218 49.3459 40.218V40.2203ZM48.9601 37.7482C48.911 37.8507 48.8806 37.9649 48.8759 38.0837C48.8642 38.3424 49.0092 38.6266 49.2454 38.8083C49.4815 38.9878 49.7318 39.0157 49.8627 39.0017C50.1176 38.799 50.2439 38.4682 50.1831 38.149C50.1153 37.7878 49.8136 37.4989 49.4371 37.4337C49.2968 37.4104 49.2313 37.4383 49.1518 37.5013C49.0723 37.5642 49.0068 37.6504 48.9601 37.7482Z" fill="#403F4C"/>
<path d="M64.9603 36.7626C64.343 36.7626 63.7069 36.5482 63.2252 36.1638C62.7154 35.7561 62.4184 35.1945 62.3903 34.5794C62.3529 33.7873 62.7131 33.0906 63.3515 32.7132C63.7887 32.4569 64.7218 32.1493 66.0851 32.9764C66.8194 33.4238 67.1889 34.2579 67.0275 35.1037C66.8685 35.9448 66.2277 36.5808 65.3999 36.7253C65.2573 36.7509 65.11 36.7626 64.9626 36.7626H64.9603ZM64.958 33.9643C64.958 33.9643 64.9369 33.9643 64.9135 33.9713C64.5908 34.0272 64.3266 34.2789 64.2705 34.5818C64.226 34.8124 64.3032 35.0547 64.4599 35.2272C64.5441 35.2178 64.654 35.1899 64.7662 35.127L65.1942 34.4303C65.1754 34.1647 65.0234 34.0016 64.9603 33.9643H64.958ZM65.1918 34.4303L64.7639 35.127C64.8083 35.1013 64.8551 35.0711 64.8995 35.0338C65.1123 34.8544 65.2012 34.6121 65.1918 34.449C65.1918 34.442 65.1918 34.4373 65.1918 34.4303Z" fill="#403F4C"/>
<path d="M46.3606 36.7113C46.1805 36.7113 46.0028 36.6973 45.8297 36.667C44.8663 36.4993 44.1227 35.756 43.9356 34.7751C43.7462 33.7849 44.1788 32.8064 45.037 32.2844C46.7066 31.2686 47.8197 31.5086 48.4605 31.886C49.1971 32.3217 49.611 33.1395 49.5689 34.0738C49.5362 34.8008 49.1784 35.4695 48.5657 35.9587C47.9624 36.441 47.1416 36.7136 46.3606 36.7136V36.7113Z" fill="#403F4C"/>
<path d="M84.0676 31.6273C83.2305 31.6273 82.3489 31.3337 81.7034 30.8165C81.0557 30.2992 80.6792 29.5933 80.6418 28.8267C80.5974 27.8412 81.03 26.9814 81.8017 26.5271C82.4798 26.1263 83.6677 25.8794 85.466 26.9744C86.3663 27.522 86.82 28.5495 86.6212 29.5909C86.4248 30.6231 85.6461 31.4013 84.6359 31.5784C84.4511 31.611 84.2594 31.6273 84.0676 31.6273Z" fill="#403F4C"/>
<path d="M68.1503 24.3137C67.8767 24.3137 67.6078 24.2834 67.3506 24.2205C66.5812 24.0318 65.9709 23.5705 65.6318 22.9204C65.1945 22.084 65.2249 21.1613 65.7137 20.453C66.1393 19.8356 67.0606 19.1483 69.0249 19.3719C70.0305 19.4861 70.8419 20.1967 71.0898 21.1846C71.3377 22.1609 70.9729 23.1534 70.1637 23.7149C69.6025 24.104 68.8682 24.3161 68.1503 24.3161V24.3137Z" fill="#403F4C"/>
<path d="M78.4475 33.0487C78.0359 33.0487 77.7226 32.9182 77.5261 32.8017C76.9579 32.4662 76.6375 31.8534 76.6703 31.1637C76.696 30.6279 76.9485 30.1409 77.3858 29.7914C77.8722 29.4023 78.548 29.2276 79.156 29.3348C79.8903 29.4629 80.4562 30.0244 80.5989 30.763C80.7392 31.5062 80.4141 32.2402 79.7687 32.6339C79.2589 32.9438 78.8146 33.0487 78.4475 33.0487ZM78.2651 30.2737C77.9354 30.4951 77.767 30.8958 77.8395 31.2849C77.9167 31.6926 78.251 32.0165 78.672 32.0887C78.8567 32.1213 78.9994 32.0864 79.1397 31.9746C79.1911 31.935 79.2355 31.886 79.2753 31.8348C79.3899 31.6857 79.46 31.4946 79.4694 31.2942C79.4834 30.9774 79.308 30.6442 79.0227 30.4438C78.7141 30.2271 78.3937 30.2364 78.2627 30.276L78.2651 30.2737Z" fill="#403F4C"/>
<path d="M52.906 37.648C52.3518 37.648 51.7882 37.4477 51.3767 37.0959C50.7967 36.5972 50.5956 35.8074 50.8622 35.0828C51.1288 34.3535 51.8046 33.8759 52.581 33.8689C52.595 33.8689 52.609 33.8689 52.6231 33.8689C53.9232 33.8689 54.4704 34.5143 54.6832 34.9011C55.0059 35.4929 54.9662 36.1988 54.5733 36.793C54.2693 37.252 53.7853 37.5502 53.2123 37.6294C53.1118 37.6434 53.0112 37.6504 52.9107 37.6504L52.906 37.648ZM52.5903 34.9313C52.4477 35.0012 52.3191 35.1131 52.2279 35.2505C52.0665 35.4952 52.0431 35.847 52.1717 36.1476C52.305 36.4621 52.5529 36.6182 52.6792 36.6602C53.0463 36.6275 53.369 36.3876 53.4953 36.0427C53.6309 35.6723 53.5163 35.2436 53.2053 34.9779C53.0837 34.8731 52.9715 34.8381 52.8195 34.8591C52.74 34.8708 52.6628 34.8941 52.588 34.9313H52.5903Z" fill="#403F4C"/>
<path d="M64.8582 29.314C64.2946 29.314 63.7217 29.109 63.3031 28.7525C62.7185 28.2516 62.5151 27.4524 62.784 26.7208C63.0553 25.9822 63.7358 25.5022 64.5191 25.4929C64.5332 25.4929 64.5472 25.4929 64.5636 25.4929C65.8871 25.4929 66.4437 26.1476 66.6588 26.5391C66.9862 27.1355 66.9418 27.8508 66.5442 28.4496C66.2356 28.9133 65.7468 29.2138 65.1669 29.2954C65.0663 29.3093 64.9611 29.3163 64.8582 29.3163V29.314ZM64.5308 26.6066C64.4022 26.6742 64.2853 26.779 64.2011 26.9072C64.0444 27.1425 64.0234 27.485 64.145 27.7786C64.2713 28.0815 64.5051 28.2376 64.6314 28.2818C64.9868 28.2469 65.2955 28.0116 65.4194 27.6784C65.5527 27.3149 65.4382 26.8932 65.1342 26.6346C65.0032 26.5204 64.9003 26.5088 64.7811 26.5251C64.6969 26.5367 64.6127 26.5647 64.5308 26.609V26.6066Z" fill="#403F4C"/>
<path d="M65.4603 76.6019C81.8596 76.6019 95.1539 63.3561 95.1539 47.0165C95.1539 30.6769 81.8596 17.431 65.4603 17.431C49.0609 17.431 35.7666 30.6769 35.7666 47.0165C35.7666 63.3561 49.0609 76.6019 65.4603 76.6019Z" fill="#A56E00"/>
<path d="M87.5263 29.2718C87.5263 29.2718 91.2888 27.2378 92.1237 27.5011C93.0473 28.6637 92.2897 30.5649 92.2897 30.5649C92.2897 30.5649 89.7314 32.3263 87.8513 32.3263C87.3064 31.7043 87.5263 29.2741 87.5263 29.2741V29.2718Z" fill="#C6935C"/>
<path d="M52.0971 18.6099C52.0971 18.6099 47.025 19.7492 46.4404 21.0843C46.4545 23.8872 48.6105 25.9235 48.6105 25.9235C48.6105 25.9235 52.3474 25.7255 54.1105 23.6122C54.148 22.0535 52.0995 18.6099 52.0995 18.6099H52.0971Z" fill="#C6935C"/>
<path d="M81.935 23.6264C81.935 23.6264 89.2262 3.39795 89.9301 3.39795C90.634 3.39795 92.2826 3.71016 92.9865 4.64679C93.6903 5.58342 85.0685 26.3594 85.0685 26.3594L81.9326 23.6264H81.935Z" fill="#D6B461"/>
<path d="M35.2844 40.6838C34.0988 44.428 30.6379 58.7384 41.7105 58.7384C48.8989 58.7384 48.5247 50.5231 51.3028 46.2057C54.0785 41.8883 58.0516 40.2434 61.585 47.3986C65.1184 54.5538 72.3792 53.4751 74.1471 48.3609C75.915 43.2444 79.3221 38.68 83.8657 39.0505C88.4093 39.4209 91.9217 44.167 94.7325 40.2853C97.6322 36.2825 85.3787 17.3169 64.8073 17.3891C44.236 17.4613 36.926 35.509 35.2844 40.6884V40.6838Z" fill="#4D1600"/>
<path d="M38.8551 42.4078C38.4412 42.4078 38.0835 42.289 37.7678 42.0584C37.4684 41.8393 37.1083 41.4013 37.0779 40.5742C36.94 36.6972 44.9866 24.3998 46.0763 23.4702C46.4691 23.1347 47.0584 23.1813 47.3952 23.5704C47.7296 23.9595 47.6851 24.5466 47.297 24.8821C46.9064 25.2479 44.6498 28.4842 42.3815 32.4777C39.5052 37.5406 38.8762 39.8729 38.9417 40.5369C39.3018 40.4996 40.5669 40.0966 44.0418 36.9115C46.5767 34.5886 49.3618 31.6436 51.3939 29.4954C51.9809 28.8733 52.5094 28.3164 52.9537 27.8551C53.0402 27.7642 61.7299 18.9058 65.8549 20.5834C66.6921 20.9236 67.6859 21.8252 67.6578 24.1878C67.6204 27.5126 66.2431 30.3994 65.137 32.7177C63.5749 35.9935 63.3294 36.9814 64.5828 37.6991C65.8362 38.4143 67.887 35.7815 69.8724 33.2349C72.4236 29.959 75.3163 26.2451 78.9245 25.8444C81.3869 25.5718 83.253 25.9446 84.4713 26.9488C85.9469 28.1673 86.0825 29.9544 86.1573 30.9143C86.1667 31.0494 86.176 31.1683 86.1877 31.2684C86.2181 31.5154 86.2228 31.781 86.2275 32.0653C86.2509 33.4819 86.2743 34.9451 89.029 35.3575C89.5387 35.4344 89.8918 35.9097 89.8147 36.4176C89.7375 36.9255 89.2605 37.275 88.7507 37.2005C84.4292 36.5504 84.3825 33.5401 84.3591 32.0932C84.3544 31.8626 84.3521 31.6436 84.3333 31.4945C84.317 31.3686 84.3053 31.2195 84.2936 31.0541C84.2304 30.2293 84.1439 29.097 83.2787 28.384C82.4673 27.713 81.0712 27.4823 79.1326 27.6967C76.3125 28.0089 73.677 31.3919 71.3526 34.3766C68.7639 37.6991 66.3226 40.8375 63.6544 39.3137C60.7197 37.6361 62.1064 34.7284 63.4486 31.9162C64.529 29.6515 65.7544 27.0839 65.7871 24.1668C65.7964 23.4422 65.6912 22.5312 65.1464 22.3099C63.3925 21.5969 57.9767 25.3295 54.303 29.1459C53.861 29.6049 53.3395 30.1571 52.7549 30.7745C50.5825 33.0741 47.6056 36.2219 44.9117 38.645C42.0495 41.2219 40.1647 42.4125 38.8528 42.4125L38.8551 42.4078Z" fill="#FFE499"/>
<path d="M37.0107 30.3971C37.0107 30.3971 37.8011 34.7681 40.1677 34.8543C42.5342 34.9405 43.0627 33.5425 43.0627 33.5425C43.0627 33.5425 42.623 28.9969 41.3088 28.9106C39.9946 28.8244 37.0107 30.3971 37.0107 30.3971Z" fill="#C6935C"/>
<path d="M81.4222 23.1394C81.4222 23.1394 81.1416 26.7205 79.2404 26.9838C77.3416 27.2447 76.8037 26.1613 76.8037 26.1613C76.8037 26.1613 76.7874 22.466 77.8397 22.2913C78.892 22.1165 81.4222 23.1417 81.4222 23.1417V23.1394Z" fill="#C6935C"/>
<path d="M66.5282 17.0536C66.5282 17.0536 65.4666 21.4246 62.2793 21.5108C59.092 21.597 58.3857 20.199 58.3857 20.199C58.3857 20.199 58.975 15.6533 60.7452 15.5671C62.5154 15.4809 66.5282 17.0536 66.5282 17.0536Z" fill="#C6935C"/>
<path d="M77.0317 32.6966C77.0317 32.6966 73.1031 30.9002 72.0298 31.499C70.5987 33.3816 70.9728 35.8304 70.9728 35.8304C70.9728 35.8304 73.5381 37.5825 75.7877 37.0559C76.6155 36.0331 77.0341 32.6966 77.0341 32.6966H77.0317Z" fill="#C6935C"/>
<path d="M55.271 27.0234C55.271 27.0234 50.1989 28.1628 49.6143 29.4978C49.6283 32.3007 51.7843 34.3371 51.7843 34.3371C51.7843 34.3371 55.5212 34.139 57.2844 32.0258C57.3218 30.4671 55.2733 27.0234 55.2733 27.0234H55.271Z" fill="#C6935C"/>
<path d="M49.0336 37.8739C49.8919 37.352 50.2941 37.6782 50.273 38.1489C50.252 38.6195 49.6229 38.8875 49.1903 38.8106C48.7577 38.7337 48.6291 38.1186 49.0336 37.8739Z" fill="#0E7200"/>
<path d="M65.3489 34.1693C64.2686 33.5122 63.7611 33.9223 63.7892 34.5141C63.8172 35.1059 64.6076 35.4438 65.1525 35.3482C65.6974 35.2527 65.8587 34.4768 65.3513 34.1693H65.3489Z" fill="#0E7200"/>
<path d="M45.7662 33.4751C47.4288 32.4639 48.2075 33.0953 48.1654 34.0063C48.1233 34.915 46.9073 35.4345 46.0702 35.2877C45.233 35.141 44.9851 33.9504 45.7662 33.4751Z" fill="#0E7200"/>
<path d="M84.7365 28.1674C82.8704 27.0327 81.9958 27.7434 82.0449 28.7615C82.0917 29.782 83.4574 30.3645 84.3951 30.2014C85.3328 30.0383 85.6111 28.701 84.7365 28.1674Z" fill="#0E7200"/>
<path d="M68.8642 20.7605C66.8929 20.5345 66.4463 21.4525 66.8742 22.275C67.3045 23.0974 68.6514 23.0578 69.3623 22.5662C70.0732 22.0746 69.7903 20.8677 68.8642 20.7605Z" fill="#0E7200"/>
<path d="M79.0347 31.4433C78.366 31.851 78.0526 31.5947 78.069 31.2289C78.0853 30.8631 78.5764 30.6534 78.9131 30.7117C79.2499 30.7699 79.3504 31.2499 79.0347 31.4409V31.4433Z" fill="#0E7200"/>
<path d="M52.5903 35.2644C53.4672 35.2551 53.6215 35.6791 53.3947 36.0193C53.1679 36.3595 52.5786 36.2826 52.2886 36.0333C51.9987 35.784 52.1787 35.2667 52.5903 35.2621V35.2644Z" fill="#0E7200"/>
<path d="M64.5325 26.8883C65.4468 26.879 65.6082 27.3194 65.372 27.6758C65.1358 28.0323 64.5208 27.9508 64.2191 27.6922C63.9175 27.4335 64.1046 26.893 64.5348 26.8883H64.5325Z" fill="#0E7200"/>
</svg>
