<svg width="316" height="99" viewBox="0 0 316 99" fill="none" xmlns="http://www.w3.org/2000/svg">
  <defs>
    <linearGradient id="paint0_linear_10_157" x1="44.942" y1="-7.68394" x2="44.942" y2="103.516"
      gradientUnits="userSpaceOnUse">
      <stop stop-color="#7FFFE7" />
      <stop offset="0.65" stop-color="#207CAF" />
    </linearGradient>
    <linearGradient id="paint1_linear_10_157" x1="110.5" y1="-7.68394" x2="110.5" y2="103.516"
      gradientUnits="userSpaceOnUse">
      <stop stop-color="#7FFFE7" />
      <stop offset="0.65" stop-color="#207CAF" />
    </linearGradient>
    <linearGradient id="paint2_linear_10_157" x1="171.767" y1="-7.68394" x2="171.767" y2="103.516"
      gradientUnits="userSpaceOnUse">
      <stop stop-color="#7FFFE7" />
      <stop offset="0.65" stop-color="#207CAF" />
    </linearGradient>
    <linearGradient id="paint3_linear_10_157" x1="231.63" y1="-7.68394" x2="231.63" y2="103.516"
      gradientUnits="userSpaceOnUse">
      <stop stop-color="#7FFFE7" />
      <stop offset="0.65" stop-color="#207CAF" />
    </linearGradient>
    <linearGradient id="paint4_linear_10_157" x1="271.994" y1="0.47113" x2="302.087" y2="154.14"
      gradientUnits="userSpaceOnUse">
      <stop stop-color="#7FFFE7" />
      <stop offset="0.65" stop-color="#207CAF" />
    </linearGradient>
  </defs>
  <path
    d="M311.066 29.8036L312.13 27.1266C314.664 20.7663 311.56 13.5232 305.2 10.9886L300.842 9.25141C297.757 8.01733 294.387 8.0648 291.34 9.37482C288.293 10.6848 285.939 13.1055 284.705 16.1812L283.641 18.8582C277.338 20.472 271.975 24.9907 269.449 31.3129L267.247 36.8378C266.07 35.3854 264.466 34.3602 262.672 33.914L261.997 23.5667C261.846 21.2979 260.801 19.1715 259.083 17.6811C257.365 16.1907 255.125 15.4408 252.846 15.6022L222.592 17.814C222.27 17.3679 221.899 16.9597 221.482 16.5799C219.792 15.0326 217.542 14.2257 215.254 14.3491L207.622 14.7573C206.473 14.8238 205.363 15.1085 204.347 15.6022C201.271 13.172 197.389 11.7196 193.164 11.7196C187.279 11.7196 182.01 14.4061 178.631 18.8013H140.906C137.052 18.8013 133.796 21.3549 132.732 24.8673C131.669 24.2312 130.54 23.6332 129.334 23.0826L123.762 20.5385C121.673 19.5892 119.291 19.5133 117.145 20.3391C115 21.165 113.282 22.8168 112.37 24.9242L105.906 39.9135C105.004 42.0115 104.975 44.3942 105.839 46.5111C106.703 48.628 108.374 50.3178 110.491 51.1911L117.639 54.1434C118.237 54.3902 118.854 54.5706 119.48 54.675C119.528 56.0325 119.518 57.7127 119.452 59.8202C118.522 58.7759 117.335 57.9595 115.996 57.4754L108.639 54.7984C106.599 54.058 104.453 54.1339 102.574 54.8838C101.539 50.9728 101.102 43.9385 101.805 30.6864C101.928 28.3417 101.083 26.0539 99.4693 24.3546C97.8555 22.6554 95.6152 21.6871 93.2705 21.6871H83.5307C80.8442 15.156 74.446 10.5519 66.9846 10.5519C61.0705 10.5519 55.8209 13.21 52.4794 17.5672H41.8663C42.0562 17.3679 42.2366 17.1495 42.3884 16.9217C43.6225 15.1275 43.6415 12.7923 42.4454 10.9791L41.4107 9.41279L41.4866 7.53319C41.572 5.35932 40.3475 3.3753 38.354 2.47347C36.3699 1.58114 34.0726 1.97035 32.4968 3.47023L30.0192 5.83396C28.3579 5.38779 26.7061 5.09351 25.0734 4.97011C24.8266 4.72329 24.5607 4.49546 24.276 4.28662C23.2982 3.58414 20.7351 1.74252 13.8527 6.75477C12.9319 7.14398 12.0301 7.59015 11.2137 8.0648C10.6157 8.39705 10.2265 8.65336 9.98913 8.81474C6.23943 11.2829 3.34409 14.7288 2.22393 18.0418C1.66384 19.7031 2.17646 21.5352 3.51496 22.6744C5.67935 24.5065 8.9544 25.8071 12.5332 26.3197C11.508 27.1835 10.6631 28.3037 10.1315 29.6232C8.22345 34.3127 6.96089 38.2333 6.17298 41.9735C4.806 48.5616 4.73006 55.1022 5.94515 61.434C7.30263 68.4207 10.1505 73.3855 13.1977 78.2744C15.6469 82.2139 20.7921 83.4765 24.7886 81.1128L28.6142 78.8534C29.0034 79.7458 29.4591 80.6096 29.9812 81.445C30.0287 81.521 30.0761 81.5874 30.1141 81.6539C34.1106 87.6534 40.9645 91.2322 48.4259 91.2322C53.9888 91.2322 59.3333 89.1628 63.719 85.3656C64.8487 86.125 66.1587 86.6187 67.5447 86.78C70.0128 87.0553 72.4905 86.2484 74.3226 84.5492L82.0878 77.3251C82.2966 77.1352 82.496 76.9264 82.6764 76.7175C86.502 81.1792 91.7516 84.6536 98.8523 87.2642L104.073 89.1912C105.051 89.552 106.048 89.7228 107.026 89.7228C110.462 89.7228 113.69 87.6439 115 84.2549L121.047 68.5821L121.075 68.4967C121.256 68.734 121.455 68.9618 121.664 69.1897C123.278 70.8889 125.518 71.8477 127.853 71.8477H139.064C143.659 71.8477 147.428 68.2214 147.598 63.6268C147.826 57.5893 147.731 51.5708 146.678 45.989H168.597L162.142 59.2886C158.639 58.6715 154.984 60.2948 153.171 63.5699L149.525 70.1674C148.396 72.2179 148.149 74.6291 148.851 76.8599C149.554 79.0908 151.139 80.9324 153.237 81.9671L168.91 89.6659C170.125 90.2639 171.407 90.5392 172.669 90.5392C175.802 90.5392 178.821 88.802 180.32 85.8118L195.015 56.4217C196.411 59.2316 199.306 61.1682 202.657 61.1682H228.525L222.051 73.471C220.988 75.5024 220.779 77.8757 221.472 80.0591C222.165 82.2424 223.722 84.0556 225.763 85.0808L235.455 89.9602C236.689 90.5772 237.999 90.8715 239.29 90.8715C242.357 90.8715 245.309 89.2197 246.847 86.3339L252.41 75.8537C252.324 77.7428 252.647 79.6414 253.416 81.426C254.745 84.5302 257.204 86.9224 260.346 88.1755L280.214 96.1021C281.942 96.7951 283.736 97.0704 285.492 96.9849C290.286 96.7571 294.739 93.7858 296.637 89.0488L312.804 48.5616C315.329 42.2393 314.55 35.262 311.095 29.7561L311.066 29.8036Z"
    fill="white" />
  <path
    d="M311.066 29.8036L312.13 27.1266C314.664 20.7663 311.56 13.5232 305.2 10.9886L300.843 9.25141C297.757 8.01733 294.387 8.0648 291.34 9.37482C288.293 10.6848 285.939 13.1055 284.705 16.1812L283.641 18.8582C277.338 20.472 271.975 24.9907 269.449 31.3129L267.247 36.8378C266.07 35.3854 264.466 34.3602 262.672 33.914L261.997 23.5667C261.846 21.2979 260.801 19.1715 259.083 17.6811C257.365 16.1907 255.125 15.4408 252.846 15.6022L222.592 17.814C222.27 17.3679 221.899 16.9597 221.482 16.5799C219.792 15.0326 217.542 14.2257 215.254 14.3491L207.622 14.7573C206.473 14.8238 205.363 15.1085 204.347 15.6022C201.271 13.172 197.389 11.7196 193.164 11.7196C187.279 11.7196 182.01 14.4061 178.631 18.8013H140.906C137.052 18.8013 133.796 21.3549 132.732 24.8673C131.669 24.2312 130.54 23.6332 129.334 23.0826L123.762 20.5385C121.673 19.5892 119.291 19.5132 117.145 20.3391C115 21.165 113.282 22.8168 112.37 24.9242L105.906 39.9135C105.004 42.0115 104.975 44.3942 105.839 46.5111C106.703 48.628 108.374 50.3178 110.491 51.1911L117.639 54.1434C118.237 54.3902 118.854 54.5706 119.48 54.675C119.528 56.0325 119.518 57.7127 119.452 59.8202C118.522 58.7759 117.335 57.9596 115.996 57.4754L108.639 54.7984C106.598 54.058 104.453 54.1339 102.574 54.8838C101.539 50.9728 101.102 43.9385 101.805 30.6864C101.928 28.3417 101.083 26.0539 99.4693 24.3546C97.8555 22.6554 95.6152 21.6871 93.2705 21.6871H83.5307C80.8442 15.156 74.446 10.5519 66.9846 10.5519C61.0705 10.5519 55.8209 13.21 52.4794 17.5672H41.8663C42.0562 17.3679 42.2366 17.1495 42.3884 16.9217C43.6225 15.1275 43.6415 12.7923 42.4454 10.9791L41.4107 9.41279L41.4866 7.53319C41.572 5.35932 40.3475 3.3753 38.354 2.47347C36.3699 1.58114 34.0726 1.97035 32.4968 3.47023L30.0192 5.83396C28.3579 5.38779 26.7061 5.09351 25.0734 4.97011C24.8266 4.72329 24.5607 4.49546 24.276 4.28662C23.2982 3.58414 20.7351 1.74252 13.8527 6.75477C12.9319 7.14398 12.0301 7.59015 11.2137 8.0648C10.6157 8.39705 10.2265 8.65336 9.98913 8.81474C6.23943 11.2829 3.34409 14.7288 2.22393 18.0418C1.66384 19.7031 2.17646 21.5352 3.51496 22.6744C5.67935 24.5065 8.9544 25.8071 12.5332 26.3197C11.508 27.1835 10.6631 28.3037 10.1315 29.6232C8.22345 34.3127 6.96089 38.2333 6.17298 41.9735C4.806 48.5616 4.73006 55.1022 5.94515 61.434C7.30263 68.4207 10.1505 73.3855 13.1977 78.2744C15.6469 82.2139 20.7921 83.4765 24.7886 81.1128L28.6142 78.8534C29.0034 79.7458 29.4591 80.6096 29.9812 81.445C30.0287 81.521 30.0761 81.5874 30.1141 81.6539C34.1106 87.6534 40.9645 91.2322 48.4259 91.2322C53.9888 91.2322 59.3333 89.1628 63.719 85.3656C64.8487 86.125 66.1587 86.6187 67.5447 86.78C70.0128 87.0553 72.4905 86.2484 74.3226 84.5492L82.0878 77.3251C82.2966 77.1352 82.496 76.9264 82.6764 76.7175C86.502 81.1792 91.7516 84.6536 98.8523 87.2642L104.073 89.1912C105.051 89.552 106.048 89.7228 107.026 89.7228C110.462 89.7228 113.69 87.6439 115 84.2549L121.047 68.5821L121.075 68.4967C121.256 68.734 121.455 68.9618 121.664 69.1897C123.278 70.8889 125.518 71.8477 127.853 71.8477H139.064C143.659 71.8477 147.428 68.2214 147.598 63.6268C147.826 57.5893 147.731 51.5708 146.678 45.989H168.597L162.142 59.2886C158.639 58.6715 154.984 60.2948 153.171 63.5699L149.525 70.1674C148.396 72.2179 148.149 74.6291 148.851 76.8599C149.554 79.0908 151.139 80.9324 153.237 81.9671L168.91 89.6659C170.125 90.2639 171.407 90.5392 172.669 90.5392C175.802 90.5392 178.821 88.802 180.32 85.8118L195.015 56.4217C196.411 59.2316 199.306 61.1682 202.657 61.1682H228.525L222.051 73.471C220.988 75.5024 220.779 77.8757 221.472 80.0591C222.165 82.2424 223.722 84.0556 225.763 85.0808L235.455 89.9602C236.689 90.5772 237.999 90.8715 239.29 90.8715C242.357 90.8715 245.309 89.2197 246.847 86.3339L252.41 75.8537C252.324 77.7428 252.647 79.6414 253.416 81.426C254.745 84.5302 257.204 86.9224 260.346 88.1755L280.214 96.1021C281.942 96.7951 283.736 97.0704 285.492 96.9849C290.286 96.7571 294.739 93.7858 296.637 89.0488L312.804 48.5616C315.329 42.2393 314.55 35.262 311.095 29.7561L311.066 29.8036Z"
    stroke="#207CAF" stroke-width="3" stroke-linecap="round" stroke-linejoin="round" />
  <path
    d="M29.8293 59.336L33.8163 65.8671L20.4124 73.7747C17.4601 69.0283 15.3241 65.1077 14.2894 59.8202C13.2547 54.4567 13.3971 49.0267 14.4983 43.7297C15.2577 40.1508 16.4918 36.5815 18.0011 32.8698L28.1776 36.3062C26.7346 40.4356 25.0164 44.4891 24.5323 49.0267C24.0481 53.3555 24.4658 57.7602 25.9087 61.7472L29.8293 59.336ZM68.475 78.3124C67.3073 76.5941 65.1714 73.7083 63.045 71.2971C62.1527 73.9836 60.9851 76.11 59.3333 77.7618C56.3051 80.9229 52.3845 82.7171 48.3975 82.7171C43.9927 82.7171 39.664 80.6571 37.1863 76.9454C35.4681 74.1924 34.9175 70.6231 35.677 66.9778C36.5693 62.9908 38.9045 59.7537 42.3505 57.6938C46.4799 55.1497 51.0175 54.4662 55.4127 55.2826L55.4792 49.6438H36.294V40.5685H55.0615C54.8526 37.8156 54.6533 36.8568 54.5109 35.8885H34.7751V26.1203H57.6056C58.7068 21.9909 62.4185 19.1051 66.9561 19.1051C72.0443 19.1051 76.3066 23.3009 76.3066 28.522C76.3066 33.7431 72.0443 38.0149 66.9561 38.0149C66.472 38.0149 66.0638 37.9485 65.7885 37.9485C65.8549 38.2902 65.8549 38.5655 65.9309 40.559H73.079V49.6343H66.4055C66.3391 54.1719 66.1967 56.9248 65.8549 59.6778C69.6331 62.4307 72.7278 65.6583 76.2402 71.0882L68.475 78.3124ZM46.1287 70.4712C46.1951 71.5059 47.2298 72.1894 48.331 72.1894C51.4921 72.2559 53.0775 68.2024 53.761 65.4495C53.4857 65.383 52.8686 65.3166 52.2516 65.3166C49.2233 65.3166 45.8534 67.1772 46.1287 70.4712ZM70.1932 28.5315C70.1932 26.6045 68.6838 25.0286 66.9656 25.0286C64.9056 25.0286 63.3868 26.614 63.3868 28.5315C63.3868 30.4491 64.8961 32.1103 66.9656 32.1103C68.6838 32.1103 70.1932 30.525 70.1932 28.5315Z"
    fill="black" />
  <path
    d="M113.044 65.5254L106.997 81.1982L101.776 79.2711C85.135 73.1482 80.7303 62.0795 82.1068 30.2402H93.242C91.8655 56.2318 94.2008 64.073 103.561 68.1929L105.697 62.8294L113.054 65.5159L113.044 65.5254ZM127.825 63.323C128.508 49.919 127.616 45.3055 122.67 41.7362L120.885 46.2738L113.737 43.3215L120.202 28.3322L125.774 30.8763C136.501 35.7556 139.729 45.2485 139.045 63.3325H127.834L127.825 63.323Z"
    fill="black" />
  <path
    d="M172.66 82.0336L156.987 74.3348L160.632 67.7372L166.129 70.6231L182.219 37.4833H140.896V27.3734H183.738C184.906 23.244 188.617 20.2917 193.155 20.2917C198.452 20.2917 202.648 24.4211 202.648 29.6422C202.648 34.5975 198.936 38.7174 194.123 39.1351L172.669 82.0431L172.66 82.0336ZM189.851 29.6422C189.851 31.5693 191.361 33.1451 193.155 33.1451C194.949 33.1451 196.316 31.5598 196.316 29.6422C196.316 27.8575 194.94 26.3387 193.155 26.3387C191.37 26.3387 189.851 27.848 189.851 29.6422Z"
    fill="black" />
  <path
    d="M229.598 77.496L242.66 52.672H202.638V42.2203H260.602L239.29 82.3753L229.598 77.496ZM254.147 34.6544L208.904 37.882L208.078 23.3009L215.71 22.8927L215.843 26.8798L253.454 24.1268L254.137 34.645L254.147 34.6544Z"
    fill="black" />
  <path
    d="M29.8293 59.336L33.8163 65.8671L20.4124 73.7747C17.4601 69.0283 15.3241 65.1077 14.2894 59.8202C13.2547 54.4567 13.3971 49.0267 14.4983 43.7297C15.2577 40.1508 16.4918 36.5815 18.0011 32.8698L28.1776 36.3062C26.7346 40.4356 25.0164 44.4891 24.5323 49.0267C24.0481 53.3555 24.4658 57.7602 25.9087 61.7472L29.8293 59.336ZM68.475 78.3124C67.3073 76.5941 65.1714 73.7083 63.045 71.2971C62.1527 73.9836 60.9851 76.11 59.3333 77.7618C56.3051 80.9229 52.3845 82.7171 48.3975 82.7171C43.9927 82.7171 39.664 80.6571 37.1863 76.9454C35.4681 74.1924 34.9175 70.6231 35.677 66.9778C36.5693 62.9908 38.9045 59.7537 42.3505 57.6938C46.4799 55.1497 51.0175 54.4662 55.4127 55.2826L55.4792 49.6438H36.294V40.5685H55.0615C54.8526 37.8156 54.6533 36.8568 54.5109 35.8885H34.7751V26.1203H57.6056C58.7068 21.9909 62.4185 19.1051 66.9561 19.1051C72.0443 19.1051 76.3066 23.3009 76.3066 28.522C76.3066 33.7431 72.0443 38.0149 66.9561 38.0149C66.472 38.0149 66.0638 37.9485 65.7885 37.9485C65.8549 38.2902 65.8549 38.5655 65.9309 40.559H73.079V49.6343H66.4055C66.3391 54.1719 66.1967 56.9248 65.8549 59.6778C69.6331 62.4307 72.7278 65.6583 76.2402 71.0882L68.475 78.3124ZM46.1287 70.4712C46.1951 71.5059 47.2298 72.1894 48.331 72.1894C51.4921 72.2559 53.0775 68.2024 53.761 65.4495C53.4857 65.383 52.8686 65.3166 52.2516 65.3166C49.2233 65.3166 45.8534 67.1772 46.1287 70.4712ZM70.1932 28.5315C70.1932 26.6045 68.6838 25.0286 66.9656 25.0286C64.9056 25.0286 63.3868 26.614 63.3868 28.5315C63.3868 30.4491 64.8961 32.1103 66.9656 32.1103C68.6838 32.1103 70.1932 30.525 70.1932 28.5315Z"
    fill="url(#paint0_linear_10_157)" />
  <path
    d="M113.044 65.5254L106.997 81.1982L101.776 79.2711C85.135 73.1482 80.7303 62.0795 82.1068 30.2402H93.242C91.8655 56.2318 94.2008 64.073 103.561 68.1929L105.697 62.8294L113.054 65.5159L113.044 65.5254ZM127.825 63.323C128.508 49.919 127.616 45.3055 122.67 41.7362L120.885 46.2738L113.737 43.3215L120.202 28.3322L125.774 30.8763C136.501 35.7556 139.729 45.2485 139.045 63.3325H127.834L127.825 63.323Z"
    fill="url(#paint1_linear_10_157)" />
  <path
    d="M172.66 82.0336L156.987 74.3348L160.632 67.7372L166.129 70.6231L182.219 37.4833H140.896V27.3734H183.738C184.906 23.244 188.617 20.2917 193.155 20.2917C198.452 20.2917 202.648 24.4211 202.648 29.6422C202.648 34.5975 198.936 38.7174 194.123 39.1351L172.669 82.0431L172.66 82.0336ZM189.851 29.6422C189.851 31.5693 191.361 33.1451 193.155 33.1451C194.949 33.1451 196.316 31.5598 196.316 29.6422C196.316 27.8575 194.94 26.3387 193.155 26.3387C191.37 26.3387 189.851 27.848 189.851 29.6422Z"
    fill="url(#paint2_linear_10_157)" />
  <path
    d="M229.598 77.496L242.66 52.672H202.638V42.2203H260.602L239.29 82.3753L229.598 77.496ZM254.147 34.6544L208.904 37.882L208.078 23.3009L215.71 22.8927L215.843 26.8798L253.454 24.1268L254.137 34.645L254.147 34.6544Z"
    fill="url(#paint3_linear_10_157)" />
  <path
    d="M304.203 23.9654C305 21.9814 304.032 19.7221 302.039 18.9247L297.672 17.1875C295.688 16.3901 293.429 17.3584 292.631 19.3519L291.274 22.7408L302.836 27.3544L304.194 23.9654H304.203Z"
    fill="#FFCD4E" />
  <path
    d="M300.719 30.9902L301.668 28.617L291.274 24.4686L290.324 26.8418C284.904 26.1583 279.493 29.1771 277.376 34.4836L265.975 63.0573L261.219 74.9709C260.384 77.0688 261.399 79.4515 263.497 80.2869L283.366 88.2135C285.464 89.0489 287.847 88.0331 288.682 85.9352L292.755 75.7303L304.849 45.4479C306.965 40.1414 305.124 34.2273 300.729 30.9902H300.719Z"
    fill="url(#paint4_linear_10_157)" />
  <path d="M273.708 43.6806L265.29 64.7697L292.753 75.732L301.171 54.6429L273.708 43.6806Z" fill="#FFCD4E" />
  <path
    d="M290.979 55.6907C290.172 56.3552 288.967 58.6335 289.195 60.3992C289.565 60.3613 289.916 60.1999 290.22 60.01C289.878 62.687 288.255 64.3103 287.382 64.9938C287.049 65.2596 287.325 65.0318 287.325 65.0318C287.201 65.1172 287.049 65.1457 286.907 65.0982C286.765 65.0508 286.651 64.9463 286.594 64.8134L286.556 64.728L283.214 56.2318L284.818 55.6148C285.094 55.8901 285.521 55.9945 285.91 55.8426C286.442 55.6433 286.708 55.0452 286.499 54.5136C286.29 53.982 285.701 53.7162 285.17 53.9251C284.78 54.0769 284.534 54.4377 284.515 54.8269L282.91 55.4439L282.189 53.6213L282.151 53.5359C282.094 53.384 282.113 53.2131 282.208 53.0802C282.208 53.0802 282.274 53.0232 282.36 52.8714C282.654 52.3303 282.721 51.6658 282.483 51.0392C282.056 49.9191 280.784 49.3495 279.664 49.7862C278.544 50.2228 277.974 51.4854 278.411 52.6055C278.648 53.2226 279.142 53.6782 279.73 53.8776C279.892 53.9346 279.987 53.9346 279.987 53.9346C280.148 53.9725 280.281 54.0864 280.338 54.2383L280.376 54.3333L281.059 56.1654L279.455 56.7824C279.18 56.5071 278.753 56.4027 278.363 56.5546C277.832 56.7539 277.566 57.352 277.775 57.8836C277.984 58.4152 278.572 58.681 279.104 58.4722C279.493 58.3203 279.74 57.9595 279.759 57.5703L281.363 56.9533L284.562 65.4969L284.591 65.5824C284.648 65.7248 284.629 65.8766 284.553 66.0095C284.477 66.1424 284.344 66.2184 284.192 66.2374C284.192 66.2374 284.553 66.2184 284.125 66.2374C283.015 66.3133 280.727 66.1899 278.677 64.4337C279.028 64.3673 279.398 64.2533 279.702 64.035C278.696 62.5731 276.265 61.6903 275.231 61.7377C274.709 63.1332 275.335 65.3355 276.579 66.6076C276.901 66.3133 277.11 65.8956 277.243 65.5064C278.022 66.3418 280.983 69.1042 286.109 68.715C286.375 68.696 286.708 68.715 286.964 68.715C287.163 68.5441 287.382 68.2973 287.59 68.136C291.653 64.9938 292.014 60.9593 292.024 59.8202C292.375 60.0195 292.812 60.1904 293.248 60.1999C293.315 58.4247 292.308 56.3647 290.989 55.6813L290.979 55.6907ZM277.423 64.6521C277.433 64.5571 277.442 64.4907 277.442 64.4907C277.442 64.4907 277.471 64.4907 277.518 64.4907L277.423 64.6426V64.6521ZM280.831 52.8239C280.281 53.0327 279.664 52.7574 279.445 52.2068C279.227 51.6563 279.512 51.0392 280.063 50.8209C280.613 50.6025 281.23 50.8873 281.448 51.4379C281.667 51.9885 281.382 52.6055 280.831 52.8239ZM291.112 59.2791L291.169 59.2221C291.169 59.2221 291.217 59.2601 291.283 59.3265L291.112 59.2791Z"
    fill="#207CAF" />
  <path
    d="M37.2433 10.9127C37.1199 10.7323 37.0629 10.514 37.0724 10.2861L37.1863 7.37182C37.2053 6.94464 36.9585 6.54594 36.5693 6.37506C36.1801 6.1947 35.7244 6.28013 35.4112 6.57441L31.1014 10.6848C28.1016 9.57418 25.2917 9.1375 22.7191 9.18497C22.5483 8.71981 22.2445 8.14074 21.7414 7.77052C20.9535 7.20095 17.5265 9.30837 15.9222 10.5235C14.9729 10.8937 14.0806 11.3304 13.2547 11.8145C12.6187 12.1657 12.3719 12.3556 12.3719 12.3556C9.09681 14.4915 6.95141 17.3014 6.23944 19.4278C7.88171 20.8138 10.9479 22.0479 14.6217 22.2757C14.6217 22.2757 14.6597 22.2757 14.7641 22.2757C14.9255 22.2757 15.0868 22.2947 15.2482 22.2947C15.495 22.2947 15.8273 22.2947 16.2829 22.2947C17.7069 22.2567 19.1878 22.0763 20.6971 21.6776C20.7826 21.7536 20.868 21.8105 20.9819 21.858L23.4216 22.8927C23.9437 23.1111 24.5418 22.8927 24.7886 22.3801L24.9785 21.9719C25.1208 21.6681 25.1114 21.3169 24.95 21.0226C24.7886 20.7283 24.4943 20.529 24.1621 20.4815H24.0671C26.915 19.1335 29.7344 16.9881 32.25 13.7416L37.7464 14.9567C38.1641 15.0516 38.6008 14.8807 38.8381 14.52C39.0849 14.1687 39.0849 13.7036 38.8476 13.3429L37.2433 10.9127Z"
    fill="#207CAF" />
  <path
    d="M39.3317 19.219C39.2938 19.1525 39.2843 19.0671 39.2938 18.9911L39.4456 17.9374C39.4646 17.7855 39.3982 17.6336 39.2558 17.5482C39.1229 17.4723 38.952 17.4818 38.8286 17.5767L37.1104 18.9057C36.0662 18.3931 35.0599 18.1273 34.1296 18.0418C34.0821 17.8615 33.9967 17.6431 33.8258 17.4912C33.56 17.2539 32.2405 17.8899 31.614 18.2697C31.2533 18.3646 30.9115 18.4975 30.5983 18.6399C30.3514 18.7443 30.2565 18.8013 30.2565 18.8013C28.9939 19.4563 28.1111 20.3866 27.7694 21.1365C28.3105 21.6966 29.3832 22.2662 30.7027 22.4845H30.7501C30.8071 22.5035 30.8641 22.513 30.9305 22.5225C31.0159 22.5225 31.1393 22.5415 31.3007 22.5605C31.8133 22.5984 32.3639 22.5889 32.924 22.5035C32.9525 22.532 32.981 22.5605 33.0189 22.5794L33.8638 23.0446C34.0442 23.1395 34.272 23.0826 34.3764 22.9117L34.4619 22.7693C34.5283 22.6649 34.5378 22.532 34.4903 22.4276C34.4429 22.3136 34.348 22.2282 34.2245 22.1997H34.1961C35.2783 21.8105 36.3794 21.146 37.4142 20.0543L39.3602 20.6999C39.5121 20.7473 39.6735 20.6999 39.7684 20.5859C39.8728 20.4625 39.8918 20.3012 39.8159 20.1588L39.3222 19.219H39.3317Z"
    fill="#207CAF" />
  <path
    d="M16.2165 42.1159C13.9762 48.8938 14.0047 56.2888 16.2925 63.0573C16.5867 63.9211 17.9632 63.5509 17.6689 62.6776C15.4571 56.1274 15.4286 49.0552 17.593 42.4956C17.8778 41.6223 16.5108 41.252 16.2165 42.1159Z"
    fill="#B6E9EB" />
  <path
    d="M85.866 54.058C85.9989 57.1432 86.2647 60.3043 87.2899 63.2376C88.2392 65.9526 89.853 68.2973 91.9225 70.2813C92.587 70.9174 93.5932 69.9111 92.9287 69.2751C90.9922 67.4145 89.4638 65.2216 88.5999 62.668C87.6696 59.8961 87.4228 56.9628 87.2899 54.058C87.2519 53.1466 85.828 53.1372 85.866 54.058Z"
    fill="#B6E9EB" />
  <path
    d="M183.529 53.8586L175.517 69.9776C175.109 70.794 176.343 71.5154 176.751 70.6991L184.763 54.5801C185.171 53.7637 183.937 53.0422 183.529 53.8586Z"
    fill="#B6E9EB" />
  <path
    d="M246.486 62.8769L239.48 76.0435C239.053 76.8504 240.278 77.5719 240.714 76.765L247.72 63.5983C248.147 62.7914 246.923 62.07 246.486 62.8769Z"
    fill="#B6E9EB" />
  <path
    d="M248.594 61.339C249.514 61.339 249.514 59.9151 248.594 59.9151C247.673 59.9151 247.673 61.339 248.594 61.339Z"
    fill="#B6E9EB" />
  <path
    d="M299.485 40.0369C300.178 41.271 299.817 42.8943 299.485 44.1853C298.849 46.6345 297.814 48.9887 296.827 51.3145C296.466 52.1499 297.729 52.8144 298.09 51.9695C299.162 49.4444 300.301 46.8813 300.947 44.2138C301.346 42.581 301.535 40.7774 300.681 39.2585C300.235 38.4611 299.039 39.2395 299.485 40.0369Z"
    fill="#B6E9EB" />
</svg>