<svg width="130" height="80" viewBox="0 0 130 80" fill="none" xmlns="http://www.w3.org/2000/svg">
<mask id="mask0_491_117" style="mask-type:alpha" maskUnits="userSpaceOnUse" x="0" y="0" width="130" height="80">
<rect width="130" height="80" fill="#D9D9D9"/>
</mask>
<g mask="url(#mask0_491_117)">
</g>
<g clip-path="url(#clip0_491_117)">
<path d="M66.1928 11.0446C66.4255 11.0446 66.6688 11.0655 66.9226 11.1073C70.8753 11.7706 67.8812 14.7659 72.5229 14.7659C73.1633 14.7659 73.9496 14.7085 74.9201 14.5805C75.7288 14.4735 76.4204 14.4238 77.0109 14.4238C80.2824 14.4238 80.4179 15.9516 79.7275 17.7613C81.6171 18.4834 83.4567 19.37 85.1662 20.3976C87.1623 19.8779 89.424 19.131 91.9474 18.093C92.4549 17.8841 92.8442 17.79 93.1335 17.79C95.077 17.79 92.4852 22.0441 90.4181 24.4663C92.2735 26.3518 93.6713 28.471 94.3748 30.7521C94.7114 30.7404 95.0441 30.7338 95.3715 30.7338C99.0836 30.7338 102.016 31.5799 99.7595 36.1474C96.4445 42.855 103.361 40.2305 103.64 44.4911C103.785 46.7043 101.127 47.4838 97.4965 47.4838C94.5812 47.4838 91.0387 46.9811 87.8171 46.3178C85.2017 48.5219 82.7072 50.3539 80.3377 51.875C83.1438 53.1351 86.2089 53.5686 89.253 53.5686C93.6581 53.5686 98.0211 52.6598 101.482 52.0278C104.981 51.3893 109.34 50.3852 111.866 50.3852C114.111 50.3852 114.91 51.1791 112.375 53.7279C107.698 58.4298 89.9066 68.9554 75.9812 68.9554C73.8602 68.9554 71.8273 68.7112 69.9456 68.1641C61.1552 65.6114 59.4116 61.8261 59.7298 58.8137C59.7232 58.8137 59.7179 58.8137 59.7114 58.8137C59.7166 58.8163 59.7206 58.819 59.7245 58.8216C53.6113 61.591 48.9077 62.4698 44.9208 62.4698C40.9339 62.4698 37.6215 61.5793 34.3591 60.8324C32.893 60.4968 28.2236 58.2497 27.1269 54.0948C26.6627 54.164 26.1893 54.2032 25.7028 54.2032C24.0144 54.2032 22.1866 53.7383 20.1721 52.5122C12.3429 47.3846 10.5441 30.6581 36.4933 19.5698C36.7537 19.4588 37.0074 19.3334 37.2507 19.1898C39.4861 17.8697 42.4816 16.4334 44.1147 16.4334C45.3876 16.4334 45.8347 17.3056 44.4501 19.7878C44.2449 20.1678 44.0358 20.378 43.8176 20.7462C39.9332 26.9407 31.4662 34.7973 37.757 38.0995C38.9759 27.4447 50.2332 19.2342 61.5628 16.5339C62.2124 13.5555 63.6076 11.0446 66.1928 11.0446ZM66.1928 10C64.6608 10 63.3183 10.7077 62.3097 12.0474C61.618 12.9666 61.0723 14.1849 60.6871 15.6747C54.9223 17.1489 49.439 19.9275 45.1851 23.5405C40.8076 27.2579 38.0094 31.5995 37.0088 36.1918C36.8155 35.9359 36.6866 35.6591 36.6182 35.3588C36.0896 33.0385 38.9799 29.1813 41.5296 25.7799C42.6486 24.2874 43.8044 22.744 44.7117 21.2986C44.717 21.2907 44.7209 21.2842 44.7249 21.2764C44.7998 21.1497 44.8761 21.0439 44.9655 20.9212C45.0904 20.7488 45.2311 20.553 45.3745 20.2892C46.6947 17.9206 46.408 16.9061 46.0767 16.3498C45.8163 15.9124 45.2653 15.3901 44.1147 15.3901C41.8728 15.3901 38.1909 17.4205 36.7129 18.2941C36.5222 18.4063 36.3079 18.5134 36.0765 18.6127C28.9336 21.6655 23.3885 25.3385 19.5975 29.5312C16.3285 33.1468 14.4127 37.1515 14.0589 41.1131C13.6092 46.152 15.7315 50.8553 19.5949 53.3845C19.6041 53.391 19.6146 53.3962 19.6238 53.4028C21.662 54.6445 23.6515 55.2478 25.7041 55.2478C25.9316 55.2478 26.1617 55.2399 26.3932 55.2243C26.9047 56.5378 27.929 58.187 29.9685 59.7264C31.507 60.8886 33.1638 61.6302 34.1238 61.8496C34.4959 61.9344 34.868 62.0219 35.2428 62.1094C38.1948 62.8002 41.2468 63.5144 44.9221 63.5144C49.2049 63.5144 53.727 62.4972 58.7054 60.408C58.9 61.8352 59.5483 63.1592 60.6424 64.3618C62.4399 66.3361 65.4709 67.9526 69.6511 69.1669C71.5538 69.7193 73.684 70 75.9812 70C79.337 70 83.103 69.4085 87.1754 68.2412C90.685 67.2358 94.3603 65.8242 98.0987 64.0471C105.29 60.6287 110.826 56.7703 113.122 54.4617C114.217 53.361 115.405 51.9312 114.862 50.6411C114.315 49.3406 112.471 49.3406 111.865 49.3406C109.828 49.3406 106.788 49.936 103.848 50.5118C102.951 50.6868 102.104 50.8526 101.29 51.0015C100.917 51.0694 100.534 51.1412 100.142 51.2143C96.9994 51.798 93.0874 52.5253 89.253 52.5253C86.7586 52.5253 84.5679 52.2276 82.6125 51.6191C84.4351 50.3656 86.2747 48.9659 88.1051 47.4434C90.7061 47.9617 94.2919 48.5297 97.4951 48.5297C100.698 48.5297 102.758 47.9657 103.853 46.8049C104.459 46.1624 104.748 45.3398 104.688 44.4245C104.531 42.0428 102.79 41.2333 101.518 40.6418C100.663 40.2448 100.133 39.9719 99.9765 39.5293C99.8397 39.1428 99.8542 38.3228 100.702 36.607C101.745 34.4957 101.881 32.8765 101.115 31.6557C100.021 29.9112 97.4702 29.6879 95.3715 29.6879C95.29 29.6879 95.2071 29.6879 95.123 29.6879C94.4379 27.8586 93.3281 26.0906 91.8132 24.414C92.5707 23.4491 93.2965 22.3784 93.8317 21.4265C94.8232 19.6612 95.0927 18.503 94.7048 17.6712C94.43 17.081 93.858 16.7428 93.1348 16.7428C92.6916 16.7428 92.1709 16.8682 91.5463 17.1254C89.3766 18.0172 87.2846 18.7393 85.324 19.2721C83.963 18.4782 82.5192 17.7665 81.0162 17.1463C81.17 16.4334 81.2055 15.5089 80.6638 14.7294C80.0313 13.8206 78.8373 13.3779 77.0122 13.3779C76.3652 13.3779 75.6144 13.4341 74.782 13.5438C73.8971 13.6613 73.137 13.72 72.5229 13.72C71.4591 13.72 71.0015 13.5464 70.8056 13.4001C70.6281 13.2683 70.5413 13.0593 70.3927 12.6702C70.06 11.8019 69.5551 10.4883 67.0974 10.0757C66.7911 10.0261 66.486 10 66.1928 10Z" fill="#403F4C"/>
<path d="M81.5595 21.1458C84.2801 20.7436 87.7569 19.8165 91.9489 18.0929C96.141 16.3694 92.3237 22.4567 89.9265 25.0199C87.5294 27.5831 81.5595 21.1458 81.5595 21.1458Z" fill="#E5DC80"/>
<path d="M61.091 21.2254C61.091 16.5443 62.4243 10.3525 66.9228 11.1072C71.4212 11.862 66.9228 15.6382 74.9203 14.5805C82.9178 13.5229 79.5858 18.0538 78.0854 21.0739C76.5864 24.0941 61.091 21.2254 61.091 21.2254Z" fill="#E5DC80"/>
<path d="M86.3788 46.0057C93.8135 47.6967 103.918 48.753 103.639 44.4924C103.36 40.2318 96.4447 42.855 99.7584 36.1487C103.073 29.4411 95.1968 30.7586 90.0935 30.9963C84.9902 31.2339 86.3775 46.007 86.3775 46.007L86.3788 46.0057Z" fill="#E5DC80"/>
<path d="M44.4516 19.7865C44.2465 20.1664 44.0374 20.3767 43.8191 20.7449C39.4982 27.6379 29.5019 36.5874 40.4739 39.0318C51.4471 41.4761 44.5437 41.8443 44.5437 41.8443L32.905 51.8659C29.3823 53.7422 25.4032 55.6969 20.175 52.5109C12.3432 47.3846 10.5443 30.658 36.4935 19.5697C36.7539 19.4587 37.0077 19.3334 37.2509 19.1897C41.2287 16.8407 47.6114 14.1222 44.4503 19.7865H44.4516Z" fill="#E5DC80"/>
<path d="M52.2585 57.6555C55.9601 58.7745 68.6743 62.4502 87.8279 46.3086C106.98 30.1671 82.6772 14.8247 67.7091 15.6238C52.7411 16.4229 34.554 28.4096 38.0951 43.9113C41.6363 59.413 52.2585 57.6555 52.2585 57.6555Z" fill="#419341"/>
<path d="M34.3607 60.8324C40.8644 62.3222 47.4602 64.3801 59.7261 58.8215C51.747 54.2097 47.6982 53.9733 46.7462 51.845C45.7942 49.7166 43.4115 41.4382 35.552 41.4382C27.6926 41.4382 26.2632 48.77 26.9772 53.3818C27.6913 57.9937 32.813 60.4772 34.3607 60.8324Z" fill="#FFF8BA"/>
<path d="M37.7164 50.0274C38.235 50.0274 38.6553 49.2131 38.6553 48.2085C38.6553 47.204 38.235 46.3896 37.7164 46.3896C37.1979 46.3896 36.7776 47.204 36.7776 48.2085C36.7776 49.2131 37.1979 50.0274 37.7164 50.0274Z" fill="#403F4C"/>
<path d="M32.6933 49.6501C33.2119 49.6501 33.6322 48.8358 33.6322 47.8312C33.6322 46.8267 33.2119 46.0123 32.6933 46.0123C32.1748 46.0123 31.7545 46.8267 31.7545 47.8312C31.7545 48.8358 32.1748 49.6501 32.6933 49.6501Z" fill="#403F4C"/>
<path d="M34.5 51C34.7761 51 35 50.7761 35 50.5C35 50.2239 34.7761 50 34.5 50C34.2239 50 34 50.2239 34 50.5C34 50.7761 34.2239 51 34.5 51Z" fill="#403F4C"/>
<path d="M44.1676 36.7938C47.0289 33.0985 50.269 29.6409 54.0166 26.8153C57.8194 23.9479 62.1482 21.7517 66.8202 20.6979C69.4659 20.1012 72.1931 19.891 74.8966 20.1352C75.3056 20.1717 75.303 19.5384 74.8966 19.5019C69.9735 19.0592 65.0187 20.1299 60.5466 22.159C56.1836 24.1385 52.3058 27.0608 48.9251 30.4178C47.0171 32.3125 45.2629 34.352 43.6179 36.4752C43.5127 36.6123 43.5982 36.829 43.7323 36.9087C43.8954 37.0053 44.0637 36.9296 44.1689 36.7951L44.1676 36.7938Z" fill="#306D30"/>
<path d="M55.7681 41.5728C58.3677 38.7459 61.2974 36.2219 64.4849 34.0661C67.6697 31.9116 71.103 30.1123 74.6994 28.7361C76.7271 27.9605 78.8047 27.3167 80.9178 26.8101C81.3162 26.7148 81.1479 26.1037 80.7482 26.199C76.9467 27.1104 73.2582 28.4697 69.771 30.2259C66.31 31.9704 63.0542 34.1105 60.0811 36.5875C58.394 37.9925 56.8029 39.5097 55.3184 41.1236C55.0422 41.4239 55.4919 41.8731 55.7694 41.5715L55.7681 41.5728Z" fill="#306D30"/>
<path d="M65.4185 48.83C68.1694 46.656 71.0452 44.6412 74.0275 42.7936C77.019 40.9407 80.117 39.2563 83.3018 37.7521C85.0902 36.9073 86.9074 36.1213 88.747 35.3927C89.1231 35.2438 88.96 34.6314 88.5774 34.7816C85.2611 36.0938 82.0184 37.5889 78.8744 39.2681C75.7303 40.9473 72.7046 42.7936 69.7841 44.8136C68.1404 45.9509 66.5336 47.143 64.9662 48.3808C64.6453 48.6342 65.099 49.0794 65.4172 48.8287L65.4185 48.83Z" fill="#306D30"/>
<path d="M46.1334 29.9491C50.5359 29.3537 55.0554 29.893 59.2422 31.341C63.4342 32.7917 67.3107 35.1695 70.4666 38.2745C72.2326 40.0124 73.7618 41.9763 74.994 44.1216C75.1978 44.4755 75.7487 44.1569 75.5449 43.8017C73.2937 39.8832 70.0603 36.5705 66.2719 34.0909C62.4756 31.6061 58.1126 29.9517 53.6037 29.3432C51.0658 29.0011 48.5017 28.9933 45.9625 29.3367C45.7902 29.3602 45.6995 29.577 45.7403 29.7258C45.7889 29.9086 45.9625 29.97 46.1321 29.9465L46.1334 29.9491Z" fill="#306D30"/>
<path d="M56.2493 22.0454C60.6742 22.1146 65.0516 23.2441 68.9978 25.2197C72.9518 27.1992 76.4785 30.0052 79.2557 33.4328C80.8205 35.3639 82.1289 37.5001 83.1361 39.7669C83.3018 40.139 83.8515 39.8165 83.6871 39.447C81.8619 35.3417 79.0387 31.7 75.5949 28.8039C72.155 25.9117 68.101 23.735 63.7617 22.5142C61.3198 21.8273 58.7872 21.45 56.2493 21.4108C55.8391 21.4043 55.8391 22.0376 56.2493 22.0441V22.0454Z" fill="#306D30"/>
<path d="M61.5105 54.5805C59.9536 56.6671 55.7128 64.0315 69.9472 68.1654C84.1802 72.2994 106.985 59.1467 112.375 53.7292C117.765 48.3117 108.09 50.8239 101.482 52.0291C94.8747 53.2343 84.9863 55.4541 77.7685 50.4244C72.3088 46.6207 63.0148 52.5645 61.5105 54.5805Z" fill="#E5DC80"/>
</g>
<defs>
<clipPath id="clip0_491_117">
<rect width="101" height="60" fill="white" transform="translate(14 10)"/>
</clipPath>
</defs>
</svg>
