<svg width="101" height="60" viewBox="0 0 101 60" fill="none" xmlns="http://www.w3.org/2000/svg">
<g clip-path="url(#clip0_491_81)">
<path d="M52.1928 1.04459C52.4255 1.04459 52.6688 1.06548 52.9226 1.10727C56.8753 1.77058 53.8812 4.76595 58.5229 4.76595C59.1633 4.76595 59.9496 4.70849 60.9201 4.58053C61.7288 4.47346 62.4204 4.42384 63.0109 4.42384C66.2824 4.42384 66.4179 5.95156 65.7275 7.76131C67.6171 8.48338 69.4567 9.36998 71.1662 10.3976C73.1623 9.87791 75.424 9.13103 77.9474 8.09297C78.4549 7.88405 78.8442 7.79004 79.1335 7.79004C81.077 7.79004 78.4852 12.0441 76.4181 14.4663C78.2735 16.3518 79.6713 18.471 80.3748 20.7521C80.7114 20.7404 81.0441 20.7338 81.3715 20.7338C85.0836 20.7338 88.0159 21.5799 85.7595 26.1474C82.4445 32.855 89.3611 30.2305 89.6399 34.4911C89.7846 36.7043 87.127 37.4838 83.4965 37.4838C80.5812 37.4838 77.0387 36.9811 73.8171 36.3178C71.2017 38.5219 68.7072 40.3539 66.3377 41.875C69.1438 43.1351 72.2089 43.5686 75.253 43.5686C79.6581 43.5686 84.0211 42.6598 87.4821 42.0278C90.9812 41.3893 95.3402 40.3852 97.8662 40.3852C100.111 40.3852 100.91 41.1791 98.3751 43.7279C93.6978 48.4298 75.9066 58.9554 61.9812 58.9554C59.8602 58.9554 57.8273 58.7112 55.9456 58.1641C47.1552 55.6114 45.4116 51.8261 45.7298 48.8137C45.7232 48.8137 45.7179 48.8137 45.7114 48.8137C45.7166 48.8163 45.7206 48.819 45.7245 48.8216C39.6113 51.591 34.9077 52.4698 30.9208 52.4698C26.9339 52.4698 23.6215 51.5793 20.3591 50.8324C18.893 50.4968 14.2236 48.2497 13.1269 44.0948C12.6627 44.164 12.1893 44.2032 11.7028 44.2032C10.0144 44.2032 8.18664 43.7383 6.17213 42.5122C-1.65708 37.3846 -3.45593 20.6581 22.4933 9.56976C22.7537 9.45877 23.0074 9.33342 23.2507 9.18979C25.4861 7.86969 28.4816 6.43337 30.1147 6.43337C31.3876 6.43337 31.8347 7.30561 30.4501 9.78782C30.2449 10.1678 30.0358 10.378 29.8176 10.7462C25.9332 16.9407 17.4662 24.7973 23.757 28.0995C24.9759 17.4447 36.2332 9.23418 47.5628 6.53392C48.2124 3.55553 49.6076 1.04459 52.1928 1.04459ZM52.1928 0C50.6608 0 49.3183 0.70771 48.3097 2.0474C47.618 2.96664 47.0723 4.18489 46.6871 5.67474C40.9223 7.14892 35.439 9.92753 31.1851 13.5405C26.8076 17.2579 24.0094 21.5995 23.0088 26.1918C22.8155 25.9359 22.6866 25.6591 22.6182 25.3588C22.0896 23.0385 24.9799 19.1813 27.5296 15.7799C28.6486 14.2874 29.8044 12.744 30.7117 11.2986C30.717 11.2907 30.7209 11.2842 30.7249 11.2764C30.7998 11.1497 30.8761 11.0439 30.9655 10.9212C31.0904 10.7488 31.2311 10.553 31.3745 10.2892C32.6947 7.92061 32.408 6.90605 32.0767 6.34981C31.8163 5.91238 31.2653 5.39009 30.1147 5.39009C27.8728 5.39009 24.1909 7.42051 22.7129 8.29405C22.5222 8.40635 22.3079 8.51342 22.0765 8.61265C14.9336 11.6655 9.3885 15.3385 5.5975 19.5312C2.32853 23.1468 0.412652 27.1515 0.0589301 31.1131C-0.390783 36.152 1.73155 40.8553 5.59487 43.3845C5.60407 43.391 5.61459 43.3962 5.6238 43.4028C7.66197 44.6445 9.65149 45.2478 11.7041 45.2478C11.9316 45.2478 12.1617 45.2399 12.3932 45.2243C12.9047 46.5378 13.929 48.187 15.9685 49.7264C17.507 50.8886 19.1638 51.6302 20.1238 51.8496C20.4959 51.9344 20.868 52.0219 21.2428 52.1094C24.1948 52.8002 27.2468 53.5144 30.9221 53.5144C35.2049 53.5144 39.727 52.4972 44.7054 50.408C44.9 51.8352 45.5483 53.1592 46.6424 54.3618C48.4399 56.3361 51.4709 57.9526 55.6511 59.1669C57.5538 59.7193 59.684 60 61.9812 60C65.337 60 69.103 59.4085 73.1754 58.2412C76.685 57.2358 80.3603 55.8242 84.0987 54.0471C91.2902 50.6287 96.8261 46.7703 99.122 44.4617C100.217 43.361 101.405 41.9312 100.862 40.6411C100.315 39.3406 98.4711 39.3406 97.8649 39.3406C95.8281 39.3406 92.7879 39.936 89.8477 40.5118C88.9509 40.6868 88.104 40.8526 87.2901 41.0015C86.9166 41.0694 86.534 41.1412 86.1421 41.2143C82.9994 41.798 79.0874 42.5253 75.253 42.5253C72.7586 42.5253 70.5679 42.2276 68.6125 41.6191C70.4351 40.3656 72.2747 38.9659 74.1051 37.4434C76.7061 37.9617 80.2919 38.5297 83.4951 38.5297C86.6984 38.5297 88.7576 37.9657 89.8529 36.8049C90.4591 36.1624 90.7484 35.3398 90.6879 34.4245C90.5314 32.0428 88.7905 31.2333 87.5176 30.6418C86.6629 30.2448 86.1329 29.9719 85.9765 29.5293C85.8397 29.1428 85.8542 28.3228 86.7023 26.607C87.7451 24.4957 87.8805 22.8765 87.1152 21.6557C86.0212 19.9112 83.4702 19.6879 81.3715 19.6879C81.29 19.6879 81.2071 19.6879 81.123 19.6879C80.4379 17.8586 79.3281 16.0906 77.8132 14.414C78.5707 13.4491 79.2965 12.3784 79.8317 11.4265C80.8232 9.66116 81.0927 8.50297 80.7048 7.67121C80.43 7.08102 79.858 6.74283 79.1348 6.74283C78.6916 6.74283 78.1709 6.86819 77.5463 7.12542C75.3766 8.01724 73.2846 8.73931 71.324 9.27205C69.963 8.47816 68.5192 7.76653 67.0162 7.14631C67.17 6.43337 67.2055 5.50891 66.6638 4.72939C66.0313 3.82059 64.8373 3.37795 63.0122 3.37795C62.3652 3.37795 61.6144 3.43409 60.782 3.54377C59.8971 3.66129 59.137 3.72005 58.5229 3.72005C57.4591 3.72005 57.0015 3.54639 56.8056 3.40014C56.6281 3.26826 56.5413 3.05935 56.3927 2.67024C56.06 1.80192 55.5551 0.488346 53.0974 0.0757328C52.7911 0.0261148 52.486 0 52.1928 0Z" fill="#403F4C"/>
<path d="M67.5594 11.1458C70.2801 10.7436 73.7568 9.81652 77.9489 8.09294C82.1409 6.36937 78.3236 12.4567 75.9265 15.0199C73.5293 17.5831 67.5594 11.1458 67.5594 11.1458Z" fill="#E5DC80"/>
<path d="M47.0909 11.2254C47.0909 6.54433 48.4243 0.35252 52.9227 1.10724C57.4212 1.86195 52.9227 5.63815 60.9203 4.5805C68.9178 3.52285 65.5857 8.05377 64.0854 11.0739C62.5863 14.0941 47.0909 11.2254 47.0909 11.2254Z" fill="#E5DC80"/>
<path d="M72.3788 36.0057C79.8136 37.6967 89.9176 38.753 89.6389 34.4924C89.3601 30.2318 82.4448 32.855 85.7585 26.1487C89.0734 19.4411 81.1969 20.7586 76.0936 20.9963C70.9903 21.2339 72.3775 36.007 72.3775 36.007L72.3788 36.0057Z" fill="#E5DC80"/>
<path d="M30.4517 9.78647C30.2465 10.1664 30.0375 10.3767 29.8192 10.7449C25.4982 17.6379 15.502 26.5874 26.4739 29.0318C37.4472 31.4761 30.5437 31.8443 30.5437 31.8443L18.9051 41.8659C15.3823 43.7422 11.4033 45.6969 6.17505 42.5109C-1.65679 37.3846 -3.45564 20.658 22.4936 9.56972C22.7539 9.45873 23.0077 9.33338 23.251 9.18975C27.2287 6.84072 33.6115 4.12217 30.4503 9.78647H30.4517Z" fill="#E5DC80"/>
<path d="M38.2584 47.6555C41.96 48.7745 54.6743 52.4502 73.8278 36.3086C92.9801 20.1671 68.6772 4.82467 53.7091 5.62378C38.741 6.42289 20.5539 18.4096 24.0951 33.9113C27.6363 49.413 38.2584 47.6555 38.2584 47.6555Z" fill="#419341"/>
<path d="M20.3607 50.8324C26.8645 52.3222 33.4603 54.3801 45.7261 48.8215C37.747 44.2097 33.6983 43.9733 32.7462 41.845C31.7942 39.7166 29.4115 31.4382 21.5521 31.4382C13.6926 31.4382 12.2633 38.77 12.9773 43.3818C13.6913 47.9937 18.813 50.4772 20.3607 50.8324Z" fill="#FFF8BA"/>
<path d="M23.7165 40.0274C24.235 40.0274 24.6553 39.2131 24.6553 38.2085C24.6553 37.204 24.235 36.3896 23.7165 36.3896C23.1979 36.3896 22.7776 37.204 22.7776 38.2085C22.7776 39.2131 23.1979 40.0274 23.7165 40.0274Z" fill="#403F4C"/>
<path d="M18.6933 39.6501C19.2118 39.6501 19.6321 38.8358 19.6321 37.8312C19.6321 36.8267 19.2118 36.0123 18.6933 36.0123C18.1747 36.0123 17.7544 36.8267 17.7544 37.8312C17.7544 38.8358 18.1747 39.6501 18.6933 39.6501Z" fill="#403F4C"/>
<path d="M20.5 41C20.7761 41 21 40.7761 21 40.5C21 40.2239 20.7761 40 20.5 40C20.2239 40 20 40.2239 20 40.5C20 40.7761 20.2239 41 20.5 41Z" fill="#403F4C"/>
<path d="M30.1675 26.7938C33.0289 23.0985 36.2689 19.6409 40.0165 16.8153C43.8194 13.9479 48.1482 11.7517 52.8202 10.6979C55.4659 10.1012 58.1931 9.89098 60.8966 10.1352C61.3056 10.1717 61.3029 9.53843 60.8966 9.50187C55.9734 9.05922 51.0187 10.1299 46.5466 12.159C42.1836 14.1385 38.3058 17.0608 34.925 20.4178C33.017 22.3125 31.2629 24.352 29.6179 26.4752C29.5127 26.6123 29.5982 26.829 29.7323 26.9087C29.8954 27.0053 30.0637 26.9296 30.1689 26.7951L30.1675 26.7938Z" fill="#306D30"/>
<path d="M41.7681 31.5728C44.3677 28.7459 47.2974 26.2219 50.4849 24.0661C53.6697 21.9116 57.103 20.1123 60.6994 18.7361C62.7271 17.9605 64.8047 17.3167 66.9178 16.8101C67.3162 16.7148 67.1479 16.1037 66.7482 16.199C62.9467 17.1104 59.2582 18.4697 55.771 20.2259C52.31 21.9704 49.0542 24.1105 46.0811 26.5875C44.394 27.9925 42.8029 29.5097 41.3184 31.1236C41.0422 31.4239 41.4919 31.8731 41.7694 31.5715L41.7681 31.5728Z" fill="#306D30"/>
<path d="M51.4185 38.83C54.1694 36.656 57.0452 34.6412 60.0275 32.7936C63.019 30.9407 66.1171 29.2563 69.3019 27.7521C71.0902 26.9073 72.9075 26.1213 74.7471 25.3927C75.1232 25.2438 74.9601 24.6314 74.5774 24.7816C71.2611 26.0938 68.0185 27.5889 64.8744 29.2681C61.7304 30.9473 58.7047 32.7936 55.7842 34.8136C54.1405 35.9509 52.5336 37.143 50.9662 38.3808C50.6454 38.6342 51.099 39.0794 51.4172 38.8287L51.4185 38.83Z" fill="#306D30"/>
<path d="M32.1334 19.9491C36.5359 19.3537 41.0554 19.893 45.2422 21.341C49.4342 22.7917 53.3107 25.1695 56.4666 28.2745C58.2326 30.0124 59.7618 31.9763 60.994 34.1216C61.1978 34.4755 61.7487 34.1569 61.5449 33.8017C59.2937 29.8832 56.0603 26.5705 52.2719 24.0909C48.4756 21.6061 44.1126 19.9517 39.6037 19.3432C37.0658 19.0011 34.5017 18.9933 31.9625 19.3367C31.7902 19.3602 31.6995 19.577 31.7403 19.7258C31.7889 19.9086 31.9625 19.97 32.1321 19.9465L32.1334 19.9491Z" fill="#306D30"/>
<path d="M42.2493 12.0454C46.6742 12.1146 51.0516 13.2441 54.9978 15.2197C58.9518 17.1992 62.4785 20.0052 65.2557 23.4328C66.8205 25.3639 68.1289 27.5001 69.1361 29.7669C69.3018 30.139 69.8515 29.8165 69.6871 29.447C67.8619 25.3417 65.0387 21.7 61.5949 18.8039C58.155 15.9117 54.101 13.735 49.7617 12.5142C47.3198 11.8273 44.7872 11.45 42.2493 11.4108C41.8391 11.4043 41.8391 12.0376 42.2493 12.0441V12.0454Z" fill="#306D30"/>
<path d="M47.5104 44.5805C45.9535 46.6671 41.7128 54.0315 55.9471 58.1654C70.1802 62.2994 92.9853 49.1467 98.3753 43.7292C103.765 38.3117 94.0899 40.8239 87.4823 42.0291C80.8746 43.2343 70.9862 45.4541 63.7685 40.4244C58.3088 36.6207 49.0147 42.5645 47.5104 44.5805Z" fill="#E5DC80"/>
</g>
<defs>
<clipPath id="clip0_491_81">
<rect width="101" height="60" fill="white"/>
</clipPath>
</defs>
</svg>
