<svg width="85" height="60" viewBox="0 0 85 60" fill="none" xmlns="http://www.w3.org/2000/svg">
<g clip-path="url(#clip0_488_989)">
<path d="M37.8993 1.53066C44.2941 1.53066 46.4775 10.3052 46.4775 10.3052C46.0249 9.8345 43.033 5.91026 39.312 5.91026C36.8161 5.91026 33.9908 7.67818 31.3833 13.4392C43.317 14.2084 51.2703 23.2029 53.8476 28.6865C56.8736 35.1229 56.1237 39.9445 63.9085 39.9445C64.6641 39.9445 65.4992 39.8986 66.4252 39.8048C67.6238 39.6843 68.6407 39.5867 69.5004 39.514C63.0469 36.2786 68.9153 26.7081 69.5251 26.7081C69.5326 26.7081 69.5383 26.7081 69.5459 26.712C76.9652 30.3702 76.3346 34.6427 74.28 38.5401C74.9219 38.4464 75.5601 38.3909 76.1831 38.3909C79.6258 38.3909 82.6291 40.1167 83.485 46.932C83.5153 47.1769 81.2638 47.858 78.696 47.858C75.4484 47.858 71.6971 46.7674 71.4263 42.319C71.0059 42.7743 70.5514 43.2871 70.0931 43.8649C69.4304 44.703 68.4135 45.6673 67.0595 46.6813C64.8837 48.3096 61.8312 50.0622 57.9587 51.6158C58.0874 54.1701 57.8204 57.1185 56.226 58.4693C56.2052 58.4693 56.1824 58.4693 56.1616 58.4693C53.768 58.4693 50.689 56.7665 47.8807 54.6389C43.2773 55.6108 38.0338 56.2193 32.1862 56.2193C11.0493 56.2193 2.66427 56.0432 1.6152 44.393C1.53945 43.5588 1.494 42.4911 1.5243 41.2551C1.70041 33.8869 4.57496 20.5338 20.1331 15.0923C23.5512 13.8965 26.759 13.3837 29.7358 13.3837C30.0388 13.3837 30.3418 13.3895 30.641 13.399C28.0391 7.6667 25.2214 5.90835 22.7293 5.90835C19.0083 5.90835 16.0164 9.83258 15.5638 10.3033C15.5638 10.3033 17.7453 1.52875 24.142 1.52875C24.4128 1.52875 24.693 1.54405 24.979 1.57658C28.522 1.98412 30.2869 4.20549 31.0216 6.89371C31.7563 4.20549 33.5212 1.98412 37.0642 1.57658C37.3502 1.54405 37.6285 1.52875 37.9012 1.52875M37.8993 0C37.5679 0 37.229 0.0191333 36.8919 0.0593131C34.8941 0.288912 33.2277 1.03511 31.9419 2.27686C31.6067 2.60021 31.3 2.95609 31.0216 3.34258C30.7432 2.95609 30.4365 2.60021 30.1013 2.27686C28.8155 1.03511 27.1491 0.288912 25.1513 0.0593131C24.8104 0.0191333 24.4715 0 24.142 0C20.9758 0 18.2168 1.76791 16.166 5.11049C14.7135 7.47919 14.1189 9.83258 14.0943 9.93016C13.9277 10.6017 14.2269 11.302 14.8253 11.6407C15.0563 11.7708 15.31 11.8339 15.5638 11.8339C15.9633 11.8339 16.3572 11.6751 16.6507 11.3709C16.7227 11.2963 16.8022 11.2044 16.9121 11.0762C19.0045 8.66354 20.9626 7.43901 22.7293 7.43901C24.9752 7.43901 26.8177 9.55324 28.1717 11.8971C25.3672 12.0559 22.5021 12.6433 19.637 13.6458C2.37455 19.6862 0.160876 34.9412 0.00938494 41.2188C-0.0190197 42.3744 0.0150659 43.5205 0.105961 44.5327C0.674054 50.8562 3.39522 54.4361 8.92466 56.1389C13.9012 57.6715 21.0061 57.7499 32.1862 57.7499C37.496 57.7499 42.6524 57.2544 47.5247 56.2748C49.9789 58.0618 53.2984 60 56.1616 60C56.19 60 56.2184 60 56.2449 60C56.5934 59.9962 56.9304 59.8699 57.1974 59.6422C58.7408 58.3354 59.5134 55.9801 59.502 52.6318C62.7572 51.2504 65.6658 49.6279 67.9609 47.9097C69.0498 47.0946 69.989 46.2642 70.7162 45.474C71.2691 46.5455 72.0928 47.4218 73.1722 48.0704C74.6246 48.9448 76.4842 49.3868 78.6979 49.3868C79.853 49.3868 81.0971 49.2567 82.203 49.0213C84.0493 48.6272 84.4224 48.2005 84.6004 47.9939C84.9033 47.6457 85.0454 47.1865 84.9886 46.7368C84.5417 43.1876 83.521 40.662 81.8678 39.0146C80.5309 37.683 78.7793 36.9616 76.6584 36.8698C77.1583 35.3506 77.4007 33.5751 76.8099 31.7363C76.0032 29.2241 73.8445 27.131 70.2087 25.3382C69.9985 25.2349 69.7599 25.1794 69.5232 25.1794C68.779 25.1794 68.0897 25.5907 66.9611 27.6361C66.5274 28.4206 65.7359 30.0201 65.2966 31.9143C64.7057 34.4552 64.9443 36.6345 65.9574 38.3144C65.2151 38.3813 64.5277 38.4158 63.9085 38.4158C59.0532 38.4158 58.398 36.5522 56.9645 32.4672C56.4987 31.1413 55.9722 29.6393 55.2148 28.0302C53.5957 24.5882 50.5489 20.8725 47.0608 18.0943C43.0614 14.9067 38.4901 12.8767 33.7238 12.1554C35.091 9.70822 36.9847 7.44284 39.3101 7.44284C41.0787 7.44284 43.0368 8.66737 45.1273 11.0801C45.2372 11.2064 45.3167 11.2982 45.3887 11.3747C45.6822 11.6789 46.0761 11.8378 46.4756 11.8378C46.7275 11.8378 46.9812 11.7746 47.2141 11.6445C47.8125 11.3078 48.1117 10.6056 47.9451 9.93399C47.9205 9.8345 47.3259 7.48302 45.8734 5.11432C43.8226 1.76791 41.0655 0 37.8993 0Z" fill="#403F4C"/>
<path d="M40.0412 46.9606C35.9054 45.7475 33.7713 45.3438 30.1715 42.3782C14.28 47.9919 5.42724 43.8782 1.52634 41.257C1.49604 42.493 1.54149 43.5606 1.61723 44.3948C2.66631 56.0451 11.0514 56.2211 32.1882 56.2211C49.3143 56.2211 61.2784 51.0073 67.0616 46.6812C54.3666 50.7432 43.7394 48.0454 40.0431 46.9606H40.0412Z" fill="#A8F5FF"/>
<path d="M74.2802 38.5401C76.3348 34.6426 76.9654 30.3721 69.5461 26.7119C69.0614 26.4727 62.9676 36.2383 69.5007 39.514C68.6429 39.5867 67.626 39.6842 66.4254 39.8048C55.9441 40.8648 57.1674 35.7447 53.8478 28.6845C50.5283 21.6244 38.301 8.74002 20.1315 15.0942C4.5752 20.5357 1.70065 33.8888 1.52454 41.257C5.42544 43.8783 14.2782 47.9919 30.1697 42.3782C33.7714 45.3439 35.9055 45.7476 40.0394 46.9606C43.7358 48.0455 54.3629 50.7433 67.0579 46.6813C68.4118 45.6672 69.4287 44.7029 70.0915 43.8649C70.5498 43.287 71.0023 42.7743 71.4246 42.3189C71.9113 50.2841 83.5534 47.4849 83.4833 46.9319C82.4721 38.8826 78.4652 37.9335 74.2783 38.5401H74.2802Z" fill="#00B4ED"/>
<path d="M34.2408 41.6378C35.9026 41.6378 37.2498 40.2766 37.2498 38.5975C37.2498 36.9184 35.9026 35.5573 34.2408 35.5573C32.579 35.5573 31.2318 36.9184 31.2318 38.5975C31.2318 40.2766 32.579 41.6378 34.2408 41.6378Z" fill="#403F4C"/>
<path d="M37.0624 1.57854C33.5194 1.98608 31.7546 4.20745 31.0198 6.89568C30.2851 4.20745 28.5202 1.98608 24.9772 1.57854C17.9347 0.769207 15.562 10.3033 15.562 10.3033C16.3308 9.50545 24.4205 -1.25318 30.9706 14.1548C30.9801 14.2046 30.9895 14.2562 31.0009 14.306C31.0066 14.2926 31.0123 14.2792 31.0179 14.2658C31.0236 14.2792 31.0293 14.2926 31.035 14.306C31.0463 14.2562 31.0558 14.2046 31.0653 14.1548C37.6154 -1.25318 45.705 9.50545 46.4739 10.3033C46.4739 10.3033 44.103 0.769207 37.0587 1.57854H37.0624Z" fill="#7DBDF9"/>
<path d="M40.4236 46.3733C39.0166 46.9148 49.9997 58.5497 56.2241 58.4674C59.1763 55.9686 57.58 47.9843 57.3414 47.1788C57.1028 46.3733 42.0995 45.7266 40.4236 46.3733Z" fill="#00B4ED"/>
<path d="M22.1329 56.0164C21.0497 55.7428 17.5218 49.8249 17.2491 49.0902L17.4271 49.0232C17.715 49.7981 21.2296 55.5916 22.1802 55.8308L22.1347 56.0164H22.1329Z" fill="#00B4ED"/>
<path d="M27.5544 56.0164C26.4712 55.7428 22.9433 49.8249 22.6707 49.0902L22.8487 49.0232C23.1365 49.7981 26.6511 55.5916 27.6017 55.8308L27.5563 56.0164H27.5544Z" fill="#00B4ED"/>
<path d="M32.4571 56.0164C31.3739 55.7428 27.846 49.8249 27.5734 49.0902L27.7514 49.0232C28.0392 49.7981 31.5538 55.5916 32.5044 55.8308L32.459 56.0164H32.4571Z" fill="#00B4ED"/>
</g>
<defs>
<clipPath id="clip0_488_989">
<rect width="85" height="60" fill="white"/>
</clipPath>
</defs>
</svg>
