<svg width="130" height="80" viewBox="0 0 130 80" fill="none" xmlns="http://www.w3.org/2000/svg">
<mask id="mask0_488_1013" style="mask-type:alpha" maskUnits="userSpaceOnUse" x="0" y="0" width="130" height="80">
<rect width="130" height="80" fill="#D9D9D9"/>
</mask>
<g mask="url(#mask0_488_1013)">
</g>
<g clip-path="url(#clip0_488_1013)">
<path d="M60.8993 11.5307C67.2941 11.5307 69.4775 20.3052 69.4775 20.3052C69.0249 19.8345 66.0329 15.9103 62.3119 15.9103C59.8161 15.9103 56.9908 17.6782 54.3832 23.4392C66.317 24.2084 74.2703 33.2029 76.8475 38.6865C79.8736 45.1229 79.1237 49.9445 86.9085 49.9445C87.664 49.9445 88.4991 49.8986 89.4251 49.8048C90.6238 49.6843 91.6407 49.5867 92.5004 49.514C86.0469 46.2786 91.9153 36.7081 92.525 36.7081C92.5326 36.7081 92.5383 36.7081 92.5459 36.712C99.9652 40.3702 99.3346 44.6427 97.28 48.5401C97.9219 48.4464 98.5601 48.3909 99.1831 48.3909C102.626 48.3909 105.629 50.1167 106.485 56.932C106.515 57.1769 104.264 57.858 101.696 57.858C98.4483 57.858 94.697 56.7674 94.4262 52.319C94.0059 52.7743 93.5514 53.2871 93.0931 53.8649C92.4303 54.703 91.4135 55.6673 90.0595 56.6813C87.8837 58.3096 84.8312 60.0622 80.9587 61.6158C81.0874 64.1701 80.8204 67.1185 79.226 68.4693C79.2051 68.4693 79.1824 68.4693 79.1616 68.4693C76.768 68.4693 73.6889 66.7665 70.8807 64.6389C66.2772 65.6108 61.0337 66.2193 55.1862 66.2193C34.0493 66.2193 25.6642 66.0432 24.6152 54.393C24.5394 53.5588 24.494 52.4911 24.5243 51.2551C24.7004 43.8869 27.5749 30.5338 43.1331 25.0923C46.5511 23.8965 49.759 23.3837 52.7358 23.3837C53.0388 23.3837 53.3417 23.3895 53.6409 23.399C51.0391 17.6667 48.2213 15.9084 45.7293 15.9084C42.0083 15.9084 39.0163 19.8326 38.5637 20.3033C38.5637 20.3033 40.7452 11.5287 47.142 11.5287C47.4127 11.5287 47.693 11.5441 47.9789 11.5766C51.522 11.9841 53.2868 14.2055 54.0216 16.8937C54.7563 14.2055 56.5212 11.9841 60.0642 11.5766C60.3501 11.5441 60.6285 11.5287 60.9012 11.5287M60.8993 10C60.5679 10 60.2289 10.0191 59.8919 10.0593C57.8941 10.2889 56.2277 11.0351 54.9419 12.2769C54.6067 12.6002 54.2999 12.9561 54.0216 13.3426C53.7432 12.9561 53.4364 12.6002 53.1013 12.2769C51.8155 11.0351 50.1491 10.2889 48.1513 10.0593C47.8104 10.0191 47.4714 10 47.142 10C43.9758 10 41.2167 11.7679 39.1659 15.1105C37.7135 17.4792 37.1189 19.8326 37.0943 19.9302C36.9276 20.6017 37.2268 21.302 37.8252 21.6407C38.0563 21.7708 38.31 21.8339 38.5637 21.8339C38.9633 21.8339 39.3572 21.6751 39.6507 21.3709C39.7227 21.2963 39.8022 21.2044 39.912 21.0762C42.0045 18.6635 43.9625 17.439 45.7293 17.439C47.9752 17.439 49.8177 19.5532 51.1716 21.8971C48.3671 22.0559 45.5021 22.6433 42.637 23.6458C25.3745 29.6862 23.1608 44.9412 23.0094 51.2188C22.9809 52.3744 23.015 53.5205 23.1059 54.5327C23.674 60.8562 26.3952 64.4361 31.9246 66.1389C36.9011 67.6715 44.0061 67.7499 55.1862 67.7499C60.4959 67.7499 65.6523 67.2544 70.5247 66.2748C72.9788 68.0618 76.2984 70 79.1616 70C79.19 70 79.2184 70 79.2449 70C79.5933 69.9962 79.9304 69.8699 80.1974 69.6422C81.7407 68.3354 82.5133 65.9801 82.502 62.6318C85.7571 61.2504 88.6658 59.6279 90.9609 57.9097C92.0497 57.0946 92.989 56.2642 93.7161 55.474C94.2691 56.5455 95.0928 57.4218 96.1722 58.0704C97.6246 58.9448 99.4842 59.3868 101.698 59.3868C102.853 59.3868 104.097 59.2567 105.203 59.0213C107.049 58.6272 107.422 58.2005 107.6 57.9939C107.903 57.6457 108.045 57.1865 107.989 56.7368C107.542 53.1876 106.521 50.662 104.868 49.0146C103.531 47.683 101.779 46.9616 99.6584 46.8698C100.158 45.3506 100.401 43.5751 99.8099 41.7363C99.0032 39.2241 96.8444 37.131 93.2086 35.3382C92.9984 35.2349 92.7598 35.1794 92.5231 35.1794C91.7789 35.1794 91.0896 35.5907 89.961 37.6361C89.5274 38.4206 88.7358 40.0201 88.2965 41.9143C87.7057 44.4552 87.9443 46.6345 88.9574 48.3144C88.2151 48.3813 87.5277 48.4158 86.9085 48.4158C82.0532 48.4158 81.398 46.5522 79.9645 42.4672C79.4986 41.1413 78.9722 39.6393 78.2148 38.0302C76.5957 34.5882 73.5488 30.8725 70.0607 28.0943C66.0614 24.9067 61.4901 22.8767 56.7238 22.1554C58.091 19.7082 59.9846 17.4428 62.31 17.4428C64.0787 17.4428 66.0367 18.6674 68.1273 21.0801C68.2371 21.2064 68.3167 21.2982 68.3886 21.3747C68.6822 21.6789 69.076 21.8378 69.4756 21.8378C69.7274 21.8378 69.9812 21.7746 70.2141 21.6445C70.8125 21.3078 71.1117 20.6056 70.9451 19.934C70.9204 19.8345 70.3258 17.483 68.8734 15.1143C66.8226 11.7679 64.0655 10 60.8993 10Z" fill="#403F4C"/>
<path d="M63.0411 56.9606C58.9054 55.7475 56.7712 55.3438 53.1714 52.3782C37.28 57.9919 28.4272 53.8782 24.5263 51.257C24.496 52.493 24.5414 53.5606 24.6172 54.3948C25.6662 66.0451 34.0513 66.2211 55.1882 66.2211C72.3143 66.2211 84.2783 61.0073 90.0615 56.6812C77.3665 60.7432 66.7394 58.0454 63.043 56.9606H63.0411Z" fill="#A8F5FF"/>
<path d="M97.2802 48.5401C99.3348 44.6426 99.9654 40.3721 92.5461 36.7119C92.0613 36.4727 85.9675 46.2383 92.5006 49.514C91.6428 49.5867 90.6259 49.6842 89.4253 49.8048C78.944 50.8648 80.1673 45.7447 76.8477 38.6845C73.5282 31.6244 61.3009 18.74 43.1314 25.0942C27.5751 30.5357 24.7006 43.8888 24.5245 51.257C28.4254 53.8783 37.2782 57.9919 53.1696 52.3782C56.7713 55.3439 58.9055 55.7476 63.0393 56.9606C66.7357 58.0455 77.3628 60.7433 90.0578 56.6813C91.4118 55.6672 92.4287 54.7029 93.0914 53.8649C93.5497 53.287 94.0023 52.7743 94.4246 52.3189C94.9112 60.2841 106.553 57.4849 106.483 56.9319C105.472 48.8826 101.465 47.9335 97.2783 48.5401H97.2802Z" fill="#00B4ED"/>
<path d="M57.2409 51.6378C58.9027 51.6378 60.2499 50.2766 60.2499 48.5975C60.2499 46.9184 58.9027 45.5573 57.2409 45.5573C55.5791 45.5573 54.2319 46.9184 54.2319 48.5975C54.2319 50.2766 55.5791 51.6378 57.2409 51.6378Z" fill="#403F4C"/>
<path d="M60.0624 11.5785C56.5194 11.9861 54.7545 14.2075 54.0198 16.8957C53.285 14.2075 51.5202 11.9861 47.9772 11.5785C40.9347 10.7692 38.562 20.3033 38.562 20.3033C39.3308 19.5055 47.4204 8.74682 53.9705 24.1548C53.98 24.2046 53.9895 24.2562 54.0008 24.306C54.0065 24.2926 54.0122 24.2792 54.0179 24.2658C54.0236 24.2792 54.0293 24.2926 54.0349 24.306C54.0463 24.2562 54.0558 24.2046 54.0652 24.1548C60.6153 8.74682 68.705 19.5055 69.4738 20.3033C69.4738 20.3033 67.103 10.7692 60.0586 11.5785H60.0624Z" fill="#7DBDF9"/>
<path d="M63.4236 56.3733C62.0166 56.9148 72.9998 68.5497 79.2242 68.4674C82.1764 65.9686 80.58 57.9843 80.3414 57.1788C80.1028 56.3733 65.0995 55.7266 63.4236 56.3733Z" fill="#00B4ED"/>
<path d="M45.1329 66.0164C44.0498 65.7428 40.5219 59.8249 40.2492 59.0902L40.4272 59.0232C40.715 59.7981 44.2296 65.5916 45.1803 65.8308L45.1348 66.0164H45.1329Z" fill="#00B4ED"/>
<path d="M50.5544 66.0164C49.4713 65.7428 45.9434 59.8249 45.6707 59.0902L45.8487 59.0232C46.1365 59.7981 49.6511 65.5916 50.6018 65.8308L50.5563 66.0164H50.5544Z" fill="#00B4ED"/>
<path d="M55.4571 66.0164C54.3739 65.7428 50.846 59.8249 50.5733 59.0902L50.7514 59.0232C51.0392 59.7981 54.5538 65.5916 55.5044 65.8308L55.459 66.0164H55.4571Z" fill="#00B4ED"/>
</g>
<defs>
<clipPath id="clip0_488_1013">
<rect width="85" height="60" fill="white" transform="translate(23 10)"/>
</clipPath>
</defs>
</svg>
